<!-- Generator: Adobe Illustrator 22.0.1, SVG Export Plug-In  -->
<svg version="1.1"
	 xmlns="http://www.w3.org/2000/svg" xmlns:xlink="http://www.w3.org/1999/xlink" xmlns:a="http://ns.adobe.com/AdobeSVGViewerExtensions/3.0/"
	 x="0px" y="0px" width="17.763px" height="197.95px" viewBox="0 0 17.763 197.95"
	 style="enable-background:new 0 0 17.763 197.95;" xml:space="preserve">
<style type="text/css">
	.st0{fill:#FFF4EE;}
</style>
<defs>
</defs>
<g id="Mocaccino_1_">
	<path class="st0" d="M17.39,19.124h-2.543V2.646L9.53,13.858H8.015L2.735,2.646v16.478H0.359V0h3.468l5.1,10.648L13.858,0h3.531
		L17.39,19.124L17.39,19.124z"/>
	<path class="st0" d="M15.349,24.5c0.778,0.856,1.376,1.905,1.791,3.146c0.416,1.242,0.623,2.65,0.623,4.226
		c0,1.576-0.212,2.986-0.636,4.232s-1.017,2.284-1.778,3.115c-0.788,0.865-1.72,1.516-2.794,1.952s-2.301,0.655-3.68,0.655
		c-1.344,0-2.566-0.223-3.667-0.667c-1.1-0.445-2.035-1.092-2.806-1.939c-0.77-0.848-1.364-1.888-1.779-3.121
		C0.208,34.864,0,33.456,0,31.872c0-1.558,0.206-2.956,0.617-4.193s1.01-2.297,1.798-3.179c0.753-0.839,1.688-1.481,2.807-1.926
		c1.117-0.445,2.335-0.668,3.653-0.668c1.37,0,2.601,0.225,3.692,0.674C13.659,23.029,14.586,23.669,15.349,24.5z M15.117,31.872
		c0-2.483-0.557-4.399-1.67-5.747c-1.113-1.349-2.633-2.023-4.559-2.023c-1.943,0-3.47,0.674-4.578,2.023
		c-1.109,1.348-1.663,3.264-1.663,5.747c0,2.509,0.564,4.429,1.695,5.76c1.13,1.332,2.646,1.997,4.546,1.997
		c1.901,0,3.414-0.666,4.541-1.997C14.554,36.301,15.117,34.38,15.117,31.872z"/>
	<path class="st0" d="M17.031,62.344c-0.472,0.206-0.897,0.398-1.278,0.578c-0.381,0.18-0.88,0.368-1.496,0.565
		c-0.523,0.163-1.09,0.302-1.702,0.417c-0.612,0.116-1.286,0.173-2.023,0.173c-1.387,0-2.648-0.195-3.782-0.584
		c-1.135-0.389-2.121-1-2.961-1.83c-0.821-0.813-1.464-1.847-1.926-3.102C1.4,57.307,1.169,55.85,1.169,54.188
		c0-1.576,0.223-2.984,0.668-4.226s1.088-2.29,1.927-3.147c0.813-0.83,1.796-1.464,2.947-1.9c1.152-0.437,2.43-0.655,3.834-0.655
		c1.027,0,2.053,0.125,3.076,0.373c1.023,0.249,2.16,0.685,3.41,1.31v3.018h-0.193c-1.053-0.882-2.098-1.524-3.134-1.926
		c-1.035-0.402-2.145-0.604-3.326-0.604c-0.968,0-1.839,0.157-2.613,0.469c-0.775,0.313-1.467,0.799-2.074,1.458
		C5.1,49,4.639,49.811,4.309,50.791s-0.494,2.113-0.494,3.397c0,1.344,0.182,2.5,0.546,3.468c0.363,0.967,0.832,1.755,1.406,2.363
		c0.599,0.634,1.299,1.103,2.1,1.407s1.646,0.456,2.537,0.456c1.224,0,2.371-0.209,3.441-0.629c1.07-0.419,2.072-1.048,3.006-1.888
		h0.18V62.344z"/>
	<path class="st0" d="M17.531,86.034h-2.71l-1.875-5.33h-8.27L2.8,86.034H0.219L7.18,66.91h3.391L17.531,86.034z M12.163,78.521
		L8.81,69.132l-3.364,9.389H12.163z"/>
	<path class="st0" d="M17.031,106.95c-0.472,0.206-0.897,0.398-1.278,0.578c-0.381,0.18-0.88,0.368-1.496,0.565
		c-0.523,0.163-1.09,0.302-1.702,0.418s-1.286,0.173-2.023,0.173c-1.387,0-2.648-0.195-3.782-0.584c-1.135-0.389-2.121-1-2.961-1.83
		c-0.821-0.813-1.464-1.847-1.926-3.102c-0.463-1.254-0.694-2.712-0.694-4.373c0-1.576,0.223-2.984,0.668-4.226
		s1.088-2.29,1.927-3.147c0.813-0.83,1.796-1.464,2.947-1.9c1.152-0.437,2.43-0.655,3.834-0.655c1.027,0,2.053,0.125,3.076,0.373
		s2.16,0.685,3.41,1.31v3.018h-0.193c-1.053-0.882-2.098-1.524-3.134-1.926c-1.035-0.402-2.145-0.604-3.326-0.604
		c-0.968,0-1.839,0.157-2.613,0.469c-0.775,0.313-1.467,0.799-2.074,1.458C5.1,93.607,4.639,94.419,4.31,95.399
		c-0.33,0.98-0.494,2.113-0.494,3.397c0,1.344,0.182,2.5,0.546,3.468c0.363,0.967,0.832,1.755,1.406,2.363
		c0.599,0.634,1.299,1.103,2.1,1.407s1.646,0.455,2.537,0.455c1.224,0,2.371-0.209,3.441-0.629c1.07-0.419,2.072-1.048,3.006-1.888
		h0.18L17.031,106.95L17.031,106.95z"/>
	<path class="st0" d="M17.031,129.253c-0.472,0.206-0.897,0.398-1.278,0.578c-0.381,0.18-0.88,0.368-1.496,0.565
		c-0.523,0.163-1.09,0.302-1.702,0.417c-0.612,0.116-1.286,0.173-2.023,0.173c-1.387,0-2.648-0.195-3.782-0.584
		c-1.135-0.389-2.121-0.999-2.961-1.83c-0.821-0.813-1.464-1.847-1.926-3.102c-0.463-1.254-0.694-2.712-0.694-4.373
		c0-1.576,0.223-2.984,0.668-4.226s1.088-2.29,1.927-3.147c0.813-0.83,1.796-1.464,2.947-1.9c1.152-0.437,2.43-0.655,3.834-0.655
		c1.027,0,2.053,0.125,3.076,0.373c1.023,0.249,2.16,0.685,3.41,1.31v3.018h-0.193c-1.053-0.882-2.098-1.524-3.134-1.926
		c-1.035-0.402-2.145-0.604-3.326-0.604c-0.968,0-1.839,0.157-2.613,0.469c-0.775,0.313-1.467,0.799-2.074,1.458
		c-0.591,0.642-1.052,1.454-1.381,2.434c-0.33,0.98-0.494,2.113-0.494,3.397c0,1.344,0.182,2.5,0.546,3.468
		c0.363,0.967,0.832,1.755,1.406,2.363c0.599,0.634,1.299,1.102,2.1,1.407c0.801,0.304,1.646,0.456,2.537,0.456
		c1.224,0,2.371-0.21,3.441-0.629c1.07-0.419,2.072-1.048,3.006-1.888h0.18L17.031,129.253L17.031,129.253z"/>
	<path class="st0" d="M12.651,152.944H5.1v-1.952h2.504v-15.22H5.1v-1.952h7.552v1.952h-2.505v15.22h2.505v1.952H12.651z"/>
	<path class="st0" d="M16.196,175.248h-3.148L3.981,158.14v17.107H1.605v-19.124h3.943l8.271,15.618v-15.618h2.376L16.196,175.248
		L16.196,175.248z"/>
	<path class="st0" d="M15.349,180.623c0.778,0.856,1.376,1.905,1.791,3.147c0.416,1.242,0.623,2.65,0.623,4.226
		s-0.212,2.986-0.636,4.232s-1.017,2.284-1.778,3.115c-0.788,0.865-1.72,1.516-2.794,1.952c-1.074,0.436-2.301,0.655-3.68,0.655
		c-1.344,0-2.566-0.223-3.667-0.668c-1.1-0.445-2.035-1.092-2.806-1.939c-0.77-0.848-1.364-1.888-1.779-3.121
		C0.208,190.988,0,189.58,0,187.995c0-1.558,0.206-2.956,0.617-4.193s1.01-2.297,1.798-3.179c0.753-0.839,1.688-1.481,2.807-1.926
		c1.117-0.445,2.335-0.668,3.653-0.668c1.37,0,2.601,0.225,3.692,0.674C13.659,179.152,14.586,179.792,15.349,180.623z
		 M15.117,187.995c0-2.483-0.557-4.399-1.67-5.747c-1.113-1.349-2.633-2.023-4.559-2.023c-1.943,0-3.47,0.674-4.578,2.023
		c-1.109,1.348-1.663,3.264-1.663,5.747c0,2.509,0.564,4.429,1.695,5.76c1.13,1.332,2.646,1.998,4.546,1.998
		c1.901,0,3.414-0.666,4.541-1.998C14.554,192.424,15.117,190.504,15.117,187.995z"/>
</g>
</svg>