<!-- Generator: Adobe Illustrator 22.0.1, SVG Export Plug-In  -->
<svg version="1.1"
	 xmlns="http://www.w3.org/2000/svg" xmlns:xlink="http://www.w3.org/1999/xlink" xmlns:a="http://ns.adobe.com/AdobeSVGViewerExtensions/3.0/"
	 x="0px" y="0px" width="26.299px" height="245.464px" viewBox="0 0 26.299 245.464"
	 style="enable-background:new 0 0 26.299 245.464;" xml:space="preserve">
<style type="text/css">
	.st0{fill:#FFF4EE;}
</style>
<defs>
</defs>
<g id="Arabica_1_">
	<path class="st0" d="M16.824,0l8.502,30.54h-8.904l-1.812-6.623H5.415L3.468,30.54H0L9.038,0H16.824z M6.286,20.852h7.496
		L10.179,7.316L6.286,20.852z"/>
	<path class="st0" d="M0.86,66.36V35.82h13.133c3.415,0,6.146,0.72,8.189,2.159c2.044,1.439,3.065,3.367,3.065,5.783
		c0,3.699-2.192,6.108-6.577,7.226c2.253,0.836,3.71,1.753,4.374,2.752c0.663,0.999,1.115,2.938,1.354,5.816
		c0.284,3.431,0.857,5.698,1.722,6.802h-9.619c-0.612-1.417-0.917-3.185-0.917-5.302l-0.045-1.812l-0.045-2.282
		c0-3.52-1.418-5.28-4.252-5.28h-1.52V66.36H0.86z M9.721,49.155h1.79c3.355,0,5.034-1.752,5.034-5.258
		c0-3.505-1.679-5.258-5.034-5.258h-1.79V49.155z"/>
	<path class="st0" d="M16.824,71.641l8.502,30.54h-8.904l-1.812-6.623H5.415l-1.947,6.623H0l9.038-30.54H16.824z M6.286,92.493
		h7.496l-3.603-13.536L6.286,92.493z"/>
	<path class="st0" d="M0.928,138.001v-30.54h13.58c6.995,0,10.494,2.498,10.494,7.495c0,3.55-2.111,5.825-6.332,6.824
		c5.087,1.015,7.629,3.714,7.629,8.099c0,5.414-3.423,8.122-10.268,8.122H0.928z M9.787,120.752h2.731
		c2.519,0,3.781-1.864,3.781-5.594c0-3.445-1.335-5.168-4.006-5.168H9.787V120.752z M9.787,135.473h2.529
		c3.312,0,4.966-1.894,4.966-5.683c0-4.34-1.707-6.511-5.123-6.511H9.787V135.473z"/>
	<path class="st0" d="M17.126,143.283v30.54H8.267v-30.54L17.126,143.283L17.126,143.283z"/>
	<path class="st0" d="M21.835,197.383l3.782,0.984c0.059,0.775,0.089,1.447,0.089,2.014c0,2.968-1.075,5.34-3.222,7.115
		c-2.148,1.775-5.026,2.663-8.636,2.663c-9.053,0-13.58-5.094-13.58-15.282c0-4.832,1.32-8.751,3.959-11.757
		c2.64-3.005,6.078-4.508,10.315-4.508c6.607,0,9.911,3.178,9.911,9.531l-3.804,1.745c0.045-0.895,0.068-1.589,0.068-2.081
		c0-4.504-1.805-6.756-5.415-6.756c-3.819,0-5.728,4.78-5.728,14.341c0,8.219,2.134,12.328,6.399,12.328
		c1.761,0,3.225-0.701,4.397-2.103c1.17-1.402,1.756-3.154,1.756-5.258C22.127,199.687,22.029,198.696,21.835,197.383z"/>
	<path class="st0" d="M16.824,214.924l8.502,30.54h-8.904l-1.812-6.623H5.415l-1.947,6.623H0l9.038-30.54L16.824,214.924
		L16.824,214.924z M6.286,235.776h7.496l-3.603-13.536L6.286,235.776z"/>
</g>
</svg>