<!-- Generator: Adobe Illustrator 22.0.1, SVG Export Plug-In  -->
<svg version="1.1"
	 xmlns="http://www.w3.org/2000/svg" xmlns:xlink="http://www.w3.org/1999/xlink" xmlns:a="http://ns.adobe.com/AdobeSVGViewerExtensions/3.0/"
	 x="0px" y="0px" width="210.999px" height="46.436px" viewBox="0 0 210.999 46.436"
	 style="enable-background:new 0 0 210.999 46.436;" xml:space="preserve">
<style type="text/css">
	.st0{fill:#FFF4EE;}
</style>
<defs>
</defs>
<g id="Coffee_1_">
	<path class="st0" d="M31.703,27.658l5.558,1.447c0.087,1.14,0.131,2.126,0.131,2.959c0,4.363-1.578,7.849-4.735,10.458
		s-7.389,3.914-12.694,3.914C6.654,46.436,0,38.949,0,23.975c0-7.104,1.941-12.864,5.821-17.282
		c3.88-4.417,8.934-6.626,15.161-6.626c9.712,0,14.569,4.67,14.569,14.01l-5.591,2.565c0.066-1.315,0.099-2.335,0.099-3.058
		c0-6.621-2.653-9.932-7.958-9.932c-5.613,0-8.419,7.027-8.419,21.081c0,12.081,3.135,18.121,9.405,18.121
		c2.587,0,4.741-1.03,6.462-3.091s2.582-4.637,2.582-7.729C32.13,31.045,31.988,29.587,31.703,27.658z"/>
	<path class="st0" d="M58.676,0c13.067,0,19.601,7.74,19.601,23.218s-6.655,23.218-19.962,23.218
		c-13.308,0-19.962-7.915-19.962-23.744C38.352,7.564,45.127,0,58.676,0z M58.314,3.585c-2.456,0-4.117,1.354-4.982,4.062
		c-0.866,2.708-1.299,7.898-1.299,15.572s0.433,12.864,1.299,15.572s2.527,4.062,4.982,4.062s4.116-1.354,4.982-4.062
		s1.299-7.898,1.299-15.572c0-7.651-0.433-12.837-1.299-15.556S60.77,3.585,58.314,3.585z"/>
	<path class="st0" d="M111.301,0.789v4.505h-16.28v14.963h13.812v4.505H95.021V45.68H81.999V0.789H111.301z"/>
	<path class="st0" d="M142.944,0.789v4.505h-16.279v14.963h13.812v4.505h-13.812V45.68h-13.023V0.789H142.944z"/>
	<path class="st0" d="M174.39,0.789v4.505h-16.082v13.582h13.517v4.505h-13.517v17.792h18.812v4.505h-31.835V0.789H174.39z"/>
	<path class="st0" d="M208.269,0.789v4.505h-16.082v13.582h13.517v4.505h-13.517v17.792h18.812v4.505h-31.835V0.789H208.269z"/>
</g>
</svg>