<!-- Generator: Adobe Illustrator 22.0.1, SVG Export Plug-In  -->
<svg version="1.1"
	 xmlns="http://www.w3.org/2000/svg" xmlns:xlink="http://www.w3.org/1999/xlink" xmlns:a="http://ns.adobe.com/AdobeSVGViewerExtensions/3.0/"
	 x="0px" y="0px" width="189.073px" height="40.01px" viewBox="0 0 189.073 40.01"
	 style="enable-background:new 0 0 189.073 40.01;" xml:space="preserve">
<style type="text/css">
	.st0{fill:#FFF4EE;}
</style>
<defs>
</defs>
<g id="Espresso_1_">
	<path class="st0" d="M0,0.806h16.65V8.49H9.985v7.281h6.238v7.305H9.985v8.443h7.328v7.684H0V0.806z"/>
	<path class="st0" d="M41.339,12.428h-9.273V9.582c0-1.328-0.118-2.174-0.356-2.538c-0.237-0.364-0.632-0.545-1.186-0.545
		c-0.601,0-1.055,0.245-1.363,0.736c-0.309,0.49-0.462,1.234-0.462,2.231c0,1.281,0.173,2.247,0.52,2.895
		c0.331,0.649,1.271,1.432,2.821,2.347c4.445,2.638,7.245,4.803,8.399,6.495c1.154,1.692,1.732,4.42,1.732,8.182
		c0,2.736-0.32,4.752-0.961,6.048c-0.64,1.297-1.877,2.384-3.712,3.261c-1.834,0.877-3.969,1.316-6.403,1.316
		c-2.673,0-4.953-0.506-6.843-1.518c-1.89-1.012-3.127-2.3-3.712-3.866c-0.585-1.565-0.878-3.786-0.878-6.664v-2.514h9.274v4.672
		c0,1.439,0.131,2.364,0.391,2.775c0.261,0.411,0.723,0.617,1.387,0.617s1.158-0.261,1.482-0.783
		c0.324-0.522,0.486-1.296,0.486-2.324c0-2.261-0.308-3.739-0.925-4.435c-0.633-0.696-2.19-1.858-4.672-3.487
		c-2.482-1.644-4.127-2.838-4.933-3.581c-0.806-0.743-1.474-1.771-2.004-3.083c-0.53-1.312-0.794-2.988-0.794-5.028
		c0-2.941,0.375-5.091,1.126-6.451c0.751-1.359,1.964-2.423,3.641-3.19C25.796,0.384,27.82,0,30.192,0
		c2.593,0,4.803,0.419,6.629,1.257s3.035,1.894,3.628,3.166c0.593,1.273,0.889,3.435,0.889,6.487v1.518H41.339z"/>
	<path class="st0" d="M45.3,0.806h10.056c2.719,0,4.81,0.213,6.273,0.64c1.462,0.427,2.561,1.044,3.297,1.85
		c0.735,0.806,1.233,1.783,1.494,2.929s0.391,2.921,0.391,5.325v3.344c0,2.451-0.253,4.238-0.759,5.36
		c-0.506,1.123-1.435,1.984-2.787,2.585c-1.352,0.601-3.119,0.901-5.301,0.901h-2.68v15.463H45.3V0.806z M55.284,7.376v9.772
		c0.285,0.016,0.53,0.024,0.736,0.024c0.916,0,1.553-0.225,1.909-0.676c0.356-0.45,0.534-1.387,0.534-2.81V10.53
		c0-1.312-0.205-2.166-0.617-2.562C57.435,7.574,56.581,7.376,55.284,7.376z"/>
	<path class="st0" d="M69.681,0.806h7.068c4.712,0,7.902,0.182,9.57,0.545c1.668,0.364,3.028,1.293,4.079,2.787
		s1.577,3.878,1.577,7.151c0,2.988-0.371,4.997-1.115,6.024c-0.743,1.028-2.206,1.645-4.387,1.85
		c1.976,0.49,3.304,1.147,3.984,1.969s1.103,1.577,1.269,2.265s0.249,2.581,0.249,5.68v10.127h-9.273v-12.76
		c0-2.055-0.162-3.328-0.486-3.818s-1.174-0.735-2.55-0.735v17.313h-9.984L69.681,0.806L69.681,0.806z M79.665,7.376v8.538
		c1.122,0,1.91-0.154,2.36-0.463c0.451-0.308,0.676-1.308,0.676-3V10.34c0-1.217-0.218-2.016-0.652-2.395
		C81.614,7.566,80.819,7.376,79.665,7.376z"/>
	<path class="st0" d="M95.841,0.806h16.649V8.49h-6.665v7.281h6.238v7.305h-6.238v8.443h7.329v7.684H95.841V0.806z"/>
	<path class="st0" d="M137.18,12.428h-9.273V9.582c0-1.328-0.118-2.174-0.356-2.538c-0.237-0.364-0.632-0.545-1.186-0.545
		c-0.601,0-1.055,0.245-1.363,0.736c-0.309,0.49-0.462,1.234-0.462,2.231c0,1.281,0.173,2.247,0.52,2.895
		c0.331,0.649,1.271,1.432,2.821,2.347c4.445,2.638,7.245,4.803,8.399,6.495c1.154,1.692,1.732,4.42,1.732,8.182
		c0,2.736-0.32,4.752-0.961,6.048c-0.64,1.297-1.878,2.384-3.712,3.261c-1.834,0.877-3.969,1.316-6.403,1.316
		c-2.673,0-4.953-0.506-6.843-1.518c-1.889-1.012-3.127-2.3-3.712-3.866c-0.585-1.565-0.877-3.786-0.877-6.664v-2.514h9.273v4.672
		c0,1.439,0.131,2.364,0.391,2.775c0.261,0.411,0.723,0.617,1.387,0.617s1.158-0.261,1.482-0.783
		c0.324-0.522,0.486-1.296,0.486-2.324c0-2.261-0.308-3.739-0.925-4.435c-0.633-0.696-2.19-1.858-4.672-3.487
		c-2.483-1.644-4.127-2.838-4.933-3.581c-0.807-0.743-1.475-1.771-2.004-3.083c-0.53-1.312-0.795-2.988-0.795-5.028
		c0-2.941,0.376-5.091,1.127-6.451c0.751-1.359,1.964-2.423,3.64-3.19s3.7-1.15,6.072-1.15c2.593,0,4.803,0.419,6.629,1.257
		s3.035,1.894,3.628,3.166c0.593,1.273,0.889,3.435,0.889,6.487v1.518H137.18z"/>
	<path class="st0" d="M162.296,12.428h-9.273V9.582c0-1.328-0.118-2.174-0.356-2.538c-0.237-0.364-0.632-0.545-1.186-0.545
		c-0.601,0-1.055,0.245-1.363,0.736c-0.309,0.49-0.462,1.234-0.462,2.231c0,1.281,0.173,2.247,0.52,2.895
		c0.331,0.649,1.271,1.432,2.821,2.347c4.445,2.638,7.245,4.803,8.399,6.495s1.732,4.42,1.732,8.182c0,2.736-0.32,4.752-0.961,6.048
		c-0.64,1.297-1.878,2.384-3.712,3.261c-1.834,0.877-3.969,1.316-6.403,1.316c-2.673,0-4.953-0.506-6.843-1.518
		c-1.889-1.012-3.127-2.3-3.712-3.866c-0.585-1.565-0.877-3.786-0.877-6.664v-2.514h9.273v4.672c0,1.439,0.13,2.364,0.391,2.775
		c0.261,0.411,0.723,0.617,1.387,0.617c0.664,0,1.158-0.261,1.482-0.783c0.324-0.522,0.486-1.296,0.486-2.324
		c0-2.261-0.308-3.739-0.925-4.435c-0.633-0.696-2.19-1.858-4.672-3.487c-2.483-1.644-4.127-2.838-4.933-3.581
		c-0.807-0.743-1.475-1.771-2.004-3.083c-0.53-1.312-0.795-2.988-0.795-5.028c0-2.941,0.376-5.091,1.127-6.451
		c0.75-1.359,1.964-2.423,3.64-3.19s3.7-1.15,6.072-1.15c2.593,0,4.803,0.419,6.629,1.257s3.036,1.894,3.628,3.166
		c0.593,1.273,0.889,3.435,0.889,6.487v1.518H162.296z"/>
	<path class="st0" d="M189.073,23.29c0,3.858-0.091,6.59-0.272,8.194c-0.182,1.605-0.751,3.071-1.708,4.4
		c-0.957,1.328-2.249,2.348-3.878,3.059c-1.629,0.711-3.526,1.067-5.693,1.067c-2.055,0-3.901-0.336-5.538-1.008
		s-2.953-1.68-3.949-3.024c-0.997-1.344-1.59-2.807-1.779-4.388c-0.19-1.581-0.285-4.348-0.285-8.301V16.72
		c0-3.858,0.091-6.589,0.273-8.194c0.182-1.605,0.751-3.071,1.708-4.4c0.956-1.328,2.249-2.348,3.878-3.059
		C173.458,0.356,175.356,0,177.522,0c2.056,0,3.902,0.336,5.538,1.008c1.637,0.672,2.953,1.68,3.949,3.024s1.589,2.807,1.779,4.388
		s0.285,4.349,0.285,8.301L189.073,23.29L189.073,23.29z M179.088,10.673c0-1.787-0.099-2.929-0.296-3.427
		c-0.198-0.498-0.604-0.747-1.221-0.747c-0.522,0-0.922,0.201-1.198,0.604s-0.415,1.593-0.415,3.57v17.93
		c0,2.229,0.09,3.605,0.273,4.127c0.182,0.522,0.604,0.783,1.269,0.783c0.679,0,1.115-0.3,1.304-0.901
		c0.19-0.601,0.285-2.032,0.285-4.293V10.673H179.088z"/>
</g>
</svg>