<?xml version="1.0" standalone="no"?>
<!DOCTYPE svg PUBLIC "-//W3C//DTD SVG 1.1//EN" "http://www.w3.org/Graphics/SVG/1.1/DTD/svg11.dtd" >
<svg xmlns="http://www.w3.org/2000/svg" xmlns:xlink="http://www.w3.org/1999/xlink" version="1.1">
<metadata>
Created by FontForge 20170731 at Sat Sep  5 09:31:54 2015
 By Aleksey,,,
</metadata>
<defs>
<font id="DEVIOUS" horiz-adv-x="375" >
  <font-face 
    font-family="DEVIOUS"
    font-weight="300"
    font-stretch="normal"
    units-per-em="1000"
    panose-1="0 0 0 0 0 0 0 0 0 0"
    ascent="750"
    descent="-250"
    x-height="722"
    cap-height="724.5"
    bbox="-330.261 -416.045 780 1038.59"
    underline-thickness="50"
    underline-position="-150"
    unicode-range="U+000D-20AC"
  />
<missing-glyph horiz-adv-x="172" 
 />
    <glyph glyph-name="A_J" unicode="AJ" horiz-adv-x="542" 
d="M401 396q-1 35 -2 69t-2 63v26q0 39 -1 70t2 57q-8 1 -15.5 1.5t-10.5 2.5q-6 3 -8.5 8.5t-2.5 11.5t3 10.5t8 5.5q13 2 24.5 1.5t22.5 -2l22 -3t23 -0.5q9 0 13 -4.5t4.5 -10.5t-2.5 -12t-9 -8q-5 -2 -11 -3t-12 -1q-2 -27 -1 -58t0 -61q-1 -14 0 -37t1 -37
q-1 -21 -2.5 -46.5t-2.5 -46.5v-39.5v-53v-59t-0.5 -59t-1 -52.5t-0.5 -39q-1 -28 -1.5 -53.5t-4.5 -50.5t-14 -48.5t-29 -47.5q-23 -28 -57 -44t-73 -20t-78.5 3.5t-73 27.5t-57.5 52.5t-30 77.5q-5 34 5 65.5t39 53.5q26 19 60 23.5t63 -10.5q19 -11 30 -27
q11 -14 14.5 -33t-1.5 -36q-9 -27 -35.5 -39t-55.5 -15q-8 -1 -15 4t-8 13t5 14t14 7q15 2 32 7t22 20q7 24 0 39t-22.5 20.5t-36 1.5t-39.5 -19q-23 -17 -28.5 -44t2.5 -56q13 -47 49 -76t80 -38t87.5 3t72.5 48q16 19 24 40.5t11.5 44t4 46t1.5 47.5v41.5v63v63v41.5
q0 22 2.5 46t1.5 50zM103 211q9 0 12.5 -4.5t3.5 -10.5t-3.5 -12t-8.5 -8q-11 -4 -27 -3t-22 2h-10.5t-14 0.5t-14 1.5t-9.5 2q-5 2 -7.5 7.5t-1.5 11.5t4 10.5t8 5.5q7 1 13 1h12q6 21 9 42t9 44q2 10 5 28t5 28q3 17 9 36t9 35q8 33 15.5 66.5t12.5 64.5q7 36 12 70t11 69
q-4 13 4 19.5t19 5.5q6 0 12 -3q7 -3 10 -10q8 -20 12.5 -46.5t10.5 -58.5l2 -10l2 -10q4 -22 8 -48.5t8 -53.5q4 -20 9.5 -37.5t9.5 -34.5q3 -17 5 -33t5 -31q8 -36 15 -66.5t11 -66.5q5 -1 9.5 -1t9.5 -1q10 -2 9.5 -15.5t-11.5 -17.5q-6 -2 -22.5 -3t-24.5 -1
q-6 -1 -22 -2t-27 3q-6 2 -8.5 7.5t-2 11.5t4.5 10t13 4q8 -1 15.5 -0.5t15.5 1.5q-7 35 -12.5 66t-12.5 68q-2 8 -2 13q-18 -1 -42.5 -1h-54.5q-3 -19 -6 -37q-1 -5 -1.5 -10t-2.5 -10q-5 -29 -7.5 -49t-9.5 -39q5 0 8.5 -0.5t8.5 0.5zM119 392q26 0 46.5 -0.5t37.5 -1.5
q-5 23 -9.5 42t-9.5 44q-10 45 -14.5 82.5t-11.5 81.5q-1 -4 -1.5 -16t-1.5 -25.5t-1.5 -26t-1.5 -16.5q-3 -15 -5 -31t-5 -32q-4 -17 -9.5 -35t-8.5 -38q-2 -10 -2.5 -14.5t-2.5 -13.5z" />
    <glyph glyph-name="A_M" unicode="AM" horiz-adv-x="788" 
d="M641 486q0 6 0.5 24.5t0.5 40t0.5 40.5t0.5 27q-8 -24 -13.5 -52.5t-11 -58t-11.5 -58t-13 -52.5q-8 -26 -13 -49.5t-11 -46.5q-5 -17 -8.5 -31.5t-7.5 -26.5q-2 -8 -7.5 -12t-12.5 -3.5t-13.5 7t-10.5 20.5q-3 13 -5 21.5t-7 24.5q-6 23 -11 46.5t-13 49.5
q-8 24 -13.5 52.5t-11 58t-11.5 58t-13 52.5q0 -8 0.5 -27t1 -40.5t0.5 -40v-24.5q-1 -55 0.5 -128t-2.5 -147.5t-18.5 -141t-47.5 -108.5q-39 -48 -90.5 -67.5t-100.5 -12.5t-85.5 40t-45.5 89q-5 34 5 65.5t39 53.5q26 19 60 23.5t63 -10.5q19 -10 31 -27q10 -14 13.5 -33
t-1.5 -36q-9 -27 -35 -39.5t-55 -14.5q-9 -1 -16 4t-8 13t5 14t14 7q15 2 32 7t22 20q8 24 1 39t-22.5 20.5t-36.5 1t-40 -18.5q-23 -17 -29 -44.5t4 -55.5q15 -44 43.5 -65.5t62 -22.5t69 17t63.5 52q27 33 40 86t18 112t4 117t-2 102q-1 35 -2 69t-2 63v26q0 39 -1 70.5
t2 57.5q-8 0 -15.5 0.5t-11.5 2.5q-5 3 -7.5 8.5t-2.5 11.5t3 10.5t8 5.5q17 3 40 1.5t37 -3.5q2 -1 7.5 -15.5t11.5 -37.5t13.5 -50.5t13.5 -53.5t11 -47t8 -30q6 -21 11.5 -46.5t11.5 -46.5q5 -16 8.5 -33.5t8.5 -36.5q5 19 9 36.5t8 33.5q6 21 11.5 46.5t11.5 46.5
q2 9 7.5 30t12 47t13.5 53.5t13.5 50.5t11.5 37.5t7 15.5q14 2 37 3.5t40 -1.5q5 -1 8 -5.5t3.5 -10.5t-2 -11.5t-8.5 -8.5q-8 -3 -27 -3q3 -26 2.5 -57.5t-1.5 -70.5v-26q-1 -29 -2 -63t-2 -69q-1 -26 1.5 -49.5t2.5 -46.5q0 -22 -1 -42.5t-1 -40.5v-87.5t-3 -87.5
q17 2 30 -1q5 -1 8 -5.5t3.5 -10.5t-2 -11.5t-8.5 -8.5q-7 -2 -24 -3t-25 -2q-6 -1 -22.5 -2t-27.5 4q-6 2 -9 8t-2.5 12.5t4.5 11t13 3.5q5 -1 9.5 -0.5t9.5 0.5q1 47 2.5 91t2.5 92q0 41 -0.5 84.5t-1.5 87.5q-1 21 -2.5 46.5t-2.5 46.5zM103 212h-17q6 19 9 39t8 49l2 10
l2 10q2 8 3 17.5t3 19.5h54.5t41.5 1q1 -3 1.5 -6.5t1.5 -6.5q7 -36 12.5 -67.5t12.5 -66.5q-8 -1 -15.5 -1h-15.5q-9 0 -13 -4t-4.5 -10t2 -11.5t8.5 -7.5q11 -4 26.5 -3t21.5 2q8 0 25 1t23 3q11 4 11.5 17.5t-10.5 15.5q-5 1 -9 1.5t-9 0.5q-4 36 -11.5 66.5t-14.5 67.5
q-3 14 -5 30t-6 33q-3 17 -9 34.5t-9 37.5q-5 27 -8.5 53.5t-7.5 48.5l-2 10l-2 10q-6 32 -10.5 58.5t-12.5 46.5q-3 7 -10 10q-6 3 -12 3q-11 1 -19 -5.5t-4 -19.5q-6 -35 -11 -68.5t-12 -69.5q-6 -32 -13 -65.5t-15 -66.5q-4 -16 -9.5 -35t-8.5 -35q-3 -11 -5.5 -29
t-4.5 -28q-6 -23 -9 -44t-9 -42q-6 1 -12.5 0.5t-13.5 -1.5q-5 -1 -8 -5.5t-3.5 -10.5t2 -11.5t7.5 -7.5q6 -2 23 -3t25 -1q6 -1 21.5 -2t26.5 3q6 2 9.5 8t3.5 12t-3.5 10.5t-12.5 4.5zM119 393q2 10 2 14t2 14q4 20 9.5 38t8.5 35q4 17 6 32.5t5 30.5q1 4 1.5 16.5t1.5 26
t1.5 25.5t1.5 16q7 -44 11.5 -81.5t14.5 -82.5q5 -24 9.5 -43t9.5 -43q-17 1 -37.5 1.5t-46.5 0.5z" />
    <glyph glyph-name="A_N" unicode="AN" horiz-adv-x="707" 
d="M102 213q9 0 13 -4.5t4 -10.5t-3.5 -12t-9.5 -8q-11 -3 -27 -2.5t-22 1.5q-8 1 -24.5 1.5t-23.5 2.5q-5 2 -7 7.5t-1.5 11.5t3.5 10.5t8 5.5q7 2 13 2h12q6 21 9.5 41.5t8.5 43.5q2 11 5 28.5t5 28.5q4 16 9.5 35t8.5 35q8 33 15.5 66.5t12.5 65.5q7 36 12 69.5t11 68.5
q-4 13 4 19.5t19 5.5q9 0 12 -3q7 -3 10 -10q9 -20 13 -46t11 -59q1 -5 1.5 -10t1.5 -10q4 -22 8 -48.5t9 -53.5q3 -19 8.5 -37t9.5 -35q3 -17 5 -32.5t5 -30.5q8 -37 15 -67.5t12 -66.5h9t9 -1t7.5 -5.5t2.5 -10.5t-3 -11t-8 -7q-7 -2 -23.5 -2.5t-24.5 -1.5
q-6 -1 -22 -1.5t-27 2.5q-5 2 -8 7.5t-2.5 11.5t5 10.5t13.5 3.5q8 0 15 0.5t15 1.5q-6 35 -12 66t-13 67q-1 4 -1 7t-1 6q-18 0 -42.5 -0.5t-54.5 -0.5q-2 -10 -3 -19.5t-3 -17.5q-1 -5 -1.5 -10t-1.5 -10q-6 -29 -8.5 -49t-9.5 -39h17zM411 487q-1 -21 -3 -46.5t-2 -45.5
q-1 -86 -6.5 -173t-25 -160t-57.5 -123t-105 -62q-30 -6 -60 0.5t-55 23t-43 42.5t-24 60q-6 33 4.5 65t39.5 53q26 19 60 24t63 -11q20 -10 30 -26q11 -15 14.5 -33.5t-1.5 -35.5q-9 -28 -35.5 -40t-55.5 -14q-9 -1 -15.5 4t-7.5 13t4.5 14t14.5 7q15 1 32 6.5t22 19.5
q7 24 0 39.5t-22.5 21t-36 1t-39.5 -18.5q-23 -17 -30 -45t4 -56q20 -51 57.5 -71t75.5 -12q47 10 76.5 51.5t46.5 100t24 127.5t8 135t-0.5 121.5t-1.5 87.5v26q-1 38 -1.5 69.5t2.5 57.5q-8 1 -15.5 1.5t-11.5 2.5q-11 5 -10.5 19t11.5 16q17 3 40 1.5t37 -3.5q2 0 7 -15
t11.5 -38t13.5 -50.5t13.5 -53.5t11.5 -47t8 -30q5 -21 11 -46.5t11 -45.5q6 -22 12 -48t12 -52.5t12.5 -51.5t12.5 -45q1 -5 2.5 -15t3 -21t3 -21t3.5 -15q-1 53 1 103t3 102q0 44 1 88t1 85q-1 48 -2.5 91.5t-2.5 90.5q-5 1 -9.5 1h-9.5q-9 -1 -13 3.5t-4.5 10.5t2.5 12
t9 8q11 5 27.5 4t22.5 -1q8 -2 25 -2.5t24 -3.5q5 -2 7.5 -7.5t2.5 -11.5t-3 -11t-8 -6q-13 -3 -30 -1q3 -45 3 -87v-88q0 -20 1 -40.5t1 -42.5t-2.5 -46t-1.5 -49q1 -35 2 -69.5t2 -63.5v-26q0 -39 1 -70t-2 -57q8 -1 15.5 -1.5t11.5 -2.5q5 -2 7.5 -7.5t2.5 -11.5t-3 -11
t-8 -6h-10t-19 1t-22.5 1.5t-19.5 1.5q-5 1 -11.5 19.5t-14.5 47.5t-16.5 64t-16 67.5t-14 59t-9.5 38.5q-6 23 -11 46.5t-13 49.5q-8 24 -13.5 52.5t-11 58t-11.5 58t-13 52.5q0 -7 0.5 -26.5t0.5 -41t0.5 -40t0.5 -24.5zM118 394q26 0 46.5 -0.5t37.5 -0.5q-5 23 -9.5 42
t-9.5 43q-10 45 -14 83t-11 82q-1 -4 -2 -16.5t-1.5 -26t-1.5 -26t-2 -16.5q-3 -15 -5 -30.5t-5 -32.5q-4 -17 -9.5 -35t-8.5 -38q-2 -10 -2.5 -14t-2.5 -14z" />
    <glyph glyph-name="A_S" unicode="AS" horiz-adv-x="599" 
d="M107 204q9 1 12.5 -4t3.5 -11t-3.5 -12t-9.5 -7q-11 -4 -26.5 -3.5t-21.5 1.5q-4 0 -11 0.5l-14 1t-13.5 1t-9.5 1.5q-5 2 -7.5 7.5t-2 11.5t3.5 11t8 6q8 1 14 1h12q6 21 9 41.5t9 44.5q2 10 4.5 27.5t5.5 28.5q3 16 8.5 35t9.5 35q7 34 14.5 67t13.5 65q7 36 12 70
t11 69q-4 13 4 19t19 6q6 0 12 -3q8 -6 10 -11q8 -20 12.5 -46t10.5 -59l2 -10l2 -10q4 -22 7.5 -48t8.5 -53q3 -20 9 -38t9 -35q4 -17 6 -32.5t5 -30.5q7 -36 14.5 -66.5t11.5 -67.5h9t9 -1q11 -2 10.5 -16t-11.5 -18q-3 -1 -9.5 -1.5t-13.5 -1l-14 -1t-11 -0.5
q-6 -1 -21.5 -1.5t-26.5 3.5q-6 1 -8.5 6.5t-2 11.5t4.5 10.5t13 4.5q8 -1 15.5 -0.5t15.5 1.5q-7 35 -12.5 66t-12.5 67q-1 5 -3 13q-17 0 -41.5 -0.5t-54.5 -0.5q-2 -10 -3 -19.5t-3 -17.5l-2 -10l-2 -10q-5 -29 -8 -48.5t-9 -38.5q4 -1 8 -1h9zM514 239q2 -4 2 -7
q0 3 -2 7zM496 286q16 -33 26.5 -72.5t14 -81t-0.5 -82t-17 -74.5q-18 -48 -53 -84.5t-86 -57.5q-45 -18 -94.5 -21t-97.5 8q-45 10 -85.5 33t-66.5 59q-15 21 -24.5 44.5t-10.5 47t7 46t28 43.5q13 14 31.5 25t39.5 17t42.5 7t42.5 -5q42 -12 62 -40t25 -65q4 -31 -9 -58.5
t-48 -38.5q-19 -5 -39 -2.5t-37 11.5q-39 20 -45 63q-1 8 4.5 13.5t14.5 7.5q9 1 15.5 -4t8.5 -13q3 -23 24 -35q9 -5 19.5 -6.5t21.5 1.5q20 6 25 23t3 33q-4 26 -16.5 46t-41.5 28t-60.5 -2.5t-50.5 -30.5q-30 -32 -24.5 -68t28.5 -68q21 -29 54.5 -48t71.5 -28
q41 -9 83.5 -6.5t80.5 18.5q44 17 73 47.5t44 71.5q20 52 17 110t-17 112q-5 15 -19.5 47.5t-32 68t-35 68t-27.5 47.5q-22 33 -34.5 61t-16.5 63q-6 47 7 90q7 21 22.5 37t35.5 26t42.5 12.5t44.5 -3.5q36 -11 55 -42q11 -19 13 -40.5t0 -42.5q-2 -8 -8.5 -13t-15.5 -4
q-8 1 -14 7t-5 14q1 11 1 24.5t-4 25.5t-12 21.5t-23 13.5q-30 9 -50 -2t-31.5 -31t-15 -44.5t-0.5 -43.5q4 -25 13 -48t21 -46q14 -26 29.5 -50.5t30.5 -49.5q9 -15 12.5 -27.5t11.5 -27.5q3 -6 11 -17t11 -18zM123 385q26 0 46.5 -0.5t37.5 -0.5q-5 23 -9.5 42t-9.5 43
q-10 46 -14.5 83.5t-11.5 81.5q-1 -4 -1.5 -16t-1.5 -26t-1.5 -26.5t-1.5 -16.5q-3 -14 -5 -30t-5 -33q-4 -17 -9.5 -35t-9.5 -37q-2 -10 -2 -14.5t-2 -14.5z" />
    <glyph glyph-name="A_V" unicode="AV" horiz-adv-x="620" 
d="M103 35q-9 -2 -17 0q7 19 9.5 39t7.5 49q2 5 2.5 9.5t1.5 9.5q2 9 3 18t3 19q30 1 54.5 1t41.5 1q1 -5 3 -13q7 -37 12.5 -68t12.5 -66q-8 -1 -15.5 -1.5t-15.5 0.5q-9 0 -13 -4t-4.5 -10t2 -11.5t8.5 -7.5q11 -4 27 -3t21 1q8 1 25 1.5t23 2.5q11 4 11.5 18t-9.5 16
q-5 1 -9.5 1h-9.5q-4 37 -11.5 67.5t-14.5 66.5q-3 15 -5 31t-6 32q-3 17 -8.5 35t-9.5 38q-5 27 -8.5 53t-7.5 48l-2 10l-2 10q-6 33 -10.5 59.5t-12.5 46.5q-3 7 -10 10q-6 3 -12 3q-11 0 -19 -6t-4 -19q-6 -35 -11 -69t-12 -70q-6 -31 -13 -64.5t-15 -66.5
q-4 -17 -9.5 -35.5t-8.5 -35.5q-3 -10 -5.5 -28t-4.5 -28q-6 -23 -9 -44t-9 -42h-12t-13 -1q-5 -1 -8 -6t-4 -11t1.5 -11.5t7.5 -7.5q6 -2 23 -2.5t25 -1.5q6 0 21.5 -1t26.5 3q6 2 9.5 8t3.5 12t-3.5 10.5t-12.5 4.5zM373 400q4 -26 9.5 -49.5t9.5 -46.5q4 -22 6 -42.5
t5 -40.5q1 -6 2 -22.5t1.5 -35t1.5 -35t2 -21.5q4 29 6.5 55.5t5 52.5t5.5 53.5t8 58.5q8 44 15.5 87.5t13.5 85.5q7 48 12 92.5t12 91.5q-8 2 -15.5 2h-15.5q-9 -1 -13 3.5t-4.5 11t2.5 12.5t9 8q11 5 27 4t22 -2q4 0 11 -0.5t14.5 -1t14 -1.5t9.5 -2q6 -2 8.5 -8t2.5 -12
t-3 -11t-8 -6t-9.5 -1h-9.5q-4 -48 -10.5 -92.5t-14.5 -92.5q-3 -20 -5 -40.5t-6 -42.5q-3 -23 -9 -46.5t-9 -49.5q-5 -35 -9 -69.5t-8 -63.5q-1 -7 -2 -13.5t-2 -13.5q-6 -43 -10.5 -77.5t-13.5 -60.5q-3 -9 -10 -14q-5 -4 -12 -4q-11 -1 -19.5 7.5t-4.5 25.5q-6 47 -11 91
t-12 92q-6 42 -13.5 85.5t-15.5 88.5q-5 28 -10 66.5t-12.5 80t-17.5 83.5t-25 77q-14 34 -35 52t-44.5 21.5t-48 -5t-45.5 -27.5q-23 -21 -26.5 -44t7 -40.5t31.5 -25.5t48 1q24 8 33.5 29t7.5 42q-1 8 5 13.5t15 6.5q8 1 15 -4t8 -13q2 -35 -13 -65t-54 -41
q-18 -5 -37.5 -4.5t-36.5 5.5q-17 7 -27 13q-35 24 -40 61q-3 23 5.5 45t22.5 42q32 32 69 42t72 1t65 -34t48 -64q16 -36 26 -76t16 -80.5t10 -78.5t8 -69zM119 216q2 9 2.5 13.5t2.5 14.5q3 20 8.5 38t9.5 35q3 16 5 32t5 31q1 4 1.5 16t1.5 26t1.5 26t1.5 16
q7 -44 11.5 -81.5t14.5 -83.5q5 -24 9.5 -43t9.5 -42q-17 1 -37.5 1t-46.5 1z" />
    <glyph glyph-name="A_W" unicode="AW" horiz-adv-x="743" 
d="M385 310q4 -22 6 -48.5t5 -45.5q1 -5 2 -22t1.5 -36t1.5 -36t2 -22q11 78 20.5 153t20.5 152q1 10 9.5 16.5t17.5 7t16.5 -5.5t8.5 -20q1 -17 4.5 -41t8 -50.5t9 -51.5t7.5 -44q1 -5 2 -22t1.5 -36t1.5 -36t2 -22q14 103 27 201t28 200q7 48 12 91.5t11 89.5
q-8 1 -15.5 1.5t-15.5 -0.5q-9 0 -13 4.5t-4.5 10.5t2.5 12t9 8q11 5 27.5 4t22.5 -2q4 0 11 -0.5t14.5 -1t14 -1.5t9.5 -2q11 -5 10.5 -19.5t-10.5 -16.5q-5 -1 -9.5 -1.5t-9.5 -0.5q-5 -47 -11.5 -90t-13.5 -90q-3 -20 -5.5 -40t-5.5 -41q-4 -23 -9.5 -46t-9.5 -48
q-5 -35 -8.5 -75t-8.5 -69q-1 -6 -1.5 -12.5t-1.5 -12.5q-7 -43 -11.5 -76.5t-12.5 -59.5q-3 -8 -11 -13q-4 -4 -12 -4q-11 -1 -19 7t-4 25q-7 46 -12 89t-12 90q-3 23 -7 49.5t-9 54.5q-4 -35 -8 -72.5t-8 -64.5q-1 -6 -1.5 -12.5t-1.5 -12.5q-7 -43 -11.5 -76.5
t-12.5 -59.5q-3 -8 -11 -13q-4 -4 -12 -4q-11 -1 -19 7t-4 25q-7 46 -12 89t-12 90q-5 38 -9.5 100.5t-11.5 132t-19 137t-33 115.5q-14 32 -37 47t-48 17t-48 -8t-36 -29q-18 -24 -21 -47.5t6 -40t28.5 -23.5t46.5 2q24 8 33.5 29.5t7.5 41.5q-1 8 5 14t14 7q9 1 16 -4.5
t7 -13.5q3 -34 -12 -64t-54 -42q-37 -11 -74 2q-8 2 -14.5 5.5t-12.5 7.5q-17 11 -27.5 26.5t-12.5 34.5q-3 23 5.5 45t22.5 41q24 32 58 44.5t69 6.5t66 -29.5t48 -63.5q18 -42 28.5 -94t17 -105.5t11 -103.5t10.5 -89zM102 33h-17q7 19 9.5 39t8.5 49q1 5 1.5 10t1.5 10
q3 18 6 37h54.5t42.5 1q1 -3 1 -6.5t1 -6.5q7 -36 12.5 -67.5t12.5 -66.5q-8 -1 -15 -1.5t-15 0.5q-9 0 -13.5 -4t-5 -10t2 -11.5t8.5 -7.5q11 -4 27 -3t22 2q8 0 24.5 1t23.5 3q10 4 10.5 17.5t-9.5 15.5q-5 1 -9 1.5t-9 0.5q-5 36 -12 66.5t-15 66.5q-3 15 -5 31t-5 33
q-4 17 -9.5 34.5t-8.5 37.5q-5 27 -9 53.5t-8 48.5q-1 5 -1.5 10t-2.5 10q-6 32 -10 58.5t-13 46.5q-3 7 -10 10q-5 3 -12 3q-11 1 -19 -5.5t-4 -19.5q-6 -35 -11 -68.5t-12 -70.5q-5 -31 -12.5 -64.5t-15.5 -66.5q-3 -16 -8.5 -35t-9.5 -35q-2 -11 -5 -29t-5 -28
q-5 -23 -8.5 -44t-9.5 -42q-6 1 -12 0.5t-13 -1.5q-5 -1 -8 -5.5t-3.5 -10.5t1.5 -11.5t7 -7.5q7 -2 23.5 -3t24.5 -1q6 -1 22 -2t27 3q5 2 8.5 8t3.5 12t-3.5 10.5t-12.5 4.5zM118 214q2 10 2.5 14t2.5 14q3 20 8.5 38t9.5 35q3 17 5 32.5t5 30.5q1 4 2 16.5t1.5 26
t1.5 25.5t2 16q7 -44 11 -81.5t14 -82.5q5 -24 9.5 -43t9.5 -43q-17 1 -37.5 1.5t-46.5 0.5z" />
    <glyph glyph-name="A_Y" unicode="AY" horiz-adv-x="635" 
d="M204 35h17q-7 19 -9.5 39t-8.5 49q-1 5 -1.5 10t-1.5 10q-2 8 -3 17.5t-3 19.5h-54.5t-42.5 1q-1 -3 -1 -6t-1 -7q-7 -36 -13 -67t-12 -67q8 0 15 -0.5t15 -0.5q9 1 13.5 -3.5t5 -10.5t-2 -11.5t-8.5 -7.5q-11 -3 -27 -2.5t-22 1.5q-8 1 -24.5 1.5t-23.5 2.5q-5 2 -8 7
t-3 11t2.5 10.5t7.5 4.5q5 1 9.5 1.5t8.5 0.5q5 36 12 66.5t15 67.5q3 15 5 30.5t5 32.5q4 17 9.5 35t8.5 37q5 27 9 53.5t8 48.5q2 12 4 20q6 33 10 59t13 46q3 7 10 10q3 3 12 3q11 1 19 -5.5t4 -19.5q6 -35 11 -68.5t12 -69.5q5 -32 12.5 -65.5t15.5 -66.5q3 -16 8.5 -35
t9.5 -35q2 -11 5 -28.5t5 -28.5q5 -23 8.5 -43.5t9.5 -41.5h12t13 -2q5 -1 8 -5.5t3.5 -10.5t-1.5 -11.5t-7 -7.5q-3 -1 -9.5 -1.5t-14 -1t-14 -1t-10.5 -0.5q-6 -1 -22 -1.5t-27 2.5q-5 2 -8.5 8t-3.5 12t3.5 10.5t12.5 4.5zM404 287q-10 30 -19 71t-19 87t-22.5 94t-29 90
t-38.5 76t-51 53q-42 26 -74.5 19t-55.5 -41q-16 -24 -16.5 -47.5t10 -40t30.5 -23.5t46 2q23 8 31 28.5t4 41.5q-2 8 4 13.5t14 6.5q9 0 16 -5t9 -13q5 -34 -7.5 -63.5t-50.5 -40.5q-37 -11 -75 2q-8 3 -14.5 6t-13.5 8q-37 23 -46 61q-5 23 2 44.5t19 40.5
q14 21 34.5 34.5t44.5 18t50 -0.5t51 -21q51 -33 81 -84t48.5 -109.5t30.5 -119.5t27 -113q10 43 17.5 77t14.5 69t14.5 76.5t18.5 99.5q-8 1 -11 0.5t-6 1.5q-5 2 -7 8t-2 12t3 11.5t8 6.5q13 2 23 2t19 -1t18.5 -2t21.5 0q9 1 13.5 -4t4.5 -12t-3 -13.5t-9 -8.5
q-11 -4 -25 -4q-15 -46 -25 -91.5t-18.5 -91t-17.5 -90.5t-22 -89l-9 -32l2 6q0 -19 -1 -37.5t-1 -35.5v-88t-3 -87h15t15 -1q5 -1 8 -6t3.5 -11t-2 -11.5t-8.5 -7.5q-3 -2 -9.5 -2.5t-14 -1t-14.5 -1t-11 -1.5q-6 -1 -22.5 -2t-27.5 4q-6 3 -9 9t-2.5 12t4.5 10.5t13 3.5
h10t10 1q0 46 1.5 90t2.5 92v65zM188 216q-2 10 -2.5 14t-2.5 14q-3 20 -8.5 38t-9.5 35q-3 17 -5.5 32.5t-4.5 30.5q-1 4 -2 16.5t-1.5 26t-1.5 26t-2 16.5q-8 -44 -11.5 -82t-13.5 -83q-5 -24 -9.5 -43t-9.5 -42q17 0 37.5 0.5t46.5 0.5z" />
    <glyph glyph-name="C_A" unicode="CA" horiz-adv-x="596" 
d="M46 406q-1 -38 -0.5 -54.5t2 -24.5t4.5 -15.5t6 -27.5q4 -20 10 -40t27 -34q15 -11 35 -13q12 0 22 4.5t17 10.5q14 12 20 23.5t9 27.5q2 6 8.5 9.5t15.5 2.5q8 -1 14 -5.5t4 -10.5q-3 -20 -9 -35.5t-28 -29.5q-27 -16 -56 -19t-54 3.5t-43.5 22.5t-23.5 37
q-5 19 -7.5 30.5t-4 21t-3 20.5t-3.5 29q-3 25 -4.5 54.5t-2.5 59t-0.5 58.5t1.5 54q2 27 7 58.5t19 56.5q16 29 53 44q35 16 76 10q34 -4 57 -27q13 -13 18 -28t6 -30q1 -6 -5.5 -10.5t-14.5 -4.5q-9 0 -15.5 4.5t-7.5 9.5q-1 16 -10 35t-36 23q-12 2 -23.5 0t-21.5 -6
q-25 -11 -36 -31q-12 -20 -16.5 -31t-5.5 -20.5t-0.5 -21.5t-0.5 -33q-2 -39 0 -78.5t1 -78.5zM338 240q-3 -22 -9 -53.5t-15.5 -66t-23.5 -69.5t-32.5 -63.5t-42 -48t-52.5 -22.5q-26 -3 -50 8t-41 31.5t-25.5 47t-4.5 54.5q2 19 12.5 34.5t27.5 26.5q21 13 48.5 18
t51.5 -0.5t40 -21.5t13 -46q-1 -8 -7.5 -13t-15.5 -4q-9 0 -15 6t-5 14q1 17 -9.5 25t-26 9.5t-31.5 -2.5t-24 -11q-20 -16 -22 -44q0 -20 6 -39.5t16.5 -34.5t25 -23.5t30.5 -6.5q26 2 46.5 26.5t36.5 61.5t27 81.5t19 87.5t13.5 78.5t8.5 54.5q8 44 15.5 87.5t13.5 85.5
q7 48 12 92t11 91q-4 17 4.5 25t19.5 7q5 1 12 -3t10 -14q9 -26 13.5 -60.5t10.5 -77.5q1 -7 2 -13.5t2 -13.5q4 -29 8 -63.5t9 -69.5q3 -26 9 -49.5t9 -46.5q4 -22 6 -42.5t5 -40.5q8 -48 14.5 -92t11.5 -92h9t9 -2q11 -2 11.5 -16.5t-10.5 -19.5q-7 -3 -24 -4t-25 -2
q-6 -1 -22.5 -2t-27.5 4q-6 3 -9 9t-2.5 12.5t4.5 11t13 3.5q14 -1 31 2q-7 47 -12 91t-12 92q-1 5 -1 9t-1 8q-18 0 -43.5 -0.5t-55.5 -0.5zM342 273q26 0 49.5 -0.5t40.5 -1.5q-5 31 -11 63t-11 64q-10 59 -14.5 109t-11.5 108q-1 -5 -1.5 -21.5t-1.5 -34.5t-1.5 -34.5
t-1.5 -21.5q-3 -20 -5 -40.5t-6 -42.5t-9.5 -45.5t-8.5 -49.5q-2 -13 -3.5 -26t-3.5 -26z" />
    <glyph glyph-name="D_A" unicode="DA" horiz-adv-x="616" 
d="M358 240q-5 -42 -18.5 -97.5t-36.5 -108.5t-55 -80t-65.5 -34.5t-65.5 2.5t-56.5 30.5t-38 48.5t-9.5 57q2 19 12.5 34.5t27.5 26.5q6 4 12.5 7.5t14.5 5.5q38 13 74 1q39 -11 54 -41t12 -65q-1 -8 -7.5 -13t-15.5 -4q-8 1 -14 6.5t-5 13.5q2 21 -7.5 42t-33.5 30
q-18 6 -33.5 4t-27.5 -10t-18.5 -20t-6.5 -27q0 -22 11 -43.5t29 -36t41 -21t47 0t46 29t39 65.5q16 42 27.5 88.5t19 87.5t11.5 72.5t6 43.5q8 45 15.5 88.5t13.5 84.5q7 48 12 92t12 91q-5 17 3.5 25t19.5 8q8 0 12 -4q7 -4 10 -14q9 -26 13.5 -60.5t10.5 -77.5
q2 -7 2.5 -13t1.5 -13q4 -29 8 -64t9 -70q3 -26 9 -49.5t10 -46.5q3 -21 5 -42t5 -41q8 -48 14.5 -92t11.5 -92h9t9 -1t8 -6t3 -11t-2.5 -11.5t-7.5 -8.5q-7 -3 -24 -3.5t-25 -1.5q-6 -1 -22.5 -2t-27.5 4q-6 2 -9 8t-2.5 12.5t4.5 11t13 3.5h15.5t15.5 2q-7 47 -12 91.5
t-12 92.5q-1 4 -1 8t-1 9q-18 -1 -43.5 -1.5t-55.5 -0.5zM83 167q-8 0 -14 0.5t-9 0.5q-4 1 -11 1.5t-14.5 1t-14 1t-9.5 2.5q-6 2 -8.5 7.5t-2 11.5t3.5 11t8 6q14 3 29 1q-2 39 -2 58.5t1 35.5t1.5 35.5t-0.5 57.5q-2 35 -2.5 69t-1.5 63v26q-1 39 -1.5 70t2.5 57
q-8 1 -15.5 1.5t-11.5 2.5q-6 2 -8.5 7.5t-2 11.5t3.5 11t8 6q17 3 32 1l30 -4q26 0 52.5 -1.5t49.5 -10.5q36 -14 54.5 -42.5t26.5 -61.5q9 -36 10.5 -89.5t-3 -109t-16 -104.5t-27.5 -75q-23 -35 -59.5 -48t-78.5 -11zM112 685q-1 0 -1 -0.5t-1 -0.5q-9 -4 -24 -4
q-2 -27 -1 -58t0 -61q0 -14 1 -37t1 -37q-1 -21 -3 -46.5t-2 -46.5v-58.5t0.5 -35.5t1 -35.5t0.5 -58.5q16 -2 30 -2.5t26.5 3t24 11.5t22.5 25q5 8 8 18t5 18q9 34 16 75.5t10.5 84t2 83.5t-9.5 74q-6 24 -19 46.5t-40 33.5q-11 5 -23 6.5t-25 2.5zM362 274q27 -1 50 -1.5
t40 -0.5q-5 31 -11 62.5t-11 63.5q-5 30 -8 57t-6 53t-5.5 52t-5.5 55q-1 -5 -2 -21t-2 -34.5t-1.5 -34.5t-1.5 -21q-3 -20 -5 -41t-6 -42q-4 -23 -9.5 -46.5t-8.5 -49.5q-2 -13 -3.5 -25.5t-3.5 -25.5z" />
    <glyph glyph-name="E_J" unicode="EJ" horiz-adv-x="523" 
d="M99 227q1 0 12 -1t27 -1.5t34.5 -1.5t36.5 -1v16t6 17q1 3 7 4t12 0.5t11.5 -2.5t7.5 -5t1 -12t-2 -13v-5.5t-1 -8.5q1 -5 -2.5 -18t-9.5 -15q-5 -2 -31 -2.5t-55.5 -0.5t-54 0.5t-27.5 0.5q-8 0 -25 0.5t-23 2.5q-5 2 -7.5 9t-2.5 14.5t3 13.5t8 7q14 3 29 1
q-2 30 -2.5 50t-0.5 50h1q0 21 1 46t2 51q1 19 -1 37t-2 35q-1 16 0 31.5t1 30.5q0 34 0.5 59.5t2.5 59.5q-15 -2 -29 1q-5 0 -8 5.5t-3 12.5t2.5 13t7.5 8q3 1 9.5 1.5t14 1t14 1t10.5 0.5q2 0 15.5 0.5t32.5 0.5h41.5h42.5t34.5 -1t18.5 -2q6 -2 9 -13t2 -16q2 -5 2 -8.5
v-5.5q0 -4 1.5 -13t-0.5 -12q-4 -6 -19.5 -7t-19.5 4q-5 8 -5 16v16q-20 0 -42 0.5t-41 0.5h-32.5h-15.5q-1 -35 -2.5 -62t-2.5 -63v-24.5t0.5 -21t1 -21.5t0.5 -26q16 2 35 0.5t30 -1.5q14 0 25.5 -1.5t13.5 -0.5q4 0 5.5 -4t2 -9.5t-1 -11t-3.5 -6.5q-2 -2 -13 -2.5
t-28 -0.5q-19 -1 -38 -0.5t-21 0.5q-2 1 -6 1q1 -14 2 -36.5t2 -34.5q0 -10 -1 -27.5t0 -27.5q1 -23 0 -38t1 -35zM381 396q-1 35 -2 69.5t-1 63.5l-1 26q0 38 -1 69.5t2 57.5q-8 1 -15.5 1.5t-10.5 2.5q-11 5 -10.5 19t10.5 16q13 2 24.5 1.5t22.5 -2t22.5 -3t23.5 -0.5
q9 1 13 -3.5t4.5 -11t-3 -12.5t-9.5 -8q-9 -3 -23 -3q-2 -28 -1 -59t0 -61q-1 -13 0.5 -36.5t0.5 -37.5q0 -21 -2 -46.5t-2 -45.5q0 -23 -0.5 -65t-0.5 -87t-0.5 -86.5t-1.5 -64.5q-1 -28 -1.5 -53.5t-4.5 -50.5t-14 -48.5t-29 -47.5q-22 -27 -56.5 -43.5t-73.5 -20.5
t-78.5 3.5t-73 27.5t-57.5 52.5t-30 77.5q-5 34 5 65.5t39 53.5q26 19 60 23.5t64 -10.5q17 -9 30 -26q10 -15 13.5 -33.5t-1.5 -35.5q-9 -28 -35 -40t-56 -14q-8 -1 -15 4t-8 13t5 13.5t14 7.5q15 1 32 6t22 20q7 24 0 39t-22 20.5t-36 1.5t-40 -18q-23 -17 -28 -44.5
t3 -56.5q12 -47 48 -76t80 -38t87.5 3.5t72.5 47.5q16 20 24.5 41t12 43.5t4 46t1.5 47.5v41.5v63v63v41.5q0 23 2 46.5t1 49.5z" />
    <glyph glyph-name="E_M" unicode="EM" horiz-adv-x="769" 
d="M87 228q-2 20 -1 35t0 38q-1 10 0 27.5t1 27.5q0 12 -1 34.5t-3 36.5q5 0 6 -1q2 0 21 -0.5t39 -0.5q16 1 27 1.5t13 2.5q3 1 4 6.5t1 11t-2 9.5t-6 4q-2 -1 -13.5 0.5t-25.5 1.5q-11 0 -30 1.5t-35 -0.5q0 15 -0.5 26t-0.5 21.5v21v24.5q0 36 1.5 63t2.5 62h15.5h32.5
t41 -0.5t42 -0.5v-16t5 -16q2 -3 7.5 -4t12 -0.5t12 2.5t7.5 5t0.5 12t-1.5 13v5.5t-2 8.5q1 5 -2 16t-9 13q-4 1 -18.5 1.5t-34.5 1t-42.5 0.5h-41.5t-32.5 -0.5t-15.5 -0.5q-8 -1 -24.5 -1.5t-22.5 -2.5t-8.5 -8t-2 -13t3 -12.5t7.5 -5.5q14 -3 29 -1q-2 -34 -2 -59.5
v-60.5q0 -14 -1 -29.5t-1 -32.5t2 -34.5t1 -37.5q-1 -26 -1.5 -50.5t-1.5 -45.5q-1 -30 -0.5 -50t2.5 -50h-14t-15 -1q-5 -1 -8 -7t-3 -13.5t2.5 -14.5t7.5 -8q7 -2 23.5 -3t24.5 -2h27.5h54t55.5 0.5t31 2.5q3 1 5.5 5t4 9.5t2 10.5t0.5 8q1 5 1.5 8t0.5 5q0 5 1.5 13.5
t-0.5 12.5q-2 3 -7.5 5t-12 2.5t-12.5 -0.5t-7 -4q-6 -9 -6 -17v-16q-18 0 -36.5 1t-34.5 1.5t-27 1.5t-12 1zM623 486v24.5t0.5 40t0.5 40.5v27q-7 -24 -12.5 -52.5t-11 -58t-11.5 -58t-13 -52.5q-8 -26 -13 -49.5t-12 -46.5q-5 -17 -8 -31.5t-7 -26.5q-2 -8 -8 -12
t-13 -3.5t-13.5 7t-9.5 20.5q-3 13 -5 21.5t-7 24.5q-6 23 -11 46.5t-13 49.5q-8 24 -13.5 52.5t-11 58t-11.5 58t-13 52.5q0 -8 0.5 -27t0.5 -40.5v-40v-24.5q-1 -37 0 -82t0.5 -94t-3 -99.5t-9.5 -96.5t-20.5 -85.5t-35.5 -66.5q-39 -48 -90.5 -68t-100 -13t-85 40
t-45.5 89q-5 34 5 65.5t39 53.5q26 19 60 23.5t63 -10.5q19 -11 30 -27q11 -14 14.5 -33t-1.5 -36q-9 -27 -35.5 -39.5t-55.5 -14.5q-9 -1 -15.5 4t-7.5 13t4.5 14t14.5 7q15 2 32 7t22 20q7 24 0 39t-22.5 20.5t-36 1t-39.5 -18.5q-23 -17 -29 -44.5t3 -55.5
q15 -44 43.5 -65.5t62.5 -22.5t69.5 17t63.5 52q27 33 40 86t18 112t4 117t-2 102q-2 35 -2.5 69t-1.5 63v26q-1 39 -1.5 70.5t1.5 57.5q-8 0 -15 1t-11 3q-11 5 -10.5 19t10.5 16q17 3 40.5 1.5t37.5 -3.5q2 0 7 -15t11.5 -38t13.5 -50.5t13.5 -53.5t11.5 -47t8 -30
q5 -21 10.5 -46.5t11.5 -46.5q5 -16 9 -33.5t9 -36.5q5 19 8.5 36.5t8.5 33.5q6 21 11.5 46.5t11.5 46.5q2 9 7.5 30t11.5 47t13 53.5t13.5 50.5t11.5 38t7 15q15 2 38 3.5t40 -1.5q11 -2 11 -16t-11 -19q-3 -2 -10.5 -3t-15.5 -1q3 -26 2 -57.5t-1 -70.5l-1 -26
q0 -29 -1 -63t-2 -69q-1 -26 1 -49.5t3 -46.5q0 -21 -1 -41.5t-1 -40.5q-1 -46 -1 -88.5t-2 -87.5q15 2 30 -1q5 -1 8 -5.5t3 -10.5t-2.5 -11.5t-8.5 -8.5q-3 -1 -9.5 -2t-14 -1.5t-14.5 -1t-11 -0.5q-6 -1 -22 -2t-27 4q-6 2 -9 8t-3 12.5t4 11t13 3.5q5 -1 10 -0.5t10 0.5
q1 47 2.5 91t2.5 92q0 41 -1 84.5t-2 87.5q0 21 -2 46.5t-2 46.5z" />
    <glyph glyph-name="E_N" unicode="EN" horiz-adv-x="702" 
d="M86 228q1 0 12 -0.5t27 -1.5t34.5 -1.5t36.5 -0.5v16t6 16q1 3 7 4t12.5 0.5t12 -2t7.5 -4.5q2 -4 0.5 -12.5t-1.5 -13.5v-5.5t-2 -7.5q1 -5 -2 -18.5t-9 -15.5q-4 -1 -17.5 -1.5t-31.5 -1t-38 -0.5h-37.5t-30 0.5t-14.5 0.5q-8 1 -24.5 1.5t-23.5 2.5q-5 2 -7.5 9
t-2 14.5t3 13.5t7.5 7q8 1 15 1h14q-2 30 -2 50v49q1 21 1.5 46t1.5 51q1 19 -1 37t-2 35t1 32.5t1 29.5v59.5t2 59.5h-14t-15 1q-5 1 -7.5 6.5t-3 12.5t2 13t8.5 8q3 1 9.5 1.5t13.5 1t13.5 1t10.5 0.5h15.5h33t42 0.5t42 0t34 -1t18.5 -1.5q6 -2 9.5 -13.5t2.5 -16.5
q1 -4 1 -7.5v-5.5q1 -5 2 -13.5t-1 -12.5q-2 -3 -7.5 -4.5t-12 -2t-12 0.5t-6.5 3q-6 9 -6 17v16h-131q0 -17 -0.5 -32t-1.5 -29.5t-1.5 -29.5t-0.5 -33v-25v-21t0.5 -21t0.5 -26q16 2 35 0.5t30 -1.5q14 0 25.5 -1.5t13.5 -1.5q4 0 6 -4t2 -9t-1 -10.5t-4 -6.5
q-6 -4 -40 -4q-20 0 -39 0.5t-21 0.5q-3 0 -5 1q1 -14 2 -36.5t1 -34.5q1 -11 -0.5 -28t-0.5 -28q1 -23 0 -37.5t1 -35.5zM406 487q-1 -21 -2.5 -46.5t-2.5 -46.5q-1 -85 -6.5 -172t-24.5 -160t-57 -123.5t-105 -62.5q-30 -5 -60.5 1.5t-55.5 23t-43 42.5t-24 59
q-6 34 4.5 65.5t39.5 53.5q26 19 60 23.5t63 -10.5q19 -10 31 -27q10 -14 13.5 -33t-1.5 -36q-9 -27 -35 -39t-56 -15q-8 -1 -15 4t-8 13t5 14t15 7q14 1 31 6.5t22 20.5q8 24 1 39t-23 20.5t-36.5 1.5t-39.5 -18q-23 -17 -29.5 -45t4.5 -56q20 -51 57.5 -71t75.5 -12
q47 10 76.5 51.5t46 100t23.5 127.5t8 134.5t-0.5 121t-1.5 87.5v26q0 39 -1 70t2 57q-8 1 -15.5 1.5t-11.5 2.5q-11 5 -10.5 19.5t11.5 16.5q17 3 40 1t37 -4q2 0 7.5 -15t11.5 -37.5t13.5 -50.5t13.5 -53.5t11 -46.5t8 -30q6 -21 11.5 -46.5t11.5 -46.5q6 -22 12 -47.5
t12 -52t12 -51.5t12 -45l3 -15t3.5 -21t3 -21t3.5 -15q-2 53 0 102.5t3 101.5q1 45 2 88.5t0 84.5q-1 48 -2.5 92t-1.5 91q-5 0 -10 0.5t-10 -0.5q-9 -1 -13 3.5t-4.5 11t2.5 12.5t9 8q11 5 27.5 4t22.5 -2q4 0 11 -0.5t14.5 -1t14 -1.5t9.5 -2q6 -3 8.5 -8.5t2 -11.5
t-3.5 -10.5t-8 -5.5q-14 -3 -29 -1q2 -45 2 -87.5v-88.5q0 -19 1 -39.5t1 -42.5q0 -23 -2.5 -46.5t-1.5 -49.5q1 -35 2 -69t2 -63v-27q1 -38 1.5 -69.5t-2.5 -57.5q8 0 15.5 -1t11.5 -2q6 -3 8.5 -8.5t2 -11.5t-3.5 -10.5t-8 -5.5h-10t-19 1t-22.5 1.5t-18.5 1.5
q-5 0 -12 19t-15 48t-16.5 63.5t-16 67.5t-14 59.5t-9.5 38.5q-6 22 -11 46t-13 50q-8 24 -13.5 52t-11 57.5t-11 58.5t-12.5 53v-27t0.5 -40.5t0.5 -40v-24.5z" />
    <glyph glyph-name="E_S" unicode="ES" horiz-adv-x="604" 
d="M86 220q2 0 12.5 -1t26.5 -1.5t34.5 -1t36.5 -0.5q0 8 0.5 15.5t5.5 16.5q4 5 19.5 4t19.5 -7q2 -3 0.5 -12t-1.5 -13v-5.5t-2 -8.5q1 -5 -2 -18t-9 -15q-4 -1 -17.5 -2t-31.5 -1h-38h-37.5t-30 0.5t-14.5 0.5q-8 0 -24.5 1t-22.5 3q-6 1 -8.5 8t-2 14.5t3 13.5t7.5 7
q14 3 29 1q-2 30 -2 50v50q1 21 1.5 46t2.5 51q1 19 -1.5 37t-2.5 35q0 16 1 31.5t1 30.5v59.5t2 59.5q-15 -2 -29 1q-5 1 -7.5 6.5t-3 12t2 12.5t8.5 8q3 1 9.5 1.5t13.5 1l14 1t11 0.5q2 0 15.5 0.5t32.5 0.5h41.5h42.5t34.5 -1t18.5 -2q5 -2 8.5 -13t2.5 -16
q1 -5 1.5 -8.5t0.5 -5.5q0 -4 1 -13t-1 -12t-7.5 -5t-11.5 -2.5t-12 0.5t-7 4q-6 8 -6 16v16q-20 0 -42 0.5t-41 0.5h-32.5h-15.5q0 -35 -1.5 -62t-2.5 -63v-24.5v-20.5t0.5 -21.5t0.5 -26.5q16 2 35 0.5t30 -1.5q14 0 25.5 -1t13.5 -1q4 0 6 -4t2.5 -9.5t-1 -11t-3.5 -6.5
q-2 -2 -13 -2.5t-28 -0.5q-20 -1 -39 -0.5t-21 1.5h-5q1 -14 2 -36.5t1 -34.5q1 -10 0 -27.5t-1 -27.5q1 -23 0 -38t1 -35zM520 239q1 -2 1 -3.5t1 -3.5q-1 2 -1 3.5t-1 3.5zM502 286q16 -33 26 -72.5t14 -81t0 -82t-17 -74.5q-18 -48 -53 -84.5t-87 -57.5
q-45 -18 -94.5 -21.5t-97.5 7.5q-45 11 -85 34t-66 59q-31 43 -35.5 91t34.5 89q14 15 32.5 26t39.5 17t42.5 7t42.5 -5q42 -12 61.5 -40t24.5 -66q4 -30 -9 -57.5t-48 -38.5q-40 -11 -75 8q-20 11 -31 27t-14 36q-1 8 4.5 14t14.5 8q8 1 15 -4t8 -13q3 -23 25 -35
q9 -5 19.5 -6.5t20.5 1.5q20 6 25 23t3 33q-3 26 -15.5 46t-41.5 28t-60.5 -2.5t-50.5 -30.5q-15 -16 -20.5 -33t-4 -34.5t9 -35t19.5 -33.5q21 -29 54.5 -48t71.5 -28q41 -9 83.5 -6.5t80.5 18.5q43 17 72 47.5t44 71.5q20 52 17 109.5t-17 112.5q-5 15 -19.5 47.5t-32 68
t-35 68t-27.5 47.5q-22 33 -34 60.5t-17 62.5q-2 23 -1 45.5t9 45.5q14 43 58 63q20 10 42.5 12.5t44.5 -3.5q37 -11 54 -42q11 -19 13.5 -40.5t-0.5 -42.5q-1 -8 -7.5 -13t-15.5 -4t-14.5 7t-4.5 14q1 11 1 24.5t-4 25.5t-12 21.5t-23 13.5q-30 9 -50.5 -2t-31.5 -31
t-14.5 -45t-0.5 -44q3 -24 12.5 -47t21.5 -46q14 -26 29.5 -50.5t29.5 -49.5q9 -15 13 -28t12 -27q3 -6 11 -17t11 -18z" />
    <glyph glyph-name="E_V" unicode="EV" horiz-adv-x="635" 
d="M388 399q3 -26 8.5 -49.5t9.5 -45.5t6 -43t5 -41q1 -5 2 -21.5t2 -35.5t2 -35t2 -21q4 29 6.5 55.5t4.5 52.5t5 53.5t8 57.5q8 45 15.5 88.5t13.5 85.5q7 48 12 92.5t12 91.5q-8 1 -15.5 1.5t-15.5 -0.5q-9 0 -13 4.5t-4.5 11t2.5 12.5t9 8q11 5 27.5 4t22.5 -2
q8 -1 25 -2t24 -3q5 -3 7.5 -8.5t2.5 -11.5t-3 -11t-8 -6t-9 -1h-9q-5 -48 -11.5 -92.5t-14.5 -92.5q-3 -20 -5 -40.5t-5 -42.5q-4 -23 -10 -46.5t-9 -49.5q-5 -35 -9 -70t-8 -64q-1 -7 -1.5 -13t-2.5 -13q-6 -44 -10.5 -78t-13.5 -61q-2 -7 -10 -13q-4 -4 -12 -4
q-11 -1 -19.5 7.5t-3.5 25.5q-7 47 -12 91t-12 92q-6 41 -13.5 85t-15.5 88q-5 27 -9.5 62t-11 73.5t-15 78t-21 74t-29.5 62t-39 42.5q-19 13 -41 16t-43.5 -1.5t-40.5 -16t-32 -28.5q-18 -24 -20.5 -47.5t6.5 -40t28 -23.5t46 2q24 8 34 29.5t8 41.5q-1 8 5 14t14 7
q9 0 15.5 -5t7.5 -13q3 -34 -12.5 -64t-54.5 -42q-36 -11 -74 2q-7 2 -13.5 5.5t-12.5 7.5q-35 23 -40 61q-4 23 5 45t23 41q15 21 42.5 34t59 17.5t63 -0.5t54.5 -21q43 -29 68 -79t39 -107t20 -115t12 -102zM103 53q-2 20 -1 35t0 38q0 10 1 27.5t0 27.5q0 12 -1 34.5
t-2 36.5q4 0 5 -1q2 0 21 -0.5t39 -0.5q17 1 28 1.5t13 2.5q2 1 3 6.5t1 11t-2 9.5t-6 4q-2 -1 -13.5 0.5t-25.5 1.5q-11 0 -30 1.5t-35 -0.5q0 15 -0.5 26t-0.5 21.5v21v24.5q0 18 1 33t1.5 29.5t1 29.5t0.5 32h15.5h32.5h41h42v-16t6 -16q1 -3 7 -4t12 -0.5t11.5 2
t7.5 4.5q2 4 1 13t-2 13v5.5t-1 8.5q1 5 -2.5 16t-9.5 13q-4 1 -18.5 1.5t-34 1t-42 0.5h-42t-32.5 -0.5t-15 -0.5q-8 -1 -25 -1.5t-23 -2.5t-8.5 -8t-2 -13t3 -12.5t7.5 -6.5q16 -1 29 0q-2 -35 -2 -60v-60q0 -14 -1 -29.5t-1 -32.5t2.5 -34.5t1.5 -37.5q-2 -26 -2.5 -51
t-1.5 -46v-49t2 -50h-14t-15 -1q-5 -1 -7.5 -7t-3 -13.5t2 -14.5t8.5 -9q3 -1 9.5 -1.5t13.5 -1t13.5 -1t10.5 -0.5h14.5h30h37.5h38t31.5 1t17.5 2q3 1 5 5t3.5 9.5t2 10.5t0.5 8q2 4 2 7.5v5.5q0 5 1.5 13.5t-0.5 12.5q-2 3 -7.5 4.5t-12 2t-12 -0.5t-7.5 -3q-6 -9 -6 -17
v-16q-18 0 -36.5 1t-34.5 1.5t-26.5 1.5t-12.5 1z" />
    <glyph glyph-name="E_W" unicode="EW" horiz-adv-x="748" 
d="M86 51q-2 21 -0.5 35.5t-0.5 37.5q0 10 1 27.5t1 28.5q-1 12 -2 34.5t-2 36.5q2 -1 6 -1q1 0 20 -0.5t39 -0.5q17 0 28 1t13 2t3.5 6.5t1 11t-2 9.5t-5.5 4q-2 0 -13.5 1.5t-25.5 1.5q-11 0 -30.5 1t-34.5 0q0 15 -0.5 26t-1 21t-0.5 21v25q1 35 2.5 62t2.5 62h131
q0 -8 -0.5 -16t5.5 -17q2 -2 7.5 -3t12 -0.5t12 2t7.5 4.5q2 4 0.5 12.5t-1.5 13.5v5.5t-2 7.5q1 5 -2 16t-9 13q-4 1 -18.5 2t-34.5 1h-42.5h-41.5t-32.5 -0.5t-15.5 -0.5h-10.5t-14 -0.5t-14 -1t-9.5 -1.5q-5 -2 -7.5 -8t-2.5 -13t2.5 -12.5t7.5 -6.5q8 -1 15 -1h15
q-2 -17 -2.5 -31t-0.5 -28v-28.5v-31.5q0 -14 -1 -30t-1 -32q1 -17 3 -35t1 -37q-1 -26 -2 -51t-1 -46h-1q0 -30 0.5 -50t2.5 -50q-14 1 -30 0q-5 -1 -7.5 -7t-2.5 -13.5t2.5 -14.5t7.5 -9q3 -1 9.5 -1.5t13.5 -1l14 -1t11 -0.5q3 0 27.5 -0.5t54 -0.5t55 0.5t31.5 2.5
q3 1 5.5 5.5t4 10t2 10.5t-0.5 7q2 5 2 8.5v5.5q1 5 2 13.5t-1 12.5q-4 6 -19.5 6.5t-19.5 -4.5q-5 -8 -5 -16v-16q-18 0 -36.5 0.5t-34.5 1.5t-27 1.5t-13 0.5zM391 310q4 -22 6 -48.5t5 -45.5q1 -5 1.5 -22t1.5 -36t1.5 -35.5t1.5 -21.5q11 77 20.5 152t20.5 152
q1 10 9.5 16.5t17.5 7t17 -5.5t8 -20q1 -17 5 -41t8.5 -50.5t9 -51.5t7.5 -44q1 -5 1.5 -22t1.5 -36t1.5 -35.5t1.5 -21.5q14 102 27 200t28 201q7 47 12 90.5t12 89.5q-8 1 -15.5 1.5t-15.5 -0.5q-9 0 -13 4.5t-4.5 10.5t2.5 12t9 8q11 5 27 4t23 -2q4 0 10.5 -0.5t14 -1
t14 -1.5t9.5 -2q6 -2 8.5 -7.5t2.5 -11.5t-3 -11t-8 -6t-9.5 -1t-9.5 -1q-4 -47 -10.5 -90t-14.5 -90q-3 -19 -5 -39.5t-6 -41.5q-3 -23 -9 -46t-9 -48q-5 -35 -9 -75t-8 -68q-1 -7 -2 -13.5t-2 -12.5q-6 -43 -10.5 -76.5t-13.5 -59.5q-2 -7 -10 -13q-5 -4 -12 -4
q-11 -1 -19.5 7t-4.5 25q-6 46 -11 89t-12 90q-4 23 -7.5 49.5t-8.5 54.5q-5 -35 -8.5 -72.5t-7.5 -63.5q-1 -7 -1.5 -13.5t-2.5 -12.5q-6 -43 -10.5 -76.5t-13.5 -59.5q-2 -7 -10 -13q-4 -4 -12 -4q-11 -1 -19.5 7t-3.5 25q-7 46 -12 89t-12 90q-5 32 -8.5 81.5t-9 106.5
t-13 116t-20 110t-31 88.5t-45.5 51.5q-21 10 -43.5 13t-43.5 -1t-39 -14.5t-31 -27.5q-18 -24 -21 -48t6 -40.5t28.5 -23t46.5 2.5q24 8 33.5 29.5t7.5 41.5q0 8 5.5 14t14.5 6q9 1 15.5 -4t7.5 -13q3 -35 -12.5 -64.5t-54.5 -41.5q-36 -11 -74 2q-15 5 -27 13
q-17 11 -27 26.5t-13 33.5q-3 23 5.5 45t22.5 42q15 21 42.5 34t59 17.5t63 -0.5t55.5 -21q28 -19 47 -52t31.5 -75t20 -88.5t13 -93.5t9.5 -90t9 -77z" />
    <glyph glyph-name="E_Y" unicode="EY" horiz-adv-x="640" 
d="M92 53q1 0 12 -1t27 -1.5t34.5 -1.5t36.5 -1v16t6 17q1 2 7 3t12.5 0.5t12 -2t7.5 -4.5q2 -4 0.5 -12.5t-1.5 -13.5v-5.5t-2 -7.5q1 -5 -2.5 -18.5t-8.5 -15.5q-4 -1 -17.5 -1.5t-31.5 -1t-38 0t-37.5 0.5h-30h-14.5q-8 1 -24.5 1.5t-23.5 2.5q-5 2 -7.5 9t-2 14.5
t3 13.5t7.5 7q8 1 15 1h14q-2 30 -2 50v49q1 21 1.5 46t1.5 51q1 20 -1 37.5t-2 34.5t1 32.5t1 29.5v59.5t2 59.5h-14t-15 1q-5 1 -7.5 6.5t-3 12.5t2 13t8.5 8q3 1 9.5 1.5t13.5 1t13.5 1t10.5 0.5q2 0 15.5 0.5t32.5 0.5h41.5t42.5 -0.5t34.5 -1t18.5 -1.5q6 -2 9.5 -13
t1.5 -16q2 -5 2 -8.5v-5.5q0 -4 1.5 -13t-0.5 -13q-2 -3 -7.5 -4.5t-12 -2t-12 0.5t-7.5 4q-5 8 -5 16v16h-42h-41h-32.5h-15.5q-1 -35 -2.5 -62t-1.5 -62v-24.5v-21t0.5 -21.5t0.5 -26q16 2 35 0.5t30 -1.5q14 0 25.5 -1.5t13.5 -1.5q4 0 6 -4t2 -9t-1 -10.5t-4 -6.5
q-2 -2 -13 -2.5t-27 -1.5q-20 0 -39 0.5t-21 0.5q-1 0 -2 0.5t-3 0.5q1 -14 2 -36.5t1 -34.5q0 -10 -1 -27.5t0 -28.5q1 -22 0 -37t1 -35zM409 286q-10 30 -18.5 71t-18.5 87t-22.5 94t-29.5 90t-39 76t-51 53q-20 13 -45 18t-48.5 3t-43.5 -12t-31 -26q-16 -24 -17 -47.5
t9.5 -40t31 -24t46.5 1.5q23 8 30.5 29t4.5 42q-2 8 3.5 13.5t14.5 5.5q9 1 16 -4t8 -13q6 -35 -7 -64.5t-51 -40.5q-17 -5 -36.5 -4t-37.5 7q-14 4 -28 13q-37 25 -46 62q-5 23 2 44.5t19 40.5q13 20 39.5 33t58 16.5t63.5 -1.5t57 -21q34 -22 58.5 -52.5t42 -66.5
t29.5 -75.5t21.5 -79.5t17.5 -79t18 -73q10 43 18 77t15 69t14.5 76t18.5 99q-8 1 -11.5 0.5t-6.5 1.5q-5 2 -7 8t-2 12t3 11.5t8 6.5q13 2 23 2t19 -1t18.5 -2t21.5 0q9 1 13.5 -4t5 -12t-3 -13.5t-9.5 -8.5q-9 -4 -25 -4q-15 -46 -25 -91.5t-18.5 -91t-17.5 -90.5t-21 -89
l-9 -32l1 6q0 -19 -1 -37.5t-1 -35.5v-88t-2 -87q15 2 30 -1q5 -1 7.5 -6t3 -11t-2 -11.5t-8.5 -7.5q-3 -2 -9.5 -2.5t-14 -1t-14.5 -1t-11 -0.5q-6 -1 -22.5 -2t-27.5 4q-6 2 -9 8t-2.5 12t4.5 10.5t13 4.5q10 -1 20 0q1 46 2.5 90t1.5 92v65z" />
    <glyph glyph-name="F_A" unicode="FA" horiz-adv-x="581" 
d="M317 34q9 0 12.5 -4.5t3.5 -10.5t-3.5 -12t-8.5 -8q-11 -4 -27 -3t-22 1q-4 0 -10.5 0.5t-14 1t-14 1t-9.5 1.5q-5 2 -7 7.5t-1.5 11.5t3.5 11t8 6q7 1 13 1h12q6 21 9.5 41.5t8.5 44.5q2 10 5 27.5t5 28.5q4 17 9.5 35.5t8.5 35.5q8 33 15.5 66.5t12.5 64.5q7 36 12 70
t11 69q-4 13 4 19t19 6q7 0 12 -3q7 -4 10 -10q9 -20 13 -46.5t10 -59.5q2 -5 2.5 -10t1.5 -10q4 -22 8 -48t9 -53q3 -20 8.5 -38t9.5 -35q3 -16 5 -32t5 -31q8 -36 15 -66.5t12 -67.5h8.5t9.5 -1t7.5 -5.5t2.5 -10.5t-3 -11t-8 -7q-7 -2 -23.5 -2.5t-24.5 -1.5q-6 0 -22 -1
t-27 3q-6 2 -8.5 7.5t-2 11.5t5 10t13.5 4q8 -1 15 -0.5t15 1.5q-6 35 -12 66t-13 68q-1 3 -1 6t-1 7q-18 -1 -42.5 -1t-54.5 -1q-2 -10 -3 -19t-3 -18q-1 -5 -1.5 -9.5t-1.5 -9.5q-6 -29 -8.5 -49t-9.5 -39q8 -1 17 0zM10 687q-8 5 -9 12.5t4 13.5q5 7 13.5 8t16.5 -4
q9 -5 17 -8q26 -10 54.5 -9t58 8t58.5 16.5t56 17.5q18 5 39 7.5t42 1t39.5 -9t30.5 -22.5q18 -21 20.5 -45.5t-7 -46t-30 -36t-48.5 -14.5q-30 -1 -49 16.5t-29 40.5q-3 8 1 15t12 10q8 2 16 -1t11 -11q5 -11 14 -22t23 -10q15 0 25.5 8.5t15 21t3 26.5t-11.5 25
q-8 9 -21 13t-28 4.5t-30 -2t-26 -5.5q-27 -8 -49 -15.5t-43.5 -13.5t-44.5 -10t-51 -4q-1 -39 -2 -79.5t-2 -80.5q0 -37 0.5 -77t1.5 -80q17 2 36 0t31 -2q15 0 26.5 -1.5t13.5 -1.5q4 0 6 -4t2 -9t-1.5 -10t-3.5 -7t-13.5 -3t-28.5 -1q-20 -1 -39.5 -0.5t-21.5 1.5
q-3 0 -6 1q1 -18 2 -36.5t2 -35.5q0 -14 -1 -37t0 -37q1 -29 0 -60t1 -59q6 0 12 -1t11 -3q6 -2 9 -8t3 -12t-4 -10.5t-13 -4.5q-12 1 -23.5 -0.5t-22.5 -3t-22.5 -2t-24.5 1.5q-5 1 -8 6t-3 11t2.5 11.5t7.5 7.5q4 2 11.5 2.5t15.5 1.5q-3 26 -2 57.5t1 69.5v26
q1 29 2 63.5t2 69.5q1 25 -1.5 49t-2.5 47q0 21 1 41.5t1 40.5v81.5t2 80.5q-27 4 -50 20zM333 215q26 -1 46.5 -1t37.5 -1q-5 23 -9.5 42t-9.5 43q-10 46 -14 83.5t-11 81.5q-1 -4 -2 -16t-1.5 -26t-1.5 -26.5t-2 -16.5q-3 -14 -5 -30t-5 -33q-4 -17 -9.5 -34.5t-8.5 -37.5
q-2 -10 -2.5 -14.5t-2.5 -13.5z" />
    <glyph glyph-name="F_E" unicode="FE" horiz-adv-x="586" 
d="M351 52q1 0 12 -0.5t27 -1.5t35 -1.5t37 -0.5q0 8 -0.5 16t5.5 16q1 3 7 4t12.5 0.5t12 -2t7.5 -4.5q2 -4 0.5 -13t-1.5 -13v-5.5t-2 -8.5q0 -2 -0.5 -7t-2 -10.5t-3.5 -10t-5 -5.5q-4 -1 -17.5 -1.5t-31.5 -1t-38 -0.5h-37.5t-30 0.5t-14.5 0.5q-8 1 -24.5 1.5
t-22.5 2.5t-8.5 9t-2 14.5t3 13.5t7.5 7q15 2 29 0q-2 30 -2 50v50q1 21 1.5 46t2.5 51q0 19 -2 37t-2 35q0 16 1 31.5t1 30.5v59.5t2 59.5q-7 -1 -14 -0.5t-15 1.5q-5 1 -7.5 6.5t-3 12t2 12.5t8.5 8t23 3t25 1q2 0 15 0.5t32.5 0.5h42h42t34 -1t18.5 -2q6 -2 9.5 -13
t2.5 -16q2 -10 2 -13q0 -5 1.5 -13.5t-0.5 -12.5q-2 -3 -7.5 -4.5t-12 -2t-12.5 0.5t-7 3q-6 9 -6 17v16h-131q-1 -35 -2 -62t-2 -63v-24.5v-20.5t0.5 -21t0.5 -26q16 1 35 0t31 -1q14 0 25 -1.5t13 -1.5q4 0 6 -4t2.5 -9.5t-1 -11t-3.5 -6.5q-2 -2 -13 -2.5t-28 -0.5h-39
t-21 1h-5q1 -13 2 -35.5t1 -34.5q1 -11 0 -28.5t-1 -27.5q1 -23 0 -38t1 -35zM9 687q-7 5 -8 12.5t4 14.5q5 6 13.5 7.5t15.5 -3.5q10 -7 17 -9q26 -10 62.5 -9t75 8t75.5 16.5t64 17.5q18 5 39.5 8t42.5 1t39.5 -9.5t30.5 -22.5q17 -21 19.5 -45.5t-7 -46t-29.5 -36
t-48 -14.5q-30 -1 -49.5 17t-28.5 41q-3 8 0.5 15t11.5 9q8 3 16.5 0t11.5 -11q5 -11 13.5 -22t23.5 -11t25.5 8.5t15 21t2.5 26.5t-11 26q-8 9 -21.5 12.5t-28.5 4t-30 -2t-25 -5.5q-54 -15 -118 -28.5t-120 -14.5q-1 -38 -2 -79t-2 -81q-1 -37 0 -77l2 -80q16 2 35.5 0.5
t31.5 -1.5q14 0 26 -2t14 -2q4 1 5.5 -3t1.5 -9t-1 -10.5t-4 -7.5q-6 -4 -41 -4h-20.5h-19.5t-15 0.5l-6 0.5q-2 0 -3 0.5t-3 0.5q1 -18 2 -36.5t2 -34.5q0 -7 -0.5 -17t-0.5 -20.5t-0.5 -20.5t-0.5 -16q1 -30 0 -61t1 -59q13 0 24 -3q6 -3 9 -9t2.5 -12t-4.5 -10.5
t-13 -3.5q-12 1 -23.5 -0.5t-22.5 -3t-22.5 -2t-24.5 1.5q-10 2 -10.5 16t10.5 19q4 2 11.5 2.5t15.5 1.5q-4 26 -3 57.5t2 69.5v27q1 29 1.5 63t2.5 69q1 26 -1.5 49.5t-2.5 46.5q0 21 1 41.5t1 40.5q0 41 -0.5 81.5t1.5 80.5q-13 3 -25.5 7.5t-24.5 12.5z" />
    <glyph glyph-name="F_I" unicode="FI" horiz-adv-x="468" 
d="M298 45q-2 34 -2 59.5v60.5q0 14 -1 29.5t-1 31.5q0 17 2 35t1 37q-1 26 -2 51.5t-1 47.5v19q-1 29 -2 47t2 37q-8 1 -15 1.5t-10 1.5q-6 2 -8.5 8t-2 12.5t3 11.5t7.5 6q25 3 45.5 -1t44.5 -2q9 0 13 -5t4.5 -11.5t-2.5 -13t-9 -7.5q-11 -3 -23 -3q-2 -20 -1 -38t0 -40
q-1 -10 0 -27.5t1 -27.5q0 -16 -2 -35t-2 -35q-1 -32 -2 -65t0 -64q0 -35 1.5 -62.5t2.5 -62.5h19q9 0 13 -5t4.5 -11.5t-2.5 -13t-9 -7.5q-11 -4 -27 -3t-22 1q-4 0 -10.5 0.5t-13.5 1t-13.5 1t-9.5 1.5q-6 2 -8.5 8t-2 12.5t3 11.5t7.5 6q14 3 29 1zM10 687q-8 5 -9 12.5
t4 14.5q5 6 13.5 7.5t16.5 -3.5q7 -6 17 -9q25 -9 54 -5.5t59 13t61 20t60 15t54.5 -2t46.5 -30.5q17 -21 19.5 -45.5t-7 -46t-29.5 -36t-48 -14.5q-30 -1 -49.5 17t-28.5 41q-4 8 0 15t12 9q8 3 16.5 0t11.5 -11q4 -11 13 -22t24 -11t25.5 8.5t15 21t2.5 26.5t-11 26
q-17 20 -48.5 17.5t-67.5 -14t-71.5 -24.5t-62.5 -13q-1 -38 -2 -79t-2 -81q0 -37 0.5 -77t1.5 -80q17 2 36.5 0.5t30.5 -1.5q15 0 26.5 -2t13.5 -2q4 1 6 -3t2 -9t-1.5 -10.5t-3.5 -7.5t-13.5 -3t-28.5 -1q-20 -1 -39.5 0t-21.5 1q-1 0 -2.5 0.5t-3.5 0.5q1 -18 2 -36.5
t2 -34.5q0 -14 -1 -37.5t0 -36.5q1 -30 0 -61t1 -58q6 -1 12 -1.5t11 -2.5q6 -3 9 -9t3 -12t-4 -10.5t-13 -3.5q-12 1 -23.5 -0.5t-22.5 -3t-22.5 -2t-24.5 1.5q-11 2 -11 16t11 19q8 4 26 4q-3 26 -2 57.5t1 69.5v27q1 29 2 63t2 69q1 26 -1 49.5t-3 46.5q0 21 1 41.5
t1 40.5v82t2 80q-14 3 -26.5 7.5t-23.5 12.5z" />
    <glyph glyph-name="F_O" unicode="FO" horiz-adv-x="573" 
d="M314 381q-2 -27 -4.5 -67.5t-3 -84t3 -84.5t13.5 -69q4 -12 14 -23t23.5 -16.5t28.5 -3.5t30 15q15 14 23 36t12 45.5t4.5 43.5t0.5 31q0 13 3.5 49.5t3.5 80t-7 85.5t-28 68q-12 15 -25.5 18t-26.5 -0.5t-23.5 -12.5t-16.5 -19q-6 -11 -10 -15.5t-6 -15.5q-6 -29 -9 -61
zM10 687q-8 5 -9 12.5t4 14.5q5 6 13.5 7.5t16.5 -3.5q7 -6 17 -9q26 -10 59.5 -7.5t68 10.5t68 18.5t60.5 18.5q18 5 39.5 8t42.5 1.5t39.5 -9t30.5 -22.5q17 -21 19.5 -45.5t-7 -46t-29.5 -36t-48 -15.5q-30 -1 -49.5 17t-28.5 41q-3 8 0.5 15t11.5 9q8 3 16.5 0t11.5 -11
q5 -11 13.5 -22t23.5 -11t25.5 8.5t15 21t2.5 26.5t-11 26q-8 9 -21.5 12.5t-28.5 4t-30 -2t-25 -5.5q-53 -15 -107 -32.5t-111 -17.5q-1 -38 -2 -79t-2 -81q0 -37 0.5 -77t1.5 -80q17 2 36.5 0.5t30.5 -1.5q15 0 26.5 -2t13.5 -2q4 1 6 -3t2 -9t-1.5 -10t-3.5 -7
t-13.5 -3.5t-28.5 -1.5q-20 -1 -39.5 0t-21.5 1q-1 1 -6 1q1 -17 2 -36t2 -35q0 -14 -1 -37.5t0 -36.5q1 -30 0 -61t1 -59q14 0 23 -3q6 -2 9 -8t3 -12.5t-4 -11t-13 -3.5q-12 1 -23.5 -0.5t-22.5 -3t-22.5 -2t-24.5 1.5q-5 1 -8 5.5t-3 10.5t2.5 11.5t8.5 8.5q3 1 10.5 1.5
t15.5 1.5q-3 26 -2 57.5t1 70.5l1 26q0 29 1 63t2 69q1 26 -1 49.5t-3 46.5q0 21 1 42t1 40v82t2 80q-14 3 -26.5 7.5t-23.5 12.5zM468 516q23 -24 32.5 -68t11 -91.5t-1 -90.5t-3.5 -66q0 -18 -3 -44.5t-10 -54.5t-18.5 -53t-29.5 -39q-22 -17 -48.5 -19t-50.5 6
t-42.5 24.5t-25.5 35.5q-4 10 -6 20.5t-4 21.5q-2 14 -3.5 28.5t-2.5 28.5q-2 17 -2.5 33t-1.5 33v78t3 78q2 16 3.5 32t5.5 32q3 12 7 24.5t11 24.5q17 29 52 43q33 14 68.5 10t58.5 -27z" />
    <glyph glyph-name="F_U" unicode="FU" horiz-adv-x="621" 
d="M526 366q0 -16 -2 -35t-2 -35l-2 -66t0 -64v-40t-4.5 -45.5t-15 -41.5t-31.5 -29q-28 -14 -55 -15.5t-49.5 6t-39 22.5t-23.5 35q-5 11 -8.5 29t-5.5 31q0 27 -1 54.5t-1 54.5q0 17 2.5 34.5t1.5 37.5q-1 26 -2 51.5t-2 47.5v19q0 29 -1 47.5t2 37.5q-8 1 -15 1.5
t-11 1.5q-5 2 -7.5 8t-2.5 12t3 11.5t8 5.5q25 4 45.5 0t44.5 -3q9 1 13 -4t4 -11.5t-3 -13t-8 -7.5q-11 -3 -24 -3q-2 -20 -1 -38t0 -41q0 -10 1 -27.5t1 -27.5q-1 -16 -2.5 -35t-2.5 -35q-1 -45 -1.5 -88t1.5 -88q2 -17 3.5 -26t5.5 -20q6 -17 24 -29t39 -11
q28 1 43.5 16.5t23 36.5t9.5 43t2 35q0 14 -1 29.5t-1 32.5t2.5 34.5t1.5 37.5q-2 26 -2.5 51.5t-1.5 47.5v19q-1 29 -1.5 47.5t2.5 38.5q-8 1 -15.5 1t-10.5 2q-6 2 -8.5 7.5t-2 12t3 11.5t7.5 5q25 4 46 0t44 -3q9 1 13 -4t4.5 -11.5t-2.5 -12.5t-9 -8q-5 -2 -11 -2h-12
q-2 -21 -1 -39t0 -41q0 -10 1 -27.5t0 -27.5zM10 687q-8 5 -9 13t4 14t13.5 7.5t16.5 -3.5q9 -5 17 -8q26 -10 62.5 -9t75 7.5t75.5 16.5t64 18q18 5 39 7.5t42 1t39.5 -9t30.5 -22.5q17 -21 19.5 -45.5t-7 -46t-29.5 -36t-48 -14.5q-30 -1 -49 16.5t-29 40.5q-3 8 1 15
t12 10q8 2 16 -1t11 -11q5 -11 14 -22t23 -10q15 0 25.5 8.5t15 20.5t3 26t-11.5 26q-8 9 -21 13t-28.5 4t-30.5 -2t-25 -5q-54 -16 -117.5 -29.5t-120.5 -13.5q-1 -39 -2 -79.5t-2 -80.5q0 -38 0.5 -77.5t1.5 -79.5q17 2 36 0t31 -2q15 0 26.5 -2t13.5 -1q4 0 5.5 -4t2 -9
t-1 -10t-3.5 -7t-13.5 -3t-28.5 -2q-20 0 -39.5 0.5t-21.5 1.5h-6q1 -17 2 -36t2 -35q0 -14 -1 -37t0 -37q1 -30 0 -61t1 -58q6 0 12 -1t11 -3q6 -2 9 -8t2.5 -12t-4.5 -10.5t-13 -4.5q-12 1 -23 -0.5l-22 -3t-22.5 -2t-24.5 1.5q-5 1 -8 6t-3 11t2.5 11.5t7.5 7.5
q4 2 11.5 2.5t15.5 1.5q-3 26 -2 57t1 70v26q1 29 2 63.5t2 69.5q1 25 -1.5 49t-2.5 46t1 42.5t1 40.5v81t2 81q-29 5 -50 19z" />
    <glyph glyph-name="I_F" unicode="IF" horiz-adv-x="510" 
d="M41 226q-3 34 -3 59.5v59.5q0 15 -1 30.5t-1 31.5q0 17 2.5 34.5t1.5 37.5q-1 26 -2 51.5t-2 47.5v19q-1 29 -1.5 47t2.5 37q-8 1 -15.5 1t-10.5 2q-5 1 -7.5 7t-2.5 12.5t2.5 12t7.5 6.5q25 3 46 -1t45 -3q9 1 13 -4t4 -12t-3 -13t-9 -8q-5 -2 -11 -2h-12
q-2 -21 -1 -38.5t0 -39.5q0 -11 1 -28t1 -28q-1 -16 -3 -34.5t-2 -34.5q-1 -33 -1.5 -65.5t-0.5 -63.5q1 -35 2.5 -62.5t1.5 -62.5h20q9 0 13 -5t4 -11.5t-3 -13t-9 -7.5q-11 -4 -26.5 -3.5t-21.5 1.5q-8 1 -25 1.5t-23 2.5q-5 2 -7.5 8t-2.5 12.5t2.5 11.5t7.5 6q14 3 30 1
zM226 680q-2 -45 -2 -87.5t-1 -87.5q0 -20 -1 -40.5t-1 -42.5q1 -22 3 -46t1 -50l-1.5 -49.5t-0.5 -29v-28.5v-47q0 -51 0.5 -77t-0.5 -36q-3 -45 -22.5 -71t-44.5 -33t-50.5 6t-41.5 45q-13 27 -5 55t31 45q19 15 31.5 15t18.5 -8.5t5 -22.5t-8 -28q0 -2 -2 -4
q-3 -6 -1 -13.5t6.5 -12t11 -4.5t11.5 10q25 42 19 68t-26.5 38t-47.5 10t-45 -18q-27 -24 -37 -54.5t-7 -64.5q2 -25 19 -46.5t41.5 -34t53.5 -14.5t55.5 11t47.5 43t30 82q2 16 1.5 40.5t-0.5 72.5q0 20 1 25t1.5 7t1 7.5t0.5 26.5q0 16 -1 35t-3 36q5 0 6 -1
q2 0 21.5 -0.5t39.5 -0.5q17 1 28.5 2t13.5 3t3.5 7t1 10t-2 9t-5.5 4q-2 -1 -13.5 1t-26.5 2q-11 0 -30.5 1.5t-36.5 -0.5q-1 41 -1.5 80.5t-0.5 77.5q1 48 2.5 91.5t2.5 90.5h15.5h33.5h42.5h42.5v-21.5t6 -21.5q1 -3 7 -4.5t12.5 -1.5t12 2.5t7.5 6.5q2 5 1 17t-2 17v7.5
t-1 10.5q1 7 -2.5 13.5t-9.5 8.5q-4 2 -19 3t-35 1.5t-43 0t-43 -0.5t-33.5 -0.5t-15.5 -0.5q-4 0 -11 -0.5t-14.5 -1t-14 -1.5t-9.5 -2q-6 -2 -8.5 -7.5t-2.5 -11.5t3 -11t8 -6q14 -3 30 -1z" />
    <glyph glyph-name="I_S" unicode="IS" horiz-adv-x="489" 
d="M78 218q-2 34 -2 59.5v60.5q0 14 -1 29.5t-1 31.5q0 17 2 35t2 37q-2 26 -2.5 51.5t-1.5 47.5v19q-1 29 -1.5 47t1.5 37q-8 1 -15 1.5t-10 1.5q-6 2 -8.5 8t-2 12.5t3 11.5t7.5 6q25 3 46 -1t44 -2q9 0 13 -5t4.5 -12t-2.5 -13t-9 -8q-5 -1 -11 -1.5t-12 -0.5
q-2 -20 -1 -38t0 -40q0 -10 1 -27.5t0 -27.5q0 -16 -2 -35t-2 -35q-1 -32 -2 -65t0 -64q1 -35 2 -62.5t2 -62.5h19q9 0 13 -5t4.5 -11.5t-2.5 -13t-9 -7.5q-11 -4 -27 -3t-21 1q-8 1 -25 1.5t-23 2.5t-8.5 8t-2 12.5t3 11.5t7.5 6q14 3 29 1zM404 238q2 -4 2 -7q0 3 -2 7z
M386 286q16 -33 26.5 -73t14 -81.5t-0.5 -82t-17 -74.5q-24 -65 -59.5 -101.5t-75.5 -50t-81.5 -7.5t-77.5 26t-64 50t-41 64.5t-8 70t34 66.5q28 29 71 43t85 2t62 -40t25 -66q4 -31 -9 -58.5t-48 -38.5q-19 -5 -39 -2.5t-37 11.5q-39 22 -45 63q-1 8 4.5 14t14.5 7
t15.5 -3.5t7.5 -12.5q5 -25 25 -36q20 -10 41 -4q19 5 24 22t4 34q-4 26 -16 45.5t-42 28.5q-29 8 -60.5 -3t-50.5 -31q-28 -29 -24.5 -67t28 -71t64 -55.5t82 -21.5t83.5 31t68 103q20 52 17 110t-17 112q-5 15 -19.5 47.5t-32 68t-35 68t-27.5 47.5q-22 34 -34.5 61.5
t-16.5 62.5q-3 23 -2 45.5t9 45.5q14 41 58 63q20 9 42.5 12t44.5 -3q36 -11 55 -42q11 -20 13 -41.5t0 -42.5q-2 -8 -8.5 -13t-15.5 -4q-8 2 -14 8t-5 14q1 11 1 24t-4 25t-12 21.5t-23 13.5q-30 9 -50.5 -2t-31.5 -31t-14.5 -44.5t-0.5 -43.5q4 -24 13 -47.5t21 -45.5
q14 -26 29.5 -50.5t30.5 -50.5q9 -14 12.5 -27t11.5 -27q3 -7 11 -18t11 -17z" />
    <glyph glyph-name="I_Y" unicode="IY" horiz-adv-x="564" 
d="M122 46q15 2 29 -1q5 0 7.5 -5.5t3 -12t-2 -12.5t-7.5 -8q-7 -2 -23.5 -2.5t-24.5 -1.5q-6 0 -22 -1t-27 3q-5 1 -8 7.5t-3 13t4 11.5t13 5h19q1 35 2.5 62.5t1.5 62.5q1 31 0 64t-2 65q0 16 -1.5 35t-2.5 34q0 11 1 28t0 28q-1 22 0 39.5t-1 38.5q-6 0 -12 0.5t-11 2.5
q-5 1 -8 7.5t-3 13t4 11.5t13 5q24 -2 44.5 2t45.5 1q5 -1 7.5 -6t3 -11.5t-2 -12.5t-7.5 -8q-4 -1 -11 -1.5t-15 -1.5q3 -19 2 -37t-1 -47q-1 -5 -1 -9.5v-9.5q0 -22 -1 -47.5t-2 -51.5q-1 -19 1 -37t2 -35q1 -16 0 -31.5t-1 -29.5q-1 -35 -1 -60.5t-2 -59.5zM334 287
q-12 37 -22 93t-23.5 115.5t-33.5 116.5t-51 96q-36 45 -68 51.5t-56 -8t-36.5 -43.5t-9 -55t26 -42t69.5 -5q12 3 18.5 11t8.5 19t1 23t-3 23q-1 8 4.5 13.5t14.5 6.5q8 0 15 -5t9 -13q6 -35 -7 -64.5t-51 -40.5q-37 -9 -75 3q-7 3 -14.5 6t-13.5 8q-26 21 -33 49t0 55
t25.5 49.5t45.5 33.5q30 13 57 8.5t50.5 -19.5t42 -37t30.5 -43q21 -37 35 -79t24.5 -85.5t19 -86t19.5 -79.5q10 43 18 77t15 69t14.5 76.5t18.5 99.5q-8 1 -11 0.5t-6 1.5q-10 5 -10 20t11 17q13 2 23.5 2t19.5 -0.5t18.5 -1.5t21.5 0q9 0 13.5 -5t4.5 -11.5t-3.5 -13
t-9.5 -9.5q-11 -3 -24 -3q-15 -46 -25 -92t-19 -91.5t-18 -90.5t-21 -88l-9 -32l2 6q0 -19 -1 -37.5t-1 -35.5v-88t-3 -87h15t15 -2q11 -2 11.5 -16t-10.5 -19q-3 -2 -10 -2.5t-14.5 -1.5t-14.5 -1.5t-11 -0.5q-5 -1 -21.5 -2t-27.5 4q-6 2 -9 8t-2.5 12.5t4.5 11t13 3.5h19
q1 47 2.5 91t2.5 92v65z" />
    <glyph glyph-name="L_A" unicode="LA" horiz-adv-x="562" 
d="M283 213q9 0 12.5 -4.5t3.5 -10.5t-3.5 -12t-9.5 -8q-11 -4 -26.5 -3.5t-21.5 1.5q-4 0 -10.5 0.5t-14 1t-14 1t-9.5 1.5q-5 2 -7 7.5t-1.5 11.5t3.5 11t8 6q7 1 13 1h12q6 21 9.5 42t8.5 44q2 10 5 28t5 28q4 17 9.5 35.5t8.5 34.5q8 34 15.5 67.5t12.5 64.5q7 36 12 70
t11 69q-4 13 4 19t19 6q7 0 12 -3q7 -4 10 -11q9 -20 13 -46t10 -59q2 -5 2.5 -10t1.5 -10q4 -22 8 -48t9 -53q3 -20 8.5 -38t9.5 -35q3 -16 5 -32t5 -31q8 -36 15 -66.5t12 -67.5h8.5t9.5 -1t7.5 -5.5t2.5 -10.5t-3 -11t-8 -7q-7 -2 -23.5 -2.5t-24.5 -1.5q-6 -1 -22 -1.5
t-27 3.5q-6 2 -8.5 7.5t-2 11.5t5 10t13.5 4q8 -1 15 -0.5t15 1.5q-7 35 -12.5 66t-12.5 68q-1 3 -1 6t-1 7q-18 -1 -42.5 -1.5t-54.5 -0.5q-2 -10 -3 -19t-3 -18q-1 -5 -1.5 -10t-1.5 -10q-6 -29 -8.5 -48.5t-9.5 -38.5q8 -1 17 0zM95 78q37 -1 74 -11.5t69 -22.5
q24 -8 47 -14t47 -14q11 -4 27 -9t32.5 -6.5t31 1t23.5 13.5q13 16 14.5 33t-3.5 31.5t-15.5 24.5t-22.5 11.5t-23.5 -7.5t-18.5 -33q-2 -7 -9 -10t-14.5 -1t-13 9t-4.5 19q2 20 12.5 33t26 19t33.5 6.5t35 -4.5q22 -6 36.5 -26t19.5 -44.5t-1.5 -49.5t-27.5 -41.5t-57 -20
t-91 14.5q-24 8 -47.5 14.5t-48.5 15.5q-21 7 -47 15.5t-52.5 12.5t-52 1.5t-45.5 -15.5q-7 -4 -14 -2.5t-12 8.5q-4 7 -2.5 14.5t7.5 11.5q10 7 23 12q5 2 10.5 3.5t10.5 3.5q-2 36 -1.5 71.5t0.5 73.5q0 20 -1.5 40.5t-1.5 42.5q1 22 3 46t1 49q-1 35 -2 69.5t-1 63.5
l-1 26q0 39 -1 70t2 57q-8 1 -15.5 1.5t-10.5 2.5q-6 2 -8.5 7.5t-2.5 11.5t3 11t8 6q25 4 46.5 -1t45.5 -3q9 0 13 -4.5t4.5 -10.5t-2.5 -12t-9 -8q-5 -2 -11 -3t-12 -1q-2 -27 -1 -58t0 -61q-1 -14 0 -37t1 -37q-1 -21 -2.5 -46.5t-1.5 -46.5l-2 -88t0 -85q0 -38 1 -73z
M299 393h46.5t37.5 -1q-5 23 -9.5 42t-9.5 43q-10 46 -14 83.5t-11 81.5q-1 -4 -2 -16t-1.5 -26t-1.5 -26t-2 -16q-3 -15 -5 -31t-5 -33q-4 -17 -9.5 -34.5t-8.5 -37.5q-2 -10 -2.5 -14.5t-2.5 -14.5z" />
    <glyph glyph-name="L_E" unicode="LE" horiz-adv-x="562" 
d="M289 228q1 0 12 -0.5t27 -1.5t35 -1.5t37 -0.5q0 8 -0.5 16t5.5 16q1 3 7 4t12.5 0.5t12 -2t7.5 -4.5q2 -4 0.5 -13t-1.5 -13v-5.5t-2 -8.5q0 -2 -0.5 -7t-2 -10.5t-3.5 -10t-5 -5.5q-4 -1 -17.5 -2t-31.5 -1h-38h-37.5t-30 0.5t-14.5 0.5q-8 1 -24.5 1.5t-22.5 2.5
t-8.5 9t-2 14.5t3 13.5t7.5 7q15 2 29 0q-2 30 -2 50v50q1 21 1.5 46t2.5 51q0 19 -2 37t-2 35q0 16 1 31.5t1 30.5v59.5t2 59.5q-7 -1 -14 -0.5t-15 1.5q-5 1 -7.5 6.5t-3 12t2 12.5t8.5 8t23 3t25 1q2 0 15 0.5t32.5 0.5h42h42t34 -1t18.5 -2q6 -2 9.5 -13t2.5 -16
q1 -4 1 -7.5t1 -5.5q0 -5 1 -13.5t-1 -12.5q-2 -3 -7.5 -4.5t-11.5 -2t-12 0.5t-7 3q-6 9 -6 17v16h-131q-1 -35 -2 -62t-2 -63v-24.5v-20.5t0.5 -21t0.5 -26q16 1 35 0t30 -1q14 0 25.5 -1.5t13.5 -1.5q4 0 6 -4t2.5 -9.5t-1 -11t-3.5 -6.5t-13 -2t-28 -1h-39t-21 1
q-3 0 -5 1q1 -14 2 -36.5t1 -34.5q1 -11 0 -28.5t-1 -27.5q1 -23 0 -38t1 -35zM95 78q37 -1 74 -11.5t69 -22.5q24 -8 47 -14t47 -14q11 -4 27 -9t32.5 -6.5t31 1t23.5 13.5q13 16 14.5 33t-3.5 31.5t-15.5 24.5t-22.5 11.5t-23.5 -7.5t-18.5 -33q-2 -7 -9 -10t-14.5 -1
t-13 9t-4.5 19q2 20 12.5 32.5t26 19t33.5 7t35 -4.5q22 -6 36.5 -26t19.5 -44.5t-1.5 -49.5t-27.5 -41.5t-57 -20t-91 14.5q-24 8 -47.5 14.5t-48.5 15.5q-21 7 -47 15.5t-52.5 12.5t-52 1.5t-45.5 -15.5q-7 -4 -14 -2.5t-12 8.5q-4 7 -2.5 14.5t7.5 11.5q10 7 23 12
q5 2 10.5 3.5t10.5 3.5q-2 36 -1.5 71.5t0.5 73.5q0 20 -1.5 40.5t-1.5 41.5q1 23 3 47t1 49q-1 35 -2 69.5t-1 63.5l-1 26q0 39 -1 70t2 57q-8 1 -15.5 1.5t-10.5 2.5q-6 2 -8.5 7.5t-2.5 11.5t3 11t8 6q25 4 46.5 -1t45.5 -3q9 0 13 -4.5t4.5 -10.5t-2.5 -12t-9 -8
q-5 -2 -11 -3t-12 -1q-2 -28 -1 -59t0 -60q-1 -14 0 -37t1 -37q-1 -21 -2.5 -46.5t-1.5 -46.5l-2 -88t0 -85q0 -38 1 -73z" />
    <glyph glyph-name="L_I" unicode="LI" horiz-adv-x="418" 
d="M256 227q-2 34 -2 59.5v60.5q0 14 -1.5 29.5t-0.5 31.5q0 17 2 34.5t1 37.5q-1 26 -2 51.5t-1 47.5q0 5 -0.5 9.5t-0.5 9.5q0 29 -1 47t2 37q-8 1 -15 1t-11 2q-5 1 -7.5 7t-2 12.5t3 12t7.5 5.5q25 4 45.5 0t44.5 -3q9 1 13 -4t4 -12t-3 -13t-8 -8t-11 -2h-12
q-2 -21 -1 -38.5t0 -39.5q-1 -11 0 -28t1 -28q-1 -16 -2.5 -34.5t-1.5 -34.5q-1 -32 -2 -65.5t0 -63.5q0 -35 1.5 -62.5t2.5 -62.5h19q9 0 13 -5t4 -11.5t-3 -13t-8 -7.5q-11 -4 -27 -3.5t-22 1.5q-8 1 -24.5 1.5t-23.5 2.5q-5 2 -7.5 8t-2 12.5t3 11.5t7.5 6q14 3 29 1z
M96 78q12 0 28.5 -8.5t35 -19t38 -21t38 -16t35.5 -2.5t30 19q19 24 15.5 46t-17.5 32t-32.5 3t-29.5 -43q-2 -7 -9 -9.5t-14.5 -0.5t-13 8.5t-4.5 18.5q2 20 12.5 33t26 19t33.5 6.5t35 -4.5q21 -6 35 -22t18 -36t-3 -41.5t-27 -38.5q-27 -22 -53 -25t-52 4.5t-51 20.5
t-49 22.5t-47 11.5t-45 -12q-6 -4 -13.5 -2.5t-11.5 8.5q-5 7 -3 14.5t8 11.5q11 8 22 12q5 2 10.5 3.5t10.5 3.5q-1 36 -1 71.5v73.5q0 20 -1 40.5t-1 42.5t2.5 46t1.5 49q-1 35 -2 69.5t-2 63.5v26q-1 39 -1.5 70t2.5 57q-8 1 -15.5 1.5t-11.5 2.5q-6 2 -8.5 7.5t-2 11.5
t3.5 11t8 6q25 4 46.5 -1t45.5 -3q9 0 13 -4.5t4.5 -10.5t-2.5 -12t-9 -8q-9 -4 -24 -4q-2 -27 -1 -58t0 -61q0 -14 1 -37t1 -37q-1 -21 -2.5 -46.5t-2.5 -46.5q-1 -44 -1.5 -88t-0.5 -85q1 -38 2 -73z" />
    <glyph glyph-name="L_O" unicode="LO" horiz-adv-x="520" 
d="M262 557q-2 -27 -4.5 -67.5t-3 -84t2.5 -84.5t13 -69q4 -12 14.5 -23t24 -16.5t28.5 -3.5t29 15q16 14 24 36t11.5 45t4 43.5t0.5 31.5q0 13 4 49t4 79.5t-7 86t-28 68.5q-12 14 -25.5 17.5t-26.5 -0.5t-23.5 -12.5t-16.5 -18.5q-6 -11 -10 -16t-6 -16q-4 -15 -5.5 -30
t-3.5 -30zM96 78q20 0 43.5 -8.5t48 -19.5t48.5 -23t45 -19q12 -4 28 -9t32.5 -6.5t31 1t23.5 13.5q13 16 14.5 33t-3.5 31.5t-15.5 24.5t-22.5 11.5t-23.5 -8t-18.5 -33.5q-2 -7 -9 -9.5t-14.5 -0.5t-13 8.5t-4.5 18.5q2 20 12.5 33t26 19.5t33.5 7t35 -4.5q21 -6 36 -26
t19.5 -44.5t-2 -49.5t-27 -41.5t-57 -20t-90.5 14.5q-29 9 -61 24.5t-64.5 27t-63 14t-54.5 -13.5q-6 -5 -13 -3t-12 9t-3 14t8 12q5 4 11 7t11 5q10 4 21 6q-1 37 -1 72.5v73.5q0 20 -1 40.5t-1 41.5q0 23 2.5 46.5t1.5 49.5q-1 35 -2 69.5t-2 63.5v26q0 38 -1 69.5t2 57.5
q-8 1 -15.5 1.5t-10.5 2.5q-11 5 -11 19t11 16q13 2 24.5 1.5t22.5 -2l22 -3t23 -0.5q9 1 13 -3.5t4.5 -10.5t-2.5 -12t-9 -8q-5 -2 -11 -3t-12 -1q-2 -28 -1 -59t0 -61q-1 -13 0 -36t1 -37q-1 -22 -2.5 -47.5t-2.5 -45.5q0 -45 -1 -88.5t-1 -84.5q1 -38 2 -73zM416 692
q15 -17 24 -42.5t13.5 -55.5t5.5 -62t0 -62t-2.5 -54.5t-1.5 -39.5q-1 -18 -4 -45t-9.5 -55t-18 -53t-29.5 -38q-22 -18 -48.5 -20t-50.5 6.5t-43 24.5t-26 36q-3 10 -5 20.5t-4 21.5q-5 28 -6 57q-2 17 -3 33t-1 32v79t3 78q2 16 3.5 31.5t5.5 31.5q3 13 7 25.5t11 24.5
q8 13 21 24t31 19q33 14 68.5 10t58.5 -27z" />
    <glyph glyph-name="L_U" unicode="LU" horiz-adv-x="559" 
d="M465 544q-1 -16 -2.5 -35t-1.5 -35l-2 -66t0 -64q0 -17 -0.5 -40t-5 -45.5t-15 -41.5t-30.5 -29q-28 -13 -55 -14.5t-50 6t-39.5 22t-23.5 34.5q-4 12 -7.5 30t-5.5 30q0 27 -1 54.5t-1 54.5q0 17 2 34.5t1 37.5q-1 26 -1.5 51.5t-1.5 47.5v19q-1 29 -1.5 47.5t2.5 38.5
q-18 0 -26 2q-6 2 -8.5 8t-2 12.5t3 11.5t7.5 6q25 3 45.5 -1t44.5 -2q9 0 13 -5t4.5 -11.5t-2.5 -12.5t-9 -8q-9 -3 -23 -3q-2 -20 -1 -38t0 -41q-1 -10 0.5 -27.5t0.5 -27.5q0 -16 -2 -35t-2 -35q-1 -45 -2 -88t1 -88q2 -17 4 -26t6 -20q6 -17 23.5 -28.5t38.5 -10.5
q28 1 43.5 16.5t23.5 36.5t9.5 42.5t1.5 34.5q0 14 -1 29.5t-1 32.5q1 17 3 34.5t1 37.5q-1 26 -2 51.5t-1 47.5l-1 19q0 29 -1 48t2 38q-8 1 -15 1t-11 2q-5 2 -7.5 7.5t-2.5 12t3 11.5t8 6q25 3 45.5 -1t44.5 -2q9 0 13 -5t4 -11.5t-3 -12.5t-8 -7q-5 -2 -11 -2.5
t-12 -0.5q-2 -21 -1 -39t0 -41q-1 -10 0 -27.5t1 -27.5zM95 77q-1 36 -2 71t-2 73q0 41 1 84.5t2 87.5q0 21 1.5 46.5t2.5 46.5q0 14 -1 37.5t0 36.5q1 30 0 61t1 58q6 1 12 1.5t11 2.5q6 2 9 8t2.5 12.5t-4.5 11t-13 3.5q-12 -1 -23 0.5l-22 3t-22.5 2t-24.5 -1.5
q-11 -2 -11 -16t11 -19q3 -2 10.5 -3t15.5 -1q-3 -26 -2 -57.5t1 -69.5l1 -27q0 -29 1 -63t2 -69q1 -26 -1 -49.5t-3 -46.5q0 -21 1 -41.5t1 -40.5v-73.5t1 -72.5q-5 -1 -10.5 -2.5t-10.5 -3.5q-5 -3 -11 -6t-11 -6q-6 -5 -7.5 -12.5t2.5 -14.5q5 -6 12 -8t13 3
q24 16 54.5 13.5t63 -14t64.5 -27t61 -24.5q54 -18 90.5 -14.5t57 20t27 41.5t2 49.5t-19 44.5t-36.5 26q-17 5 -35 4.5t-33.5 -7t-26 -19.5t-12.5 -33q-1 -12 4.5 -18.5t13 -8.5t14.5 0.5t9 9.5q7 24 18.5 33t23.5 8t22.5 -11t15.5 -24.5t3.5 -32t-14.5 -33.5
q-9 -11 -23.5 -13.5t-31 -1t-32.5 6.5t-28 9q-21 8 -45 20t-48.5 23t-48 19t-43.5 8z" />
    <glyph glyph-name="K_A" unicode="KA" horiz-adv-x="639" 
d="M375 213q9 0 13 -4.5t4 -10.5t-3.5 -12t-9.5 -8q-11 -4 -27 -3t-22 1q-8 2 -24.5 2.5t-22.5 2.5q-6 1 -8 6.5t-1.5 11.5t3.5 11t8 6q7 1 13.5 1.5t12.5 -0.5q6 21 9 42t8 44q2 11 5 28.5t5 28.5q4 16 9.5 35t8.5 35q8 33 15.5 66.5t13.5 64.5q6 36 11 70t12 69
q-4 13 4 19t19 6q6 0 11 -3q6 -3 10 -10q9 -20 13.5 -46.5t10.5 -58.5q1 -5 1.5 -10t1.5 -10q4 -22 8 -48.5t9 -53.5q3 -20 8.5 -37.5t9.5 -34.5t6 -33t5 -30q7 -37 14 -67.5t12 -66.5q5 0 9 -0.5t9 -1.5t7.5 -5.5t2.5 -10t-3 -11t-8 -6.5q-3 -1 -9.5 -1.5t-13.5 -1l-14 -1
t-11 -1.5q-6 0 -22 -1t-27 3q-5 2 -8 7.5t-2 11.5t5 10t13 4h15.5t14.5 1q-6 35 -12 66.5t-13 67.5q0 5 -2 13q-17 -1 -42 -1h-54q-2 -10 -3.5 -19.5t-3.5 -17.5q-1 -5 -1.5 -10t-1.5 -10q-5 -29 -8 -49t-10 -39h17zM258 57q8 -15 19.5 -32.5t25 -34.5t29 -31t32.5 -22
q21 -10 43.5 -10t43 7.5t37 22t25.5 32.5q13 27 11.5 50.5t-13.5 38.5t-32.5 19t-44.5 -9q-23 -11 -28 -33.5t0 -42.5q2 -8 -2.5 -14.5t-13.5 -8.5q-8 -2 -15.5 2t-9.5 12q-9 33 0.5 65t45.5 49q34 17 74 9q15 -3 28 -9q39 -17 51 -54q8 -23 3.5 -45.5t-15.5 -43.5
q-11 -23 -36 -40t-55 -26t-62 -8t-58 13q-35 17 -63.5 47t-51.5 68.5t-41 83t-32.5 89.5t-26.5 88t-23 79q-8 -17 -13.5 -28t-9.5 -16q0 -26 -0.5 -52t-0.5 -51q1 -48 2.5 -91.5t2.5 -90.5q9 -1 19 0q9 0 13 -4.5t4.5 -10.5t-2.5 -12t-9 -8q-11 -5 -27 -4t-23 2
q-4 0 -10.5 0.5t-14 1t-14 1.5t-9.5 2q-6 3 -8.5 8.5t-2 11.5t3 10.5t7.5 5.5q15 3 30 1q-2 45 -2 87.5v88.5q-1 19 -2 39.5t-1 42.5q1 23 3 46.5t1 49.5q-1 35 -2 69t-1 63q-1 7 -1 13.5v12.5q0 39 -1 70.5t2 57.5q-8 0 -15.5 1t-10.5 2q-6 3 -8.5 8.5t-2 11.5t3 10.5
t7.5 5.5q13 2 24.5 1.5t22.5 -2l22 -3t23 -0.5q9 1 13 -3.5t4.5 -11t-2.5 -12.5t-9 -8q-5 -2 -11 -2.5t-12 -1.5q-2 -27 -1 -58t0 -61q-1 -14 0 -37t1 -37q-1 -16 -2 -34l-2 -36q2 6 5 8q10 28 23 61.5t25 65.5t22.5 57.5t16.5 36.5t11 20.5t10 17.5h-2q-5 1 -10 1h-10
q-9 -1 -13 3.5t-4 10.5t3 12t9 9q11 5 27 4t22 -2q4 -1 11 -1.5t14.5 -1t14 -1.5t9.5 -2q11 -5 10.5 -19t-10.5 -16q-8 -2 -15.5 -2h-14.5h-2q-4 -10 -9 -23t-13 -27q-4 -8 -13.5 -31.5t-22 -54.5t-27 -65.5t-27.5 -65.5q21 -46 35.5 -90t28 -87.5t30 -87.5t42.5 -90z
M82 413v2v-3v1zM392 394q26 -1 46.5 -1t36.5 -1q-5 24 -9.5 43t-9.5 43q-10 45 -14 82.5t-11 81.5q-1 -4 -1.5 -16t-1.5 -25.5t-1.5 -26t-1.5 -16.5q-3 -15 -5.5 -31t-5.5 -32q-4 -17 -9.5 -35t-8.5 -38q-2 -10 -2 -14t-2 -14z" />
    <glyph glyph-name="K_E" unicode="KE" horiz-adv-x="645" 
d="M410 228q2 0 13 -0.5t26.5 -1.5t34.5 -1.5t37 -0.5v16t5 16q4 5 19.5 4.5t19.5 -6.5q2 -4 0.5 -12.5t-1.5 -13.5v-5.5t-2 -8.5q0 -2 -0.5 -7t-2 -10.5t-3.5 -10t-5 -5.5q-6 -2 -31.5 -2.5t-55 -0.5t-54 0.5t-27.5 0.5q-4 0 -11 0.5l-14 1t-13.5 1t-9.5 1.5q-6 2 -8.5 8.5
t-2 14t3 14t7.5 6.5q14 3 29 1q-2 30 -2 50v50q1 21 2 46t2 51q1 19 -1.5 37t-2.5 35q0 16 1 31.5t1 30.5v31.5v28.5t0.5 28t2.5 31h-15t-15 1q-5 1 -7.5 6.5t-2.5 12.5t2.5 13t7.5 8q6 2 23 2.5t25 0.5q2 0 15.5 0.5t32.5 0.5h41.5h42.5t34.5 -1t18.5 -2q5 -2 8.5 -13
t2.5 -16q2 -4 2 -7.5v-5.5q0 -5 1.5 -13.5t-0.5 -12.5q-2 -3 -7.5 -5t-12 -2.5t-12.5 0.5t-7 4q-6 9 -6 17v16h-130q-1 -35 -2.5 -62t-2.5 -63v-24.5t0.5 -20.5t0.5 -21v-26q16 1 35 0t31 -1q14 0 25.5 -1.5t13.5 -1.5q4 0 5.5 -4t2 -9.5t-1 -11t-3.5 -6.5t-13 -2t-28 -1
q-20 -1 -39 0t-21 1q-3 0 -5 1q1 -14 2 -36.5t2 -34.5q0 -11 -1 -28.5t-1 -27.5q1 -23 0 -38t1 -35zM258 57q8 -15 19.5 -32.5t25 -34.5t29 -31t32.5 -22q21 -10 43.5 -10t43 7.5t37 21.5t25.5 33q13 27 11.5 50.5t-13.5 38.5t-32.5 19t-44.5 -9q-23 -12 -28 -34t0 -42
q2 -8 -2.5 -14.5t-13.5 -8.5q-8 -2 -15.5 2t-9.5 12q-9 33 0.5 65t45.5 49q17 8 36 10t37 -1q16 -3 29 -9q39 -17 51 -54q8 -23 3.5 -46t-15.5 -44q-11 -23 -36 -39.5t-55 -25.5t-62 -8.5t-58 12.5q-35 17 -63.5 47t-51.5 68.5t-41 83t-32.5 89.5t-26.5 88t-23 79
q-8 -16 -13.5 -27.5t-9.5 -16.5q-1 -26 -1 -51.5v-50.5q1 -48 2.5 -92t2.5 -90q5 -1 9.5 -1h9.5q9 1 13 -3.5t4.5 -10.5t-2.5 -12t-9 -8q-11 -5 -27.5 -4.5t-22.5 1.5q-4 1 -10.5 1.5t-14 1t-14 1t-9.5 2.5q-6 2 -8.5 7.5t-2 11.5t3 11t7.5 6q14 3 30 1q-2 45 -2 87t-1 88
q0 20 -1 40.5t-1 41.5q1 23 3 47t1 49q-1 35 -2 69.5t-1 63.5q-1 7 -1 13v13q0 39 -1 70t2 57q-8 1 -15.5 1.5t-10.5 2.5q-6 2 -8.5 7.5t-2 11.5t3 11t7.5 6q25 4 46.5 -1t45.5 -3q9 0 13 -4.5t4.5 -10.5t-2.5 -12t-9 -8q-9 -4 -24 -4q-2 -27 -0.5 -58.5t-0.5 -60.5
q0 -14 1 -37t1 -37q-1 -16 -2 -34.5t-2 -35.5q2 5 5 7q10 28 23 62t25 65.5t22.5 57.5t16.5 37t11 20.5t10 17.5h-2q-5 0 -10 0.5t-10 -0.5q-9 0 -13 4.5t-4 10.5t3 12t9 8q11 5 27 4t22 -2q4 0 11 -0.5t14.5 -1t14 -1.5t9.5 -2q11 -5 10.5 -19.5t-10.5 -16.5q-15 -3 -30 -1
h-2q-4 -10 -9 -23t-13 -27q-4 -8 -13.5 -31.5t-22.5 -54.5t-27 -66t-27 -66q21 -45 35.5 -89t28 -88t30 -88t42.5 -89zM82 413v1v-2v1z" />
    <glyph glyph-name="K_I" unicode="KI" horiz-adv-x="553" 
d="M388 227q-3 34 -3 59.5v59.5q0 15 -1 30.5t-1 31.5q1 17 3 34.5t1 37.5q-1 26 -2 51.5t-1 47.5q0 5 -0.5 9.5t-0.5 9.5q0 29 -1 46.5t2 37.5q-8 1 -15 1t-11 2q-5 2 -7.5 8t-2.5 12.5t3 11.5t8 6q25 3 45.5 -1t44.5 -3q9 1 13 -4t4 -12t-3 -13t-9 -8q-5 -2 -10.5 -2
h-11.5q-2 -21 -1 -38.5t0 -39.5q-1 -11 0 -28t1 -28q-1 -16 -2.5 -34.5t-1.5 -34.5l-2 -66t-1 -63q1 -35 2.5 -62.5t2.5 -62.5h19q9 0 13 -5t4 -11.5t-3 -13t-9 -7.5q-11 -4 -26.5 -3.5t-21.5 1.5q-4 0 -10.5 0.5t-14 1t-14 1t-9.5 1.5q-5 2 -7.5 8t-2.5 12.5t3 11.5t8 6
q8 1 15 1h14zM123 411q5 -10 12.5 -30.5t17 -47.5t21.5 -59.5t26 -66.5q19 -48 42 -93t48.5 -75.5t53.5 -43t58 3.5q24 13 37 37.5t10 45.5t-25 32t-68 -3q-16 -5 -25 -0.5t-11.5 12.5t3 17t17.5 12q16 5 32.5 7t33.5 -1q14 -3 28 -9q35 -16 48 -42t9 -53t-23.5 -50.5
t-48.5 -35.5t-65 -8t-75 33q-22 16 -39.5 40.5t-32 53t-27 59.5t-22.5 60q-23 64 -36.5 108t-17.5 54q-16 -35 -23 -45q-1 -26 -1 -51.5v-50.5q1 -48 2.5 -91.5t1.5 -90.5q10 -1 20 0q9 0 13 -4.5t4.5 -10.5t-2.5 -12t-9 -8q-11 -5 -27.5 -4t-22.5 1q-4 1 -11 1.5t-14.5 1
t-14 1t-9.5 2.5q-5 2 -7.5 7.5t-2.5 11.5t3 11t8 6q13 3 30 1q-3 45 -3 87v88q0 20 -1 40.5t-1 42.5t2.5 46t1.5 49q-1 35 -2 69.5t-2 63.5v26q-1 39 -1.5 70t2.5 57q-8 1 -15.5 1.5t-11.5 2.5q-5 2 -7.5 7.5t-2.5 11.5t3 11t8 6q25 4 46.5 -1t45.5 -3q9 0 13 -4.5
t4.5 -10.5t-2.5 -12t-9 -8q-9 -4 -24 -4q-2 -27 -1 -58t0 -61q0 -14 1 -37t1 -37q-1 -16 -2 -34.5t-2 -35.5q0 3 4 7q10 28 23 62t25.5 65.5t23 57.5t16.5 37q5 11 10 20.5t10 17.5h-1q-10 1 -20 0q-9 0 -13 4.5t-4.5 10.5t2.5 12t9 8q11 5 27.5 4t22.5 -2q4 0 11 -0.5
t14.5 -1t14 -1.5t9.5 -2q6 -2 8.5 -7.5t2 -11.5t-3.5 -11t-8 -6q-13 -3 -30 -1h-1q-4 -10 -9.5 -23t-12.5 -27q-4 -8 -13.5 -31.5t-22.5 -54.5t-27 -66t-27 -66zM83 413v1v-2v1z" />
    <glyph glyph-name="K_O" unicode="KO" horiz-adv-x="612" 
d="M354 557l-5 -67.5t-3.5 -84t3 -84.5t13.5 -69q4 -12 14 -22.5t23.5 -16t28.5 -4t30 14.5q15 14 23 36.5t12 45.5t4.5 43t0.5 31q0 13 4 49.5t4 80t-7.5 85.5t-28.5 68q-12 15 -25.5 18t-26.5 -0.5t-23.5 -12.5t-16.5 -19t-10 -15t-6 -16q-3 -15 -5 -30.5t-3 -30.5z
M124 419q14 -30 25.5 -71.5t23.5 -88.5t26.5 -95.5t34 -90.5t45.5 -75.5t62 -49.5q21 -10 43.5 -10t43 7.5t37 21.5t25.5 33q13 26 11.5 49.5t-13.5 38.5t-32.5 19t-44.5 -9q-23 -11 -28 -33.5t0 -42.5q2 -8 -2.5 -14.5t-13.5 -8.5q-8 -2 -15.5 2t-9.5 12q-9 34 0.5 66
t45.5 49q17 8 36 10t37 -1q16 -3 29 -9q39 -19 51 -54q7 -23 3 -46t-15 -44q-11 -23 -36 -39.5t-55 -25.5t-62 -8.5t-58 12.5q-35 16 -62 45.5t-47.5 67t-35.5 80.5t-27 87t-22 86.5t-21 78.5q-8 -17 -13.5 -28t-9.5 -16q-1 -26 -1 -52v-51q1 -48 2.5 -91.5t2.5 -90.5
q9 -1 19 0q9 0 13 -4.5t4.5 -10.5t-2.5 -12t-9 -8q-11 -5 -27.5 -4t-22.5 2q-4 0 -10.5 0.5t-14 1t-14 1.5t-9.5 2q-11 5 -11 19.5t11 16.5q13 3 30 1q-3 45 -3 87.5v88.5q0 19 -1 39.5t-1 42.5t2.5 46t1.5 50q-1 35 -2 69t-2 63v26q0 39 -1 70.5t2 57.5q-8 0 -15.5 0.5
t-10.5 2.5q-6 3 -8.5 8.5t-2.5 11.5t3 10.5t8 5.5q13 2 24.5 1.5t22.5 -2l22 -3t23 -0.5q9 0 13 -4.5t4.5 -10.5t-2.5 -12t-9 -8q-5 -2 -11 -2.5t-13 -1.5q-2 -27 -0.5 -58t-0.5 -61q0 -14 1 -37t1 -37q-1 -16 -2 -34l-2 -36q2 6 4 8q10 28 23 61.5t25.5 65.5t23 57.5
t16.5 36.5t11 20.5t10 17.5h-2q-5 1 -10 1h-10q-9 -1 -13 3.5t-4 10.5t3 12t9 9q11 5 27 4t22 -2q4 -1 11 -1.5t14.5 -1t14 -1.5t9.5 -2q11 -5 10.5 -19t-10.5 -16q-18 -3 -30 -2h-2q-4 -10 -9 -23t-13 -27q-4 -8 -13.5 -30.5t-21.5 -52t-26 -63t-27 -64.5zM82 413v2v-3v1z
M507 692q16 -16 25 -41.5t13.5 -55.5t5.5 -62.5t0 -62t-3 -54t-2 -39.5q0 -18 -3 -45t-10 -55t-18.5 -53t-29.5 -39q-22 -17 -48.5 -19t-50.5 6t-42.5 24.5t-25.5 35.5q-4 11 -5.5 21.5t-3.5 20.5q-2 14 -3.5 28.5t-3.5 28.5q-2 17 -2.5 33t-1.5 33v78.5t3 77.5
q2 17 3.5 32.5t5.5 31.5q3 12 7 25t11 24q17 29 52 43q33 14 68.5 10t58.5 -27z" />
    <glyph glyph-name="K_U" unicode="KU" horiz-adv-x="696" 
d="M602 545q-1 -17 -2.5 -35.5t-1.5 -34.5l-2 -66t0 -64v-40t-4.5 -45.5t-15 -41.5t-31.5 -29q-28 -14 -55 -15.5t-49.5 6t-39 22.5t-23.5 35q-5 11 -8.5 29t-5.5 31q0 27 -1 54.5t-1 54.5q0 17 2 34.5t2 37.5q-2 26 -2.5 51.5t-1.5 47.5v19q-1 29 -1.5 47.5t2.5 38.5
q-18 0 -26 2q-6 2 -8.5 8t-2 12t3 11.5t7.5 5.5q25 4 46 0t44 -3q9 1 13 -4t4.5 -11.5t-2.5 -13t-9 -7.5q-9 -3 -23 -3q-2 -20 -1 -38t0 -41q0 -10 1 -27.5t0 -27.5q0 -17 -2 -35.5t-2 -34.5q-1 -45 -2 -88t1 -88q2 -17 4 -26t6 -20q6 -17 23.5 -28.5t39.5 -10.5
q27 1 43 16.5t23.5 36.5t9 42.5t1.5 34.5q0 14 -1 29.5t0 32.5q0 17 2 34.5t1 37.5q-1 26 -2 51.5t-1 47.5l-1 19q0 29 -1 47.5t2 38.5q-8 1 -15 1t-10 2q-6 2 -8.5 7.5t-2 12t3 11.5t7.5 5q25 4 45.5 0t44.5 -3q9 1 13 -4t4 -11.5t-3 -12.5t-8 -8q-5 -1 -11 -1.5t-12 -0.5
q-2 -21 -1 -39t0 -41q-1 -10 0 -27.5t1 -27.5zM259 57q-26 46 -42.5 90t-30.5 87.5t-28 87.5t-35 90q13 31 27 65.5t27 65.5t22.5 54.5t13.5 31.5q7 14 12.5 27t9.5 23h1h15t15 2q11 2 11.5 16t-10.5 19q-3 1 -9.5 2t-14 1.5t-14.5 1t-11 1.5q-6 1 -22.5 2t-27.5 -4
q-6 -2 -9 -8t-2.5 -12.5t4.5 -11t13 -3.5h10t10 -1h1q-10 -17 -20 -38q-6 -11 -16.5 -36.5t-23 -57.5t-25.5 -65.5t-23 -61.5q-4 -4 -4 -8l2 36t2 34q0 14 -1 37.5t-1 36.5q1 30 0 61t1 59q13 0 24 3q6 2 9 8t2.5 12.5t-4.5 11t-13 3.5q-12 -1 -23.5 0.5t-22.5 3t-22 2
t-24 -1.5q-5 -1 -8 -5.5t-3 -10.5t2.5 -11.5t7.5 -8.5q4 -1 11.5 -2t15.5 -1q-3 -26 -2.5 -57.5t1.5 -70.5v-26q1 -29 2 -63t2 -69q1 -26 -1.5 -49.5t-2.5 -46.5q0 -22 1 -42.5t1 -39.5v-88.5t3 -87.5q-17 2 -30 -1q-5 -1 -8 -5.5t-3 -10.5t2.5 -11.5t7.5 -8.5q7 -2 24 -3
t25 -2q6 -1 22.5 -2t27.5 4q6 2 9 8t2.5 12.5t-4.5 11t-13 3.5q-5 -1 -10 -0.5t-10 0.5q0 47 -1.5 91t-2.5 92v50t1 52q4 5 9.5 16t13.5 28q16 -54 35.5 -123t46.5 -134.5t65 -119t91 -78.5q26 -12 58 -12.5t62 8.5t55 25.5t36 39.5q11 21 15 44t-4 45q-11 37 -50 54
q-13 7 -29 9q-18 4 -37 1.5t-36 -10.5q-36 -17 -46 -48.5t-1 -65.5q2 -8 10 -12t16 -2q9 2 13.5 8.5t2.5 14.5q-5 20 0 42.5t27 33.5q25 13 45.5 9t32.5 -19t13.5 -38.5t-11.5 -49.5q-9 -19 -26 -33t-37 -22t-42.5 -8t-43.5 10q-17 8 -33 22t-29.5 31t-24.5 34.5t-19 32.5z
M83 414v1v-3v2z" />
    <glyph glyph-name="O_J" unicode="OJ" horiz-adv-x="482" 
d="M56 555l-5 -67.5t-3 -84t3 -84.5t13 -69q4 -12 14.5 -23t24 -16.5t28.5 -3.5t29 15q16 14 24 36t11.5 45t4 43.5t0.5 31.5q0 13 4 49.5t4 80t-7 85.5t-28 68q-12 14 -25.5 17.5t-26.5 0t-23.5 -12.5t-16.5 -19q-7 -11 -10.5 -15.5t-5.5 -15.5q-4 -15 -5.5 -30.5
t-3.5 -30.5zM341 395q-1 35 -2 69.5t-2 63.5v26q0 38 -1 69.5t2 57.5q-8 1 -15.5 1.5t-11.5 2.5q-5 2 -7.5 7.5t-2.5 11.5t3 11t8 6q13 2 24.5 1.5t22.5 -2.5t22 -3.5t23 -0.5q9 1 13 -3.5t4.5 -10.5t-2.5 -12t-9 -8q-8 -4 -24 -4q-2 -28 -0.5 -59t-0.5 -60q0 -14 1 -37
t1 -37q-1 -21 -2.5 -46.5t-2.5 -46.5q0 -23 -0.5 -65t-0.5 -87t-0.5 -86.5t-0.5 -64.5q-3 -82 -27.5 -136t-61 -82.5t-79.5 -33t-81.5 11.5t-67 51.5t-36.5 86.5q-6 34 4 65.5t39 52.5q26 19 60.5 24t63.5 -11q20 -10 30 -26q10 -15 13.5 -33.5t-1.5 -35.5q-8 -28 -34.5 -40
t-55.5 -14q-9 -1 -15.5 4t-8.5 13q0 8 5.5 14t14.5 7q14 1 31 6.5t22 19.5q8 24 1 39.5t-22.5 21t-36 1t-39.5 -18.5q-23 -17 -28.5 -44.5t2.5 -56.5q13 -45 37.5 -69.5t53 -31t58.5 4.5t55.5 39t42 71t18.5 101v41.5v63v63.5v42q0 22 2.5 45.5t1.5 49.5zM209 690
q16 -16 25 -41.5t13.5 -56t5.5 -62.5t0 -62t-2.5 -54.5t-1.5 -39.5q-1 -18 -4 -45t-9.5 -54.5t-18 -52.5t-29.5 -39q-22 -18 -48.5 -20t-51 6.5t-43 24.5t-25.5 36q-4 10 -5.5 20.5t-3.5 21.5q-2 14 -3.5 28.5t-3.5 28.5q-3 33 -3 66q-1 39 -0.5 78t3.5 78q1 31 9 63
q5 26 18 50q8 13 21 24t31 19q32 14 68 10t58 -27z" />
    <glyph glyph-name="O_M" unicode="OM" horiz-adv-x="771" 
d="M56 566q-2 -27 -5 -67t-3.5 -83.5t3 -84t13.5 -68.5q4 -12 14 -22.5t23.5 -16t29 -4t29.5 14.5q15 14 23 36t12 45t4.5 43t0.5 31q0 13 4 49t4 79t-7.5 85t-28.5 68q-12 14 -25.5 17.5t-26.5 -0.5t-23 -12.5t-16 -18.5q-7 -11 -10.5 -15.5t-6.5 -15.5q-3 -15 -5 -30
t-3 -30zM624 486q0 6 0.5 24.5t0.5 40t0.5 40.5t0.5 27q-8 -24 -13.5 -52.5t-11 -58t-11.5 -58t-13 -52.5q-8 -26 -13 -49.5t-11 -46.5q-5 -17 -8.5 -31t-7.5 -27q-2 -8 -7.5 -12t-12.5 -3.5t-13.5 7t-10.5 21.5q-3 12 -5 20.5t-7 24.5q-6 23 -11 46.5t-13 49.5
q-8 24 -13.5 52.5t-11 58t-11 58t-12.5 52.5v-27t0.5 -40.5t0.5 -40v-24.5q-1 -55 0.5 -128t-2.5 -147.5t-18.5 -141t-47.5 -108.5q-39 -48 -90.5 -67.5t-100.5 -12.5t-85.5 40t-45.5 89q-5 34 5 65.5t39 53.5q26 19 60 23.5t64 -10.5q17 -10 30 -26q10 -15 13.5 -33.5
t-1.5 -35.5q-9 -28 -35 -40t-55 -15q-9 -1 -16 4.5t-8 13.5t5 13.5t15 6.5q14 1 31 6.5t22 20.5q8 24 1 39t-22.5 20.5t-36.5 1t-40 -18.5q-23 -17 -29 -44.5t4 -55.5q15 -44 43.5 -65t62 -22.5t69 16.5t63.5 52q27 33 40.5 86t18 112t3.5 117t-2 102q-1 35 -2 69t-2 63v27
q0 38 -1 69.5t2 57.5q-8 1 -15.5 1.5t-11.5 2.5q-11 5 -10.5 19t11.5 16q17 3 40 1.5t37 -3.5q2 0 7.5 -15t11.5 -38t13.5 -50.5t13.5 -53.5t11 -47t8 -30q6 -21 11.5 -46.5t11.5 -45.5q4 -17 8 -34.5t9 -36.5q5 19 9 36.5t9 34.5q5 20 10.5 45.5t11.5 46.5q2 9 7.5 30
t12 47t13.5 53.5t13.5 50.5t11.5 38t7 15q14 2 37 3.5t40 -1.5q11 -2 11.5 -16t-10.5 -19q-4 -2 -11.5 -2.5t-15.5 -1.5q3 -26 2.5 -57.5t-1.5 -69.5v-27q-1 -29 -2 -63t-2 -69q-1 -26 1.5 -49.5t2.5 -46.5q0 -21 -1 -42t-1 -40v-88.5t-3 -87.5q17 2 30 -1q5 -1 8 -5.5
t3.5 -10.5t-2 -11.5t-8.5 -8.5q-3 -1 -9.5 -2t-14 -1.5t-14.5 -1t-11 -0.5q-6 -1 -22.5 -2t-27.5 4q-6 2 -9 8t-2.5 12.5t4.5 11t13 3.5h19q1 47 2.5 91t2.5 92q0 41 -0.5 84.5t-1.5 88.5q-1 20 -2.5 45.5t-2.5 46.5zM209 700q24 -24 33 -68t10.5 -91t-1 -89.5t-3.5 -64.5
q0 -18 -3 -45t-10 -54.5t-18.5 -52.5t-28.5 -38q-23 -17 -49.5 -19t-50.5 6t-42.5 24t-25.5 35q-4 11 -5.5 21.5t-3.5 20.5q-2 14 -3.5 28.5t-3.5 28.5q-3 31 -3 65q-1 38 -1 77t3 78q2 16 3.5 31.5t5.5 31.5q3 12 7 24.5t11 24.5q8 13 21.5 24t30.5 18q33 14 69 10.5
t58 -26.5z" />
    <glyph glyph-name="O_N" unicode="ON" horiz-adv-x="698" 
d="M56 567q-2 -27 -4.5 -67t-3 -83t2.5 -83.5t13 -68.5q4 -12 14.5 -22.5t24 -16t28.5 -4t29 14.5q16 14 24 36t11.5 45t4 43t0.5 30q0 9 2 28.5t4 45.5t2.5 55t-3 57.5t-11 53t-21.5 41.5q-12 14 -25.5 17.5t-26.5 0t-23.5 -12.5t-16.5 -19t-10 -15t-6 -16
q-4 -14 -5.5 -29.5t-3.5 -30.5zM402 488q-1 -21 -2.5 -46.5t-1.5 -46.5q-1 -57 -3.5 -115t-9 -113t-19 -104.5t-34 -88t-53 -64t-75.5 -33.5q-30 -5 -60.5 1.5t-55.5 23t-43 42.5t-24 59q-5 34 5 65.5t39 53.5q26 19 60 23.5t64 -11.5q17 -9 30 -26q10 -15 13.5 -33.5
t-1.5 -35.5q-9 -27 -35 -39.5t-55 -14.5q-9 -1 -16 4t-8 13t5 14t15 7q14 1 31 6.5t22 20.5q8 24 1 39t-22.5 20.5t-36.5 1t-40 -18.5q-23 -17 -29.5 -45t4.5 -55q20 -51 57.5 -71.5t75.5 -11.5q47 10 76.5 51.5t46.5 100t23.5 127.5t8 134.5t0 121t-1.5 87.5l-1 26
q0 38 -1 69.5t2 57.5q-8 1 -15.5 1.5t-10.5 2.5q-6 2 -8.5 7.5t-2.5 11.5t3 11t8 6q17 3 40 1t38 -4q2 0 7 -15t11.5 -37.5t13.5 -50.5t13 -53.5t11 -46.5t8 -30q6 -21 11.5 -46.5t11.5 -46.5q6 -22 12 -48l12 -52t12 -51.5t12 -45.5l3 -15t3.5 -21t3 -20.5t3.5 -14.5
q-1 53 0.5 102.5t2.5 101.5q1 45 2 88.5t0 84.5q0 48 -2 92t-2 91h-20q-9 -1 -13 3.5t-4.5 10.5t2.5 12t9 9q11 5 27.5 4t22.5 -2q4 0 11 -0.5t14.5 -1.5t14 -2t9.5 -2q11 -5 10.5 -19t-10.5 -16q-8 -2 -15.5 -2h-14.5q2 -45 2 -87v-88q0 -20 1.5 -40.5t0.5 -41.5
q0 -23 -2 -46.5t-2 -49.5q2 -35 3 -69.5t1 -63.5v-26q1 -38 2 -69.5t-2 -57.5q8 -1 15 -1.5t11 -2.5q11 -5 10.5 -19t-10.5 -16h-10.5t-19 0.5t-22 1.5t-19.5 2q-5 0 -12 19t-15 47.5t-16 63.5t-15.5 67.5t-14 59t-9.5 39.5q-7 22 -11.5 46t-12.5 49q-8 24 -14 52.5
t-11.5 58t-11 58t-12.5 52.5v-26.5t0.5 -40.5t0.5 -39.5v-24.5zM210 701q23 -24 32.5 -67.5t11 -90.5t-1.5 -90t-3 -65q-1 -18 -4 -44.5t-9.5 -54.5t-18 -52.5t-29.5 -38.5q-22 -17 -48.5 -19t-50.5 6t-42.5 24.5t-25.5 35.5q-4 10 -6 20.5t-4 21.5q-4 27 -6 56q-2 17 -3 33
t-1 32v78t3 77q1 31 9 63q5 27 18 49q15 28 52 43q33 14 68.5 10t58.5 -27z" />
    <glyph glyph-name="O_S" unicode="OS" horiz-adv-x="598" 
d="M60 555l-5 -67.5t-3 -84t3 -84.5t13 -69q4 -12 14 -23t23.5 -16.5t29 -3.5t29.5 15q16 14 24 36t11.5 45.5t4 43.5t0.5 31q0 13 4 49.5t4 80t-7 85.5t-28 68q-12 15 -26 18t-27 -0.5t-23 -12.5t-16 -19q-6 -11 -10 -15.5t-6 -15.5q-4 -15 -5.5 -30.5t-3.5 -30.5zM513 239
q2 -6 2 -8q0 2 -2 8zM496 286q16 -33 26 -73t13.5 -81.5t-0.5 -82t-17 -74.5q-18 -48 -53 -84.5t-86 -56.5q-45 -19 -94.5 -22t-97.5 8q-45 11 -85.5 34t-66.5 58q-30 43 -34.5 91t34.5 90q28 29 71 43t85 2t62 -40t25 -66q4 -31 -9 -58.5t-48 -37.5q-19 -6 -39 -3.5
t-37 11.5q-39 22 -45 63q-1 8 4.5 14t14.5 7q9 2 15.5 -3t8.5 -13q3 -25 24 -35q19 -11 41 -5q20 6 25 22.5t3 33.5q-4 26 -16 45.5t-42 28.5q-29 8 -60.5 -3t-50.5 -31q-29 -31 -24 -67t28 -68q21 -29 55 -48.5t71 -27.5q41 -9 83.5 -6.5t80.5 17.5q44 18 73 48.5t44 70.5
q20 52 17 110t-17 112q-5 15 -19.5 47.5t-32 68t-35 68t-27.5 47.5q-22 34 -34.5 61.5t-16.5 62.5q-6 47 7 91q7 20 22.5 36t35.5 27q20 9 42.5 12t44.5 -3q36 -10 55 -42q11 -20 13 -41.5t0 -42.5q-1 -8 -8 -12.5t-16 -3.5q-8 1 -14 7t-5 14q1 11 1 24t-4 25t-12 21.5
t-23 13.5q-30 9 -50 -1.5t-31.5 -30.5t-15 -45t-0.5 -44q4 -25 13.5 -48t20.5 -45q14 -26 29.5 -50.5t30.5 -50.5q9 -14 12.5 -27t11.5 -27q4 -7 11.5 -18t11.5 -17zM213 690q16 -16 25 -41.5t13.5 -55.5t5.5 -62.5t0 -62t-3 -54.5t-2 -40q0 -18 -3 -44.5t-10 -54.5t-18 -53
t-29 -39q-22 -17 -48.5 -19t-51 6t-43 24.5t-25.5 35.5q-4 10 -5.5 20.5t-3.5 21.5q-2 14 -3.5 28.5t-3.5 28.5q-1 17 -2 33t-1 33q-1 39 -1 78t4 78q1 16 3 32t5 32q3 12 7.5 25t11.5 24q15 28 52 43q32 14 68 10t58 -27z" />
    <glyph glyph-name="O_Y" unicode="OY" horiz-adv-x="611" 
d="M198 382q-1 15 -3 30.5t-5 30.5q-3 11 -6.5 15.5t-9.5 15.5q-6 10 -16.5 19t-23.5 12.5t-26.5 0t-25.5 -17.5q-21 -26 -28.5 -68t-7.5 -85.5t4 -80t4 -49.5q0 -11 0.5 -31t4.5 -43.5t12 -45.5t23 -36q14 -13 29.5 -15t29 3.5t23.5 16.5t14 23q10 28 13.5 69t3 84.5
t-3.5 84zM380 287q-9 30 -18 71t-19 87t-22.5 94t-29.5 90t-39 76t-51 53q-41 26 -74 19t-56 -41q-16 -24 -16.5 -47.5t10 -40t30.5 -24t46 1.5q23 8 31 29t5 42q-2 8 3.5 13.5t14.5 6.5q8 0 15 -5t9 -13q6 -35 -7 -64.5t-51 -40.5q-36 -9 -75 3q-8 3 -14.5 6t-13.5 8
q-17 11 -29 26.5t-16 33.5q-5 23 1.5 45t19.5 41q13 21 33.5 34.5t44.5 18t50 -0.5t51 -21q51 -33 81 -84t48.5 -109.5t30.5 -119.5t27 -113q10 43 18 77t15 69t14.5 76.5t18.5 99.5q-8 1 -11.5 0.5t-6.5 1.5q-5 2 -7 8t-2 12t3 11.5t8 6.5q13 2 23 2t19 -1t18.5 -2t21.5 0
q9 1 13.5 -4.5t5 -12t-3 -13.5t-9.5 -9q-11 -3 -25 -3q-15 -46 -25 -92t-18.5 -91.5t-17.5 -90.5t-21 -88l-9 -32l1 6q0 -19 -1 -37.5t-1 -35.5v-88t-2 -87h14.5t15.5 -2q5 -1 7.5 -5.5t3 -10.5t-2 -11.5t-8.5 -8.5q-3 -1 -9.5 -2t-14 -1.5t-14.5 -1t-11 -0.5q-6 -1 -22 -2
t-28 4q-6 2 -9 8t-2.5 12.5t4.5 11t13 3.5h20q1 47 2.5 91t1.5 92v65zM45 517q23 23 58.5 27t68.5 -10q35 -15 52 -43q7 -11 11 -24t7 -25q4 -16 5.5 -32t3.5 -32q3 -39 3 -78t-1 -78q0 -33 -3 -66q-2 -14 -3.5 -28.5t-3.5 -28.5q-2 -11 -3.5 -21.5t-5.5 -20.5
q-7 -19 -25.5 -35.5t-42.5 -25t-50.5 -6.5t-48.5 20q-18 14 -29.5 39t-18.5 53t-10 54.5t-3 44.5q-1 15 -2.5 40t-2.5 54.5t0 62t5.5 62.5t13.5 55.5t25 41.5z" />
    <glyph glyph-name="M_A" unicode="MA" horiz-adv-x="787" 
d="M86 487q-1 -21 -2.5 -46.5t-2.5 -46.5q0 -44 -1 -87.5t-1 -85.5q1 -48 2.5 -91.5t2.5 -90.5q9 -2 19 0q9 0 13 -4.5t4.5 -10.5t-2.5 -12t-9 -8q-11 -5 -27 -4t-23 2q-4 0 -10.5 0.5t-14 1t-14 1.5t-9.5 2q-11 5 -11 19.5t11 16.5q13 3 30 1q-3 45 -3 87.5v87.5
q0 20 -1 40.5t-1 42.5t2.5 46t1.5 50q-1 35 -2 69t-2 63v26q0 39 -1 70t2 57q-8 1 -15.5 1.5t-10.5 2.5q-11 5 -11 19.5t11 16.5q17 3 40 1t37 -4q2 0 7.5 -15t11.5 -37.5t13.5 -50.5t13.5 -53.5t11 -46.5t8 -30q6 -21 11.5 -46.5t11.5 -46.5q5 -16 8.5 -33.5t8.5 -37.5
q5 20 9 37.5t9 33.5q5 21 11 46.5t11 46.5q2 9 7.5 30t12 46.5t13.5 53.5t13.5 50.5t11.5 37.5t7 15q14 2 37 4t40 -1q11 -2 11.5 -16.5t-10.5 -19.5q-4 -2 -11.5 -2.5t-15.5 -1.5q3 -26 2.5 -57t-1.5 -70v-26q-1 -29 -2 -63t-2 -69q-1 -44 -2 -102t4 -117t18 -112t40 -86
q28 -34 63.5 -52t69 -17t62 22.5t43.5 65.5q10 28 4 55.5t-29 44.5q-19 14 -39.5 18.5t-36 -1t-23 -20.5t0.5 -39q5 -15 22 -20t32 -7q8 -1 14 -7t5 -14t-8 -13t-15 -4q-30 2 -56 14t-35 40q-5 17 -1.5 35.5t14.5 33.5q11 17 30 26q29 16 63 11.5t60 -24.5q29 -21 39 -52.5
t5 -65.5q-9 -56 -45.5 -89t-85.5 -40t-100.5 12.5t-90.5 67.5q-22 27 -35.5 66.5t-20.5 86t-9.5 96.5t-3 99.5t0.5 94.5t0 82q0 6 0.5 24.5t0.5 40t0.5 40.5t0.5 27q-8 -24 -13.5 -53t-11 -58.5t-11.5 -57.5t-13 -52q-8 -26 -13 -50t-11 -46q-5 -16 -7 -24.5t-5 -21.5
q-3 -14 -9.5 -20.5t-13.5 -7.5t-13 3.5t-8 11.5q-4 13 -7.5 27.5t-8.5 31.5q-6 22 -11 46t-13 50q-8 24 -13.5 52t-11 57.5t-11.5 58.5t-13 53q0 -8 0.5 -27t1 -40.5t0.5 -40v-24.5zM523 213q9 0 12.5 -4.5t3.5 -10.5t-3.5 -12t-9.5 -8q-11 -4 -26.5 -3t-21.5 1
q-4 0 -11 0.5l-14 1t-13.5 1.5t-9.5 2q-5 1 -7.5 6.5t-1.5 11.5t4 11t8 6q7 1 13 1h12q6 21 9 42t9 44q2 10 5 28t5 28q3 17 8.5 36t9.5 35q8 33 15 66.5t13 64.5q7 36 12 70t11 69q-4 13 4 19t19 6q7 0 12 -3q7 -3 10 -10q8 -20 12.5 -46.5t10.5 -59.5q2 -5 2.5 -9.5
t1.5 -9.5q4 -22 8 -48.5t8 -53.5q4 -20 9.5 -38t9.5 -35q3 -16 5 -32t5 -31q8 -36 15 -66.5t11 -66.5q5 0 9.5 -0.5t9.5 -1.5t7.5 -5.5t2 -10t-3 -11t-8.5 -6.5q-6 -2 -22.5 -3t-24.5 -2q-6 0 -22 -1t-27 3q-6 2 -8.5 7.5t-2 11.5t4.5 10t13 4q8 -1 15.5 -0.5t15.5 1.5
q-7 35 -12.5 66.5t-12.5 67.5q-2 8 -2 13q-18 -1 -42.5 -1h-54.5q-3 -19 -6 -37l-2 -10l-2 -10q-5 -29 -7.5 -49t-9.5 -39q5 0 8.5 -0.5t8.5 0.5zM539 394q26 -1 46.5 -1t37.5 -1q-5 24 -9.5 43t-9.5 43q-10 45 -14.5 82.5t-11.5 81.5q-1 -4 -1.5 -16t-1.5 -26t-1.5 -26
t-1.5 -16q-3 -15 -5 -31t-5 -32q-4 -17 -9.5 -35t-9.5 -38q-2 -10 -2 -14t-2 -14z" />
    <glyph glyph-name="M_E" unicode="ME" horiz-adv-x="769" 
d="M534 228q1 0 12 -0.5t27 -1.5t34.5 -1.5t36.5 -0.5v16t5 16q2 3 7.5 4t12 0.5t12 -2t7.5 -4.5q2 -4 1 -13t-2 -13v-5.5t-1 -8.5q0 -2 -0.5 -7t-2 -10.5t-4 -10t-5.5 -5.5q-5 -2 -31 -2.5t-55.5 -0.5t-54 0.5t-27.5 0.5q-4 0 -10.5 0.5t-14 1t-14 1t-9.5 1.5q-5 2 -7.5 9
t-2.5 14.5t3 13.5t8 7q14 1 29 0q-2 30 -2.5 50t-0.5 50h1q0 21 1 46t2 51q1 19 -1 37t-3 35q0 16 1 31.5t1 30.5q1 34 1 59.5t2 59.5h-14t-15 1q-5 1 -8 6.5t-3 12t2.5 12.5t7.5 8q3 1 9.5 2t14 1.5t14 0.5h10.5q2 0 15.5 0.5t32.5 0.5h41.5h42.5t34.5 -1t18.5 -2
q6 -2 9 -13t2 -16q2 -4 2 -7.5v-5.5q0 -5 1.5 -13.5t-0.5 -12.5q-2 -3 -7.5 -4.5t-12 -2t-12 0.5t-7.5 3q-5 9 -5 17v16h-131q-1 -35 -2.5 -62t-1.5 -63v-24.5v-20.5t0.5 -21t0.5 -26q15 1 34.5 0t30.5 -1q14 0 25.5 -1.5t13.5 -1.5q4 0 6 -4t2 -9.5t-1 -11t-4 -6.5
q-2 -2 -13 -2.5t-27 -0.5h-39t-21 1h-6q1 -13 2.5 -35.5t1.5 -34.5q0 -11 -1 -28.5t0 -27.5q1 -23 0 -37.5t1 -35.5zM86 487q0 -21 -2 -46.5t-2 -46.5l-2 -88t0 -85q0 -48 1.5 -92t2.5 -90q5 -1 10 -1h10q9 1 13 -3.5t4.5 -10.5t-2.5 -12t-9 -9q-12 -5 -28 -3.5t-22 1.5
q-4 1 -11 1.5t-14.5 1t-14 1t-9.5 2.5q-6 2 -8.5 7.5t-2 11.5t3 11t7.5 6q8 1 15.5 1.5t14.5 -0.5q-2 45 -2 87v88q0 20 -1.5 40.5t-0.5 42.5q0 22 2 46t1 49q-1 35 -2 69.5t-1 63.5l-1 26q0 38 -1 69.5t2 57.5q-8 1 -15 1.5t-11 2.5q-6 2 -8.5 7.5t-2 11.5t3 11t7.5 6
q17 3 40 1t38 -4q2 0 7 -15t11.5 -37.5t13.5 -50.5t13.5 -53.5t11.5 -46.5t8 -30q5 -21 10.5 -46.5t11.5 -46.5q5 -16 9 -34t9 -37q8 38 17 71q6 21 11.5 46.5t11.5 46.5q2 9 7.5 30t11.5 46.5t13 53.5t13.5 50.5t11.5 37.5t7 15q15 2 38 4t40 -1q5 -1 7.5 -6t3 -11
t-2 -11.5t-8.5 -7.5q-4 -2 -11 -2.5t-15 -1.5q3 -26 2 -57.5t-1 -69.5l-1 -26q0 -29 -1 -63.5t-2 -69.5q-1 -44 -2 -102t3.5 -117t18 -112t40.5 -86q28 -34 63 -52t69 -16.5t62.5 22.5t43.5 65q9 29 3 56.5t-29 44.5q-19 14 -39.5 18.5t-36 -1t-22.5 -21t1 -39.5
q5 -14 21.5 -19.5t31.5 -7.5q9 0 14.5 -6t4.5 -14t-7.5 -13t-15.5 -4q-29 2 -55.5 14t-34.5 40q-6 17 -2.5 35.5t14.5 33.5q10 16 30 26q29 16 63.5 11t60.5 -24q29 -22 38.5 -53t4.5 -65q-9 -56 -45.5 -89t-85 -40t-100 12.5t-90.5 67.5q-22 27 -35.5 66.5t-20.5 85.5
t-9.5 96.5t-3 99.5t0.5 94.5t0 82.5v24.5t0.5 39.5t0.5 40.5v26.5q-7 -24 -13 -52.5t-11.5 -58t-11.5 -58t-13 -52.5q-8 -25 -12.5 -49t-11.5 -46q-5 -16 -7 -25t-4 -21q-4 -15 -10.5 -21.5t-13.5 -7t-13 4t-8 11.5q-4 13 -7 27.5t-8 31.5q-6 22 -11 46t-13 49
q-8 24 -13.5 52.5t-11 58t-11.5 58t-13 52.5v-26.5t0.5 -40.5t0.5 -39.5v-24.5z" />
    <glyph glyph-name="M_O" unicode="MO" horiz-adv-x="771" 
d="M513 566q-2 -27 -5 -67t-3.5 -83t3 -83.5t13.5 -68.5q4 -12 14 -22.5t23.5 -16t29 -4t29.5 14.5q15 14 23 36t12 45t4.5 43t0.5 31q0 13 4 49t4 79t-7.5 85t-28.5 67q-12 15 -25.5 18t-26.5 -0.5t-23 -12.5t-16 -19q-7 -10 -10.5 -14.5t-6.5 -15.5q-3 -15 -5 -30t-3 -31z
M86 487q-1 -21 -2.5 -46.5t-1.5 -46.5q-1 -44 -2 -87.5t0 -85.5q0 -48 1.5 -91.5t2.5 -90.5q9 -2 20 0q9 0 13 -4.5t4 -10.5t-3 -12t-9 -8q-11 -5 -27 -4t-22 2q-4 0 -11 0.5t-14.5 1t-14 1.5t-9.5 2q-11 5 -10.5 19.5t10.5 16.5q15 3 30 1q-2 45 -2.5 87.5t-0.5 88.5
q0 19 -1 39.5t0 42.5q0 22 2 46t1 50q-1 35 -2 69t-1 63l-1 26q0 39 -1 70.5t2 57.5q-8 0 -15.5 0.5t-10.5 2.5q-6 3 -8.5 8.5t-2 11.5t3 10.5t7.5 5.5q17 3 40 1.5t38 -3.5q2 -1 7 -15.5t11.5 -37.5t13.5 -51t13 -53.5t11 -46.5t8 -30q6 -21 11.5 -46.5t11.5 -46.5
q5 -16 9 -33.5t8 -36.5q5 19 9 36.5t9 33.5q5 21 11 46.5t11 46.5q2 9 7.5 30t12 46.5t13.5 53.5t13.5 51t11.5 37.5t7 15.5q14 2 37.5 3.5t40.5 -1.5q5 -1 7.5 -5.5t3 -10.5t-2 -11.5t-8.5 -8.5q-8 -3 -27 -3q4 -26 3 -57.5t-2 -70.5v-26q-1 -29 -1.5 -63t-2.5 -69
q-1 -44 -2 -102t4 -117t18 -112t40 -86q28 -34 63.5 -52t69.5 -17t62.5 22.5t43.5 65.5q9 28 3 55.5t-29 44.5q-19 14 -39.5 18.5t-36 -1t-23 -20.5t0.5 -39q5 -15 22 -20t32 -7q9 -1 14.5 -7t4.5 -14t-7.5 -13t-15.5 -4q-29 2 -55.5 14t-35.5 40q-5 17 -1.5 35.5t14.5 33.5
q10 15 30 27q29 15 63.5 10t59.5 -24q29 -21 39 -52.5t5 -65.5q-9 -56 -45.5 -89t-85 -40t-100 12.5t-90.5 67.5q-22 27 -35.5 66.5t-20.5 86t-9.5 96.5t-3 99.5t0.5 94.5t0 82v24.5v40t0.5 40.5t0.5 27q-8 -24 -13.5 -52.5t-11 -58t-11.5 -58t-13 -52.5q-8 -26 -13 -50
t-11 -46q-5 -16 -7 -24.5t-5 -21.5q-3 -14 -9.5 -20.5t-13.5 -7.5t-13 3.5t-8 11.5q-4 13 -7 27.5t-8 31.5q-7 22 -12 46t-13 50q-7 24 -13 52.5t-11 58t-11 58t-13 52.5v-27t0.5 -40.5t0.5 -40v-24.5zM666 701q24 -24 33 -68t10.5 -91t-1 -90t-3.5 -65q0 -18 -3 -44.5
t-10 -54t-18.5 -52.5t-28.5 -38q-23 -17 -49.5 -19.5t-50.5 6t-42.5 24.5t-25.5 35q-4 11 -5.5 21t-3.5 21q-2 14 -3.5 28t-3.5 28q-3 33 -3 66q-1 38 -1 77t3 78q3 32 9 62q3 13 7 25.5t12 24.5q16 27 51 42q33 14 69 10.5t58 -26.5z" />
    <glyph glyph-name="M_U" unicode="MU" horiz-adv-x="805" 
d="M710 544q0 -16 -2 -34.5t-2 -34.5l-2 -66t0 -64q0 -17 -0.5 -40t-5 -45.5t-15 -41.5t-30.5 -29q-28 -14 -55 -15.5t-49.5 6t-39 22.5t-23.5 35q-5 11 -8.5 29t-5.5 31q0 27 -1 54.5t-1 54.5q0 17 2.5 34.5t1.5 36.5q-2 27 -2.5 52.5t-1.5 47.5v19q-1 29 -1.5 47.5
t2.5 37.5q-8 1 -15.5 1.5t-10.5 1.5q-6 2 -8.5 8t-2 12t3 11.5t7.5 5.5q25 4 46 0t44 -3q9 1 13 -4t4.5 -11.5t-2.5 -13t-9 -7.5q-9 -3 -23 -3q-2 -20 -1 -38t0 -41q0 -10 1 -27.5t0 -28.5q0 -16 -2 -34.5t-2 -34.5q-1 -45 -2 -88t1 -88q2 -17 4 -26t6 -20q6 -17 23.5 -29
t39.5 -11q27 1 43 16.5t23.5 36.5t9.5 43t2 35q0 14 -1.5 29.5t-0.5 32.5q0 17 2 34.5t1 36.5q-1 27 -2 52.5t-1 47.5l-1 19q0 29 -1 47.5t2 38.5q-8 1 -15 1t-11 2q-5 1 -7.5 7t-2 12t3 11.5t7.5 5.5q25 4 45.5 0t44.5 -3q9 1 13 -4t4.5 -11.5t-2.5 -12.5t-9 -8
q-5 -2 -11 -2h-12q-2 -21 -1 -39t0 -41q-1 -10 0 -27.5t1 -28.5zM86 487q0 -21 -2 -46.5t-2 -46.5q-1 -44 -2 -87.5t0 -85.5q0 -48 1.5 -91.5t2.5 -90.5q9 -2 20 0q9 0 13 -4.5t4 -10.5t-3 -12t-9 -8q-11 -5 -27 -4t-22 2q-4 0 -11 0.5t-14.5 1t-14 1.5t-9.5 2
q-6 2 -8.5 7.5t-2.5 11.5t3 11t8 6q14 3 30 1q-2 45 -2 87.5t-1 87.5q0 20 -1 40.5t-1 42.5q1 22 3 46t1 50q-1 35 -2 69t-1 63l-1 26q0 39 -1 70.5t2 57.5q-8 0 -15.5 0.5t-10.5 2.5q-6 3 -8.5 8.5t-2.5 11.5t3 10.5t8 5.5q17 3 40 1.5t37 -3.5q2 -1 7.5 -15.5t11.5 -37.5
t13.5 -51t13.5 -53.5t11 -46.5t8 -30q6 -21 11.5 -46.5t11.5 -46.5q5 -16 8.5 -33.5t8.5 -36.5q5 19 9 36.5t9 33.5q5 21 11 46.5t11 46.5q3 9 8 30t11.5 46.5t13.5 53.5t13.5 51t11.5 37.5t7 15.5q14 2 37.5 3.5t40.5 -1.5q5 -1 7.5 -5.5t3 -10.5t-2 -11.5t-8.5 -8.5
q-4 -2 -11 -2.5t-15 -0.5q2 -26 1.5 -57.5t-1.5 -70.5v-26q-1 -29 -1.5 -63t-2.5 -69q-1 -44 -2 -102t4 -117t18 -112t40 -86q28 -34 63.5 -52t69.5 -17t62.5 22.5t43.5 65.5q9 28 3 55.5t-29 44.5q-19 14 -39.5 18.5t-36 -1t-23 -20.5t0.5 -39q5 -15 22 -20t32 -7
q8 -1 14 -7t5 -14t-7.5 -13t-15.5 -4q-29 2 -55.5 14.5t-35.5 39.5q-5 17 -1.5 35.5t14.5 33.5q10 16 30 27q29 15 63 10t60 -24q29 -21 39 -52.5t5 -65.5q-9 -56 -45.5 -89t-85 -40t-100 12.5t-90.5 67.5q-22 27 -35.5 66.5t-20.5 85.5t-9.5 96.5t-3 99.5t0.5 94.5t0 82.5
v24.5v40t0.5 40.5t0.5 27q-8 -24 -13.5 -52.5t-11 -58t-11.5 -58t-13 -52.5q-8 -26 -13 -50t-11 -46q-5 -16 -7 -24.5t-5 -21.5q-3 -14 -9.5 -20.5t-13.5 -7.5t-13 3.5t-8 11.5q-4 13 -7 27.5t-8 31.5q-7 22 -12 46t-13 50q-8 24 -13.5 52.5t-11 58t-11 58t-12.5 52.5v-27
t0.5 -40.5t0.5 -40v-24.5z" />
    <glyph glyph-name="N_A" unicode="NA" horiz-adv-x="682" 
d="M424 240q-5 -42 -18.5 -97.5t-36.5 -108.5t-55 -80t-65.5 -34t-66 3t-57 30t-37.5 48t-9 57q2 19 12.5 34.5t27.5 26.5q6 4 12.5 7.5t14.5 5.5q38 13 74 1q39 -11 54 -41t12 -65q-1 -8 -7.5 -13t-15.5 -4q-8 1 -14 6.5t-5 13.5q2 21 -7.5 42.5t-33.5 29.5q-18 6 -34 4
t-27.5 -10t-18 -20t-6.5 -27q0 -33 23.5 -62.5t57.5 -38t70 11t61 83.5q16 42 28 88.5t19.5 87.5t11.5 72.5t6 43.5q8 45 15.5 88.5t13.5 85.5q7 48 12 91.5t11 90.5q-4 17 4.5 25t19.5 8q8 0 12 -4q8 -6 10 -14q9 -26 13.5 -60t10.5 -78q1 -7 2 -13t2 -13q4 -29 8 -63.5
t9 -70.5q3 -26 9 -49.5t9 -45.5q4 -22 6 -43t5 -41q8 -48 14.5 -92t11.5 -92h9t9 -1t8 -6t3 -11t-2.5 -11.5t-7.5 -8.5q-7 -2 -24 -3t-25 -2q-6 -1 -22.5 -2t-27.5 4q-6 2 -9 8t-2.5 12.5t4.5 11t13 3.5q8 0 15.5 0.5t15.5 1.5q-7 47 -12 91.5t-12 92.5q-1 4 -1 8t-1 9
q-18 -1 -43.5 -1.5t-55.5 -0.5zM86 547q0 -16 -2 -34.5t-2 -34.5q-1 -32 -2 -65.5t0 -63.5q0 -35 1.5 -63.5t2.5 -63.5q9 -2 20 0q9 0 13 -4.5t4 -11t-3 -12.5t-9 -7q-11 -4 -27 -3.5t-22 1.5q-4 0 -11 0.5t-14.5 1t-14 1t-9.5 1.5q-6 2 -8.5 7.5t-2 11.5t3 11t7.5 6
q8 1 15 1h15q-2 33 -2 60t-1 62q0 14 -1 29.5t0 31.5q0 17 2 34.5t1 36.5q-1 27 -2 52.5t-1 46.5l-1 20q0 29 -1 49t2 39q-8 1 -15.5 1t-10.5 2q-11 4 -10.5 18t10.5 15q17 2 40 1t38 -2q2 0 7 -11t11.5 -28.5t13.5 -38t13 -40t11 -35t8 -22.5q6 -16 11.5 -34.5t11.5 -34.5
t12 -35.5l12 -39t12 -38.5t12 -34q3 -8 6.5 -26.5t6.5 -26.5q-1 39 0.5 76.5t2.5 76.5q1 32 2 65t0 64q0 35 -1.5 64.5t-2.5 64.5h-20q-9 0 -13 4t-4.5 10t2.5 11.5t9 7.5q11 4 27.5 3t22.5 -2h11t14.5 -0.5t14 -1.5t9.5 -2q6 -2 8.5 -7t2 -10.5t-3 -10t-7.5 -5.5
q-8 -1 -15.5 -1.5t-14.5 0.5q2 -34 2 -62v-62q0 -14 1 -29.5t1 -31.5q0 -29 -1 -71t-1.5 -83t-0.5 -75t3 -47q8 -1 15.5 -1.5t10.5 -1.5q6 -2 8.5 -7.5t2 -11.5t-3 -11t-7.5 -6h-10.5t-19 0.5t-22 1t-19.5 1.5q-5 0 -12 14t-15 35.5t-16 47.5t-15.5 50.5t-14 44.5t-9.5 29
q-7 17 -12 34.5t-13 36.5q-8 18 -13.5 39.5t-11 43.5t-11 43t-12.5 39v-19.5t0.5 -30.5t0.5 -30v-18zM428 274q26 -1 49.5 -1.5t40.5 -0.5q-5 31 -11 62.5t-11 63.5q-10 60 -14 110t-12 107q-1 -5 -1.5 -21t-1.5 -34t-1.5 -34.5t-1.5 -21.5q-3 -20 -5 -41t-6 -42
q-4 -23 -9.5 -46.5t-8.5 -49.5q-2 -13 -3.5 -25.5t-3.5 -25.5z" />
    <glyph glyph-name="P_A" unicode="PA" horiz-adv-x="604" 
d="M46 200q-3 35 -2 65t1 66q0 15 -1 31t-1 33t2 36t1 39q-1 27 -1.5 53.5t-1.5 49.5v20q-1 31 -2 52t3 41q-8 1 -15.5 1t-11.5 2q-6 2 -8.5 7.5t-2 11.5t3 11t7.5 5q32 1 65.5 0.5t64 -4t54.5 -12.5t38 -25q19 -23 24 -64.5t-3.5 -85t-29 -81t-53.5 -51.5q-20 -9 -43.5 -12
t-46.5 -1q0 -11 -0.5 -17.5t-0.5 -11.5v-11v-16q1 -37 1.5 -68.5t1.5 -68.5h19q9 1 13.5 -3.5t5 -10.5t-2 -11.5t-8.5 -7.5q-11 -3 -27.5 -2.5t-22.5 1.5q-4 0 -11 0.5t-14.5 1t-14 1t-9.5 1.5q-11 4 -11.5 18t10.5 15q8 2 15 2h15zM346 241q30 0 55.5 0.5t43.5 0.5
q1 -4 1 -8t1 -9q7 -48 12 -92t12 -92q-8 -1 -15.5 -1.5t-15.5 0.5q-9 0 -13 -4.5t-4.5 -10.5t2.5 -12t9 -9q11 -5 27 -4t23 2q8 1 25 2t24 4q11 5 10.5 19.5t-11.5 16.5q-5 1 -9.5 1.5t-9.5 0.5q-4 48 -10.5 92t-14.5 92q-3 20 -5 40.5t-6 42.5q-3 23 -9 46.5t-9 49.5
q-5 35 -9 69.5t-8 63.5q-1 7 -2 13.5t-2 12.5q-6 44 -10.5 78.5t-13.5 60.5q-3 10 -10 13q-5 4 -12 4q-11 1 -19.5 -7.5t-4.5 -25.5q-6 -46 -11 -90t-12 -92q-6 -42 -13.5 -85.5t-15.5 -87.5q-2 -12 -6 -43.5t-11.5 -73t-19 -87.5t-27.5 -88q-17 -43 -39.5 -65.5t-46 -29.5
t-46.5 -0.5t-41 21.5t-29 36.5t-11 43.5q0 15 6.5 27t18 20t27.5 9.5t34 -4.5q24 -8 33.5 -29.5t7.5 -41.5q-1 -8 5 -14t14 -7q9 -1 15.5 4.5t7.5 13.5q3 34 -12 64t-54 42q-37 11 -74 -2q-16 -5 -27 -13q-35 -22 -40 -60q-4 -29 9 -57t37.5 -48.5t57 -30.5t66 -3t65.5 34
t55 80t36.5 109t18.5 98zM350 274q2 13 3 25.5t3 26.5q4 25 9.5 48.5t9.5 46.5q4 22 6 42.5t5 40.5q1 5 1.5 21.5t1.5 34.5t1.5 34.5t1.5 21.5q7 -58 11.5 -108t14.5 -109q5 -32 11 -64t11 -63q-17 1 -40.5 1.5t-49.5 0.5zM92 687q-2 -22 -1 -44.5t0 -45.5q0 -11 1 -29
t0 -29q0 -16 -2 -35.5t-2 -36.5v-41q17 -2 34.5 0t33.5 9q27 12 44 42t23 65t0.5 69t-21.5 54q-8 9 -21.5 14t-29 6.5t-31.5 1.5h-28z" />
    <glyph glyph-name="R_A" unicode="RA" horiz-adv-x="673" 
d="M282 47q10 -14 23.5 -30.5t29 -31.5t33 -28t35.5 -19q22 -8 44.5 -6t41.5 12t33.5 25.5t21.5 35.5q10 27 5.5 50.5t-18.5 37.5t-34.5 15.5t-43.5 -13.5q-21 -14 -23.5 -36.5t5.5 -41.5q3 -8 -1 -15t-12 -10q-8 -2 -16 1t-11 11q-14 32 -8 64.5t40 53.5q33 19 72 16
q16 -2 29 -6q40 -14 57 -49q11 -21 9.5 -44.5t-9.5 -45.5q-9 -24 -31 -43t-51 -31t-61 -14.5t-59 6.5q-57 20 -101.5 70.5t-80.5 114.5q-12 21 -27 44.5t-29.5 48t-27 48.5t-18.5 46q0 3 -4 9h-14v-22t-0.5 -14.5t-0.5 -14v-20.5q1 -48 2.5 -92t2.5 -91h19q9 1 13 -3.5
t4.5 -11t-2.5 -12.5t-9 -8q-11 -5 -27.5 -4t-22.5 2q-8 1 -25 2t-24 4q-11 5 -10.5 19t11.5 16q8 2 15 2h15q-3 45 -3 87v88q0 20 -1 40.5t-1 41.5q0 23 2.5 46.5t1.5 49.5q-1 35 -2 69t-2 63v27q-1 38 -1.5 69.5t2.5 57.5q-8 1 -15.5 1.5t-11.5 2.5q-5 2 -7.5 8t-2.5 12
t3 10.5t8 4.5q32 1 65.5 1t63.5 -4.5t54 -15.5t38 -32q19 -30 24 -83t-3 -109t-29 -103.5t-53 -65.5q-18 -10 -38 -15l1 -2q18 -35 34 -65t32.5 -58.5t35.5 -58t45 -64.5zM409 212q9 0 12.5 -4.5t3.5 -10.5t-3.5 -12t-9.5 -8q-11 -3 -26.5 -2.5t-21.5 1.5q-4 0 -11 0.5
l-14 1t-13.5 1t-9.5 1.5q-5 2 -7.5 7.5t-1.5 11.5t4 11t8 5q7 2 13 2h12q6 21 9 41.5t9 43.5q2 11 5 28.5t5 28.5q3 16 8.5 35t9.5 35q8 33 15 66.5t13 65.5q7 36 12 69.5t11 68.5q-4 13 4 19.5t19 5.5q5 1 12 -3t10 -10q8 -20 12.5 -46t10.5 -59q2 -8 4 -20q4 -22 8 -48.5
t8 -52.5q4 -20 9.5 -38t9.5 -35q3 -17 5 -33t5 -30q8 -37 15 -67.5t11 -66.5q5 0 9.5 -0.5t9.5 -0.5q10 -2 9.5 -16t-11.5 -18q-6 -2 -22.5 -2.5t-24.5 -1.5q-6 -1 -22 -1.5t-27 2.5q-6 2 -8.5 7.5t-2 11.5t4.5 10t13 4h15.5t15.5 1q-7 36 -12.5 67t-12.5 67q-2 8 -2 13
q-18 0 -42.5 -0.5t-54.5 -0.5q-2 -10 -3 -19.5t-3 -17.5l-2 -10l-2 -10q-5 -29 -7.5 -49t-9.5 -39h17zM425 393q26 0 46.5 -0.5t37.5 -1.5q-5 24 -9.5 43t-9.5 43q-10 45 -14 83t-12 82q-1 -4 -1.5 -16.5t-1.5 -26t-1.5 -26t-1.5 -16.5q-3 -15 -5 -30.5t-5 -32.5
q-4 -17 -9.5 -35t-9.5 -38q-2 -10 -2 -14t-2 -14zM114 325q19 3 36 12q18 10 32 33t22.5 53t12 64.5t2 66.5t-8 60t-17.5 45q-8 12 -21 17.5t-28 7t-30.5 1t-27.5 -0.5q-2 -27 -0.5 -60.5t-0.5 -63.5q0 -6 0.5 -16t0.5 -20.5t0.5 -20.5t0.5 -17q-1 -21 -2.5 -46.5
t-2.5 -45.5v-69q5 0 9.5 -0.5t9.5 0.5q9 2 13 0z" />
    <glyph glyph-name="R_E" unicode="RE" horiz-adv-x="660" 
d="M425 228q1 0 12 -1t27 -1.5t34.5 -1t36.5 -0.5v16t6 16q1 3 7 4t12.5 0.5t12 -2t7.5 -4.5q2 -4 0.5 -12.5t-1.5 -13.5v-5.5t-2 -8.5q0 -2 -0.5 -7t-2 -10.5t-3.5 -10t-5 -5.5q-4 -1 -17.5 -2t-31.5 -1h-38h-37.5t-30 0.5t-14.5 0.5q-8 1 -24.5 1.5t-22.5 2.5t-8.5 8.5
t-2 14t3 14t7.5 6.5q14 3 29 1q-2 30 -2 50v50q1 21 1.5 46t2.5 51q0 19 -2 37t-2 35q0 16 1 31.5t1 30.5v59.5t2 59.5h-14t-15 1q-5 1 -7.5 6.5t-3 12t2 12.5t8.5 8t23 3t25 1q2 0 15 0.5t32.5 0.5h42h42t34 -1t18.5 -2q6 -2 9.5 -13t2.5 -16q1 -4 1 -7.5t1 -5.5
q0 -5 1 -13.5t-1 -12.5q-2 -3 -7.5 -4.5t-11.5 -2t-12 0.5t-7 3q-6 9 -6 17v16h-131q-1 -35 -2 -62t-2 -63v-24.5v-20.5t0.5 -21t0.5 -26q16 1 35 0t30 -1q14 0 25.5 -1.5t13.5 -1.5q4 0 6 -4t2.5 -9.5t-1 -11t-3.5 -6.5t-13 -2t-28 -1q-20 -1 -39 -0.5t-21 1.5q-3 0 -5 1
q1 -14 2 -36.5t1 -34.5q1 -11 0 -28.5t-1 -27.5q1 -23 0 -38t1 -35zM264 55q10 -14 23.5 -30.5t29 -31.5t32.5 -28t35 -19q22 -8 44.5 -5.5t42 12t34 25t21.5 35.5q10 28 5.5 51t-18.5 37t-34.5 15.5t-43.5 -13.5q-21 -14 -23.5 -36t5.5 -42q3 -8 -1 -15t-12 -9q-8 -3 -16 0
t-11 11q-14 32 -8 64.5t40 53.5q15 10 33.5 14t37.5 2q16 -2 30 -6q41 -14 57 -48q10 -22 9 -45t-9 -45q-9 -24 -31 -43t-51 -31t-61 -14.5t-59 6.5q-57 20 -101.5 70t-80.5 114q-24 43 -48 89t-36 90q0 3 -4 9h-6.5t-7.5 1q0 -15 -0.5 -23t-0.5 -14.5v-14v-20.5
q1 -48 2.5 -92t2.5 -90q5 -1 9.5 -1h9.5q9 1 13 -3.5t4.5 -10.5t-2.5 -12t-9 -8q-11 -5 -27.5 -4t-22.5 1q-8 2 -25 2.5t-24 3.5q-5 2 -7.5 7.5t-2.5 11.5t3 11t8 6q13 3 30 1q-3 45 -3 87v88q0 20 -1 40.5t-1 41.5q0 23 2.5 47t1.5 49q-1 35 -2 69.5t-2 63.5v26
q-1 39 -1.5 70t2.5 57q-8 1 -15.5 1.5t-11.5 2.5q-5 2 -7.5 8t-2.5 12t3 11t8 5q32 1 65.5 1t63.5 -5t54 -16t38 -32q13 -20 19.5 -50.5t6.5 -67t-5.5 -74.5t-16.5 -71.5t-27.5 -59.5t-37.5 -38q-19 -11 -38 -14l1 -3q18 -35 31 -63.5t26 -55.5t29.5 -55.5t42.5 -63.5z
M114 326q18 1 36 11q28 16 44.5 58.5t21.5 92.5t-0.5 97.5t-22.5 73.5q-8 12 -21 17.5t-28 7.5t-30.5 1t-27.5 -1q-2 -27 -0.5 -60.5t0.5 -62.5q-1 -14 0 -37t1 -37q-1 -21 -2.5 -46.5t-2.5 -46.5v-68q5 -1 9.5 -1h9.5q8 2 13 1z" />
    <glyph glyph-name="R_I" unicode="RI" horiz-adv-x="514" 
d="M353 226q-2 34 -2 60v60q0 14 -1 29.5t-1 32.5t2 34.5t1 36.5q-1 26 -1.5 52t-1.5 47v20q-1 29 -2 46.5t2 37.5q-17 0 -25 2q-6 2 -8.5 8t-2 12.5t3 11.5t7.5 6q25 4 46 -0.5t44 -2.5q9 0 13 -5t4.5 -11.5t-2.5 -13t-9 -7.5q-9 -3 -23 -3q-2 -20 -1 -37.5t0 -40.5
q0 -10 0.5 -27.5t0.5 -27.5q0 -16 -2 -35t-2 -34l-2 -66t0 -63q0 -36 1.5 -63t2.5 -62q9 -2 19 0q9 0 13 -5t4.5 -12t-2.5 -13t-9 -8q-11 -4 -27 -3t-22 2q-8 0 -24.5 1t-22.5 3q-6 1 -8.5 7t-2 12.5t3 12t7.5 6.5q15 2 29 0zM128 293q6 0 21.5 6.5t22.5 9.5q21 12 37.5 38
t27.5 60t17 72t5.5 74t-7 67t-18.5 51q-14 21 -38 32t-54.5 15.5t-64 4.5t-65.5 -1q-5 0 -8 -4.5t-3 -10.5t2.5 -12t7.5 -8q4 -2 11.5 -2.5t15.5 -1.5q-3 -26 -2 -57.5t1 -69.5v-27q1 -29 2 -63t2 -69q1 -26 -1.5 -49.5t-2.5 -46.5q0 -21 1 -41.5t1 -40.5v-88t3 -87h-15
t-15 -2q-5 -1 -8 -5.5t-3 -10.5t2.5 -11.5t7.5 -8.5q3 -1 10 -2t14.5 -1.5t14.5 -1t11 -0.5q5 -1 21.5 -2t27.5 4q6 2 9 8t2.5 12.5t-4.5 11t-13 3.5q-5 -1 -9.5 -0.5t-9.5 0.5q-1 47 -2.5 91t-2.5 92v20.5t0.5 14t0.5 14.5v22h7q6 -18 14.5 -41t16.5 -46q10 -29 22 -60
t26.5 -60t32 -53.5t39.5 -40.5q39 -29 75.5 -33t65.5 8t48.5 36t23.5 51t-9 53t-48 42q-14 6 -29 9q-16 3 -32.5 1t-32.5 -7q-12 -3 -17.5 -12t-3.5 -17t11 -12.5t25 0.5q46 14 68 3t25.5 -32.5t-9.5 -45.5t-37 -37q-30 -16 -58 -3.5t-53.5 43t-48.5 75.5t-42 93
q-9 23 -17.5 45t-15.5 42zM114 325q-5 2 -13 0q-5 -1 -9.5 -0.5t-9.5 0.5v69q1 20 2.5 45.5t2.5 46.5q0 14 -1 37.5t0 36.5q1 30 0 63.5t1 60.5q12 0 27 0.5t30 -1t28 -7t21 -17.5q11 -17 17.5 -45t8 -60t-2 -66.5t-12 -64.5t-22 -53t-31.5 -33q-18 -9 -37 -12z" />
    <glyph glyph-name="R_O" unicode="RO" horiz-adv-x="657" 
d="M399 576q-2 -27 -4.5 -67.5t-3 -84t2.5 -84.5t13 -69q4 -12 14.5 -23t24 -16.5t28.5 -3.5t29 15q16 14 24 36t11.5 45.5t4 43.5t0.5 31q0 13 4 49.5t4 80t-7 85.5t-28 68q-12 14 -25.5 17.5t-26.5 0t-23.5 -12.5t-16.5 -19q-6 -11 -10 -15.5t-6 -15.5q-4 -15 -5.5 -30.5
t-3.5 -30.5zM260 62q10 -14 23.5 -30.5t29 -31.5t33 -27.5t35.5 -18.5q22 -8 44.5 -6t41.5 12t33.5 25.5t21.5 35.5q10 27 5.5 50.5t-18.5 37.5t-34.5 15.5t-43.5 -13.5q-20 -14 -23 -36.5t5 -41.5q3 -8 -0.5 -15t-11.5 -10q-9 -2 -17 1t-11 11q-13 31 -7.5 64t39.5 53
q33 20 72 17q15 -2 30 -6q40 -14 57 -49q10 -21 8.5 -44.5t-9.5 -45.5q-8 -24 -30.5 -43t-51.5 -31t-61 -14.5t-59 6.5q-57 20 -101.5 70.5t-79.5 114.5q-24 42 -46.5 84.5t-33.5 86.5l-2 4t-3 5h-14v-22t-0.5 -14.5t-0.5 -14v-20.5q1 -48 2.5 -92t2.5 -91h19q9 1 13 -3.5
t4.5 -11t-2.5 -12.5t-9 -8q-11 -5 -27.5 -4t-21.5 2q-4 0 -11 0.5t-14.5 1t-14.5 1.5t-10 2q-5 3 -7.5 8.5t-2.5 11.5t3 10.5t8 5.5q14 3 30 1q-3 45 -3 87.5v88.5q0 20 -1 40.5t-1 41.5q0 23 2.5 46.5t1.5 49.5q-1 35 -2 69t-2 63v26q0 39 -1 70.5t2 57.5q-8 1 -15.5 1.5
t-11.5 1.5q-5 3 -7.5 9t-2.5 12t3 10.5t8 4.5q32 1 65.5 1t64 -4.5t54.5 -15.5t38 -32q19 -30 23.5 -83t-3.5 -109t-29 -103.5t-53 -65.5q-18 -10 -38 -15l1 -2q18 -35 30.5 -62.5t25 -53t28 -52.5t41.5 -63zM114 325q19 3 37 12q18 10 31.5 33t22 53t12 64.5t2 66.5t-8 60
t-17.5 45q-8 12 -21 17.5t-28 7t-30 1t-27 -0.5q-2 -28 -1 -61t0 -63q-1 -13 0 -36.5t1 -37.5q-1 -21 -2.5 -46.5t-2.5 -45.5v-69q5 0 9.5 -0.5t9.5 -0.5q7 3 13 1zM552 711q16 -16 25 -41.5t13.5 -55.5t5.5 -62.5t0 -62t-2.5 -54.5t-1.5 -40q-1 -18 -4 -44.5t-9.5 -54.5
t-18 -53t-29.5 -39q-22 -18 -48.5 -20t-51 6.5t-43 25t-25.5 35.5q-4 10 -5.5 20.5t-3.5 21.5q-2 14 -3.5 28.5t-3.5 28.5q-1 17 -2 33t-1 33q-1 39 -0.5 78t3.5 78q2 33 9 63q5 28 18 50q15 28 52 43q32 14 68 10t58 -27z" />
    <glyph glyph-name="R_U" unicode="RU" horiz-adv-x="680" 
d="M585 543q0 -16 -2 -35t-2 -34l-2 -66t0 -64v-40t-4.5 -45.5t-15 -41.5t-31.5 -29q-28 -14 -55 -15.5t-49.5 6t-39 22.5t-23.5 35q-5 11 -8.5 29t-5.5 31q0 27 -1 54t-1 54q0 17 2.5 35t1.5 37l-2 52t-2 48v19q0 29 -1 47.5t2 37.5q-8 1 -15.5 1.5t-10.5 1.5
q-5 2 -7.5 7.5t-2.5 12t2.5 11.5t7.5 6q26 4 46.5 0t44.5 -3q9 0 13 -5t4 -11.5t-3 -12.5t-9 -7q-9 -3 -23 -3q-2 -21 -0.5 -38.5t-0.5 -40.5q0 -11 1 -28t1 -28q-1 -16 -2.5 -35t-2.5 -34q-1 -45 -2 -88.5t1 -88.5q2 -16 4 -25t6 -20q6 -17 24 -29t39 -11q28 1 43.5 16.5
t23 36.5t9.5 43t2 35q0 14 -1 29.5t-1 31.5q0 17 2 35t2 37q-2 26 -2.5 52t-1.5 48v19q-1 29 -1.5 47.5t2.5 38.5q-8 0 -15.5 0.5t-10.5 2.5q-6 1 -8.5 7t-2 12t3 11t7.5 6q25 4 46 0t44 -3q9 0 13 -4.5t4.5 -11t-2.5 -12.5t-9 -8q-5 -2 -11 -2t-12 -1q-2 -20 -1 -38t0 -41
q-1 -11 0.5 -28t0.5 -28zM260 62q-26 36 -42 63t-28.5 52.5t-25 52.5t-30.5 62l-1 3q10 2 19.5 5.5t18.5 8.5q21 12 37.5 38t27.5 59.5t17 71.5t5.5 74.5t-6.5 67.5t-19 50q-14 21 -38 32t-54.5 16t-64 5t-65.5 -1q-5 0 -8 -5t-3 -11t2.5 -11.5t8.5 -8.5q3 -2 10.5 -2.5
t15.5 -1.5q-3 -26 -2 -57t1 -70v-26q1 -29 2 -63t2 -70q1 -25 -1 -49t-3 -46q0 -22 1 -42.5t1 -40.5q0 -45 0.5 -87.5t2.5 -87.5q-17 2 -30 -1q-5 -1 -8 -6t-3 -11t2.5 -11.5t8.5 -7.5q3 -1 9.5 -2t14 -1.5t14 -1t10.5 -0.5q7 -1 23 -2t27 4q6 2 9 8t2.5 12t-4.5 10.5
t-13 4.5q-10 -2 -19 0q-1 47 -2.5 90.5t-2.5 91.5v20.5t0.5 14t0.5 14.5v23q4 0 7.5 -0.5t6.5 -0.5q4 -6 5 -8q11 -44 33.5 -86.5t46.5 -85.5q35 -63 79.5 -113.5t101.5 -70.5q27 -9 59 -6.5t61 14.5t51.5 31t30.5 43q8 22 9.5 45t-8.5 45q-17 36 -57 48q-15 6 -30 6
q-19 2 -37.5 -2t-34.5 -14q-34 -20 -39.5 -53t7.5 -65q3 -8 11 -11t17 0q8 2 11.5 9t0.5 15q-8 20 -5 42.5t23 36.5q23 15 43.5 13t34.5 -16t18.5 -37t-5.5 -51q-7 -19 -21.5 -34.5t-33.5 -25.5t-41.5 -12.5t-44.5 5.5q-18 6 -35.5 19t-33 28t-28.5 31.5t-23 30.5zM113 325
q-6 2 -13 -1h-9.5t-9.5 1v68q1 21 2.5 46.5t2.5 46.5q0 14 -1 37t0 37q1 30 0 63t1 61q12 0 27 0.5t30 -1.5t28 -7.5t21 -17.5q11 -17 17.5 -45t8 -60t-2 -66t-12 -64t-22 -53t-31.5 -33q-9 -5 -18 -7.5t-19 -4.5z" />
    <glyph glyph-name="U_J" unicode="UJ" horiz-adv-x="548" 
d="M277 543q-1 -16 -2.5 -35t-2.5 -35q-1 -33 -1.5 -66t-0.5 -64v-39.5t-4.5 -45t-15 -42t-30.5 -29.5q-29 -13 -56 -14.5t-49.5 6t-39 22t-23.5 34.5q-4 12 -8 30t-6 30q0 27 -1 54.5t-1 54.5q1 17 3 34.5t1 37.5l-2 52t-1 47l-1 20q0 29 -1 47t2 38q-16 0 -26 2
q-5 2 -7.5 8t-2.5 12.5t3 11.5t8 6q25 3 45.5 -1t44.5 -2q9 0 13 -5t4 -11.5t-3 -12.5t-8 -8q-11 -3 -23 -3q-2 -20 -1 -38t0 -41q-1 -10 0 -27.5t1 -27.5q-1 -16 -2.5 -35t-1.5 -35q-2 -45 -2.5 -88t1.5 -88q2 -17 3.5 -26t6.5 -20q5 -17 23 -28.5t39 -10.5q28 1 43.5 16.5
t23 36.5t9.5 42.5t2 34.5q0 14 -1 29.5t-1 32.5t2.5 34.5t1.5 37.5l-2 52t-2 47v20q0 29 -1 47.5t2 37.5q-8 1 -15.5 1.5t-10.5 1.5q-5 2 -7.5 7.5t-2.5 12t2.5 11.5t7.5 6q25 3 46 -1t45 -2q9 0 13 -5t4 -11.5t-3 -12.5t-9 -7q-5 -2 -10.5 -2.5t-12.5 -0.5q-2 -21 -1 -39
t0 -41q0 -10 1 -27.5t1 -27.5zM407 396q1 -26 -1.5 -49.5t-2.5 -46.5v-41.5v-63v-63v-41.5q-1 -24 -1.5 -47.5t-4 -46t-11.5 -44t-24 -40.5q-29 -35 -67.5 -46t-76.5 -1t-69 40.5t-43 77.5q-8 29 -3 56t28 44q19 14 40 18.5t36 -1t22 -20.5t0 -39q-5 -15 -22 -20t-32 -7
q-8 -1 -14 -7t-5 -14t8 -13t15 -4q29 3 55.5 15t35.5 39q5 17 1.5 36t-13.5 33q-12 17 -31 27q-29 15 -63 10.5t-60 -23.5q-29 -22 -39 -53.5t-5 -65.5q6 -45 27.5 -78t51.5 -53.5t65 -29.5t70.5 -5.5t67 19t54.5 43.5q19 23 29 46.5t14 48.5t5 50.5t2 53.5q1 23 1 64.5
v86.5t0.5 87t0.5 65q1 20 2.5 45.5t2.5 46.5q0 7 -0.5 17t-0.5 20.5t-0.5 20.5t-0.5 16q1 30 0 61t1 59q15 0 24 3q6 3 9 9t2.5 12t-4.5 10.5t-13 3.5q-12 -1 -23 0.5l-22 3t-22.5 2t-24.5 -1.5q-11 -2 -11.5 -16t10.5 -19q4 -2 11.5 -2.5t15.5 -1.5q-3 -26 -2.5 -57.5
t1.5 -69.5v-27q1 -29 2 -63t2 -69z" />
    <glyph glyph-name="U_M" unicode="UM" horiz-adv-x="806" 
d="M277 544q-1 -16 -2.5 -35t-2.5 -35q-1 -33 -1.5 -66t-0.5 -64v-40t-4.5 -45.5t-15 -41.5t-30.5 -29q-29 -13 -56 -14.5t-49.5 6t-39 22t-23.5 34.5q-4 12 -8 30t-6 30q0 27 -1 54.5t-1 54.5q1 17 3 34.5t1 37.5q-1 26 -2 51.5t-1 47.5l-1 19q0 29 -1 47.5t2 38.5
q-16 0 -26 2q-5 2 -7.5 8t-2.5 12.5t3 11.5t8 6q25 3 45.5 -1t44.5 -2q9 0 13 -5t4 -11.5t-3 -12.5t-8 -8q-11 -3 -24 -3q-2 -20 -0.5 -38t0.5 -41q-1 -10 0 -27.5t1 -27.5q-1 -16 -2.5 -35t-1.5 -35q-2 -45 -2.5 -88t1.5 -88q2 -17 3.5 -26t6.5 -20q5 -17 23 -28.5
t39 -10.5q28 1 43.5 16.5t23 36.5t9.5 42.5t2 34.5q0 14 -1 29.5t-1 32.5t2.5 34.5t1.5 37.5q-2 26 -2.5 51.5t-1.5 47.5v19q-1 29 -1.5 48t2.5 38q-8 1 -15.5 1t-10.5 2q-5 2 -7.5 7.5t-2.5 12t2.5 11.5t7.5 6q25 3 46 -1t45 -2q9 0 13 -5t4 -11.5t-3 -12.5t-9 -7
q-5 -2 -11 -2.5t-12 -0.5q-2 -21 -1 -39t0 -41q0 -10 1 -27.5t1 -27.5zM659 486v24.5t0.5 40t1 40.5t0.5 27q-8 -24 -13.5 -52.5t-11 -58t-11.5 -58t-13 -52.5q-8 -26 -13 -49.5t-11 -46.5q-5 -17 -8.5 -31.5t-7.5 -26.5q-2 -8 -7.5 -12t-12.5 -3.5t-13.5 7t-10.5 20.5
q-3 13 -5 21.5t-7 24.5q-6 23 -11 46.5t-13 49.5q-8 24 -13.5 52.5t-11 58t-11 58t-12.5 52.5v-27t0.5 -40.5t0.5 -40v-24.5q-1 -37 0 -82t0.5 -94t-3 -99.5t-9.5 -96.5t-20.5 -85.5t-35.5 -66.5q-39 -48 -90.5 -68t-100.5 -13t-85.5 40t-45.5 89q-5 34 5 65.5t39 53.5
q26 19 60 23.5t64 -10.5q18 -11 30 -27q10 -14 13.5 -33t-1.5 -36q-9 -27 -35 -39.5t-56 -14.5q-8 -1 -15 4t-8 13t5 14t15 7q14 1 31 6.5t22 20.5q8 24 1 39t-22.5 20.5t-36.5 1t-40 -18.5q-23 -17 -29 -44.5t4 -55.5q15 -44 43.5 -65.5t62 -22.5t69 17t63.5 52
q27 33 40.5 86t18 112t3.5 117t-2 102q-1 35 -2 69t-2 63v26q-1 39 -1.5 70.5t2.5 57.5q-8 0 -15.5 1t-11.5 3q-11 5 -10.5 19t11.5 16q17 3 40 1.5t37 -3.5q2 0 7.5 -15t11.5 -38t13.5 -50.5t13.5 -53.5t11 -47t8 -30q6 -21 11.5 -46.5t11.5 -46.5q4 -16 8 -33.5t9 -36.5
q5 19 9 36.5t9 33.5q5 21 10.5 46.5t11.5 46.5q2 9 7.5 30t11.5 47t13.5 53.5t13.5 50.5t11 38t8 15q14 2 37 3.5t40 -1.5q11 -2 11.5 -16t-10.5 -19q-4 -2 -11.5 -3t-15.5 -1q3 -26 2.5 -57.5t-1.5 -70.5v-26q-1 -29 -2 -63t-2 -69q-1 -26 1.5 -49.5t2.5 -46.5
q0 -21 -1 -41.5t-1 -40.5v-88.5t-3 -87.5q17 2 30 -1q5 -1 8 -5.5t3.5 -10.5t-2 -11.5t-8.5 -8.5q-3 -1 -9.5 -2t-14 -1.5t-14.5 -1t-11 -0.5q-6 -1 -22.5 -2t-27.5 4q-6 2 -9 8t-2.5 12.5t4.5 11t13 3.5q5 -1 9.5 -0.5t9.5 0.5q1 47 2.5 91t2.5 92q0 41 -0.5 84.5
t-1.5 87.5q-1 21 -2.5 46.5t-2.5 46.5z" />
    <glyph glyph-name="U_N" unicode="UN" horiz-adv-x="739" 
d="M443 487q-1 -21 -2.5 -47t-2.5 -46q-1 -86 -6.5 -173t-24.5 -160t-57 -123t-105 -62q-30 -5 -60.5 1.5t-55.5 23t-43 42.5t-24 59q-6 34 4.5 65.5t39.5 52.5q26 19 60 24t63 -11q18 -8 31 -26q10 -15 13.5 -33.5t-1.5 -35.5q-9 -28 -35 -40t-56 -14q-8 -1 -15 4t-8 13
t5 14t14 7q15 2 32 7t22 20q7 24 0 39t-22.5 20.5t-36 1t-39.5 -18.5q-23 -17 -29.5 -45t4.5 -55q20 -51 57 -71.5t76 -11.5q47 10 76.5 51.5t46 99.5t23.5 127t8 135t-0.5 121.5t-1.5 87.5v26q0 38 -1 69.5t2 57.5q-8 1 -15.5 1.5t-11.5 2.5q-5 2 -7.5 7.5t-2.5 11.5t3 11
t8 6q17 2 40 0.5t37 -3.5q2 0 7.5 -15t11.5 -37.5t13.5 -50.5t13.5 -53.5t11 -46.5t8 -30q6 -21 11.5 -47t11.5 -46q6 -22 12 -48l12 -52t12 -51.5t12 -45.5l3 -15t3.5 -21t3 -20.5t3.5 -14.5q-2 52 0 102t3 102q1 45 1.5 88.5t0.5 84.5q-1 48 -2.5 92t-2.5 90q-5 1 -9.5 1
h-9.5q-9 -1 -13 3.5t-4.5 10.5t2.5 12t9 9q11 5 27.5 4t22.5 -2q4 -1 11 -1.5t14.5 -1t14 -1.5t9.5 -2q11 -5 10.5 -19t-11.5 -16q-8 -2 -15 -2h-15q3 -45 3 -87v-88q0 -20 1 -40.5t1 -41.5q0 -23 -2.5 -46.5t-1.5 -49.5q1 -35 2 -69.5t2 -63.5v-26q1 -38 1.5 -69.5
t-2.5 -57.5q8 -1 15.5 -1.5t11.5 -2.5q6 -2 8.5 -7.5t2 -11.5t-3.5 -11t-8 -6q-2 0 -10 0.5t-19 1t-22.5 1.5t-18.5 2q-5 0 -12 19t-15 47.5t-16.5 63.5t-16 67.5t-14 59t-9.5 38.5q-6 23 -11 47t-13 49q-8 24 -13.5 52.5t-11 58t-11.5 58t-13 52.5q0 -7 0.5 -26.5t1 -40.5
t0.5 -39.5v-24.5zM276 544q-1 -16 -2.5 -35t-1.5 -35q-1 -32 -2 -65.5t0 -63.5q0 -17 -0.5 -40t-5 -45.5t-15 -41.5t-30.5 -29q-28 -14 -55 -15.5t-50 6t-39.5 22t-23.5 34.5q-4 12 -7.5 30t-5.5 31q0 27 -1 54t-1 54q0 17 2 35t1 37q-1 26 -1.5 52t-1.5 47v20
q-1 29 -1.5 47t2.5 38q-8 1 -15.5 1t-10.5 2q-6 1 -8.5 7t-2 12.5t3 11.5t7.5 6q25 3 46 -1t44 -2q9 0 13 -5t4.5 -11.5t-2.5 -12.5t-9 -8q-5 -2 -11 -2t-12 -1q-2 -20 -1 -38t0 -41q0 -10 1 -27t0 -28q0 -16 -2 -35t-2 -35q-1 -45 -2 -88t1 -88q2 -16 4 -25t6 -21
q6 -17 23.5 -28.5t39.5 -10.5q27 1 43 16.5t23.5 36.5t9 42.5t1.5 34.5q0 15 -1 30.5t0 31.5q0 17 2 35t1 37l-2 52t-1 47l-1 20q0 29 -1 47.5t2 38.5q-17 0 -25 2q-6 2 -8.5 7.5t-2 12t3 11.5t7.5 6q25 3 45.5 -1t44.5 -2q9 0 13 -4.5t4 -11t-3 -12.5t-8 -8q-11 -3 -23 -3
q-2 -20 -1 -38.5t0 -41.5q-1 -10 0 -27t1 -28z" />
    <glyph glyph-name="U_S" unicode="US" horiz-adv-x="633" 
d="M276 536q0 -16 -2 -35t-2 -34l-2 -66t0 -64q0 -17 -0.5 -40t-5 -45.5t-15 -41.5t-30.5 -29q-28 -14 -55 -15.5t-49.5 6t-39 22.5t-23.5 34q-5 12 -8.5 30t-5.5 31q0 27 -1 54t-1 54q0 17 2.5 35t1.5 37l-2 52t-2 48v19q-1 29 -1.5 47.5t2.5 37.5q-8 1 -15.5 1t-10.5 2
q-6 2 -8.5 7.5t-2 12t3 11.5t7.5 6q25 4 46 -0.5t45 -2.5q9 0 13 -5t4 -11.5t-3 -12.5t-9 -8q-5 -2 -11 -2h-12q-2 -21 -1 -39t0 -40q0 -11 1 -28t0 -28q0 -16 -1.5 -35t-2.5 -34q-1 -45 -2 -88.5t1 -88.5q2 -16 4 -25t6 -21q6 -16 23.5 -28t39.5 -11q27 1 43 16.5
t23.5 36.5t9.5 42.5t2 34.5q0 15 -1 30.5t-1 31.5q0 17 2 35t1 37l-2 52t-1 48v19q-1 29 -2 47.5t2 38.5q-8 0 -15 0.5t-10 2.5q-6 1 -8.5 7t-2 12t3 11t7.5 6q25 4 45.5 -0.5t44.5 -2.5q9 0 13 -4.5t4.5 -11t-2.5 -12.5t-9 -8q-11 -3 -23 -3q-2 -20 -1 -38.5t0 -40.5
q-1 -11 0.5 -28t0.5 -28zM548 239q1 -2 1.5 -3.5t1.5 -3.5q-1 2 -1.5 3.5t-1.5 3.5zM530 287q16 -33 26.5 -73t14 -81.5t-0.5 -82t-17 -74.5q-18 -48 -53 -84.5t-86 -57.5q-45 -18 -94.5 -21t-97.5 8q-46 10 -86 33t-66 59q-30 43 -34.5 91t34.5 90q28 29 71 43t85 2
q42 -13 62 -41t25 -65q4 -31 -9 -58.5t-48 -38.5q-19 -5 -39 -2.5t-37 11.5q-39 20 -45 63q-1 8 4.5 14t14.5 7q8 1 15 -4t9 -13q3 -23 24 -35q9 -5 19.5 -6.5t21.5 1.5q20 6 25 23t3 34q-4 26 -16 45.5t-42 28.5q-29 8 -60.5 -3t-50.5 -31q-29 -31 -24 -67t28 -68
q21 -30 55 -49t71 -27q41 -10 83.5 -7.5t80.5 18.5q44 17 73 47.5t44 71.5q20 52 17 110t-17 112q-5 15 -19.5 47.5t-32 68t-35 68t-27.5 47.5q-22 34 -34.5 61.5t-16.5 62.5q-6 48 7 90q7 21 22.5 37t35.5 27q20 9 42.5 12t44.5 -4q37 -11 55 -42q11 -19 13 -40.5t0 -42.5
q-1 -8 -8 -13t-16 -4q-8 1 -14 7t-5 14q1 11 1 24.5t-4 25.5t-12 21.5t-23 13.5q-30 9 -50 -2t-31.5 -31t-15 -44.5t-0.5 -43.5q4 -25 13.5 -48t20.5 -45q14 -26 29.5 -51t30.5 -50q9 -14 12.5 -27t11.5 -28q4 -6 11.5 -17t10.5 -17z" />
    <glyph glyph-name="U_Y" unicode="UY" horiz-adv-x="654" 
d="M34 366q0 10 1 27.5t0 27.5q-1 23 0 41t-1 39h-12t-11 2t-8 8t-3 12.5t4 11.5t13 4q24 -1 44.5 3t45.5 1q5 -1 8 -6t3 -11.5t-2.5 -12t-7.5 -7.5q-4 -2 -11 -2t-15 -1q3 -19 2 -37.5t-1 -47.5l-1 -20q0 -22 -1 -47.5t-2 -51.5q-1 -20 1 -37.5t3 -34.5q0 -17 -1 -32.5
t-1 -29.5q0 -13 2 -34.5t9.5 -42.5t23 -36.5t43.5 -16.5q21 -2 39 10t23 29q5 11 6.5 20t3.5 26q2 45 1 88t-2 88q0 16 -2 35t-2 35q-1 10 0.5 27.5t0.5 27.5q-1 23 0 41t-1 38q-13 0 -23 3q-6 1 -9 7.5t-2.5 13t4.5 11.5t13 4q24 -1 44.5 3t45.5 1q5 -1 7.5 -6t3 -11.5
t-2 -12.5t-8.5 -8q-3 -1 -10 -1.5t-15 -1.5q3 -19 2 -37t-2 -47v-20q-1 -22 -1.5 -47.5t-1.5 -51.5q-1 -20 1 -37.5t2 -34.5q0 -27 -1 -54.5t-1 -54.5q-2 -13 -5.5 -31t-7.5 -29q-7 -20 -23.5 -34.5t-39 -22t-50 -6t-55.5 14.5q-20 10 -30.5 29t-15 41.5t-5 45.5t-0.5 40
q1 31 0 64t-1 66q-1 16 -2.5 35t-2.5 35zM423 286q-10 30 -18.5 71.5t-18.5 87.5t-22.5 94t-29.5 90t-39 76t-51 53q-41 26 -74 18.5t-56 -41.5q-16 -24 -16.5 -47t10 -39.5t30.5 -24t46 1.5q23 8 31 29t4 41q-1 8 4.5 13.5t13.5 6.5q9 1 16 -4.5t9 -13.5q5 -34 -7.5 -63.5
t-50.5 -40.5q-18 -5 -37.5 -4t-37.5 7q-8 2 -14.5 5.5t-13.5 7.5q-37 23 -45 61q-5 23 1.5 45t19.5 41q13 20 33.5 33.5t44.5 18t50 0t51 -20.5q51 -33 81 -84t48.5 -109.5t30.5 -119.5t27 -113q10 43 18 77t14.5 69t14 76t18.5 99q-8 1 -11 0.5t-6 1.5q-5 2 -7 8t-2 12
t3 11.5t8 6.5q13 2 23 2t19 -1t18.5 -2t21.5 0q9 1 13.5 -4t5 -12t-3 -13.5t-9.5 -8.5q-9 -4 -25 -4q-15 -46 -25 -91.5t-18.5 -91t-17.5 -90.5t-21 -89l-10 -32l2 6q0 -19 -1 -37.5t-1 -35.5v-88t-2 -87q15 2 30 -1q5 -1 7.5 -6t3 -11t-2 -11.5t-8.5 -7.5q-3 -1 -9.5 -2
t-14 -1.5t-14.5 -1t-11 -0.5q-6 -1 -22.5 -2t-27.5 4q-6 2 -9 8t-2.5 12t4.5 10.5t13 4.5q10 -1 20 0q0 47 2 90.5t2 91.5q1 16 0.5 32t-0.5 33z" />
    <glyph glyph-name="Y_A" unicode="YA" horiz-adv-x="634" 
d="M370 35h-17q7 19 10 39t8 49q1 5 1.5 10t1.5 10q2 8 3.5 17.5t3.5 19.5h54t42 1q2 -8 2 -13q7 -36 13 -67t12 -67q-7 -1 -14.5 -1h-15.5q-9 0 -13 -4t-5 -10t2 -11.5t8 -7.5q11 -3 27 -2.5t22 1.5q4 0 11 0.5l14 1t13.5 1t9.5 1.5q10 4 10.5 18t-9.5 15q-5 1 -9 1.5
t-9 0.5q-5 36 -12 66.5t-14 67.5q-3 14 -5 30t-6 33t-9.5 35t-8.5 37q-5 27 -9 53.5t-8 48.5q-1 5 -1.5 10t-1.5 10q-6 32 -10.5 58.5t-13.5 46.5q-3 7 -10 10q-5 3 -11 3q-11 1 -19 -5.5t-4 -19.5q-7 -35 -12 -68.5t-11 -69.5q-6 -32 -13.5 -65.5t-15.5 -66.5
q-3 -16 -8.5 -35t-9.5 -35q-2 -11 -5 -28.5t-5 -28.5q-5 -23 -8 -44t-9 -42q-6 1 -12.5 0.5t-13.5 -1.5q-5 -1 -8 -5.5t-3.5 -10.5t1.5 -11.5t8 -7.5t22.5 -2.5t24.5 -1.5q6 -1 22 -1.5t27 2.5q6 2 9.5 8t3.5 12t-4 10.5t-13 4.5zM170 287v-65q1 -48 2.5 -92t2.5 -91h19
q9 1 13 -3.5t4.5 -10.5t-2.5 -12t-9 -9q-11 -5 -27.5 -4t-22.5 2q-8 1 -25 2t-24 4q-11 5 -10.5 19t11.5 16q8 2 15 2h15q-3 45 -3 87v88q0 17 -1 35.5t-1 37.5l2 -6l-9 32q-13 43 -22 88t-17.5 90.5t-18.5 91.5t-25 92q-14 0 -24 3q-6 3 -9.5 9.5t-3.5 13.5t4.5 12t13.5 4
q12 -1 21.5 0t18.5 2t19 1t23 -3q11 -2 11.5 -17t-9.5 -20q-3 -2 -6 -1.5t-11 -0.5q11 -58 18.5 -99.5t14.5 -76.5t14.5 -69t18.5 -77q15 52 26.5 113t30 119.5t48.5 109.5t81 84q25 16 51.5 21t50.5 0.5t44 -18t34 -34.5q13 -19 19.5 -40.5t1.5 -44.5q-9 -38 -46 -61
q-6 -5 -13 -8t-15 -6q-38 -13 -74 -3q-38 11 -51 40.5t-8 64.5q2 8 9 13t16 5q9 -1 14.5 -6.5t3.5 -13.5q-4 -21 4 -42t31 -29q26 -9 46.5 -1.5t31 24t9.5 40t-17 47.5q-23 34 -55.5 41t-73.5 -19q-29 -19 -51 -53t-39 -76t-29.5 -90t-22.5 -94t-19 -87t-19 -71zM387 216
q2 10 2 14t2 14q3 20 8.5 38t9.5 35t6 32.5t5 30.5q1 4 1.5 16.5t1.5 26t1.5 26t1.5 16.5q7 -44 11 -82t14 -83q5 -24 9.5 -43t9.5 -43q-16 1 -36.5 1.5t-46.5 0.5z" />
    <glyph glyph-name="Y_E" unicode="YE" horiz-adv-x="646" 
d="M411 53q-2 21 -1 35.5t0 37.5q-1 11 0 28t1 28q0 12 -1.5 34.5t-2.5 36.5q3 -1 6 -1q2 0 21 -0.5t39 -0.5q34 0 40 4q3 1 4 6.5t1 10.5t-2 9t-6 4q-2 0 -13.5 1.5t-25.5 1.5q-11 0 -30.5 1t-34.5 0q0 15 -0.5 26t-0.5 21.5v21v24.5q0 35 1.5 62t2.5 62h15.5h32.5h41h42
v-16t5 -16q4 -5 19.5 -4.5t19.5 6.5q2 4 0.5 12.5t-1.5 13.5v5.5t-2 7.5q1 5 -2 16t-9 13q-4 1 -18.5 2t-34.5 1h-42.5h-41.5h-32.5h-15.5q-8 -1 -24.5 -1.5t-23.5 -2.5q-5 -2 -7.5 -8t-2.5 -13t3 -12.5t8 -6.5q8 -1 15 -1h14q-2 -34 -2 -59.5t-1 -59.5q0 -14 -1 -29.5
t-1 -32.5q1 -17 3 -34.5t1 -37.5q-1 -26 -2 -51t-1 -46h-1q0 -30 0.5 -49.5t2.5 -49.5h-14t-15 -1q-5 -1 -8 -7t-3 -13.5t2.5 -14.5t7.5 -9q3 -1 9.5 -1.5t14 -1t14 -1t10.5 -0.5q3 0 27.5 -0.5t54 -0.5t55.5 0.5t31 2.5q6 2 9.5 15.5t2.5 18.5q1 4 1 7.5v5.5q1 5 2 13.5
t-1 12.5q-2 3 -7.5 4.5t-11.5 2t-12 -0.5t-7 -3q-6 -9 -6 -17v-16q-18 0 -36.5 0.5t-34.5 1.5t-27 1.5t-12 0.5zM171 287q0 -17 -0.5 -33t0.5 -32q0 -48 1.5 -92t2.5 -90q5 -1 10 -1h10q9 1 13 -3.5t4 -10.5t-3 -12t-9 -9q-11 -5 -27 -4t-22 2q-4 1 -11 1.5t-14.5 1t-14 1
t-9.5 2.5q-6 2 -8.5 7.5t-2 11.5t3 11t7.5 6q8 1 15 1h15q-2 45 -2 87t-1 88q0 17 -0.5 35.5t-0.5 37.5l1 -6l-9 32q-12 44 -21 89t-17.5 90.5t-18.5 91t-25 91.5q-16 0 -25 4q-6 2 -9.5 8.5t-3 13.5t5 12t13.5 4q12 -1 21.5 0t18.5 2t18.5 1t23.5 -2q5 -1 8 -6.5t3 -11.5
t-2 -12t-7 -8q-4 -2 -7 -1.5t-11 -0.5q11 -58 18.5 -99t14.5 -76t14.5 -69.5t18.5 -77.5q15 52 26.5 113t30 119.5t49 109.5t81.5 84q25 16 57 21.5t63 2t57.5 -16.5t40.5 -33q12 -19 19 -41t2 -45q-10 -38 -46 -61q-7 -4 -13.5 -7.5t-14.5 -5.5q-18 -6 -37.5 -7t-37.5 4
q-38 11 -50.5 40.5t-7.5 64.5q2 8 9 13t16 4q8 0 14 -6t4 -14q-4 -20 4 -41t31 -29q26 -9 46 -1.5t30.5 24t10 40t-16.5 47.5q-11 16 -31 26t-44 12t-48.5 -3t-44.5 -18q-29 -19 -51 -53t-39 -76t-29.5 -90t-22.5 -94t-18.5 -87t-18.5 -71z" />
    <glyph glyph-name="Y_I" unicode="YI" horiz-adv-x="564" 
d="M382 46q-2 34 -2 59.5t-1 60.5q0 14 -1 29.5t-1 31.5q1 17 3 35t1 37q-1 26 -2 51.5t-1 47.5q-1 5 -1 9.5v9.5q0 29 -1 47t2 37q-8 1 -15 1.5t-11 1.5q-5 2 -7.5 8t-2.5 12.5t3 11.5t8 6q25 3 45.5 -1t44.5 -2q9 0 13 -5t4 -11.5t-3 -13t-8 -7.5q-5 -2 -11 -2.5t-12 -0.5
q-2 -21 -1 -38.5t0 -39.5q-1 -11 0 -28t1 -28q-1 -15 -2.5 -34t-2.5 -35q0 -32 -1 -65t0 -64q0 -35 1.5 -62.5t2.5 -62.5h19q9 0 13 -5t4 -11.5t-3 -13t-8 -7.5q-11 -4 -27 -3t-22 1q-4 0 -10.5 0.5t-14 1t-14 1t-9.5 1.5q-5 2 -7.5 8t-2.5 12.5t3 12t8 5.5q14 3 29 1z
M170 287v-65q1 -48 2.5 -92t2.5 -91h19q9 1 13 -3.5t4.5 -11t-2.5 -12.5t-9 -8q-11 -5 -27.5 -4t-22.5 2q-8 1 -25 2t-24 4q-11 5 -10.5 19t11.5 16q8 2 15 2h15q-3 45 -3 87v88q0 17 -1 35.5t-1 37.5l2 -6l-9 32q-13 43 -22 88t-17.5 90.5t-18.5 91.5t-25 92q-14 0 -24 3
q-6 3 -9.5 9.5t-3.5 13t4.5 11.5t13.5 5q12 -1 21.5 0t18.5 1.5t19 0.5t23 -2q11 -2 11.5 -17t-9.5 -20q-3 -2 -6 -1.5t-11 -0.5q11 -58 18.5 -99.5t14.5 -76.5t14.5 -69t18.5 -77q10 37 19 79.5t19.5 86t24.5 85.5t35 79q12 21 30.5 43t42 37t50.5 19.5t57 -8.5
q27 -11 45.5 -33.5t25.5 -49.5t-0.5 -55t-32.5 -49q-6 -5 -13.5 -8t-14.5 -6q-38 -12 -75 -3q-38 11 -51 40.5t-7 64.5q2 8 9 13t15 5q9 -1 14.5 -6.5t4.5 -13.5q-2 -11 -3 -23t1 -23t8.5 -19t18.5 -11q46 -11 69 5t26.5 42t-9 55t-36.5 43.5t-56 8t-68 -51.5
q-32 -39 -51.5 -96t-33 -116.5t-23.5 -115.5t-22 -93z" />
    <glyph glyph-name="Y_O" unicode="YO" horiz-adv-x="610" 
d="M352 382q2 15 3.5 30.5t5.5 30.5q2 11 6 15.5t10 15.5q6 10 16.5 19t23.5 12.5t26.5 0t25.5 -17.5q21 -26 28 -68t7 -85.5t-4 -80t-4 -49.5q0 -11 -0.5 -31t-4 -43.5t-11.5 -45.5t-24 -36q-14 -13 -29 -15t-28.5 3.5t-24 16.5t-14.5 23q-10 28 -13 69t-2.5 84.5t3 84
t4.5 67.5zM171 287q-1 -17 -1 -33v-32q1 -48 2.5 -92t2.5 -91h19q9 1 13 -3.5t4.5 -10.5t-2.5 -12t-9 -9q-11 -5 -27.5 -4t-22.5 2q-8 1 -25 2t-24 4q-11 5 -10.5 19t11.5 16q8 2 15 2h15q-3 45 -3 87v88q0 17 -1 35.5t-1 37.5l2 -6l-9 32q-13 44 -22 89t-17.5 90.5
t-18.5 91t-25 91.5q-6 0 -12.5 1t-11.5 3q-6 2 -9.5 8.5t-3.5 13.5t4.5 12t13.5 4q12 -1 21.5 0t18.5 2t19 1t23 -2q5 -1 8 -6.5t3 -11.5t-2 -12t-7 -8q-3 -2 -6 -1.5t-11 -0.5q11 -58 18.5 -99.5t14.5 -76.5t14.5 -69t18.5 -77q15 52 26.5 113t30 119.5t48.5 109.5t81 84
q25 16 51.5 21t50.5 0.5t44 -18t34 -34.5q12 -19 19 -40.5t2 -44.5q-9 -38 -46 -61q-6 -5 -13 -8t-15 -6q-38 -13 -74 -3q-38 11 -51 41t-7 64q1 8 8 13t16 5q9 -1 14.5 -6.5t3.5 -13.5q-3 -21 4.5 -42t30.5 -29q26 -9 46.5 -1.5t31 24t9.5 40t-17 47.5q-23 34 -55.5 41
t-74.5 -19q-29 -19 -51 -53t-38.5 -76t-29 -90t-22.5 -94t-18.5 -87t-18.5 -71zM506 517q-23 23 -58.5 27t-68.5 -10q-37 -15 -52 -43q-7 -11 -11.5 -24t-6.5 -25q-7 -31 -9 -64q-3 -39 -3 -78v-78q0 -17 1 -33t3 -33q1 -29 6 -57q2 -11 4 -21.5t5 -20.5q7 -19 26 -35.5
t43 -25t50.5 -6.5t48.5 20q18 14 29.5 39t18 53t9.5 54.5t4 44.5q0 23 3 66t1.5 90.5t-11 91.5t-32.5 68z" />
    <glyph glyph-name="Y_U" unicode="YU" horiz-adv-x="654" 
d="M560 366q-1 -16 -2.5 -35t-2.5 -34q0 -33 -1 -66t-1 -64v-40t-4.5 -45.5t-15 -41.5t-30.5 -29q-29 -14 -56 -15.5t-49.5 6t-39 22.5t-23.5 34q-4 12 -7.5 30t-5.5 31q0 27 -1.5 54t-0.5 54q0 17 2 35t1 37l-2 52t-1 47l-1 20q0 29 -1 47t2 38q-8 1 -15 1t-11 2
q-5 2 -7.5 7.5t-2 12t3 11.5t7.5 6q25 4 45.5 -0.5t44.5 -2.5q9 0 13 -5t4.5 -11.5t-2.5 -12.5t-9 -8q-5 -1 -11 -1.5t-12 -0.5q-2 -21 -1 -38.5t0 -40.5q-1 -11 0 -28t1 -28q0 -16 -2 -35t-2 -34q-1 -45 -2 -88.5t1 -88.5q2 -16 3.5 -25t6.5 -21q5 -16 23 -28t39 -11
q28 1 43.5 16.5t23 36.5t9.5 43t2 35q0 14 -1 29.5t-1 31.5q1 17 3 35t1 37l-2 52t-1 47l-1 20q0 29 -1 47.5t2 38.5q-8 0 -15 0.5t-11 2.5q-5 1 -7.5 7t-2.5 12t3 11t8 6q25 4 45.5 -0.5t44.5 -2.5q9 0 13 -4.5t4 -11t-3 -12.5t-8 -8q-11 -3 -24 -3q-2 -20 -0.5 -38
t0.5 -41q-1 -11 0 -28t1 -28zM171 287q0 -17 -0.5 -33t0.5 -32q0 -48 1.5 -92t2.5 -91h20q9 1 13 -3.5t4 -10.5t-3 -12t-9 -9q-11 -5 -27 -4t-22 2q-4 1 -11 1.5t-14.5 1t-14 1t-9.5 2.5q-11 5 -10.5 19t10.5 16q8 2 15.5 2h14.5q-2 45 -2 87v88q-1 17 -1.5 35.5t-0.5 37.5
l1 -6l-9 32q-12 44 -21 89t-17.5 90.5t-18.5 91t-25 91.5q-16 0 -25 4q-6 2 -9.5 8.5t-3 13.5t5 12t13.5 4q12 -1 21.5 0t18.5 2t18.5 1t23.5 -2q5 -1 8 -6.5t3 -11.5t-2 -12t-7 -8q-3 -2 -6.5 -1.5t-11.5 -0.5q11 -58 18.5 -99t14.5 -76t14.5 -69.5t18.5 -77.5
q15 52 27 113t30.5 119.5t48.5 109.5t81 84q25 16 51 21t50 0.5t44 -18t34 -34.5q13 -19 19.5 -40.5t1.5 -44.5q-4 -19 -16 -34.5t-29 -26.5q-7 -5 -13.5 -8t-14.5 -6q-40 -13 -75 -2q-38 11 -50.5 40.5t-7.5 63.5q2 8 9 13t15 5q9 -1 14.5 -6.5t4.5 -13.5q-4 -21 4 -41.5
t31 -28.5q26 -9 46 -2t30.5 24t10 40t-16.5 47q-23 34 -56 41t-74 -19q-29 -19 -51 -53t-39 -76t-29.5 -90t-22.5 -94t-18.5 -87t-18.5 -71z" />
    <glyph glyph-name="W_A" unicode="WA" horiz-adv-x="728" 
d="M298 309q6 39 10.5 89.5t11 104t17 105.5t28.5 94q17 40 48 63.5t66 29.5t69.5 -6.5t58.5 -44.5q14 -19 22.5 -41.5t4.5 -45.5q-5 -38 -39 -60q-12 -8 -27 -13q-38 -13 -74 -2q-39 12 -54.5 41.5t-12.5 64.5q1 8 7.5 13t15.5 4q9 0 14.5 -6t4.5 -14q-2 -20 8 -41.5
t34 -29.5q27 -9 46 -2.5t28 23t6.5 40.5t-20.5 48q-14 19 -37 29t-48 8t-48 -17.5t-36 -46.5q-14 -32 -23.5 -73.5t-16.5 -87t-12 -92.5t-8.5 -90t-6.5 -80t-7 -62q-7 -47 -12 -90.5t-11 -88.5q4 -17 -4.5 -25t-19.5 -7q-4 -1 -12 3q-7 4 -10 14q-9 26 -13.5 59.5
t-10.5 75.5q-1 7 -2 13t-2 13q-4 27 -7.5 64.5t-8.5 71.5q-5 -27 -8.5 -53.5t-7.5 -49.5q-7 -47 -12 -90.5t-11 -88.5q4 -17 -4.5 -25t-19.5 -7q-5 -1 -12 3t-10 14q-9 26 -13.5 59.5t-10.5 75.5q-1 7 -2 13t-2 13q-4 29 -8 68.5t-9 74.5q-3 26 -9 49t-9 45q-4 21 -6 41.5
t-5 40.5q-8 47 -14.5 90t-11.5 90q-5 0 -9 0.5t-9 1.5q-11 2 -11.5 16t10.5 19q7 3 24 4t25 2q6 1 22.5 2t27.5 -4q6 -2 9 -8t2.5 -12.5t-4.5 -11t-13 -3.5q-14 1 -31 -2q7 -46 12 -89t12 -91q15 -102 28 -200.5t27 -200.5q1 5 1.5 22t1.5 35.5t1.5 35.5t1.5 22
q3 19 7.5 44.5t9 52t8 50.5t4.5 41q1 13 8.5 19t17 5.5t17.5 -7t10 -16.5q11 -76 20.5 -151t20.5 -153q1 5 1.5 22t1.5 35.5t1.5 35.5t1.5 22q3 20 5 46.5t6 47.5zM463 33q9 0 13 -4.5t4 -10.5t-3.5 -12t-9.5 -8q-11 -4 -27 -3t-21 1q-8 1 -25 1.5t-23 2.5t-8 7.5t-1.5 11.5
t3.5 11t8 6q7 1 13.5 1h12.5q6 21 9 41.5t8 44.5q2 10 5 27.5t5 28.5q4 17 9.5 35.5t9.5 35.5q7 33 14.5 66.5t13.5 64.5q7 36 11.5 70t11.5 69q-4 13 4 19t19 6q6 0 12 -3q8 -6 10 -11q8 -20 12.5 -46t10.5 -59q1 -5 1.5 -10t1.5 -10q5 -22 8.5 -48t8.5 -53q3 -20 8.5 -38
t9.5 -35q4 -16 6 -32t5 -31q7 -36 14 -66.5t12 -67.5h9t9 -1t7.5 -5.5t2.5 -10.5t-3 -11t-8 -7q-6 -2 -23 -2.5t-25 -1.5q-6 0 -21.5 -1t-26.5 3q-6 2 -8.5 7.5t-2 11.5t4.5 10t13 4q8 -1 15.5 -0.5t14.5 1.5q-6 35 -11.5 66t-12.5 68q-2 8 -3 13q-17 -1 -42 -1.5t-54 -0.5
q-2 -10 -3 -19t-3 -18q-2 -5 -2.5 -10t-1.5 -10q-5 -29 -8 -48.5t-9 -38.5q8 -2 16 0zM480 213h46.5t37.5 -1q-5 23 -9.5 42t-9.5 43q-10 46 -14.5 83.5t-11.5 81.5q-1 -4 -1.5 -16t-1.5 -26t-1.5 -26.5t-1.5 -16.5q-3 -14 -5 -30t-6 -33q-3 -17 -9 -34.5t-9 -37.5
q-2 -10 -2 -14.5t-2 -14.5z" />
    <glyph glyph-name="W_E" unicode="WE" horiz-adv-x="753" 
d="M297 308q5 34 9 77.5t9.5 90t13 93.5t20 89t31.5 75t47 52q24 16 55.5 21t63 0.5t59 -17.5t42.5 -34q14 -20 22.5 -42t5.5 -45q-3 -18 -13 -33.5t-27 -26.5q-12 -8 -27 -13q-38 -13 -74 -2q-39 11 -54.5 41t-12.5 65q1 8 7.5 13t15.5 4q9 0 15 -6t5 -14q-2 -21 7.5 -42
t33.5 -29q27 -9 46 -2.5t28 23t6.5 40.5t-20.5 48q-26 34 -70 42.5t-86 -12.5q-27 -14 -45.5 -51.5t-31.5 -88.5t-20.5 -110t-13 -116t-9 -106.5t-8.5 -81.5q-7 -47 -12 -90t-12 -89q5 -17 -3.5 -25t-19.5 -7q-8 0 -12 4q-8 6 -10 13q-9 26 -13.5 59.5t-10.5 76.5
q-1 6 -2 12.5t-2 13.5q-4 26 -7.5 63.5t-8.5 72.5q-5 -28 -8.5 -54.5t-7.5 -49.5q-7 -47 -12 -90t-11 -89q4 -17 -4.5 -25t-19.5 -7q-7 0 -12 4q-7 4 -10 13q-9 26 -13.5 59.5t-10.5 76.5q-1 6 -2 12.5t-2 13.5q-4 28 -8 68t-9 75q-3 25 -9 48t-9 45q-4 21 -6 42t-5 40
q-8 47 -14.5 90t-10.5 90q-5 1 -9.5 1t-9.5 1t-8 6t-3 11t2.5 11.5t8.5 7.5q3 1 9.5 2t14 1.5t14 1t10.5 0.5q7 1 23 2t27 -4q6 -2 9 -8t2.5 -12t-4.5 -10.5t-13 -4.5q-8 1 -15.5 0.5t-15.5 -1.5q7 -46 12 -89.5t12 -90.5q15 -103 28 -201t27 -200q1 5 1.5 21.5t1.5 35.5
t1.5 36t1.5 22q3 19 7.5 44t9 51.5t8.5 50.5t5 41q0 14 8 20t17 5.5t17 -7t10 -16.5q11 -77 20.5 -152t20.5 -152q1 5 1.5 21.5t1.5 35.5t1.5 36t1.5 22q3 19 5 45.5t6 47.5zM518 50q1 0 12 -0.5t27 -1.5t34.5 -1.5t36.5 -0.5v16t5 16q2 3 7.5 4t12 0.5t12 -2t7.5 -4.5
q2 -4 0.5 -12.5t-1.5 -13.5v-5.5t-1 -8.5q0 -2 -1 -7t-2.5 -10.5t-3.5 -10t-5 -5.5q-5 -2 -31 -2.5t-55.5 -0.5t-54 0.5t-27.5 0.5q-4 0 -11 0.5l-14 1t-13.5 1t-9.5 1.5q-5 2 -7.5 9t-2.5 14.5t2.5 13.5t7.5 7q16 1 30 0q-2 30 -2.5 50t-0.5 50h1q0 21 1 46t2 51
q1 19 -1.5 37t-2.5 35q0 16 1 32t1 30v31.5v28.5t0.5 28t2.5 31h-14t-15 1q-5 1 -8 6.5t-3 12t2.5 12.5t7.5 8q6 2 23 3t25 1q2 0 15.5 0.5t32.5 0.5h41.5h42.5t34.5 -1t18.5 -2q6 -2 9 -13t2 -16q2 -4 2 -7.5v-5.5q0 -5 1.5 -13.5t-0.5 -12.5q-2 -3 -7.5 -4.5t-12 -2
t-12 0.5t-7.5 3q-6 9 -5.5 17t0.5 16h-131q-1 -35 -2.5 -62t-2.5 -62v-25t0.5 -21t0.5 -21v-26q16 1 35 0t31 -1q14 0 25.5 -1.5t13.5 -1.5q4 0 5.5 -4t2 -9.5t-1 -11t-3.5 -6.5t-13 -2t-28 -1h-38t-21 1q-4 0 -6 1q1 -14 2 -36.5t2 -34.5q0 -11 -1 -28.5t0 -27.5
q1 -23 0 -38t1 -35z" />
    <glyph glyph-name=".notdef" horiz-adv-x="172" 
 />
    <glyph glyph-name=".null" horiz-adv-x="0" 
 />
    <glyph glyph-name="nonmarkingreturn" unicode="&#xd;" horiz-adv-x="172" 
 />
    <glyph glyph-name="NULL" horiz-adv-x="0" 
 />
    <glyph glyph-name="NULL" horiz-adv-x="0" 
 />
    <glyph glyph-name="space" unicode=" " horiz-adv-x="172" 
 />
    <glyph glyph-name="exclam" unicode="!" horiz-adv-x="140" 
d="M46 70q17 0 26 -10.5t7 -24.5q-3 -14 -16 -24.5t-30 -10.5t-26 10.5t-6 24.5q2 14 15.5 24.5t29.5 10.5zM19 115q-4 44 -3.5 83.5t-0.5 83.5q0 17 -1 35t0 37q0 20 2 41t1 44q-1 31 -2 61t-1 56q0 6 -0.5 11.5t-0.5 11.5q0 38 -1 68t4 54q2 9 10 14t16.5 4.5t15 -7
t5.5 -18.5q-2 -25 -1 -54t0 -57q-1 -12 0 -32.5t1 -32.5q0 -19 -2 -41.5t-2 -40.5q-1 -38 -2 -77.5t0 -75.5q0 -44 2 -84.5t2 -83.5q0 -10 -6 -16t-13.5 -7t-14.5 4.5t-8 18.5z" />
    <glyph glyph-name="quotedbl" unicode="&#x22;" horiz-adv-x="216" 
d="M78 721q-9 -28 -18 -39.5t-23 -26.5q-8 -8 -15.5 -11.5t-13 -2t-7.5 7.5t2 16q11 28 15.5 40t4.5 26q0 15 10.5 21t21.5 3.5t19 -11.5t4 -23zM154 721q-9 -28 -18 -39.5t-23 -26.5q-8 -8 -15.5 -11.5t-13 -2t-7.5 7.5t2 16q11 28 15.5 40t4.5 26q0 15 10.5 21t21.5 3.5
t19 -11.5t4 -23z" />
    <glyph glyph-name="numbersign" unicode="#" horiz-adv-x="453" 
d="M182 110q6 32 15 61t18 61q-8 1 -15.5 2t-15.5 0q-16 -1 -31 -1.5t-29 -0.5q-9 -32 -16 -61.5t-16 -60.5q-2 -7 -9.5 -11.5t-15.5 -5.5t-13.5 3t-3.5 14q6 32 14.5 60.5t17.5 60.5q-17 -1 -30.5 -1t-25.5 4q-6 1 -9.5 8.5t-4 15t2.5 13.5t11 5q15 -2 32.5 -1t34.5 0h1
q1 2 1 4.5t1 4.5q5 14 11.5 29.5t11.5 32.5l1 5q-5 -1 -9 -1h-9h-13q-23 -1 -41.5 -1.5t-33.5 3.5q-6 2 -9.5 9t-4 15t2.5 14t11 5q16 -2 33.5 -1.5t34.5 -0.5q7 0 19 0.5t20 0.5q6 0 10 -1q2 11 4.5 20.5t5.5 17.5q1 5 2 9l2 8q8 28 13.5 50t15.5 39q4 7 13 10.5t17.5 3
t14 -5t1.5 -13.5q-8 -18 -13 -39.5t-12 -41.5q-3 -8 -6.5 -23.5t-6.5 -23.5q-2 -4 -2.5 -7.5t-2.5 -6.5q22 -1 43.5 -2t41.5 -1q3 12 6 23t5 21q2 5 2.5 9t2.5 8q8 28 13.5 50t15.5 39q4 7 13 10.5t17.5 3t14 -5t1.5 -13.5q-8 -18 -13.5 -39.5t-12.5 -41.5q-3 -8 -6.5 -23.5
t-6.5 -23.5q-1 -5 -5 -15q14 1 28 1.5t28 0.5q6 0 10 -5.5t5 -12.5t-1.5 -13t-10.5 -7q-19 -2 -37 -2.5t-37 0.5q-1 -2 -1 -3.5t-1 -3.5q-6 -19 -12.5 -38t-11.5 -37h7q26 0 50.5 1.5t50.5 2.5q6 0 10.5 -5.5t5.5 -12.5t-1.5 -13t-10.5 -7q-26 -3 -50.5 -3h-50.5h-11t-12 -1
q-9 -32 -16 -61t-16 -60q-2 -7 -9.5 -11.5t-15.5 -5.5t-13.5 3t-3.5 14zM225 270q1 4 2 7.5t2 6.5q5 14 11.5 29.5t10.5 32.5l1 4q-7 0 -13.5 -0.5t-14.5 -0.5q-12 0 -25 2t-26 2q-3 0 -5.5 -0.5t-5.5 -0.5q-1 -2 -1.5 -4t-1.5 -4q-5 -17 -11 -34.5t-11 -34.5q11 -1 23 -2
t23 -2q10 0 20.5 -0.5t21.5 -0.5z" />
    <glyph glyph-name="dollar" unicode="$" horiz-adv-x="289" 
d="M15 635q14 39 58 58q5 2 10.5 3.5t10.5 3.5q1 11 1 21.5t2 20.5q1 12 8 18t14 5t12.5 -8.5t4.5 -23.5q-1 -7 -1 -14v-14q6 -1 12.5 -1.5t11.5 -2.5q37 -9 55 -38q11 -17 13.5 -37t-0.5 -39q-1 -8 -8 -12.5t-15 -3.5q-9 1 -14.5 6.5t-4.5 12.5q1 10 1 22.5t-4 23.5
t-12.5 19.5t-22.5 12.5q-8 2 -12 2v-81v-19v-23t0.5 -23t0.5 -19q-1 -24 -2 -53t-2 -53v-2q3 -5 6 -8.5t5 -8.5q9 -14 13 -25t12 -25q3 -6 11 -16t11 -16q20 -37 29 -71.5t10 -76.5q0 -25 -6 -50.5t-24 -46.5q-12 -14 -28.5 -20t-36.5 -8v-41q0 -12 -5 -20t-11 -9t-11.5 6
t-6.5 24q-1 10 -1.5 20t-0.5 20q-21 2 -39 9t-31 21q-20 23 -25 49.5t3 52.5q2 8 9.5 11.5t16.5 1.5q8 -2 12.5 -8t2.5 -13q-5 -19 -2 -38t17 -34q15 -16 35 -22q-1 36 -0.5 71.5t0.5 73.5q0 23 -1 46.5t-1 47.5q0 19 1 39t2 41l-22 38.5t-18 26.5q-22 31 -34.5 56.5
t-16.5 57.5q-2 21 -1 41.5t9 40.5zM131 314q0 -29 -0.5 -57t-0.5 -55q1 -38 1.5 -74.5t1.5 -73.5q18 4 31 19q5 5 11.5 23.5t7.5 41.5q2 28 -3 54.5t-8 35.5q-4 12 -15.5 35.5t-25.5 50.5zM97 450q-1 28 -1.5 54.5t-0.5 49.5v30q0 23 -0.5 43t-0.5 38q-15 -7 -24.5 -19.5
t-14.5 -28t-6 -31.5t1 -29q3 -23 12.5 -44t21.5 -41q3 -6 6.5 -11.5t6.5 -10.5z" />
    <glyph glyph-name="percent" unicode="%" horiz-adv-x="478" 
d="M105 30q10 50 22 95.5t25 95.5q5 20 9.5 40.5t10.5 42.5q6 23 14 47t14 50q9 35 17 69.5t15 63.5q2 7 3.5 13.5t3.5 13.5q11 43 19 77.5t19 61.5q4 11 12 16.5t14.5 4.5t9.5 -8t-1 -21q-9 -29 -17 -62t-17 -65q-4 -13 -9 -36.5t-9 -37.5q-6 -22 -14.5 -47.5t-13.5 -46.5
q-12 -45 -24.5 -89t-23.5 -85q-13 -51 -23.5 -97.5t-23.5 -95.5q-3 -11 -9.5 -18t-12.5 -8t-9.5 5t-0.5 21zM248 252q-2 -18 -3 -43.5t-0.5 -53.5t4.5 -54t12 -44q3 -8 13 -15t22.5 -10t26 -2t25.5 10t19 23t10 28.5t3.5 27.5t0.5 20q0 9 3.5 32.5t3.5 52t-6 56.5t-23 45
q-10 9 -23.5 11t-27 -1t-24.5 -9t-16 -13t-8 -10.5t-5 -11.5q-2 -9 -3.5 -19t-3.5 -20zM382 342q19 -16 26.5 -44.5t9 -59t-1 -58.5t-2.5 -43q0 -12 -2.5 -29.5t-8 -35.5t-15 -34t-23.5 -25q-18 -11 -39 -12.5t-40.5 4t-34.5 16t-20 22.5q-3 7 -4.5 14t-3.5 14q-2 9 -3 18
t-2 19q-3 21 -3 42v51t2 51q2 11 3.5 21t3.5 20q5 17 15 32q12 19 42 28q26 9 55 6.5t46 -17.5zM35 617q-2 -17 -3.5 -43t-1 -54t4 -55t11.5 -45q3 -8 13 -14.5t22.5 -10t26.5 -2t25 9.5q12 9 19 23.5t10.5 29.5t4.5 28.5t1 20.5q0 9 3 32.5t3 52t-6 56t-23 44.5
q-9 9 -23 11t-27.5 -1t-24.5 -9t-16 -13l-7.5 -10.5t-4.5 -11.5q-3 -9 -4.5 -19t-2.5 -20zM169 707q19 -16 26 -44.5t8.5 -59t-1 -58.5t-2.5 -43q0 -12 -2.5 -29.5t-8 -35.5t-15 -34t-23.5 -25q-18 -11 -39 -12.5t-40.5 4t-34.5 16t-20 22.5q-3 7 -4.5 14t-3.5 14
q-2 9 -3 18t-2 19q-1 11 -1.5 21.5t-1.5 21.5v50t3 51q1 11 2.5 21t4.5 20q2 8 5.5 16t8.5 16q14 19 42 28q26 9 55 6.5t47 -17.5z" />
    <glyph glyph-name="ampersand" unicode="&#x26;" horiz-adv-x="509" 
d="M179 407q22 -1 32.5 -8.5t10.5 -16t-11 -15t-32 -4.5q-28 -2 -49.5 -13.5t-36.5 -29t-25 -40.5t-15 -47q-5 -23 -5 -47.5t6 -47.5q11 -40 43.5 -70.5t81.5 -32.5q26 2 50 12q29 13 48.5 38.5t27.5 52.5q5 17 7 37t0 39.5t-10.5 37.5t-24.5 30q-9 7 -22 10.5t-25.5 2
t-22 -8.5t-11.5 -21q-1 -10 -7.5 -15t-14 -4.5t-13 6.5t-3.5 17q2 12 7 23.5t16 20.5q15 13 35.5 19t42.5 6q17 0 31.5 -2.5t28.5 -4t28.5 0t31.5 9.5t26.5 21t1.5 32q-4 9 -0.5 16t10.5 9.5t14.5 -0.5t11.5 -13q13 -32 -3 -60q-15 -25 -47 -37.5t-64 -12.5q13 -17 20 -38
t9 -43.5t-0.5 -45t-7.5 -41.5q-11 -37 -34.5 -67t-61.5 -47q-37 -16 -75 -14q-39 -2 -75 14q-38 17 -61.5 47t-33.5 67q-9 33 -8.5 73t13 76.5t37.5 65t66 39.5q-26 6 -47 29t-33 55t-14.5 69.5t8 72.5t35 64t65.5 45q27 9 53 8q27 2 54 -8q57 -23 85 -70q7 -14 4.5 -22
t-9.5 -11.5t-14.5 -1.5t-10.5 9q-18 42 -53.5 57t-73.5 8q-33 -6 -54.5 -24.5t-32.5 -43.5t-12 -55t8 -59q14 -49 43 -72.5t61 -24.5z" />
    <glyph glyph-name="quotesingle" unicode="'" horiz-adv-x="140" 
d="M78 721q-5 -14 -9 -23t-9 -16t-10.5 -13.5t-12.5 -13.5q-7 -8 -14.5 -11.5t-13 -2t-8 7.5t1.5 16q11 28 15.5 40t4.5 26q0 15 10.5 21t21.5 3.5t19 -11.5t4 -23z" />
    <glyph glyph-name="parenleft" unicode="(" horiz-adv-x="211" 
d="M46 277q-1 -40 -0.5 -64t1 -38.5t1.5 -22.5t2.5 -16t3.5 -19.5t5 -32.5q3 -30 9 -62.5t28 -55.5q5 -5 10 -10.5t12 -5.5q14 -1 20 -7.5t6 -14t-6.5 -13.5t-17.5 -5q-35 3 -61 31t-32 71q-5 30 -7.5 48t-4.5 33.5t-3.5 32.5t-3.5 45q-3 41 -4.5 87t-2 93t-0.5 92.5t2 85.5
q2 43 6.5 93t18.5 89q8 22 21.5 40t32.5 30q6 5 13 8.5t15 5.5q20 4 29.5 -1t11 -13t-3.5 -16.5t-14 -11.5q-13 -5 -22 -7t-16 -7t-13.5 -15t-13.5 -30q-12 -32 -16.5 -50t-5 -33t0 -33t-0.5 -52q-3 -63 -1 -124.5t1 -124.5z" />
    <glyph glyph-name="parenright" unicode=")" horiz-adv-x="211" 
d="M105 277q-1 63 1 124.5t0 124.5q-1 34 -0.5 52t-0.5 33t-5.5 33t-16.5 50q-7 20 -13 30t-13 15t-16 7t-22 7q-9 3 -14 11.5t-3.5 16.5t10.5 13t29 1q8 -2 15 -5.5t14 -8.5q37 -24 53 -70q14 -39 19 -89t7 -93q1 -40 1.5 -85.5t-0.5 -92.5t-2.5 -93t-4.5 -87
q-2 -28 -3.5 -45t-3 -32.5t-4.5 -33.5t-7 -48q-7 -43 -33 -71t-60 -31q-12 -1 -18 5t-6.5 13.5t5.5 14t20 7.5q8 0 13 5.5t10 10.5q21 23 27 55.5t10 62.5q2 21 4 32.5t3.5 19.5l3 16t2 22.5t0.5 38.5t-1 64z" />
    <glyph glyph-name="asterisk" unicode="*" horiz-adv-x="305" 
d="M14 710q9 1 28.5 1.5t37.5 0.5q-14 11 -27.5 23t-19.5 17q-4 3 -3 8.5t5 10t10 6.5t12 -2q8 -6 24.5 -20t30.5 -25q0 14 -0.5 31t-0.5 25t6 12t13 3.5t12.5 -5t5.5 -13.5q0 -6 -0.5 -22t-0.5 -30q11 10 22.5 21t16.5 16q7 6 14 5t11.5 -5.5t5 -11t-5.5 -12.5
q-5 -5 -16 -14.5t-22 -18.5q14 0 30 0.5t24 0.5q9 0 13.5 -5t4 -11.5t-5.5 -11.5t-14 -5q-8 0 -25.5 0.5t-31.5 0.5q11 -9 24.5 -20.5t19.5 -16.5q7 -6 6 -12t-6.5 -10t-13 -5t-13.5 5q-5 5 -16.5 15t-21.5 18q1 -12 1 -25v-21q0 -5 -5.5 -8t-12 -3.5t-12 2t-6.5 9.5
q-1 8 -1 20.5v24.5q-11 -10 -21 -19.5t-16 -14.5q-4 -4 -10.5 -3t-11.5 5t-7 9.5t3 10.5q6 7 17.5 17.5t22.5 20.5q-20 0 -42 -0.5t-32 -0.5q-6 0 -9.5 4.5t-4 10.5t2.5 11t11 6z" />
    <glyph glyph-name="plus" unicode="+" horiz-adv-x="268" 
d="M17 341q17 1 33 1.5t33 -0.5v7q0 11 -0.5 22.5t-0.5 23.5q0 10 7 15t15.5 4.5t15.5 -6.5t7 -16q0 -11 -0.5 -21t-0.5 -21v-8h9q12 -1 25 -0.5t26 0.5q12 0 17 -6.5t4.5 -14t-6.5 -13.5t-17 -6q-13 0 -24.5 0.5t-23.5 0.5h-10q1 -14 1 -29v-30q0 -6 -6.5 -10t-14.5 -4.5
t-15 3t-8 11.5q-2 15 -2 29.5v28.5q-16 0 -31.5 -0.5t-32.5 -0.5q-7 0 -11 6t-5 13t3 13.5t13 7.5z" />
    <glyph glyph-name="comma" unicode="," horiz-adv-x="138" 
d="M46 69q24 0 29 -13.5t0.5 -30t-15 -32.5t-17.5 -20q-6 -4 -8 0t-2 10t0.5 11.5t-0.5 5.5q-12 0 -20 5q-17 10 -12 29q2 15 15.5 25t29.5 10z" />
    <glyph glyph-name="hyphen" unicode="-" horiz-adv-x="268" 
d="M17 340q31 3 59 2.5t59 -0.5q12 -1 25 -0.5t26 0.5q12 0 17 -6.5t4.5 -14t-6.5 -13.5t-17 -6q-13 0 -24.5 0.5t-23.5 0.5q-31 0 -59.5 -1t-59.5 -1q-7 0 -11 6t-5 13t3 13t13 7z" />
    <glyph glyph-name="period" unicode="." horiz-adv-x="140" 
d="M46 70q17 0 26 -10.5t7 -24.5q-3 -14 -16 -24.5t-30 -10.5t-26 10.5t-6 24.5q2 14 15.5 24.5t29.5 10.5z" />
    <glyph glyph-name="slash" unicode="/" horiz-adv-x="321" 
d="M2 7q11 49 23.5 93.5t26.5 92.5q5 19 10 39.5t11 41.5q6 22 15 45t15 48q9 35 17.5 68.5t16.5 61.5q2 7 3.5 13t3.5 13q6 21 15.5 53t19.5 64.5t19.5 60.5t15.5 41q5 10 14 13.5t17.5 1t13 -11t-0.5 -21.5q-5 -14 -14 -42t-19 -59.5t-19 -61t-14 -44.5q-4 -13 -9.5 -36
t-9.5 -37q-6 -20 -15 -45t-15 -45q-14 -42 -27 -85t-24 -83q-14 -49 -24.5 -94.5t-24.5 -93.5q-3 -11 -11 -16.5t-15.5 -4.5t-12.5 8t-2 22z" />
    <glyph glyph-name="zero" unicode="0" horiz-adv-x="360" 
d="M50 504q-2 -35 -4 -90t-1 -114.5t6 -115.5t17 -92q5 -15 19.5 -29t33 -20.5t38.5 -4t37 19.5q18 18 28 50t14.5 65t5.5 62.5t1 43.5q0 11 2.5 38t5 62.5t2.5 76t-3.5 79t-12.5 72.5t-26 56q-14 19 -34 22.5t-40 -2t-36.5 -18t-23.5 -25.5q-7 -14 -11.5 -28.5t-7.5 -28.5
q-4 -20 -6 -39.5t-4 -39.5zM247 684q18 -21 29 -54t16.5 -72t6 -81t-0.5 -80.5t-3 -70.5t-2 -52q-1 -23 -4.5 -58t-11.5 -71t-21.5 -68.5t-34.5 -50.5q-26 -23 -57 -25.5t-59.5 8.5t-50.5 32t-30 46q-4 13 -6.5 27t-4.5 28q-2 18 -4 36.5t-3 36.5q-2 22 -3 43t-2 43v101.5
t4 101.5q2 20 4 41t6 41q4 17 9 33t13 32q9 17 24.5 31t36.5 24q38 18 80.5 13t68.5 -35z" />
    <glyph glyph-name="one" unicode="1" horiz-adv-x="187" 
d="M81 26q-3 50 -3 95.5v95.5q0 20 -1 41t-1 42q0 23 2.5 47t1.5 50l-2 70t-2 64v26q0 17 -0.5 33.5t-0.5 30.5q-2 -2 -4.5 -5t-5.5 -6q-15 -19 -29.5 -23.5t-24 -1t-11.5 13.5t9 21q15 16 31 34t28 48q5 11 18 15t21 0q8 -1 14 -7.5t5 -20.5q-2 -29 -1 -62t-1 -65
q0 -14 1 -37.5t1 -37.5q-1 -21 -2.5 -47t-2.5 -46q-1 -45 -1.5 -89t-0.5 -86q1 -51 2.5 -97t2.5 -96q0 -11 -6.5 -18t-14 -8t-14.5 5t-8 21z" />
    <glyph glyph-name="two" unicode="2" horiz-adv-x="373" 
d="M53 46q35 0 66 -0.5t67 -0.5q16 1 32 1.5t33 1.5q8 0 14 -6.5t7.5 -15t-2 -16t-14.5 -8.5q-18 0 -35.5 0.5t-34.5 -0.5q-42 -1 -80 -2t-80 1q-11 1 -19 9t-6 16q11 59 29 99.5t40 71.5t46.5 55t48.5 50t45.5 57.5t37.5 76.5q8 23 12 56t0.5 67t-15.5 62.5t-34 42.5
q-14 9 -32.5 13t-36 0t-32 -19t-20.5 -44q-3 -12 -13 -17t-20.5 -4t-18 8t-4.5 21q5 25 19 45t35.5 32.5t50 17t61.5 -0.5q40 -7 65 -36t36.5 -69.5t10.5 -85.5t-11 -84q-12 -43 -33.5 -78.5t-47.5 -66.5t-54 -59.5t-52 -58t-40.5 -61.5t-20.5 -71z" />
    <glyph glyph-name="three" unicode="3" horiz-adv-x="379" 
d="M221 384q33 -19 54.5 -49.5t32 -66t11 -72.5t-9.5 -68q-11 -37 -35.5 -67t-62.5 -47q-32 -14 -68 -14.5t-68 12.5q-49 20 -71 59q-6 9 -1.5 18t13 14t18 4t15.5 -10q26 -44 59 -56.5t64.5 -3t56.5 37t36 63.5q7 23 8 47.5t-3 47.5q-5 27 -15.5 52t-29 43t-45 27t-62.5 5
q-14 -2 -21 5.5t-7 17.5t7 17.5t21 5.5q29 -4 53 6t43 28.5t31.5 42.5t18.5 49.5t4.5 49.5t-11.5 42q-20 36 -64 53q-16 6 -34.5 5t-34.5 -8t-26.5 -19t-11.5 -28q0 -11 -8 -16t-17 -4.5t-16 5.5t-7 16q2 26 16 46q12 17 30.5 29t39.5 17.5t43.5 5t43.5 -8.5q55 -21 83 -70
q18 -32 20 -67.5t-9 -69.5q-11 -37 -35.5 -69t-59.5 -51q3 -2 5.5 -3t5.5 -3z" />
    <glyph glyph-name="four" unicode="4" horiz-adv-x="396" 
d="M2 237q2 8 4.5 15t5.5 15q19 54 41.5 110t45 111.5t44.5 108.5t41 101q4 10 13.5 13.5t18 0t13 -12.5t-1.5 -22q-39 -86 -73.5 -166t-67.5 -168q-9 -25 -18.5 -50t-18.5 -50q46 2 89.5 1.5t90.5 -1.5q9 0 18 0.5t19 0.5q-1 14 -1.5 29t-0.5 29q0 23 2.5 47.5t1.5 50.5
l-2 70t-2 64v27q-1 44 -2 78.5t4 61.5q2 11 10 16.5t17 5t15.5 -8t5.5 -21.5q-2 -29 -1 -62t0 -65q-1 -14 0 -37.5t1 -37.5q-1 -22 -2.5 -48t-2.5 -47q0 -38 -1 -76.5t-1 -75.5h7q13 0 18 -6t3 -13.5t-9 -13t-17 -5.5h-2q1 -47 2.5 -90.5t2.5 -89.5q0 -11 -6.5 -18t-14 -8
t-14 5.5t-7.5 21.5q-4 47 -4 90v89q-9 1 -17.5 1h-17.5q-52 0 -99 -1.5t-98 -1.5q-2 0 -4 0.5t-4 0.5q-11 2 -20 9t-4 23z" />
    <glyph glyph-name="five" unicode="5" horiz-adv-x="358" 
d="M49 447q42 13 85.5 13t81.5 -26q39 -27 56.5 -70.5t22.5 -84.5q4 -36 2 -76.5t-13 -75.5q-11 -36 -35.5 -66t-62.5 -47q-32 -14 -68 -14.5t-68 12.5q-1 1 -1.5 1t-1.5 1q-11 5 -22 11q-11 7 -12 15t3.5 14.5t12.5 9t16 -2.5q5 -3 10.5 -6t10.5 -5q25 -10 52 -9.5t51 11.5
q39 16 57.5 56.5t22 88t-6 95t-27.5 78.5q-12 20 -30 32.5t-40 17t-45 1.5t-45 -12q-11 -5 -20 -8t-16 -2t-10.5 8t-4.5 23q-1 27 -1.5 52t-0.5 47l-1 26q0 44 -1 78t4 62q0 2 2 6q1 8 6.5 13t16.5 5q42 2 80 0t80 -4q17 -1 34.5 -0.5t35.5 -1.5q11 0 14 -7.5t1 -16t-8 -15
t-14 -6.5q-17 2 -32.5 2.5t-31.5 1.5q-36 2 -69.5 1.5t-68.5 1.5q-1 -27 0 -56.5t0 -58.5q-1 -14 0 -37t1 -37q0 -9 -0.5 -19t-1.5 -20z" />
    <glyph glyph-name="six" unicode="6" horiz-adv-x="352" 
d="M51 504q-2 -20 -3 -48.5t-2 -60.5q19 20 45 32q31 14 70.5 14t67.5 -17q25 -15 39 -45.5t19.5 -69t3 -81.5t-11.5 -82.5t-23.5 -71.5t-33.5 -48q-26 -23 -57 -25.5t-59.5 8.5t-50.5 32t-30 46q-12 36 -17.5 90.5t-7 114t0 116.5t4.5 96q2 20 4 41t7 41q3 17 8 33t13 32
q9 17 24.5 31t36.5 24q27 13 59.5 13t59.5 -11t44.5 -32t15.5 -49q-1 -12 -8 -17.5t-15 -5.5t-14 5.5t-6 14.5q2 32 -15 45.5t-40 15.5q-29 1 -49 -6t-34 -21t-22.5 -33.5t-12.5 -41.5q-4 -20 -6 -39.5t-4 -39.5zM197 58q16 16 28 45.5t19 65.5t8.5 74t-4.5 71t-19.5 57.5
t-35.5 33.5q-15 6 -33.5 3.5t-36 -9.5t-31.5 -17.5t-20 -20.5q-15 -27 -20.5 -62t-4.5 -72t7 -72t15 -63q5 -15 19 -29t32.5 -20.5t39 -4t37.5 19.5z" />
    <glyph glyph-name="seven" unicode="7" horiz-adv-x="357" 
d="M277 720q11 0 15.5 -6.5t3.5 -14t-5.5 -14.5t-11.5 -9q-11 -27 -20 -58.5t-20 -60.5q-5 -14 -12 -37.5t-12 -37.5q-8 -21 -18 -46.5t-17 -46.5q-16 -44 -31.5 -88t-28.5 -86q-17 -51 -30.5 -97.5t-29.5 -97.5q-4 -11 -12 -16t-16 -4t-12.5 9t-0.5 24q14 51 29 96l32 96
q6 20 11.5 41t13.5 42q8 23 18 46.5t18 49.5q11 36 21.5 71t19.5 64q2 7 4 13.5t4 13.5q11 32 19 59.5t17 50.5h-24q-46 0 -89 -1.5t-88 -1.5q-10 0 -16.5 6.5t-7.5 14.5t4.5 15t19.5 8q46 3 88 2.5t88 -0.5q14 -1 29 0t31 1h4h12v0z" />
    <glyph glyph-name="eight" unicode="8" horiz-adv-x="418" 
d="M241 382q41 -10 66.5 -38.5t37.5 -65.5t12.5 -77t-8.5 -73q-11 -37 -34.5 -67t-61.5 -47q-37 -16 -75 -14q-39 -2 -75 14q-38 17 -61.5 47t-32.5 67q-9 33 -8.5 73t12.5 76.5t37 65t66 39.5q-26 6 -47 29t-33 55t-14.5 69.5t8 72.5t35 64t65.5 45q27 9 53 8q27 2 54 -8
q57 -21 84 -70q17 -29 20 -69t-7.5 -79t-33.5 -71t-59 -46zM292 621q-18 42 -53.5 57.5t-73.5 7.5q-33 -6 -54.5 -24.5t-32.5 -43.5t-12 -55t8 -59q14 -49 43 -72.5t61 -24.5q35 -1 67.5 23.5t48.5 74.5q9 29 9 59.5t-11 56.5zM178 363q-28 -2 -49.5 -13.5t-36.5 -29
t-25 -40.5t-15 -47q-5 -23 -5 -47.5t6 -47.5q5 -20 16 -38t27 -32.5t36.5 -23t45.5 -9.5q26 2 50 12q29 13 48.5 38.5t27.5 52.5q7 23 7.5 47.5t-4.5 47.5q-5 24 -15 47t-26 40.5t-38 29t-50 13.5z" />
    <glyph glyph-name="nine" unicode="9" horiz-adv-x="357" 
d="M242 213q2 21 3.5 39.5t3.5 50.5q-19 -20 -45 -32q-32 -14 -71.5 -13t-67.5 18q-24 15 -39 49.5t-21 78t-3.5 91.5t12.5 90t27 74t41 43q32 15 63.5 15t57.5 -11t45.5 -31t27.5 -45q11 -36 15.5 -91t5 -114t-2.5 -116t-6 -96q-2 -21 -4.5 -41.5t-7.5 -40.5
q-4 -17 -9.5 -33t-13.5 -31q-10 -17 -25.5 -31.5t-36.5 -23.5q-28 -12 -60 -12t-59 11.5t-44 32.5t-15 50q1 12 8 17.5t15.5 5t14.5 -6t6 -14.5q-2 -32 14.5 -46t39.5 -16q28 -2 48.5 5.5t34.5 21t22.5 32.5t13.5 41q9 38 12 79zM104 661q-16 -16 -29 -46.5t-20.5 -68.5
t-9.5 -78.5t3 -76t18 -61.5t36 -35q15 -6 33.5 -4t36 8.5t31.5 16.5t20 21q15 27 21.5 65t6.5 78.5t-5.5 79t-14.5 66.5q-5 15 -18.5 29t-32 20.5t-39 4t-37.5 -18.5z" />
    <glyph glyph-name="colon" unicode=":" horiz-adv-x="140" 
d="M46 70q17 0 26 -10.5t7 -24.5q-3 -14 -16 -24.5t-30 -10.5t-26 10.5t-6 24.5q2 14 15.5 24.5t29.5 10.5zM46 411q17 0 26 -10t7 -25q-3 -14 -16 -24t-30 -10t-26 10t-6 24q2 15 15.5 25t29.5 10z" />
    <glyph glyph-name="semicolon" unicode=";" horiz-adv-x="140" 
d="M46 69q24 0 29 -13.5t0.5 -30t-15 -32.5t-17.5 -20q-6 -4 -8 -0.5t-2 9.5t0.5 11.5t-0.5 5.5q-6 0 -11 2t-9 4q-17 10 -12 29q2 15 15.5 25t29.5 10zM46 411q17 0 26 -10.5t7 -24.5q-3 -14 -16 -24.5t-30 -10.5t-26 10.5t-6 24.5q2 14 15.5 24.5t29.5 10.5z" />
    <glyph glyph-name="less" unicode="&#x3c;" horiz-adv-x="279" 
d="M187 185q-19 11 -42 26.5t-46.5 32.5t-47 33.5t-42.5 30.5q-9 6 -9 15.5t9 16.5q11 8 21.5 14t19.5 13q12 9 30 21.5t37.5 25.5t38 25t31.5 20q8 4 15 1.5t11.5 -8.5t5 -13t-4.5 -11q-12 -8 -30.5 -20.5t-38.5 -25.5t-39 -25t-31 -21l-8 -6l-8 -6l8 -6t8 -7q12 -8 31 -21
t39 -26.5t38.5 -26.5t30.5 -21q5 -4 4.5 -11t-5 -13t-11.5 -9t-15 2z" />
    <glyph glyph-name="equal" unicode="=" horiz-adv-x="268" 
d="M17 299q31 2 59 2t59 -1q12 0 25 0.5t26 0.5q12 0 17 -6.5t4.5 -14t-6.5 -13.5t-17 -6q-13 0 -24.5 0.5t-23.5 0.5q-31 0 -59.5 -1t-59.5 -1q-7 0 -11 6t-5 13t3 13t13 7zM17 382q31 2 59 1.5t59 -0.5q12 0 25 0.5t26 0.5q12 0 17 -6.5t4.5 -14t-6.5 -14t-17 -6.5
q-13 0 -24.5 0.5t-23.5 0.5q-31 1 -59.5 -0.5t-59.5 -1.5q-7 0 -11 6t-5 13.5t3 13.5t13 7z" />
    <glyph glyph-name="greater" unicode="&#x3e;" horiz-adv-x="279" 
d="M32 185q-8 -5 -15 -2t-11.5 9t-5 13t4.5 11q12 8 30.5 21t38.5 26.5t38.5 26.5t30.5 21q5 4 9 7l8 6q-5 3 -8.5 6t-8.5 6q-12 9 -30.5 21t-38.5 25t-38.5 25.5t-30.5 20.5q-5 4 -4.5 11t5 13t11.5 8.5t15 -1.5q13 -8 31.5 -20t38 -25t37 -25.5t29.5 -21.5q10 -7 20 -13
t21 -14q10 -7 10 -16.5t-10 -15.5q-19 -14 -42 -30.5t-46.5 -33.5t-46.5 -32.5t-42 -26.5z" />
    <glyph glyph-name="question" unicode="?" horiz-adv-x="286" 
d="M37 115q-2 32 6 68.5t22 75.5t31 78.5t34 78.5q33 77 39 129t-3.5 84t-29 45t-39 10t-33 -19.5t-10.5 -43.5q1 -12 -8 -17t-20 -4t-19.5 8t-5.5 21q7 34 26.5 55.5t44 30.5t52 5.5t50 -18t37.5 -40.5t15 -62q0 -51 -18 -105.5t-37 -95.5q-17 -36 -35 -72.5t-31.5 -72.5
t-21 -71t-4.5 -68q1 -10 -5 -16t-14 -7t-15 4.5t-8 18.5zM62 70q17 0 26.5 -10.5t6.5 -24.5t-16 -24.5t-30 -10.5q-16 0 -25.5 10.5t-6.5 24.5q2 14 15.5 24.5t29.5 10.5z" />
    <glyph glyph-name="at" unicode="@" horiz-adv-x="836" 
d="M53 248q14 -52 45 -95.5t76 -78.5q37 -29 86 -46t97 -19q70 -5 131 16.5t112 63.5q9 7 18.5 6.5t15 -5.5t5 -13t-10.5 -16q-58 -46 -126.5 -70t-146.5 -19q-56 3 -111 22.5t-97 52.5q-50 39 -84 87t-50 105q-14 51 -12.5 102.5t15.5 101.5q27 96 95 174q28 33 64.5 62
t79.5 46q73 29 153.5 31.5t155.5 -24.5q45 -17 82 -44t64 -64q32 -44 47.5 -93.5t17.5 -101.5q2 -49 -9 -99.5t-35 -95.5q-10 -19 -23 -37t-30 -32q-25 -22 -58 -30t-64 -2t-53.5 26t-26.5 55q-4 -5 -8 -8.5t-8 -7.5q-20 -17 -45 -28.5t-53 -11.5q-55 -1 -87 23t-47 60
t-14 78.5t12 78.5q7 23 20 51q9 19 22 40t29.5 39t37 31.5t45.5 18.5q23 4 45.5 -0.5t42.5 -15.5q22 -12 35 -29.5t19 -37.5q11 17 24.5 21.5t24 1t15 -12.5t-2.5 -18q-12 -14 -25 -44t-23 -66.5t-14 -74.5t2 -68.5t24 -49t54 -15.5q16 1 30 9.5t26 20.5t21.5 25.5
t15.5 25.5q21 41 31 87t8 91q-2 47 -15 91.5t-42 83.5q-48 65 -128 95q-66 24 -138.5 21.5t-137.5 -28.5q-38 -15 -70.5 -41t-57.5 -55q-30 -35 -52.5 -76t-35.5 -85q-13 -46 -14.5 -93t11.5 -93zM275 236q21 -29 48 -37t53 -0.5t48 28.5t35 51q14 34 20 74.5t4 77t-11.5 64
t-25.5 36.5q-13 8 -28 12t-30 -1q-23 -7 -44 -27.5t-37.5 -48.5t-28.5 -61t-16.5 -64.5t-2 -59t15.5 -44.5z" />
    <glyph glyph-name="A" unicode="A" 
d="M303 43q11 -2 11.5 -16.5t-10.5 -19.5q-7 -2 -24 -3t-25 -2q-6 -1 -22.5 -2t-27.5 4q-6 2 -9 8t-2.5 12.5t4.5 11t13 3.5q8 -1 15.5 0t15.5 2q-7 47 -12 91.5t-12 92.5q0 4 -0.5 8t-1.5 9q-18 -1 -43 -1.5t-56 -0.5q-2 -13 -3 -25t-3 -23q-2 -7 -2.5 -13.5t-1.5 -13.5
q-5 -38 -9 -69t-11 -57h17q9 1 13 -3.5t4.5 -11t-2.5 -12.5t-9 -8q-11 -5 -27.5 -4t-22.5 2q-8 1 -25 2t-24 3q-11 5 -10.5 19.5t11.5 16.5q15 3 26 2q6 28 10.5 60t9.5 63q2 14 5 37.5t5 37.5q4 21 9.5 46t9.5 46q8 44 15.5 88t13.5 85q7 48 12 92t12 91q-5 17 3.5 25
t19.5 8q8 0 12 -4q7 -4 10 -14q9 -26 13.5 -60t10.5 -78q2 -7 2.5 -13.5t1.5 -12.5q4 -29 8 -64t9 -70q3 -26 9 -49.5t10 -45.5q3 -22 5 -43t5 -41q8 -48 14.5 -92t11.5 -92h9t9 -2zM121 274q26 -1 49.5 -1.5t40.5 -1.5q-5 32 -10.5 63.5t-11.5 63.5q-10 60 -14 110t-12 107
q-1 -5 -1.5 -21t-1.5 -34.5t-1.5 -34.5t-1.5 -21q-3 -20 -5 -41t-6 -42q-4 -23 -9.5 -46.5t-8.5 -49.5q-2 -13 -3.5 -26t-3.5 -25z" />
    <glyph glyph-name="B" unicode="B" horiz-adv-x="320" 
d="M177 355q17 -5 30 -14t21 -23q18 -30 25 -66.5t5 -69.5q-2 -48 -21.5 -92.5t-57.5 -69.5q-23 -14 -53.5 -18t-65.5 0q-8 1 -25 2t-24 3q-5 3 -7.5 8.5t-2.5 11.5t3 10.5t8 5.5q13 3 30 1q-3 45 -3 87.5v88.5q0 20 -1 40.5t-1 41.5q0 23 2.5 46.5t1.5 49.5q-1 35 -2 69.5
t-2 63.5v25q0 39 -1 70.5t2 57.5q-8 1 -15.5 1.5t-11.5 2.5q-11 5 -10.5 19t11.5 16q8 1 22 1t30 -1t31 -2.5l25 -2.5q48 -2 77 -18.5t43.5 -43t17.5 -61t0 -72.5q-2 -22 -6.5 -46t-13.5 -46.5t-24 -42.5t-37 -33zM82 368q6 -1 12.5 -1.5t11.5 0.5h2q9 2 21.5 5t20.5 7
q19 11 32 28t21 37t11.5 41t4.5 39q2 31 -3.5 66t-22.5 63q-6 9 -18.5 14.5t-28 8.5t-32 4t-28.5 1q-2 -28 -0.5 -59t-0.5 -61q0 -13 1 -36.5t1 -37.5q-1 -21 -2.5 -46.5t-2.5 -46.5v-26zM219 184q2 29 -4 62t-22 59q-8 13 -21 19t-29 7.5t-32 1.5t-30 1q0 -29 -0.5 -57.5
t-0.5 -54.5q1 -48 2.5 -92t2.5 -91q18 -2 33.5 -0.5t31.5 9.5q19 10 32 26t21 35t11.5 38.5t4.5 36.5z" />
    <glyph glyph-name="C" unicode="C" horiz-adv-x="302" 
d="M46 292q-1 -33 -0.5 -53t1 -32t1.5 -18.5t2.5 -13.5t3.5 -16.5t5 -26.5q3 -26 9 -52t28 -46q7 -6 15.5 -10.5t19.5 -5.5q12 -1 21.5 5t16.5 14q15 17 21 32.5t9 35.5q1 8 8 12.5t15 2.5q9 -1 14.5 -7t4.5 -14q-4 -26 -9.5 -47t-27.5 -39q-27 -21 -56 -25t-54.5 5.5
t-43.5 30t-23 48.5q-5 25 -7.5 40t-4.5 28t-3.5 27t-3.5 37q-3 34 -4.5 72t-2 77t-0.5 77.5t2 71.5q2 35 6.5 76.5t18.5 74.5q17 37 54 58q17 9 36 13t39 0q36 -8 57 -36q13 -17 18 -36.5t7 -39.5q0 -8 -6 -13.5t-15 -5.5t-15 5t-7 13q0 10 -2.5 22t-8 23.5t-14.5 19.5
t-22 11q-11 2 -22.5 -0.5t-21.5 -7.5q-24 -14 -37 -41q-12 -27 -16.5 -41.5t-5 -26.5t0 -27.5t-0.5 -43.5q-3 -52 -1 -103.5t1 -103.5z" />
    <glyph glyph-name="D" unicode="D" horiz-adv-x="329" 
d="M267 496q1 -48 1 -87t-1.5 -76.5t-5.5 -76.5t-11 -87q-2 -12 -4 -26.5t-5.5 -29.5t-8.5 -29t-11 -24q-22 -35 -59 -48.5t-79 -11.5q-13 0 -23 2q-8 1 -25 2t-24 3q-11 5 -10.5 19.5t11.5 16.5q13 3 30 1q-3 45 -3 87.5v87.5q0 20 -1 40.5t-1 42.5t2.5 46t1.5 50
q-1 35 -2 69t-2 63v26q0 39 -1 70.5t2 57.5q-8 0 -15.5 0.5t-11.5 2.5q-5 3 -7.5 8.5t-2.5 11.5t3 10.5t8 5.5q17 3 32 1l30 -4q26 1 52.5 -1t49.5 -11q36 -14 54.5 -42.5t26.5 -61.5q2 -11 3.5 -22t2.5 -22q2 -16 2.5 -32t1.5 -32zM222 337q2 40 4.5 79t1.5 79l-3 63
q-2 9 -3 19t-3 19q-6 24 -19 46.5t-40 33.5q-10 5 -22 6.5t-26 2.5l-2 -1q-8 -4 -24 -4q-2 -27 -0.5 -58t-0.5 -61q0 -14 1 -37t1 -37q-1 -21 -2.5 -46.5t-2.5 -46.5q0 -44 -1 -87.5t-1 -85.5q1 -48 2.5 -91.5t2.5 -90.5q15 -1 29 -1.5t27 2.5t24 11t22 25q5 8 8 18t5 18
q4 15 7 30.5t5 30.5q5 40 6.5 81.5t3.5 82.5z" />
    <glyph glyph-name="E" unicode="E" horiz-adv-x="328" 
d="M89 44q1 0 12 -1t27.5 -2t36 -1.5t37.5 -0.5v21t6 22q1 3 7 4.5t12.5 1t12 -3t7.5 -6.5q2 -5 1 -16.5t-2 -17.5v-7t-2 -11q2 -6 -1.5 -13t-9.5 -9t-32.5 -3t-56.5 -1t-55.5 0.5t-28.5 0.5q-8 1 -25 2t-24 3q-5 3 -7.5 8.5t-2.5 11.5t3 10.5t8 5.5q13 3 30 1
q-2 41 -2.5 78t-0.5 77h1q0 29 1 62t2 67q1 26 -1.5 49.5t-2.5 46.5q0 21 1 41.5t1 40.5v88t3 87h-15t-15 2q-10 2 -10.5 16t10.5 19q3 1 9.5 2t14 2t14.5 1.5t11 0.5q2 0 15.5 0.5t33.5 0.5h43t43 -0.5t35 -1.5t19 -2q6 -2 9.5 -9t2.5 -13q1 -6 1 -11t1 -7q0 -6 1 -17.5
t-1 -16.5q-2 -4 -7.5 -6.5t-12 -3t-12.5 1t-7 4.5q-6 11 -6 21.5v21.5q-20 0 -42.5 0.5t-42.5 0.5h-33.5h-15.5q-1 -47 -2.5 -91t-1.5 -92q-1 -37 0 -65.5t1 -68.5q17 2 36 0t31 -2q15 0 26.5 -1.5t13.5 -1.5q4 0 6 -4t2 -9t-1.5 -10t-3.5 -7t-13.5 -3t-28.5 -1
q-20 -1 -39.5 -0.5t-21.5 1.5q-1 0 -2.5 0.5t-3.5 0.5q0 -9 1 -22t1.5 -26.5t1 -25.5t0.5 -20q0 -7 -0.5 -17t-0.5 -20.5v-20.5v-16q1 -30 0 -61t1 -59z" />
    <glyph glyph-name="F" unicode="F" horiz-adv-x="326" 
d="M42 680h-15t-15 2q-11 2 -11.5 16t10.5 19q3 1 10 2t14.5 2t14.5 1.5t11 0.5q3 0 30.5 0.5t61 0.5t62.5 -1t35 -3t9.5 -9t1.5 -13q2 -5 2 -10.5v-7.5q0 -5 1.5 -17t-0.5 -17q-2 -4 -7.5 -6.5t-12 -3t-12.5 1t-7 4.5q-6 11 -6 21.5v21.5q-20 0 -42.5 0.5t-42.5 0.5h-33.5
h-15.5q-1 -47 -2.5 -91t-2.5 -92q0 -37 0.5 -77t1.5 -80q16 2 35.5 0.5t31.5 -1.5q14 0 26 -2t14 -2q4 1 5.5 -3t2 -9t-1 -10.5t-3.5 -7.5t-13.5 -3t-28.5 -1q-20 -1 -39.5 0t-21.5 1t-3 0.5t-3 0.5q1 -18 2 -36.5t2 -34.5q0 -7 -0.5 -17t-0.5 -20.5v-20.5v-16
q1 -30 -0.5 -61t0.5 -59q15 0 24 -3q6 -3 9 -9t2.5 -12t-4.5 -10.5t-13 -3.5q-12 1 -23 -0.5l-22 -3t-22.5 -2t-24.5 1.5q-11 2 -11.5 16t10.5 19q4 2 11.5 2.5t15.5 1.5q-3 26 -2.5 57.5t1.5 69.5v26q1 29 2 63.5t2 69.5q1 26 -1.5 49.5t-2.5 46.5q0 21 1 41.5t1 40.5v88
t3 87z" />
    <glyph glyph-name="G" unicode="G" horiz-adv-x="327" 
d="M9 502q3 36 7.5 78.5t20.5 75.5q17 38 55 59q17 9 36.5 13t39.5 0q35 -7 56 -36q12 -17 16.5 -37t5.5 -40q0 -8 -6.5 -13.5t-14.5 -5.5q-9 0 -15.5 5t-6.5 13q0 10 -2 22.5t-6.5 24t-13.5 19.5t-22 11q-11 2 -24.5 1.5t-24.5 -5.5q-14 -8 -23 -20t-14 -26t-8 -29t-6 -29
q-4 -20 -6 -41t-4 -41q-4 -52 -5 -104t-1 -104q-1 -22 -0.5 -44t2.5 -44q1 -19 2 -37.5t3 -36.5q2 -27 7.5 -53t29.5 -45q8 -7 19 -12t22 -4q13 1 22 7.5t15 15.5q12 18 19.5 43.5t12 53.5t6 55t2.5 47q0 27 -1 55t-2 55h-28.5t-26.5 0.5t-20.5 1t-9.5 0.5q-5 0 -15 0.5
t-14 2.5q-7 4 -6.5 15t6.5 13q10 2 25 2.5t31 0t31 -1t25 -0.5q20 0 36.5 -1.5t19.5 -1.5q5 0 7.5 -3.5t2.5 -8t-2 -9t-5 -6.5q-2 0 -5.5 -0.5t-8.5 -1.5v-55t-1 -55q0 -24 -1.5 -53.5t-6 -60t-12.5 -58.5t-22 -48q-12 -17 -30 -24.5t-41 -9.5q-20 -1 -38.5 2.5t-34.5 14.5
q-27 20 -35 50.5t-16 72.5q-4 19 -4 38t-1 39q-1 22 -1.5 44t-0.5 45q1 104 9 209z" />
    <glyph glyph-name="H" unicode="H" horiz-adv-x="378" 
d="M283 487q-1 -21 -3 -46.5t-2 -46.5l-2 -88t0 -85q1 -48 2.5 -91.5t1.5 -90.5q10 -1 20 0q9 0 13 -4.5t4.5 -10.5t-2.5 -12t-9 -8q-11 -5 -27.5 -4t-22.5 2q-4 0 -11 0.5t-14.5 1t-14 1t-9.5 2.5q-6 2 -8.5 7.5t-2 11.5t3.5 11t8 6q13 3 30 1q-3 45 -3 87v88q0 20 -1 40.5
t-1 42.5v3q-1 0 -1.5 -0.5t-1.5 -0.5q-9 -3 -21 -4t-23.5 -1t-21 0.5t-14.5 0.5q-11 1 -33.5 1t-36.5 2q-1 -21 -1 -41.5v-40.5q1 -48 2.5 -91.5t2.5 -90.5q9 -2 19 0q9 0 13 -4.5t4.5 -10.5t-2.5 -12t-9 -8q-11 -5 -27 -4t-23 2q-4 0 -10.5 0.5t-14 1t-14 1t-9.5 2.5
q-6 2 -8.5 7.5t-2.5 11.5t3 11t8 6q13 3 30 1q-3 45 -3 87v88q0 20 -1 40.5t-1 42.5t2.5 46t1.5 49q-1 35 -2 69.5t-2 63.5v26q0 39 -1 70t2 57q-8 1 -15.5 1.5t-10.5 2.5q-6 2 -8.5 7.5t-2.5 11.5t3 11t8 6q13 2 24.5 1.5t22.5 -2l22 -3t23 -0.5q9 0 13 -4.5t4.5 -10.5
t-2.5 -12t-9 -8q-5 -2 -11 -3t-12 -1q-2 -27 -1 -58t0 -61q-1 -14 0 -37t1 -37q-1 -21 -2.5 -46.5t-2.5 -46.5v-53q37 4 69.5 0t70.5 -2q10 0 13 -1q3 28 3 59q-2 35 -2.5 69.5t-1.5 63.5v26q-1 39 -1.5 70t1.5 57q-8 1 -15 1.5t-11 2.5q-6 2 -8.5 7.5t-2 11.5t3.5 11t8 6
q25 5 46 -0.5t46 -3.5q9 0 13 -4.5t4.5 -10.5t-2.5 -12t-9 -8q-9 -4 -24 -4q-2 -27 -1 -58t0 -61q0 -14 1 -37t1 -37z" />
    <glyph glyph-name="I" unicode="I" horiz-adv-x="182" 
d="M42 44q-3 45 -3 87v88q0 20 -1 40.5t-1 42.5t2.5 46t1.5 49q-1 35 -2 69.5t-2 63.5v26q-1 39 -1.5 70t2.5 57q-8 1 -15.5 1.5t-11.5 2.5q-5 2 -7.5 7.5t-2.5 11.5t3 11t8 6q13 2 24.5 1.5t22.5 -2l22 -3t23 -0.5q9 0 13 -4.5t4.5 -10.5t-2.5 -12t-9 -8q-8 -4 -24 -4
q-2 -27 -0.5 -58t0.5 -61q-1 -14 0 -37t1 -37q-1 -21 -2.5 -46.5t-2.5 -46.5q0 -44 -1 -88t-1 -85q1 -48 2.5 -91.5t2.5 -90.5q9 -2 19 0q9 0 13 -4.5t4.5 -10.5t-2.5 -12t-9 -8q-11 -5 -27.5 -4t-22.5 2q-8 1 -25 1.5t-24 3.5q-5 2 -7.5 7.5t-2.5 11.5t3 11t8 6q13 3 30 1z
" />
    <glyph glyph-name="J" unicode="J" horiz-adv-x="268" 
d="M127 396q-2 35 -3 69t-1 63l-1 26q0 39 -1 70t2 57q-8 1 -15 1.5t-11 2.5q-11 5 -10.5 19.5t10.5 16.5q13 2 24.5 1.5t22.5 -2t22.5 -3t23.5 -0.5q9 0 13 -4.5t4.5 -10.5t-2.5 -12t-9 -8q-5 -2 -11.5 -3t-12.5 -1q-2 -27 -1 -58t0 -61q0 -14 1 -37t0 -37q0 -21 -2 -46.5
t-2 -46.5q-1 -46 -1 -92t-2 -92q0 -19 -1 -38l-2 -38q-2 -29 -6 -56q-2 -17 -8.5 -32.5t-17.5 -27.5q-10 -12 -27 -15.5t-34 -0.5t-32 13t-22 26q-12 29 -13.5 63.5t1.5 64.5q1 8 7.5 13t15.5 5q8 -1 14 -7t5 -14q-2 -26 -1 -57t11 -55q7 -15 17 -22.5t24 9.5q8 8 12 19.5
t6 22.5q2 13 3 26.5t2 26.5q2 19 2.5 37.5t1.5 38.5q1 23 0 45t0 45q0 22 2 46t2 50z" />
    <glyph glyph-name="K" unicode="K" horiz-adv-x="361" 
d="M42 44q-3 45 -3 87v88q0 20 -1 40.5t-1 42.5t2.5 46t1.5 49q-2 35 -2.5 69.5t-1.5 63.5v26q-1 39 -1.5 70t2.5 57q-8 1 -15.5 1.5t-11.5 2.5q-5 2 -7.5 7.5t-2.5 11.5t3 11t8 6q13 2 24 1.5t22 -2t22.5 -3t23.5 -0.5q9 0 13 -4.5t4.5 -10.5t-2.5 -12t-9 -8q-9 -4 -24 -4
q-2 -27 -1 -58t0 -61q0 -14 1 -37t0 -37q0 -16 -1 -34.5t-2 -35.5q0 3 4 7q10 28 23 62t25.5 65.5t23 57.5t16.5 37q5 11 10 20.5t10 17.5h-1q-10 1 -20 0q-9 0 -13 4.5t-4.5 10.5t2.5 12t9 8q11 5 27.5 4t22.5 -2q4 0 11 -0.5t14.5 -1t14 -1.5t9.5 -2q5 -2 7.5 -7.5
t2.5 -11.5t-3 -11t-8 -6q-13 -3 -30 -1h-1q-4 -10 -9.5 -23t-12.5 -27q-4 -8 -13.5 -31.5t-22.5 -54.5t-27 -66t-27 -66q7 -17 17.5 -44.5t22 -60.5t23 -67t21.5 -64t17.5 -52t11.5 -29q8 -14 13 -27t9 -23h2q15 2 30 -1q5 -1 7.5 -6t3 -11t-2 -11.5t-8.5 -7.5
q-3 -2 -9.5 -2.5t-14 -1t-14.5 -1t-11 -0.5q-6 -1 -22 -2t-27 4q-6 2 -9 8t-3 12t4 10.5t13 4.5q11 -2 20 0h2q-5 8 -10 17.5t-11 20.5q-5 9 -12.5 30t-16.5 48t-18.5 57.5t-18.5 60t-16.5 54.5t-11.5 41q-16 -35 -23 -45q-1 -26 -1 -51.5v-50.5q1 -48 2.5 -91.5t1.5 -90.5
q10 -1 20 0q9 0 13 -4.5t4.5 -10.5t-2.5 -12t-9 -8q-11 -5 -27.5 -4t-22.5 2q-4 0 -11 0.5t-14.5 1t-14 1t-9.5 2.5q-5 2 -7.5 7.5t-2.5 11.5t3 11t8 6q13 3 30 1zM83 413v1v-2v1z" />
    <glyph glyph-name="L" unicode="L" horiz-adv-x="326" 
d="M42 43q-3 45 -3 87.5v88.5q0 20 -1 40.5t-1 41.5q0 23 2.5 46.5t1.5 49.5q-1 35 -2 69.5t-2 63.5v26q-1 38 -1.5 69.5t2.5 57.5q-8 1 -15.5 1.5t-11.5 2.5q-11 5 -10.5 19t11.5 16q13 2 24.5 1.5t22.5 -2l22 -3t23 -0.5q9 1 13 -3.5t4.5 -11t-2.5 -12.5t-9 -8
q-9 -3 -24 -3q-2 -28 -0.5 -59t0.5 -61q-1 -13 0 -36.5t1 -37.5q-1 -21 -2.5 -46.5t-2.5 -45.5q0 -45 -1 -88.5t-1 -84.5q1 -48 2.5 -92t2.5 -91h15.5h33.5t42.5 0.5t42.5 0.5v21t6 22q1 3 7 4.5t12.5 1t12 -3t7.5 -6.5q2 -5 0.5 -16.5t-1.5 -17.5v-7t-2 -11q2 -6 -1.5 -13
t-9.5 -9t-35 -3t-62.5 -1t-61 0.5t-30.5 0.5q-4 0 -11 0.5t-14.5 1t-14.5 1.5t-10 2q-5 3 -7.5 8.5t-2.5 11.5t3 10.5t8 5.5q14 3 30 1z" />
    <glyph glyph-name="M" unicode="M" horiz-adv-x="447" 
d="M86 487q-1 -21 -2.5 -46.5t-2.5 -46.5q0 -44 -1 -88t-1 -85q1 -48 2.5 -91.5t2.5 -90.5q9 -2 19 0q9 0 13 -4.5t4.5 -10.5t-2.5 -12t-9 -8q-11 -5 -27 -4t-23 2q-4 0 -10.5 0.5t-14 1t-14 1t-9.5 2.5q-6 2 -8.5 7.5t-2.5 11.5t3 11t8 6q13 3 30 1q-3 45 -3 87v88
q0 20 -1 40.5t-1 42.5t2.5 46t1.5 49q-1 35 -2 69.5t-2 63.5v26q0 39 -1 70t2 57q-8 1 -15.5 1.5t-10.5 2.5q-6 2 -8.5 7.5t-2.5 11.5t3 11t8 6q17 3 40 1t37 -4q2 0 7.5 -15t11.5 -37.5t13.5 -50.5t13.5 -53.5t11 -46.5t8 -30q6 -21 11.5 -46.5t11.5 -46.5q5 -16 8.5 -33.5
t8.5 -37.5q5 20 9 37.5t8 33.5q6 21 12 46.5t11 46.5q2 9 7.5 30t12 46.5t13.5 53.5t13.5 50.5t11.5 37.5t7 15q14 2 37 4t40 -1q5 -1 8 -6t3.5 -11t-2 -11.5t-8.5 -7.5q-4 -2 -11.5 -2.5t-15.5 -1.5q3 -26 2.5 -57t-1.5 -70v-26q-1 -29 -2 -63.5t-2 -69.5q-1 -25 1.5 -49
t2.5 -46t-1 -42.5t-1 -40.5v-88t-3 -87q17 2 30 -1q5 -1 8 -6t3.5 -11t-2 -11.5t-8.5 -7.5q-7 -3 -24 -3.5t-25 -1.5q-6 -1 -22.5 -2t-27.5 4q-6 2 -9 8t-2.5 12t4.5 10.5t13 4.5q10 -1 19 0q1 47 2.5 90.5t2.5 91.5q0 41 -0.5 85t-1.5 88q-1 21 -2.5 46.5t-2.5 46.5
q0 6 0.5 24.5t0.5 39.5t0.5 40.5t0.5 26.5q-8 -24 -13.5 -52.5t-11 -58t-11.5 -58t-13 -52.5q-8 -25 -13 -49t-11 -46q-5 -16 -7 -25t-5 -21q-3 -15 -9.5 -21.5t-13.5 -7t-13 4t-8 11.5q-4 13 -7.5 27.5t-8.5 31.5q-6 22 -11 46t-13 49q-8 24 -13.5 52.5t-11 58t-11.5 58
t-13 52.5q0 -7 0.5 -26.5t1 -40.5t0.5 -39.5v-24.5z" />
    <glyph glyph-name="N" unicode="N" horiz-adv-x="383" 
d="M87 487q-1 -21 -2.5 -46.5t-2.5 -46.5q0 -44 -1 -88t-1 -85q1 -48 2.5 -91.5t2.5 -90.5q9 -2 19 0q9 0 13 -4.5t4.5 -10.5t-2.5 -12t-9 -8q-11 -5 -27.5 -4t-21.5 2q-4 0 -11 0.5t-14.5 1t-14.5 1t-10 2.5q-5 2 -7.5 7.5t-2.5 11.5t3 11t8 6q14 3 30 1q-3 45 -3 87v88
q0 20 -1 40.5t-1 42.5t2.5 46t1.5 49q-1 35 -2 69.5t-2 63.5v26q-1 39 -1.5 70t2.5 57q-8 1 -15.5 1.5t-11.5 2.5q-5 2 -7.5 7.5t-2.5 11.5t3 11t8 6q17 3 40 1t37 -4q2 0 7.5 -15t11.5 -37.5t13.5 -50.5t13.5 -53.5t11 -46.5t8 -30q6 -21 11.5 -46.5t11.5 -46.5
q6 -22 12 -47.5t12 -52t12 -51.5t12 -46l3 -15t3.5 -21t3 -20.5t3.5 -14.5q-2 53 0 102.5t3 101.5q1 45 2 88.5t0 84.5q-1 48 -2.5 92t-2.5 91h-19q-9 -1 -13 3.5t-4.5 11t2.5 12.5t9 8q11 5 27.5 4t22.5 -2q4 0 11 -0.5t14.5 -1t14 -1.5t9.5 -2q6 -3 8.5 -8.5t2 -11.5
t-3.5 -10.5t-8 -5.5q-14 -3 -29 -1q2 -45 2 -87.5v-88.5q0 -20 1 -40.5t1 -41.5q0 -23 -2.5 -46.5t-1.5 -49.5q1 -35 2 -69.5t2 -63.5v-26q1 -38 1.5 -69.5t-2.5 -57.5q8 -1 15.5 -1.5t11.5 -2.5q11 -5 10.5 -19t-11.5 -16h-10t-19 0.5t-22.5 1.5t-18.5 2q-5 0 -12 19
t-15 48t-16.5 63.5t-16 67.5t-14 59.5t-9.5 38.5q-6 22 -11 46t-13 49q-8 24 -13.5 52.5t-11 58t-11 58t-12.5 52.5v-26.5t0.5 -40.5t0.5 -39.5v-24.5z" />
    <glyph glyph-name="O" unicode="O" horiz-adv-x="321" 
d="M215 698q16 -22 25.5 -56.5t14 -75t5.5 -84t0 -83.5t-3 -73.5t-2 -53.5q0 -24 -3 -60.5t-10 -74t-19 -71t-30 -52.5q-23 -24 -50 -26.5t-52 8.5t-44 33t-26 48q-4 14 -5.5 28.5t-3.5 28.5q-2 20 -3.5 38.5t-3.5 38.5q-2 22 -2.5 44t-1.5 45v105t3 105q2 22 3.5 43.5
t5.5 42.5q3 17 7.5 34t11.5 33q8 17 21.5 32t31.5 25q34 19 70.5 14t59.5 -36zM214 277q0 12 2 39.5t4 64.5t2 79t-3 82.5t-11 75.5t-22 58q-12 19 -28.5 22.5t-32.5 -3t-29.5 -20t-19.5 -26.5q-6 -14 -10 -29.5t-6 -29.5q-4 -21 -5.5 -41.5t-3.5 -41.5q-2 -36 -5 -92.5
t-3.5 -118t3 -119t14.5 -95.5q4 -16 15.5 -29t26.5 -19t31.5 -2.5t31.5 21.5q16 19 25.5 51t14.5 65.5t7 63.5t2 44z" />
    <glyph glyph-name="P" unicode="P" horiz-adv-x="319" 
d="M233 671q13 -20 19 -50.5t6.5 -67t-5.5 -74.5t-17 -71.5t-27.5 -59.5t-37.5 -38t-44 -15.5t-47 -1.5v-23t-0.5 -14.5t-0.5 -14v-20.5q1 -48 2.5 -91.5t2.5 -90.5q9 -2 19 0q9 0 13 -4.5t4.5 -10.5t-2.5 -12t-9 -8q-11 -5 -27 -4t-23 1q-4 1 -10.5 1.5t-14 1t-14 1
t-9.5 2.5q-6 2 -8.5 7.5t-2.5 11.5t3 11t8 6q13 3 30 1q-2 45 -2.5 87t-0.5 88q0 20 -1 40.5t-1 42.5q1 22 3 46t1 49q-1 35 -2 69.5t-2 63.5v26q0 39 -1 70t2 57q-8 1 -15.5 1.5t-10.5 2.5q-6 2 -8.5 8t-2.5 12t3 11t8 5q32 1 65.5 1t64 -5t54.5 -16t38 -32zM150 338
q18 10 31.5 33t22 53t12 64t2 66t-8 60t-17.5 45q-8 12 -21 17.5t-28 7.5t-30 1t-27 -1q-2 -27 -1 -60t0 -63q-1 -14 0 -37t1 -37q-1 -21 -2.5 -46.5t-1.5 -46.5q0 -3 -0.5 -13t-0.5 -21v-21v-13q38 -5 69 12z" />
    <glyph glyph-name="Q" unicode="Q" horiz-adv-x="321" 
d="M255 271q0 -24 -3 -60.5t-10 -74.5t-19 -71.5t-30 -52.5q-26 -26 -57 -26q6 -5 11.5 -9t10.5 -9q7 -5 15.5 -11t17.5 -7t14.5 -7t4.5 -14q-2 -8 -8.5 -13t-15.5 -4q-5 1 -9 1.5t-8 2.5q-12 4 -21.5 10.5t-18.5 13.5q-7 5 -16.5 13t-17.5 10q-5 2 -14 0q-8 -3 -16 0
t-11 11q-4 8 0 15t12 9q6 3 13 3q-21 13 -36.5 32.5t-21.5 42.5q-4 14 -5.5 28.5t-3.5 28.5q-2 19 -3.5 38t-3.5 38q-2 23 -2.5 44.5t-1.5 44.5v105.5t3 105.5q2 21 3.5 42.5t5.5 42.5q3 17 7.5 34t11.5 33q17 37 53 58q34 19 70.5 14t59.5 -37q16 -22 25.5 -56.5t14 -75
t5.5 -83.5t0 -83t-3 -73.5t-2 -53.5zM60 81q4 -16 15.5 -29t26.5 -19t31.5 -2.5t31.5 20.5q16 19 25.5 51t14.5 66t7 63.5t2 43.5q0 12 2 40t4 64.5t2 78.5t-3 82.5t-11 75.5t-22 58q-12 19 -28.5 22.5t-32.5 -3t-29.5 -20t-19.5 -26.5q-6 -14 -10 -29t-6 -30
q-4 -20 -5.5 -41t-3.5 -41q-2 -36 -5 -93t-3.5 -118t3 -118.5t14.5 -95.5z" />
    <glyph glyph-name="R" unicode="R" horiz-adv-x="341" 
d="M271 43q5 -1 7.5 -6t2 -11t-3 -11.5t-8.5 -7.5q-3 -2 -10 -2.5t-14.5 -1t-14.5 -1t-11 -1.5q-6 0 -22 -1t-27 4q-6 2 -8.5 8t-2 12t5 10.5t13.5 4.5q10 -1 20 0h1q-4 8 -8 17.5t-9 20.5t-13 30.5t-17 42t-18.5 46t-17 43t-12.5 32t-5 13.5q0 2 -4 8h-6.5t-7.5 1v-23
t-0.5 -14.5t-0.5 -14v-20.5q1 -48 2.5 -91.5t2.5 -90.5q9 -2 19 0q9 0 13 -4.5t4.5 -10.5t-2.5 -12t-9 -8q-11 -5 -27.5 -4t-21.5 1q-4 1 -11 1.5t-14.5 1t-14.5 1t-10 2.5q-5 2 -7.5 7.5t-2.5 11.5t3 11t8 6q13 3 30 1q-3 45 -3 87v88q0 20 -1 40.5t-1 42.5t2.5 46t1.5 49
q-1 35 -2 69.5t-2 63.5v26q0 39 -1 70t2 57q-8 1 -15.5 1.5t-11.5 2.5q-5 2 -7.5 8t-2.5 12t3 11t8 5q32 1 65.5 1t64 -5t54.5 -16t38 -32q12 -20 18.5 -50.5t7 -67t-5.5 -74.5t-17 -71.5t-27.5 -59.5t-37.5 -38q-9 -5 -18.5 -8.5t-19.5 -5.5q10 -21 23.5 -51.5t26 -60.5
t22.5 -55t15 -35q6 -14 10.5 -27t7.5 -23h2q15 2 30 -1zM101 325q7 3 13 1q19 1 37 12q18 10 31.5 33t22 53t12 64t2 66t-8 60t-17.5 45q-8 12 -21 17.5t-28 7.5t-30 1t-27 -1q-2 -27 -1 -60t0 -63q-1 -14 0 -37t1 -37q-1 -21 -2.5 -46.5t-2.5 -46.5v-68q5 -1 9.5 -1h9.5z
" />
    <glyph glyph-name="S" unicode="S" horiz-adv-x="289" 
d="M15 655q14 42 58 63q20 10 42.5 12.5t43.5 -3.5q38 -11 55 -42q11 -19 13.5 -40.5t-0.5 -42.5q-1 -8 -8 -13t-15 -4q-9 1 -14.5 7t-4.5 14q1 11 1 24.5t-4 25.5t-12.5 21.5t-22.5 13.5q-31 9 -51 -2t-31.5 -31t-14.5 -44.5t0 -43.5q3 -25 12.5 -48t21.5 -46
q14 -26 29 -50.5t31 -49.5q8 -14 12 -27t12 -28q3 -6 11 -17t11 -18q20 -40 29 -77.5t10 -84.5q0 -27 -6 -55t-24 -51q-14 -17 -33 -23t-43 -8q-28 -2 -53 6t-42 28q-20 24 -25 53t3 58q2 8 9.5 12t16.5 2q8 -2 12.5 -8.5t2.5 -14.5q-5 -20 -2 -41t17 -38q11 -12 26.5 -20
t32.5 -7q14 1 24.5 7t18.5 16q5 6 11.5 26t7.5 45q1 30 -3.5 59.5t-7.5 39.5q-5 15 -19.5 47.5t-32 68t-35 68t-27.5 47.5q-22 33 -34 61t-17 63q-2 23 -1 45.5t9 44.5z" />
    <glyph glyph-name="T" unicode="T" horiz-adv-x="402" 
d="M150 44q-2 45 -2 87t-1 88q0 20 -1 40.5t0 42.5q0 22 2 46t1 49q-1 35 -2 69.5t-1 63.5q0 7 -0.5 13.5t-0.5 12.5q0 38 -1 68.5t2 55.5q-32 1 -54.5 1t-24.5 1q-5 0 -13.5 0.5t-17.5 0.5q2 -8 2.5 -16.5t-2.5 -17.5q-1 -3 -5.5 -4.5t-9.5 -1.5t-9.5 2t-6.5 5
q-2 4 -2.5 14t-0.5 15q-1 2 -1.5 9t1.5 14q0 6 3 11t9 6q18 3 45.5 3.5t56.5 0.5t56.5 -1t46.5 -1q37 0 66.5 -2t34.5 -2q17 1 19 -11q3 -7 3 -15.5t-1 -11.5q-1 -5 -1 -15t-2 -14q-4 -7 -16.5 -7t-14.5 6q-3 9 -2.5 17.5t2.5 16.5q-14 -2 -36 -2t-50 -1h-26q-2 -27 -1 -58
t0 -61q-1 -14 0 -37t1 -37q0 -21 -2 -46.5t-2 -46.5l-2 -88t0 -85q0 -48 1.5 -91.5t2.5 -90.5q9 -2 20 0q9 0 13 -4.5t4 -10.5t-3 -12t-9 -8q-11 -5 -27 -4t-22 1q-4 1 -11 1.5t-14.5 1t-14 1t-9.5 2.5q-6 2 -8.5 7.5t-2 11.5t3 11t7.5 6q15 3 30 1z" />
    <glyph glyph-name="U" unicode="U" horiz-adv-x="379" 
d="M283 488q0 -21 -2 -46.5t-2 -46.5q-1 -44 -2 -87.5t0 -85.5q0 -22 -0.5 -52.5t-5 -60.5t-15 -56t-31.5 -39q-29 -18 -57 -19.5t-51 8t-40 29.5t-24 46q-4 16 -8 39.5t-6 40.5q0 36 -1 72.5t-1 72.5q0 22 2.5 46t1.5 50q-1 35 -2 69t-2 63v26q0 39 -1 70.5t2 57.5
q-8 0 -15.5 0.5t-11.5 2.5q-5 3 -7.5 8.5t-2.5 11.5t3 10.5t8 5.5q13 2 24.5 1.5t22.5 -2l22 -3t23 -0.5q9 1 13 -3.5t4.5 -11t-2.5 -12.5t-9 -8q-5 -2 -11 -3t-12 -1q-2 -27 -1 -58t-1 -61q0 -14 1 -37t1 -37q-1 -21 -2.5 -46.5t-2.5 -46.5q-1 -59 -1.5 -117t1.5 -118
q2 -21 3.5 -41.5t6.5 -35.5q5 -22 23.5 -38t40.5 -14q28 1 44 24.5t24 54t10 62t2 48.5q0 20 -1.5 40.5t-0.5 42.5q0 22 2 46t1 50q-1 35 -2 69t-1 63l-1 26q0 39 -1 70.5t2 57.5q-8 0 -15.5 0.5t-10.5 2.5q-6 3 -8.5 8.5t-2 11.5t3 10.5t7.5 5.5q13 2 24.5 1.5t22.5 -2
t22.5 -3t23.5 -0.5q9 1 13 -3.5t4 -11t-3 -12.5t-9 -8q-5 -2 -11 -3t-12 -1q-2 -27 -1 -58t0 -61q-1 -14 0.5 -37t0.5 -37z" />
    <glyph glyph-name="V" unicode="V" 
d="M104 685q-9 2 -17 0q7 -25 11 -56.5t9 -69.5q1 -6 1.5 -12.5t2.5 -13.5q4 -29 8 -63.5t9 -70.5q3 -26 8.5 -49.5t9.5 -45.5t6 -43t5 -41q1 -5 2 -21.5t2 -35.5t2 -35t2 -21q4 29 6.5 55.5t4.5 52.5t5 53.5t8 57.5q8 45 15.5 88.5t13.5 85.5q7 48 12 92.5t12 91.5
q-8 1 -15.5 1.5t-15.5 -0.5q-9 0 -13 4.5t-4.5 11t2.5 12.5t9 8q11 5 27.5 4t22.5 -2q8 -1 25 -2t24 -3q6 -3 8.5 -8.5t2 -11.5t-3.5 -11t-8 -6t-9 -1h-9q-5 -48 -11.5 -92.5t-14.5 -92.5q-3 -20 -5 -40.5t-5 -42.5q-4 -23 -10 -46.5t-9 -49.5q-5 -35 -9 -70t-8 -64
q-1 -7 -1.5 -13t-2.5 -13q-6 -44 -10.5 -78t-13.5 -61q-3 -9 -10 -13q-4 -4 -12 -4q-11 -1 -19.5 7.5t-3.5 25.5q-7 47 -12 91t-12 92q-6 41 -13.5 85t-15.5 88q-4 21 -9.5 46.5t-9.5 46.5q-2 14 -5 37.5t-5 36.5q-5 32 -9.5 64t-10.5 60q-7 -1 -13 -0.5t-13 1.5q-5 1 -8 6
t-3 11t2.5 11.5t7.5 8.5q7 2 24 3t25 2q6 1 22.5 2t27.5 -4q6 -2 9 -8t2.5 -12.5t-4.5 -11t-13 -4.5z" />
    <glyph glyph-name="W" unicode="W" horiz-adv-x="504" 
d="M104 683q-9 1 -17 0q7 -24 11 -54.5t9 -68.5q1 -7 1.5 -13t2.5 -13q4 -28 8 -62t9 -69q3 -25 8.5 -48.5t9.5 -44.5q4 -22 6 -48.5t5 -45.5q1 -5 1.5 -22t1.5 -36t1.5 -36t1.5 -22q11 78 20.5 153t20.5 152q1 10 9.5 16.5t18 7t17 -5.5t8.5 -20q1 -17 4.5 -41t8 -50.5
t9 -51.5t7.5 -44q1 -5 1.5 -22t1.5 -36t1.5 -36t1.5 -22q14 103 27 201t28 200q7 48 12 91.5t12 89.5q-8 1 -15.5 1.5t-15.5 -0.5q-9 0 -13 4.5t-4.5 10.5t2.5 12t9 8q11 5 27.5 4t22.5 -2q8 -1 25 -2t24 -3q11 -5 10.5 -19.5t-11.5 -16.5q-5 -1 -9 -1.5t-9 -0.5
q-5 -47 -11.5 -90t-14.5 -90q-3 -20 -5 -40t-6 -41q-3 -23 -9 -46t-9 -48q-5 -35 -9 -75t-8 -69q-1 -6 -2 -12.5t-2 -12.5q-6 -43 -10.5 -76.5t-13.5 -59.5q-3 -9 -10 -13q-4 -4 -12 -4q-11 -1 -19.5 7t-4.5 25q-6 46 -11 89t-12 90q-4 23 -7.5 49.5t-8.5 54.5
q-5 -35 -8.5 -72.5t-7.5 -64.5q-1 -6 -2 -12.5t-2 -12.5q-6 -43 -10.5 -76.5t-13.5 -59.5q-3 -9 -10 -13q-4 -4 -12 -4q-11 -1 -19.5 7t-3.5 25q-7 46 -12 89t-12 90q-6 41 -13.5 90t-15.5 92q-3 20 -9 45t-10 46q-2 14 -5 37t-5 36q-5 30 -9.5 61.5t-10.5 59.5
q-14 -2 -26 1q-11 2 -11.5 16.5t10.5 19.5q7 2 24 3t25 2q6 1 22.5 2t27.5 -4q6 -2 9 -8t2.5 -12t-4.5 -10.5t-13 -4.5z" />
    <glyph glyph-name="X" unicode="X" horiz-adv-x="368" 
d="M259 44q15 2 30 -1q6 -1 10 -6t6 -11t0.5 -11.5t-6.5 -7.5q-3 -2 -9 -2.5t-13.5 -1t-14 -1t-10.5 -0.5q-6 -1 -22 -2t-28 4q-6 2 -11 8t-6.5 12t1.5 10.5t12 4.5q10 -1 20 0q-13 47 -23 90.5t-22 91.5q-9 31 -18 66q-6 -25 -12 -48.5t-11 -44.5q-2 -6 -3.5 -12.5
t-3.5 -13.5q-10 -38 -17.5 -69.5t-17.5 -57.5q8 -1 15 -1.5t10 -2.5q5 -2 6.5 -7.5t-0.5 -11.5t-6 -10.5t-9 -5.5q-14 -2 -25 -1.5t-22 2l-22 3t-23 0.5q-9 -1 -12 3.5t-1.5 11t6.5 12.5t11 8q10 3 24 3q9 28 17 59t16 61q5 13 10 36.5t9 37.5q6 21 15 46.5t15 45.5
q2 8 4.5 16t4.5 16q-2 8 -4.5 16t-4.5 16q-6 21 -15 46.5t-15 46.5q-4 14 -9 37t-10 37q-8 30 -16 61t-17 58q-6 0 -12.5 1t-11.5 3q-6 2 -10 8.5t-4 13.5t4 12t13 4q25 -2 44 0.5t46 -2.5q11 -2 11.5 -14.5t-9.5 -17.5q-7 -4 -23 -5q10 -26 17.5 -57t17.5 -70
q2 -6 3.5 -12.5t3.5 -13.5q11 -41 23 -92q5 17 9 33t9 32q12 48 22 92t23 91h-16q-9 -1 -13 4t-4.5 11.5t3 12.5t9.5 9q2 0 13.5 0.5t26 0.5h30h24.5q10 0 13.5 -6t2 -13.5t-5.5 -14t-8 -7.5q-8 -1 -17.5 -2t-16.5 0q-10 -45 -21 -87.5t-24 -88.5q-5 -20 -9.5 -40.5
t-10.5 -41.5q-4 -14 -9.5 -29.5t-10.5 -31.5q5 -16 10.5 -31t9.5 -29q6 -22 10.5 -42.5t9.5 -40.5q13 -46 24 -88t21 -87z" />
    <glyph glyph-name="Y" unicode="Y" horiz-adv-x="361" 
d="M170 221q1 -48 2.5 -92t2.5 -90q9 -1 19 0q9 0 13 -4.5t4.5 -10.5t-2.5 -12t-9 -8q-11 -5 -27.5 -4t-22.5 2q-8 1 -25 1.5t-24 3.5q-6 2 -8.5 7.5t-2 11.5t3.5 11t8 6q13 3 30 1q-3 45 -3 87v88q0 17 -1 35.5t-1 37.5l2 -6l-9 32q-13 44 -22 89t-17.5 90.5t-18.5 91
t-25 91.5q-6 0 -12.5 1t-11.5 3q-6 2 -9.5 8.5t-3.5 13.5t4.5 12t13.5 4q12 -1 21.5 0t18.5 2t19 1t23 -2q6 -1 8.5 -6.5t3 -11.5t-2 -12t-7.5 -8q-3 -2 -6 -1.5t-11 -0.5q11 -58 18.5 -99t14.5 -76t14.5 -69t18.5 -77q9 32 16 72t13.5 83t14 86.5t17.5 82.5h-9
q-9 -1 -13.5 3.5t-5 11t3 12.5t9.5 8q12 5 28 4t22 -2q4 0 10.5 -0.5t14 -1.5t13.5 -2t9 -2q10 -5 5.5 -19t-15.5 -16q-8 -2 -15.5 -2h-14.5q-9 -41 -19 -94.5t-20.5 -108.5t-22 -105.5t-22.5 -85.5v-65z" />
    <glyph glyph-name="Z" unicode="Z" horiz-adv-x="295" 
d="M5 52q11 46 25 96.5t30 102.5t32 103t30 98q13 42 22 78.5t21 76.5q5 17 7 36.5t9 38.5q-3 0 -17 0.5t-32.5 1t-38 0.5h-34.5q-1 -8 -2 -15t1 -15q1 -6 -3.5 -8.5t-10.5 -2.5t-12.5 2t-9.5 5q-5 8 -5.5 18t0.5 14v16t2 15q2 3 5 5q2 2 3.5 2.5t3.5 1.5q13 2 39.5 1.5
t55.5 -2.5t55 -3.5t38 -0.5q10 1 13 -4.5t2 -13.5t-4 -16.5t-4 -13.5q-5 -19 -9.5 -33t-8.5 -27t-8.5 -27.5t-10.5 -33.5q-4 -12 -8 -29.5t-8.5 -36.5t-9 -36t-8.5 -29q-16 -49 -32.5 -102t-30.5 -103q-14 -45 -24 -85t-21 -89q1 0 15 -0.5t33.5 -0.5h40.5h38l2 16t-1 16
q-2 6 2.5 8.5t11 2.5t13 -2t9.5 -6q5 -7 5.5 -17t-0.5 -14v-15q3 -7 -1 -15q-1 -1 -1 -2h-1q-2 -6 -9 -8q-2 -1 -27.5 -1h-58t-62 0.5t-38.5 0.5q-10 0 -13.5 6t-4 14t1 16.5t3.5 14.5z" />
    <glyph glyph-name="bracketleft" unicode="[" horiz-adv-x="178" 
d="M6 -64q-2 25 -2.5 60.5t-0.5 72.5v72v60q0 20 -1 40.5t-1 42.5q0 23 2 47t1 50q-1 35 -1.5 70t-1.5 64v26q0 22 -0.5 53.5t-0.5 63t0.5 58.5t2.5 41q2 8 5 13t9 7q7 2 11 1q12 1 20.5 1.5t16.5 0.5t17 -0.5t21 -0.5q8 0 11.5 -6.5t3 -14t-4.5 -13.5t-12 -6h-17h-11.5
t-11.5 -0.5t-18 -0.5q-1 -18 -1 -44.5v-54.5v-53v-40q0 -14 1 -37.5t0 -37.5q0 -21 -1.5 -47t-1.5 -46q-1 -45 -2 -89t0 -86q0 -23 0.5 -55.5t1 -67.5t1.5 -69t1 -60h17.5h12.5h13h18q8 0 11.5 -6.5t3 -14t-4.5 -13.5t-12 -6h-23.5t-18.5 -0.5t-18.5 -0.5h-23.5
q-5 0 -8.5 7.5t-2.5 15.5v3z" />
    <glyph glyph-name="backslash" unicode="\" horiz-adv-x="321" 
d="M259 7q3 -15 -1.5 -22t-12.5 -8t-16 4.5t-11 16.5q-13 48 -24 93.5t-25 94.5q-11 40 -24 83t-26 85q-6 20 -15 45t-16 45q-4 14 -9.5 37t-9.5 36q-5 15 -14 44.5t-18.5 61t-19 59.5t-14.5 42q-5 13 -0.5 21.5t12.5 11t17.5 -1t14.5 -13.5q6 -13 15.5 -41t20 -60.5
t19.5 -64.5t15 -53q4 -11 7 -26q8 -28 16.5 -61.5t17.5 -68.5q6 -25 15 -48t15 -45q6 -21 11 -41.5t10 -39.5q14 -48 26.5 -92.5t23.5 -93.5z" />
    <glyph glyph-name="bracketright" unicode="]" horiz-adv-x="178" 
d="M112 -67q0 -8 -3 -15.5t-8 -7.5h-23.5t-18.5 0.5t-18.5 0.5h-23.5q-8 0 -12 6t-4.5 13.5t3 14t11.5 6.5h18h13h12.5h17.5q0 26 1 60t1.5 69t1 67.5t0.5 55.5q1 42 0 86t-2 89q0 20 -1.5 46t-1.5 47q-1 14 0 37.5t1 37.5v40v53v54.5t-1 44.5q-12 0 -18 0.5t-11.5 0.5
h-11.5h-17q-8 0 -12 6t-4.5 13.5t3 14t11.5 6.5q12 0 21 0.5t17 0.5t16.5 -0.5t20.5 -1.5q3 1 5.5 0.5t5.5 -1.5q6 -2 9 -7t5 -13q2 -14 2.5 -41t0.5 -58.5t-0.5 -63t-0.5 -53.5v-26q-1 -29 -1.5 -64t-1.5 -70q-1 -26 1 -50t2 -47q0 -22 -1 -42.5t-1 -40.5v-60v-72t-1 -72.5
t-2 -60.5v-3z" />
    <glyph glyph-name="asciicircum" unicode="^" horiz-adv-x="307" 
d="M4 649q17 23 34.5 42.5t36.5 41.5q8 8 15.5 17.5t15.5 18.5q8 8 18 8t18 -8q8 -9 15.5 -18.5t15.5 -17.5q19 -22 36.5 -41.5t34.5 -42.5q5 -7 1.5 -13.5t-10 -10.5t-14.5 -4.5t-12 4.5q-19 21 -35.5 42t-35.5 43q-4 4 -7 7.5t-7 7.5l-7.5 -7.5t-6.5 -7.5
q-19 -22 -35.5 -43t-35.5 -42q-5 -5 -13 -4.5t-14.5 4.5t-9.5 10.5t2 13.5z" />
    <glyph glyph-name="underscore" unicode="_" horiz-adv-x="406" 
d="M17 -32q10 1 30 1.5t45 0.5h52.5h52.5t45 -0.5t30 -0.5q12 0 25 0.5t27 0.5q11 0 16.5 -6.5t5 -14t-6.5 -13.5t-18 -6t-24 0.5t-23 0.5q-16 0 -52 -0.5t-76.5 -0.5t-77 -0.5t-51.5 -0.5q-7 0 -11 6t-5 13t3 13t13 7z" />
    <glyph glyph-name="a" unicode="a" 
d="M303 43q11 -2 11.5 -16.5t-10.5 -19.5q-7 -2 -24 -3t-25 -2q-6 -1 -22.5 -2t-27.5 4q-6 2 -9 8t-2.5 12.5t4.5 11t13 3.5q8 -1 15.5 0t15.5 2q-7 47 -12 91.5t-12 92.5q0 4 -0.5 8t-1.5 9q-18 -1 -43 -1.5t-56 -0.5q-2 -13 -3 -25t-3 -23q-2 -7 -2.5 -13.5t-1.5 -13.5
q-5 -38 -9 -69t-11 -57h17q9 1 13 -3.5t4.5 -11t-2.5 -12.5t-9 -8q-11 -5 -27.5 -4t-22.5 2q-8 1 -25 2t-24 3q-11 5 -10.5 19.5t11.5 16.5q15 3 26 2q6 28 10.5 60t9.5 63q2 14 5 37.5t5 37.5q4 21 9.5 46t9.5 46q8 44 15.5 88t13.5 85q7 48 12 92t12 91q-5 17 3.5 25
t19.5 8q8 0 12 -4q7 -4 10 -14q9 -26 13.5 -60t10.5 -78q2 -7 2.5 -13.5t1.5 -12.5q4 -29 8 -64t9 -70q3 -26 9 -49.5t10 -45.5q3 -22 5 -43t5 -41q8 -48 14.5 -92t11.5 -92h9t9 -2zM121 274q26 -1 49.5 -1.5t40.5 -1.5q-5 32 -10.5 63.5t-11.5 63.5q-10 60 -14 110t-12 107
q-1 -5 -1.5 -21t-1.5 -34.5t-1.5 -34.5t-1.5 -21q-3 -20 -5 -41t-6 -42q-4 -23 -9.5 -46.5t-8.5 -49.5q-2 -13 -3.5 -26t-3.5 -25z" />
    <glyph glyph-name="b" unicode="b" horiz-adv-x="320" 
d="M177 355q17 -5 30 -14t21 -23q18 -30 25 -66.5t5 -69.5q-2 -48 -21.5 -92.5t-57.5 -69.5q-23 -14 -53.5 -18t-65.5 0q-8 1 -25 2t-24 3q-5 3 -7.5 8.5t-2.5 11.5t3 10.5t8 5.5q13 3 30 1q-3 45 -3 87.5v88.5q0 20 -1 40.5t-1 41.5q0 23 2.5 46.5t1.5 49.5q-1 35 -2 69.5
t-2 63.5v25q0 39 -1 70.5t2 57.5q-8 1 -15.5 1.5t-11.5 2.5q-11 5 -10.5 19t11.5 16q8 1 22 1t30 -1t31 -2.5l25 -2.5q48 -2 77 -18.5t43.5 -43t17.5 -61t0 -72.5q-2 -22 -6.5 -46t-13.5 -46.5t-24 -42.5t-37 -33zM82 368q6 -1 12.5 -1.5t11.5 0.5h2q9 2 21.5 5t20.5 7
q19 11 32 28t21 37t11.5 41t4.5 39q2 31 -3.5 66t-22.5 63q-6 9 -18.5 14.5t-28 8.5t-32 4t-28.5 1q-2 -28 -0.5 -59t-0.5 -61q0 -13 1 -36.5t1 -37.5q-1 -21 -2.5 -46.5t-2.5 -46.5v-26zM219 184q2 29 -4 62t-22 59q-8 13 -21 19t-29 7.5t-32 1.5t-30 1q0 -29 -0.5 -57.5
t-0.5 -54.5q1 -48 2.5 -92t2.5 -91q18 -2 33.5 -0.5t31.5 9.5q19 10 32 26t21 35t11.5 38.5t4.5 36.5z" />
    <glyph glyph-name="c" unicode="c" horiz-adv-x="302" 
d="M46 292q-1 -33 -0.5 -53t1 -32t1.5 -18.5t2.5 -13.5t3.5 -16.5t5 -26.5q3 -26 9 -52t28 -46q7 -6 15.5 -10.5t19.5 -5.5q12 -1 21.5 5t16.5 14q15 17 21 32.5t9 35.5q1 8 8 12.5t15 2.5q9 -1 14.5 -7t4.5 -14q-4 -26 -9.5 -47t-27.5 -39q-27 -21 -56 -25t-54.5 5.5
t-43.5 30t-23 48.5q-5 25 -7.5 40t-4.5 28t-3.5 27t-3.5 37q-3 34 -4.5 72t-2 77t-0.5 77.5t2 71.5q2 35 6.5 76.5t18.5 74.5q17 37 54 58q17 9 36 13t39 0q36 -8 57 -36q13 -17 18 -36.5t7 -39.5q0 -8 -6 -13.5t-15 -5.5t-15 5t-7 13q0 10 -2.5 22t-8 23.5t-14.5 19.5
t-22 11q-11 2 -22.5 -0.5t-21.5 -7.5q-24 -14 -37 -41q-12 -27 -16.5 -41.5t-5 -26.5t0 -27.5t-0.5 -43.5q-3 -52 -1 -103.5t1 -103.5z" />
    <glyph glyph-name="d" unicode="d" horiz-adv-x="329" 
d="M267 496q1 -48 1 -87t-1.5 -76.5t-5.5 -76.5t-11 -87q-2 -12 -4 -26.5t-5.5 -29.5t-8.5 -29t-11 -24q-22 -35 -59 -48.5t-79 -11.5q-13 0 -23 2q-8 1 -25 2t-24 3q-11 5 -10.5 19.5t11.5 16.5q13 3 30 1q-3 45 -3 87.5v87.5q0 20 -1 40.5t-1 42.5t2.5 46t1.5 50
q-1 35 -2 69t-2 63v26q0 39 -1 70.5t2 57.5q-8 0 -15.5 0.5t-11.5 2.5q-5 3 -7.5 8.5t-2.5 11.5t3 10.5t8 5.5q17 3 32 1l30 -4q26 1 52.5 -1t49.5 -11q36 -14 54.5 -42.5t26.5 -61.5q2 -11 3.5 -22t2.5 -22q2 -16 2.5 -32t1.5 -32zM222 337q2 40 4.5 79t1.5 79l-3 63
q-2 9 -3 19t-3 19q-6 24 -19 46.5t-40 33.5q-10 5 -22 6.5t-26 2.5l-2 -1q-8 -4 -24 -4q-2 -27 -0.5 -58t-0.5 -61q0 -14 1 -37t1 -37q-1 -21 -2.5 -46.5t-2.5 -46.5q0 -44 -1 -87.5t-1 -85.5q1 -48 2.5 -91.5t2.5 -90.5q15 -1 29 -1.5t27 2.5t24 11t22 25q5 8 8 18t5 18
q4 15 7 30.5t5 30.5q5 40 6.5 81.5t3.5 82.5z" />
    <glyph glyph-name="e" unicode="e" horiz-adv-x="328" 
d="M89 44q1 0 12 -1t27.5 -2t36 -1.5t37.5 -0.5v21t6 22q1 3 7 4.5t12.5 1t12 -3t7.5 -6.5q2 -5 1 -16.5t-2 -17.5v-7t-2 -11q2 -6 -1.5 -13t-9.5 -9t-32.5 -3t-56.5 -1t-55.5 0.5t-28.5 0.5q-8 1 -25 2t-24 3q-5 3 -7.5 8.5t-2.5 11.5t3 10.5t8 5.5q13 3 30 1
q-2 41 -2.5 78t-0.5 77h1q0 29 1 62t2 67q1 26 -1.5 49.5t-2.5 46.5q0 21 1 41.5t1 40.5v88t3 87h-15t-15 2q-10 2 -10.5 16t10.5 19q3 1 9.5 2t14 2t14.5 1.5t11 0.5q2 0 15.5 0.5t33.5 0.5h43t43 -0.5t35 -1.5t19 -2q6 -2 9.5 -9t2.5 -13q1 -6 1 -11t1 -7q0 -6 1 -17.5
t-1 -16.5q-2 -4 -7.5 -6.5t-12 -3t-12.5 1t-7 4.5q-6 11 -6 21.5v21.5q-20 0 -42.5 0.5t-42.5 0.5h-33.5h-15.5q-1 -47 -2.5 -91t-1.5 -92q-1 -37 0 -65.5t1 -68.5q17 2 36 0t31 -2q15 0 26.5 -1.5t13.5 -1.5q4 0 6 -4t2 -9t-1.5 -10t-3.5 -7t-13.5 -3t-28.5 -1
q-20 -1 -39.5 -0.5t-21.5 1.5q-1 0 -2.5 0.5t-3.5 0.5q0 -9 1 -22t1.5 -26.5t1 -25.5t0.5 -20q0 -7 -0.5 -17t-0.5 -20.5v-20.5v-16q1 -30 0 -61t1 -59z" />
    <glyph glyph-name="f" unicode="f" horiz-adv-x="326" 
d="M42 680h-15t-15 2q-11 2 -11.5 16t10.5 19q3 1 10 2t14.5 2t14.5 1.5t11 0.5q3 0 30.5 0.5t61 0.5t62.5 -1t35 -3t9.5 -9t1.5 -13q2 -5 2 -10.5v-7.5q0 -5 1.5 -17t-0.5 -17q-2 -4 -7.5 -6.5t-12 -3t-12.5 1t-7 4.5q-6 11 -6 21.5v21.5q-20 0 -42.5 0.5t-42.5 0.5h-33.5
h-15.5q-1 -47 -2.5 -91t-2.5 -92q0 -37 0.5 -77t1.5 -80q16 2 35.5 0.5t31.5 -1.5q14 0 26 -2t14 -2q4 1 5.5 -3t2 -9t-1 -10.5t-3.5 -7.5t-13.5 -3t-28.5 -1q-20 -1 -39.5 0t-21.5 1t-3 0.5t-3 0.5q1 -18 2 -36.5t2 -34.5q0 -7 -0.5 -17t-0.5 -20.5v-20.5v-16
q1 -30 -0.5 -61t0.5 -59q15 0 24 -3q6 -3 9 -9t2.5 -12t-4.5 -10.5t-13 -3.5q-12 1 -23 -0.5l-22 -3t-22.5 -2t-24.5 1.5q-11 2 -11.5 16t10.5 19q4 2 11.5 2.5t15.5 1.5q-3 26 -2.5 57.5t1.5 69.5v26q1 29 2 63.5t2 69.5q1 26 -1.5 49.5t-2.5 46.5q0 21 1 41.5t1 40.5v88
t3 87z" />
    <glyph glyph-name="g" unicode="g" horiz-adv-x="327" 
d="M9 502q3 36 7.5 78.5t20.5 75.5q17 38 55 59q17 9 36.5 13t39.5 0q35 -7 56 -36q12 -17 16.5 -37t5.5 -40q0 -8 -6.5 -13.5t-14.5 -5.5q-9 0 -15.5 5t-6.5 13q0 10 -2 22.5t-6.5 24t-13.5 19.5t-22 11q-11 2 -24.5 1.5t-24.5 -5.5q-14 -8 -23 -20t-14 -26t-8 -29t-6 -29
q-4 -20 -6 -41t-4 -41q-4 -52 -5 -104t-1 -104q-1 -22 -0.5 -44t2.5 -44q1 -19 2 -37.5t3 -36.5q2 -27 7.5 -53t29.5 -45q8 -7 19 -12t22 -4q13 1 22 7.5t15 15.5q12 18 19.5 43.5t12 53.5t6 55t2.5 47q0 27 -1 55t-2 55h-28.5t-26.5 0.5t-20.5 1t-9.5 0.5q-5 0 -15 0.5
t-14 2.5q-7 4 -6.5 15t6.5 13q10 2 25 2.5t31 0t31 -1t25 -0.5q20 0 36.5 -1.5t19.5 -1.5q5 0 7.5 -3.5t2.5 -8t-2 -9t-5 -6.5q-2 0 -5.5 -0.5t-8.5 -1.5v-55t-1 -55q0 -24 -1.5 -53.5t-6 -60t-12.5 -58.5t-22 -48q-12 -17 -30 -24.5t-41 -9.5q-20 -1 -38.5 2.5t-34.5 14.5
q-27 20 -35 50.5t-16 72.5q-4 19 -4 38t-1 39q-1 22 -1.5 44t-0.5 45q1 104 9 209z" />
    <glyph glyph-name="h" unicode="h" horiz-adv-x="378" 
d="M283 487q-1 -21 -3 -46.5t-2 -46.5l-2 -88t0 -85q1 -48 2.5 -91.5t1.5 -90.5q10 -1 20 0q9 0 13 -4.5t4.5 -10.5t-2.5 -12t-9 -8q-11 -5 -27.5 -4t-22.5 2q-4 0 -11 0.5t-14.5 1t-14 1t-9.5 2.5q-6 2 -8.5 7.5t-2 11.5t3.5 11t8 6q13 3 30 1q-3 45 -3 87v88q0 20 -1 40.5
t-1 42.5v3q-1 0 -1.5 -0.5t-1.5 -0.5q-9 -3 -21 -4t-23.5 -1t-21 0.5t-14.5 0.5q-11 1 -33.5 1t-36.5 2q-1 -21 -1 -41.5v-40.5q1 -48 2.5 -91.5t2.5 -90.5q9 -2 19 0q9 0 13 -4.5t4.5 -10.5t-2.5 -12t-9 -8q-11 -5 -27 -4t-23 2q-4 0 -10.5 0.5t-14 1t-14 1t-9.5 2.5
q-6 2 -8.5 7.5t-2.5 11.5t3 11t8 6q13 3 30 1q-3 45 -3 87v88q0 20 -1 40.5t-1 42.5t2.5 46t1.5 49q-1 35 -2 69.5t-2 63.5v26q0 39 -1 70t2 57q-8 1 -15.5 1.5t-10.5 2.5q-6 2 -8.5 7.5t-2.5 11.5t3 11t8 6q13 2 24.5 1.5t22.5 -2l22 -3t23 -0.5q9 0 13 -4.5t4.5 -10.5
t-2.5 -12t-9 -8q-5 -2 -11 -3t-12 -1q-2 -27 -1 -58t0 -61q-1 -14 0 -37t1 -37q-1 -21 -2.5 -46.5t-2.5 -46.5v-53q37 4 69.5 0t70.5 -2q10 0 13 -1q3 28 3 59q-2 35 -2.5 69.5t-1.5 63.5v26q-1 39 -1.5 70t1.5 57q-8 1 -15 1.5t-11 2.5q-6 2 -8.5 7.5t-2 11.5t3.5 11t8 6
q25 5 46 -0.5t46 -3.5q9 0 13 -4.5t4.5 -10.5t-2.5 -12t-9 -8q-9 -4 -24 -4q-2 -27 -1 -58t0 -61q0 -14 1 -37t1 -37z" />
    <glyph glyph-name="i" unicode="i" horiz-adv-x="182" 
d="M42 44q-3 45 -3 87v88q0 20 -1 40.5t-1 42.5t2.5 46t1.5 49q-1 35 -2 69.5t-2 63.5v26q-1 39 -1.5 70t2.5 57q-8 1 -15.5 1.5t-11.5 2.5q-5 2 -7.5 7.5t-2.5 11.5t3 11t8 6q13 2 24.5 1.5t22.5 -2l22 -3t23 -0.5q9 0 13 -4.5t4.5 -10.5t-2.5 -12t-9 -8q-8 -4 -24 -4
q-2 -27 -0.5 -58t0.5 -61q-1 -14 0 -37t1 -37q-1 -21 -2.5 -46.5t-2.5 -46.5q0 -44 -1 -88t-1 -85q1 -48 2.5 -91.5t2.5 -90.5q9 -2 19 0q9 0 13 -4.5t4.5 -10.5t-2.5 -12t-9 -8q-11 -5 -27.5 -4t-22.5 2q-8 1 -25 1.5t-24 3.5q-5 2 -7.5 7.5t-2.5 11.5t3 11t8 6q13 3 30 1z
" />
    <glyph glyph-name="j" unicode="j" horiz-adv-x="268" 
d="M127 396q-2 35 -3 69t-1 63l-1 26q0 39 -1 70t2 57q-8 1 -15 1.5t-11 2.5q-11 5 -10.5 19.5t10.5 16.5q13 2 24.5 1.5t22.5 -2t22.5 -3t23.5 -0.5q9 0 13 -4.5t4.5 -10.5t-2.5 -12t-9 -8q-5 -2 -11.5 -3t-12.5 -1q-2 -27 -1 -58t0 -61q0 -14 1 -37t0 -37q0 -21 -2 -46.5
t-2 -46.5q-1 -46 -1 -92t-2 -92q0 -19 -1 -38l-2 -38q-2 -29 -6 -56q-2 -17 -8.5 -32.5t-17.5 -27.5q-10 -12 -27 -15.5t-34 -0.5t-32 13t-22 26q-12 29 -13.5 63.5t1.5 64.5q1 8 7.5 13t15.5 5q8 -1 14 -7t5 -14q-2 -26 -1 -57t11 -55q7 -15 17 -22.5t24 9.5q8 8 12 19.5
t6 22.5q2 13 3 26.5t2 26.5q2 19 2.5 37.5t1.5 38.5q1 23 0 45t0 45q0 22 2 46t2 50z" />
    <glyph glyph-name="k" unicode="k" horiz-adv-x="361" 
d="M42 44q-3 45 -3 87v88q0 20 -1 40.5t-1 42.5t2.5 46t1.5 49q-2 35 -2.5 69.5t-1.5 63.5v26q-1 39 -1.5 70t2.5 57q-8 1 -15.5 1.5t-11.5 2.5q-5 2 -7.5 7.5t-2.5 11.5t3 11t8 6q13 2 24 1.5t22 -2t22.5 -3t23.5 -0.5q9 0 13 -4.5t4.5 -10.5t-2.5 -12t-9 -8q-9 -4 -24 -4
q-2 -27 -1 -58t0 -61q0 -14 1 -37t0 -37q0 -16 -1 -34.5t-2 -35.5q0 3 4 7q10 28 23 62t25.5 65.5t23 57.5t16.5 37q5 11 10 20.5t10 17.5h-1q-10 1 -20 0q-9 0 -13 4.5t-4.5 10.5t2.5 12t9 8q11 5 27.5 4t22.5 -2q4 0 11 -0.5t14.5 -1t14 -1.5t9.5 -2q5 -2 7.5 -7.5
t2.5 -11.5t-3 -11t-8 -6q-13 -3 -30 -1h-1q-4 -10 -9.5 -23t-12.5 -27q-4 -8 -13.5 -31.5t-22.5 -54.5t-27 -66t-27 -66q7 -17 17.5 -44.5t22 -60.5t23 -67t21.5 -64t17.5 -52t11.5 -29q8 -14 13 -27t9 -23h2q15 2 30 -1q5 -1 7.5 -6t3 -11t-2 -11.5t-8.5 -7.5
q-3 -2 -9.5 -2.5t-14 -1t-14.5 -1t-11 -0.5q-6 -1 -22 -2t-27 4q-6 2 -9 8t-3 12t4 10.5t13 4.5q11 -2 20 0h2q-5 8 -10 17.5t-11 20.5q-5 9 -12.5 30t-16.5 48t-18.5 57.5t-18.5 60t-16.5 54.5t-11.5 41q-16 -35 -23 -45q-1 -26 -1 -51.5v-50.5q1 -48 2.5 -91.5t1.5 -90.5
q10 -1 20 0q9 0 13 -4.5t4.5 -10.5t-2.5 -12t-9 -8q-11 -5 -27.5 -4t-22.5 2q-4 0 -11 0.5t-14.5 1t-14 1t-9.5 2.5q-5 2 -7.5 7.5t-2.5 11.5t3 11t8 6q13 3 30 1zM83 413v1v-2v1z" />
    <glyph glyph-name="l" unicode="l" horiz-adv-x="326" 
d="M42 43q-3 45 -3 87.5v88.5q0 20 -1 40.5t-1 41.5q0 23 2.5 46.5t1.5 49.5q-1 35 -2 69.5t-2 63.5v26q-1 38 -1.5 69.5t2.5 57.5q-8 1 -15.5 1.5t-11.5 2.5q-11 5 -10.5 19t11.5 16q13 2 24.5 1.5t22.5 -2l22 -3t23 -0.5q9 1 13 -3.5t4.5 -11t-2.5 -12.5t-9 -8
q-9 -3 -24 -3q-2 -28 -0.5 -59t0.5 -61q-1 -13 0 -36.5t1 -37.5q-1 -21 -2.5 -46.5t-2.5 -45.5q0 -45 -1 -88.5t-1 -84.5q1 -48 2.5 -92t2.5 -91h15.5h33.5t42.5 0.5t42.5 0.5v21t6 22q1 3 7 4.5t12.5 1t12 -3t7.5 -6.5q2 -5 0.5 -16.5t-1.5 -17.5v-7t-2 -11q2 -6 -1.5 -13
t-9.5 -9t-35 -3t-62.5 -1t-61 0.5t-30.5 0.5q-4 0 -11 0.5t-14.5 1t-14.5 1.5t-10 2q-5 3 -7.5 8.5t-2.5 11.5t3 10.5t8 5.5q14 3 30 1z" />
    <glyph glyph-name="m" unicode="m" horiz-adv-x="447" 
d="M86 487q-1 -21 -2.5 -46.5t-2.5 -46.5q0 -44 -1 -88t-1 -85q1 -48 2.5 -91.5t2.5 -90.5q9 -2 19 0q9 0 13 -4.5t4.5 -10.5t-2.5 -12t-9 -8q-11 -5 -27 -4t-23 2q-4 0 -10.5 0.5t-14 1t-14 1t-9.5 2.5q-6 2 -8.5 7.5t-2.5 11.5t3 11t8 6q13 3 30 1q-3 45 -3 87v88
q0 20 -1 40.5t-1 42.5t2.5 46t1.5 49q-1 35 -2 69.5t-2 63.5v26q0 39 -1 70t2 57q-8 1 -15.5 1.5t-10.5 2.5q-6 2 -8.5 7.5t-2.5 11.5t3 11t8 6q17 3 40 1t37 -4q2 0 7.5 -15t11.5 -37.5t13.5 -50.5t13.5 -53.5t11 -46.5t8 -30q6 -21 11.5 -46.5t11.5 -46.5q5 -16 8.5 -33.5
t8.5 -37.5q5 20 9 37.5t8 33.5q6 21 12 46.5t11 46.5q2 9 7.5 30t12 46.5t13.5 53.5t13.5 50.5t11.5 37.5t7 15q14 2 37 4t40 -1q5 -1 8 -6t3.5 -11t-2 -11.5t-8.5 -7.5q-4 -2 -11.5 -2.5t-15.5 -1.5q3 -26 2.5 -57t-1.5 -70v-26q-1 -29 -2 -63.5t-2 -69.5q-1 -25 1.5 -49
t2.5 -46t-1 -42.5t-1 -40.5v-88t-3 -87q17 2 30 -1q5 -1 8 -6t3.5 -11t-2 -11.5t-8.5 -7.5q-7 -3 -24 -3.5t-25 -1.5q-6 -1 -22.5 -2t-27.5 4q-6 2 -9 8t-2.5 12t4.5 10.5t13 4.5q10 -1 19 0q1 47 2.5 90.5t2.5 91.5q0 41 -0.5 85t-1.5 88q-1 21 -2.5 46.5t-2.5 46.5
q0 6 0.5 24.5t0.5 39.5t0.5 40.5t0.5 26.5q-8 -24 -13.5 -52.5t-11 -58t-11.5 -58t-13 -52.5q-8 -25 -13 -49t-11 -46q-5 -16 -7 -25t-5 -21q-3 -15 -9.5 -21.5t-13.5 -7t-13 4t-8 11.5q-4 13 -7.5 27.5t-8.5 31.5q-6 22 -11 46t-13 49q-8 24 -13.5 52.5t-11 58t-11.5 58
t-13 52.5q0 -7 0.5 -26.5t1 -40.5t0.5 -39.5v-24.5z" />
    <glyph glyph-name="n" unicode="n" horiz-adv-x="383" 
d="M87 487q-1 -21 -2.5 -46.5t-2.5 -46.5q0 -44 -1 -88t-1 -85q1 -48 2.5 -91.5t2.5 -90.5q9 -2 19 0q9 0 13 -4.5t4.5 -10.5t-2.5 -12t-9 -8q-11 -5 -27.5 -4t-21.5 2q-4 0 -11 0.5t-14.5 1t-14.5 1t-10 2.5q-5 2 -7.5 7.5t-2.5 11.5t3 11t8 6q14 3 30 1q-3 45 -3 87v88
q0 20 -1 40.5t-1 42.5t2.5 46t1.5 49q-1 35 -2 69.5t-2 63.5v26q-1 39 -1.5 70t2.5 57q-8 1 -15.5 1.5t-11.5 2.5q-5 2 -7.5 7.5t-2.5 11.5t3 11t8 6q17 3 40 1t37 -4q2 0 7.5 -15t11.5 -37.5t13.5 -50.5t13.5 -53.5t11 -46.5t8 -30q6 -21 11.5 -46.5t11.5 -46.5
q6 -22 12 -47.5t12 -52t12 -51.5t12 -46l3 -15t3.5 -21t3 -20.5t3.5 -14.5q-2 53 0 102.5t3 101.5q1 45 2 88.5t0 84.5q-1 48 -2.5 92t-2.5 91h-19q-9 -1 -13 3.5t-4.5 11t2.5 12.5t9 8q11 5 27.5 4t22.5 -2q4 0 11 -0.5t14.5 -1t14 -1.5t9.5 -2q6 -3 8.5 -8.5t2 -11.5
t-3.5 -10.5t-8 -5.5q-14 -3 -29 -1q2 -45 2 -87.5v-88.5q0 -20 1 -40.5t1 -41.5q0 -23 -2.5 -46.5t-1.5 -49.5q1 -35 2 -69.5t2 -63.5v-26q1 -38 1.5 -69.5t-2.5 -57.5q8 -1 15.5 -1.5t11.5 -2.5q11 -5 10.5 -19t-11.5 -16h-10t-19 0.5t-22.5 1.5t-18.5 2q-5 0 -12 19
t-15 48t-16.5 63.5t-16 67.5t-14 59.5t-9.5 38.5q-6 22 -11 46t-13 49q-8 24 -13.5 52.5t-11 58t-11 58t-12.5 52.5v-26.5t0.5 -40.5t0.5 -39.5v-24.5z" />
    <glyph glyph-name="o" unicode="o" horiz-adv-x="321" 
d="M215 698q16 -22 25.5 -56.5t14 -75t5.5 -84t0 -83.5t-3 -73.5t-2 -53.5q0 -24 -3 -60.5t-10 -74t-19 -71t-30 -52.5q-23 -24 -50 -26.5t-52 8.5t-44 33t-26 48q-4 14 -5.5 28.5t-3.5 28.5q-2 20 -3.5 38.5t-3.5 38.5q-2 22 -2.5 44t-1.5 45v105t3 105q2 22 3.5 43.5
t5.5 42.5q3 17 7.5 34t11.5 33q8 17 21.5 32t31.5 25q34 19 70.5 14t59.5 -36zM214 277q0 12 2 39.5t4 64.5t2 79t-3 82.5t-11 75.5t-22 58q-12 19 -28.5 22.5t-32.5 -3t-29.5 -20t-19.5 -26.5q-6 -14 -10 -29.5t-6 -29.5q-4 -21 -5.5 -41.5t-3.5 -41.5q-2 -36 -5 -92.5
t-3.5 -118t3 -119t14.5 -95.5q4 -16 15.5 -29t26.5 -19t31.5 -2.5t31.5 21.5q16 19 25.5 51t14.5 65.5t7 63.5t2 44z" />
    <glyph glyph-name="p" unicode="p" horiz-adv-x="319" 
d="M233 671q13 -20 19 -50.5t6.5 -67t-5.5 -74.5t-17 -71.5t-27.5 -59.5t-37.5 -38t-44 -15.5t-47 -1.5v-23t-0.5 -14.5t-0.5 -14v-20.5q1 -48 2.5 -91.5t2.5 -90.5q9 -2 19 0q9 0 13 -4.5t4.5 -10.5t-2.5 -12t-9 -8q-11 -5 -27 -4t-23 1q-4 1 -10.5 1.5t-14 1t-14 1
t-9.5 2.5q-6 2 -8.5 7.5t-2.5 11.5t3 11t8 6q13 3 30 1q-2 45 -2.5 87t-0.5 88q0 20 -1 40.5t-1 42.5q1 22 3 46t1 49q-1 35 -2 69.5t-2 63.5v26q0 39 -1 70t2 57q-8 1 -15.5 1.5t-10.5 2.5q-6 2 -8.5 8t-2.5 12t3 11t8 5q32 1 65.5 1t64 -5t54.5 -16t38 -32zM150 338
q18 10 31.5 33t22 53t12 64t2 66t-8 60t-17.5 45q-8 12 -21 17.5t-28 7.5t-30 1t-27 -1q-2 -27 -1 -60t0 -63q-1 -14 0 -37t1 -37q-1 -21 -2.5 -46.5t-1.5 -46.5q0 -3 -0.5 -13t-0.5 -21v-21v-13q38 -5 69 12z" />
    <glyph glyph-name="q" unicode="q" horiz-adv-x="321" 
d="M255 271q0 -24 -3 -60.5t-10 -74.5t-19 -71.5t-30 -52.5q-26 -26 -57 -26q6 -5 11.5 -9t10.5 -9q7 -5 15.5 -11t17.5 -7t14.5 -7t4.5 -14q-2 -8 -8.5 -13t-15.5 -4q-5 1 -9 1.5t-8 2.5q-12 4 -21.5 10.5t-18.5 13.5q-7 5 -16.5 13t-17.5 10q-5 2 -14 0q-8 -3 -16 0
t-11 11q-4 8 0 15t12 9q6 3 13 3q-21 13 -36.5 32.5t-21.5 42.5q-4 14 -5.5 28.5t-3.5 28.5q-2 19 -3.5 38t-3.5 38q-2 23 -2.5 44.5t-1.5 44.5v105.5t3 105.5q2 21 3.5 42.5t5.5 42.5q3 17 7.5 34t11.5 33q17 37 53 58q34 19 70.5 14t59.5 -37q16 -22 25.5 -56.5t14 -75
t5.5 -83.5t0 -83t-3 -73.5t-2 -53.5zM60 81q4 -16 15.5 -29t26.5 -19t31.5 -2.5t31.5 20.5q16 19 25.5 51t14.5 66t7 63.5t2 43.5q0 12 2 40t4 64.5t2 78.5t-3 82.5t-11 75.5t-22 58q-12 19 -28.5 22.5t-32.5 -3t-29.5 -20t-19.5 -26.5q-6 -14 -10 -29t-6 -30
q-4 -20 -5.5 -41t-3.5 -41q-2 -36 -5 -93t-3.5 -118t3 -118.5t14.5 -95.5z" />
    <glyph glyph-name="r" unicode="r" horiz-adv-x="341" 
d="M271 43q5 -1 7.5 -6t2 -11t-3 -11.5t-8.5 -7.5q-3 -2 -10 -2.5t-14.5 -1t-14.5 -1t-11 -1.5q-6 0 -22 -1t-27 4q-6 2 -8.5 8t-2 12t5 10.5t13.5 4.5q10 -1 20 0h1q-4 8 -8 17.5t-9 20.5t-13 30.5t-17 42t-18.5 46t-17 43t-12.5 32t-5 13.5q0 2 -4 8h-6.5t-7.5 1v-23
t-0.5 -14.5t-0.5 -14v-20.5q1 -48 2.5 -91.5t2.5 -90.5q9 -2 19 0q9 0 13 -4.5t4.5 -10.5t-2.5 -12t-9 -8q-11 -5 -27.5 -4t-21.5 1q-4 1 -11 1.5t-14.5 1t-14.5 1t-10 2.5q-5 2 -7.5 7.5t-2.5 11.5t3 11t8 6q13 3 30 1q-3 45 -3 87v88q0 20 -1 40.5t-1 42.5t2.5 46t1.5 49
q-1 35 -2 69.5t-2 63.5v26q0 39 -1 70t2 57q-8 1 -15.5 1.5t-11.5 2.5q-5 2 -7.5 8t-2.5 12t3 11t8 5q32 1 65.5 1t64 -5t54.5 -16t38 -32q12 -20 18.5 -50.5t7 -67t-5.5 -74.5t-17 -71.5t-27.5 -59.5t-37.5 -38q-9 -5 -18.5 -8.5t-19.5 -5.5q10 -21 23.5 -51.5t26 -60.5
t22.5 -55t15 -35q6 -14 10.5 -27t7.5 -23h2q15 2 30 -1zM101 325q7 3 13 1q19 1 37 12q18 10 31.5 33t22 53t12 64t2 66t-8 60t-17.5 45q-8 12 -21 17.5t-28 7.5t-30 1t-27 -1q-2 -27 -1 -60t0 -63q-1 -14 0 -37t1 -37q-1 -21 -2.5 -46.5t-2.5 -46.5v-68q5 -1 9.5 -1h9.5z
" />
    <glyph glyph-name="s" unicode="s" horiz-adv-x="289" 
d="M15 655q14 42 58 63q20 10 42.5 12.5t43.5 -3.5q38 -11 55 -42q11 -19 13.5 -40.5t-0.5 -42.5q-1 -8 -8 -13t-15 -4q-9 1 -14.5 7t-4.5 14q1 11 1 24.5t-4 25.5t-12.5 21.5t-22.5 13.5q-31 9 -51 -2t-31.5 -31t-14.5 -44.5t0 -43.5q3 -25 12.5 -48t21.5 -46
q14 -26 29 -50.5t31 -49.5q8 -14 12 -27t12 -28q3 -6 11 -17t11 -18q20 -40 29 -77.5t10 -84.5q0 -27 -6 -55t-24 -51q-14 -17 -33 -23t-43 -8q-28 -2 -53 6t-42 28q-20 24 -25 53t3 58q2 8 9.5 12t16.5 2q8 -2 12.5 -8.5t2.5 -14.5q-5 -20 -2 -41t17 -38q11 -12 26.5 -20
t32.5 -7q14 1 24.5 7t18.5 16q5 6 11.5 26t7.5 45q1 30 -3.5 59.5t-7.5 39.5q-5 15 -19.5 47.5t-32 68t-35 68t-27.5 47.5q-22 33 -34 61t-17 63q-2 23 -1 45.5t9 44.5z" />
    <glyph glyph-name="t" unicode="t" horiz-adv-x="402" 
d="M150 44q-2 45 -2 87t-1 88q0 20 -1 40.5t0 42.5q0 22 2 46t1 49q-1 35 -2 69.5t-1 63.5q0 7 -0.5 13.5t-0.5 12.5q0 38 -1 68.5t2 55.5q-32 1 -54.5 1t-24.5 1q-5 0 -13.5 0.5t-17.5 0.5q2 -8 2.5 -16.5t-2.5 -17.5q-1 -3 -5.5 -4.5t-9.5 -1.5t-9.5 2t-6.5 5
q-2 4 -2.5 14t-0.5 15q-1 2 -1.5 9t1.5 14q0 6 3 11t9 6q18 3 45.5 3.5t56.5 0.5t56.5 -1t46.5 -1q37 0 66.5 -2t34.5 -2q17 1 19 -11q3 -7 3 -15.5t-1 -11.5q-1 -5 -1 -15t-2 -14q-4 -7 -16.5 -7t-14.5 6q-3 9 -2.5 17.5t2.5 16.5q-14 -2 -36 -2t-50 -1h-26q-2 -27 -1 -58
t0 -61q-1 -14 0 -37t1 -37q0 -21 -2 -46.5t-2 -46.5l-2 -88t0 -85q0 -48 1.5 -91.5t2.5 -90.5q9 -2 20 0q9 0 13 -4.5t4 -10.5t-3 -12t-9 -8q-11 -5 -27 -4t-22 1q-4 1 -11 1.5t-14.5 1t-14 1t-9.5 2.5q-6 2 -8.5 7.5t-2 11.5t3 11t7.5 6q15 3 30 1z" />
    <glyph glyph-name="u" unicode="u" horiz-adv-x="379" 
d="M283 488q0 -21 -2 -46.5t-2 -46.5q-1 -44 -2 -87.5t0 -85.5q0 -22 -0.5 -52.5t-5 -60.5t-15 -56t-31.5 -39q-29 -18 -57 -19.5t-51 8t-40 29.5t-24 46q-4 16 -8 39.5t-6 40.5q0 36 -1 72.5t-1 72.5q0 22 2.5 46t1.5 50q-1 35 -2 69t-2 63v26q0 39 -1 70.5t2 57.5
q-8 0 -15.5 0.5t-11.5 2.5q-5 3 -7.5 8.5t-2.5 11.5t3 10.5t8 5.5q13 2 24.5 1.5t22.5 -2l22 -3t23 -0.5q9 1 13 -3.5t4.5 -11t-2.5 -12.5t-9 -8q-5 -2 -11 -3t-12 -1q-2 -27 -1 -58t-1 -61q0 -14 1 -37t1 -37q-1 -21 -2.5 -46.5t-2.5 -46.5q-1 -59 -1.5 -117t1.5 -118
q2 -21 3.5 -41.5t6.5 -35.5q5 -22 23.5 -38t40.5 -14q28 1 44 24.5t24 54t10 62t2 48.5q0 20 -1.5 40.5t-0.5 42.5q0 22 2 46t1 50q-1 35 -2 69t-1 63l-1 26q0 39 -1 70.5t2 57.5q-8 0 -15.5 0.5t-10.5 2.5q-6 3 -8.5 8.5t-2 11.5t3 10.5t7.5 5.5q13 2 24.5 1.5t22.5 -2
t22.5 -3t23.5 -0.5q9 1 13 -3.5t4 -11t-3 -12.5t-9 -8q-5 -2 -11 -3t-12 -1q-2 -27 -1 -58t0 -61q-1 -14 0.5 -37t0.5 -37z" />
    <glyph glyph-name="v" unicode="v" 
d="M104 685q-9 2 -17 0q7 -25 11 -56.5t9 -69.5q1 -6 1.5 -12.5t2.5 -13.5q4 -29 8 -63.5t9 -70.5q3 -26 8.5 -49.5t9.5 -45.5t6 -43t5 -41q1 -5 2 -21.5t2 -35.5t2 -35t2 -21q4 29 6.5 55.5t4.5 52.5t5 53.5t8 57.5q8 45 15.5 88.5t13.5 85.5q7 48 12 92.5t12 91.5
q-8 1 -15.5 1.5t-15.5 -0.5q-9 0 -13 4.5t-4.5 11t2.5 12.5t9 8q11 5 27.5 4t22.5 -2q8 -1 25 -2t24 -3q6 -3 8.5 -8.5t2 -11.5t-3.5 -11t-8 -6t-9 -1h-9q-5 -48 -11.5 -92.5t-14.5 -92.5q-3 -20 -5 -40.5t-5 -42.5q-4 -23 -10 -46.5t-9 -49.5q-5 -35 -9 -70t-8 -64
q-1 -7 -1.5 -13t-2.5 -13q-6 -44 -10.5 -78t-13.5 -61q-3 -9 -10 -13q-4 -4 -12 -4q-11 -1 -19.5 7.5t-3.5 25.5q-7 47 -12 91t-12 92q-6 41 -13.5 85t-15.5 88q-4 21 -9.5 46.5t-9.5 46.5q-2 14 -5 37.5t-5 36.5q-5 32 -9.5 64t-10.5 60q-7 -1 -13 -0.5t-13 1.5q-5 1 -8 6
t-3 11t2.5 11.5t7.5 8.5q7 2 24 3t25 2q6 1 22.5 2t27.5 -4q6 -2 9 -8t2.5 -12.5t-4.5 -11t-13 -4.5z" />
    <glyph glyph-name="w" unicode="w" horiz-adv-x="504" 
d="M104 683q-9 1 -17 0q7 -24 11 -54.5t9 -68.5q1 -7 1.5 -13t2.5 -13q4 -28 8 -62t9 -69q3 -25 8.5 -48.5t9.5 -44.5q4 -22 6 -48.5t5 -45.5q1 -5 1.5 -22t1.5 -36t1.5 -36t1.5 -22q11 78 20.5 153t20.5 152q1 10 9.5 16.5t18 7t17 -5.5t8.5 -20q1 -17 4.5 -41t8 -50.5
t9 -51.5t7.5 -44q1 -5 1.5 -22t1.5 -36t1.5 -36t1.5 -22q14 103 27 201t28 200q7 48 12 91.5t12 89.5q-8 1 -15.5 1.5t-15.5 -0.5q-9 0 -13 4.5t-4.5 10.5t2.5 12t9 8q11 5 27.5 4t22.5 -2q8 -1 25 -2t24 -3q11 -5 10.5 -19.5t-11.5 -16.5q-5 -1 -9 -1.5t-9 -0.5
q-5 -47 -11.5 -90t-14.5 -90q-3 -20 -5 -40t-6 -41q-3 -23 -9 -46t-9 -48q-5 -35 -9 -75t-8 -69q-1 -6 -2 -12.5t-2 -12.5q-6 -43 -10.5 -76.5t-13.5 -59.5q-3 -9 -10 -13q-4 -4 -12 -4q-11 -1 -19.5 7t-4.5 25q-6 46 -11 89t-12 90q-4 23 -7.5 49.5t-8.5 54.5
q-5 -35 -8.5 -72.5t-7.5 -64.5q-1 -6 -2 -12.5t-2 -12.5q-6 -43 -10.5 -76.5t-13.5 -59.5q-3 -9 -10 -13q-4 -4 -12 -4q-11 -1 -19.5 7t-3.5 25q-7 46 -12 89t-12 90q-6 41 -13.5 90t-15.5 92q-3 20 -9 45t-10 46q-2 14 -5 37t-5 36q-5 30 -9.5 61.5t-10.5 59.5
q-14 -2 -26 1q-11 2 -11.5 16.5t10.5 19.5q7 2 24 3t25 2q6 1 22.5 2t27.5 -4q6 -2 9 -8t2.5 -12t-4.5 -10.5t-13 -4.5z" />
    <glyph glyph-name="x" unicode="x" horiz-adv-x="368" 
d="M259 44q15 2 30 -1q6 -1 10 -6t6 -11t0.5 -11.5t-6.5 -7.5q-3 -2 -9 -2.5t-13.5 -1t-14 -1t-10.5 -0.5q-6 -1 -22 -2t-28 4q-6 2 -11 8t-6.5 12t1.5 10.5t12 4.5q10 -1 20 0q-13 47 -23 90.5t-22 91.5q-9 31 -18 66q-6 -25 -12 -48.5t-11 -44.5q-2 -6 -3.5 -12.5
t-3.5 -13.5q-10 -38 -17.5 -69.5t-17.5 -57.5q8 -1 15 -1.5t10 -2.5q5 -2 6.5 -7.5t-0.5 -11.5t-6 -10.5t-9 -5.5q-14 -2 -25 -1.5t-22 2l-22 3t-23 0.5q-9 -1 -12 3.5t-1.5 11t6.5 12.5t11 8q10 3 24 3q9 28 17 59t16 61q5 13 10 36.5t9 37.5q6 21 15 46.5t15 45.5
q2 8 4.5 16t4.5 16q-2 8 -4.5 16t-4.5 16q-6 21 -15 46.5t-15 46.5q-4 14 -9 37t-10 37q-8 30 -16 61t-17 58q-6 0 -12.5 1t-11.5 3q-6 2 -10 8.5t-4 13.5t4 12t13 4q25 -2 44 0.5t46 -2.5q11 -2 11.5 -14.5t-9.5 -17.5q-7 -4 -23 -5q10 -26 17.5 -57t17.5 -70
q2 -6 3.5 -12.5t3.5 -13.5q11 -41 23 -92q5 17 9 33t9 32q12 48 22 92t23 91h-16q-9 -1 -13 4t-4.5 11.5t3 12.5t9.5 9q2 0 13.5 0.5t26 0.5h30h24.5q10 0 13.5 -6t2 -13.5t-5.5 -14t-8 -7.5q-8 -1 -17.5 -2t-16.5 0q-10 -45 -21 -87.5t-24 -88.5q-5 -20 -9.5 -40.5
t-10.5 -41.5q-4 -14 -9.5 -29.5t-10.5 -31.5q5 -16 10.5 -31t9.5 -29q6 -22 10.5 -42.5t9.5 -40.5q13 -46 24 -88t21 -87z" />
    <glyph glyph-name="y" unicode="y" horiz-adv-x="361" 
d="M170 221q1 -48 2.5 -92t2.5 -90q9 -1 19 0q9 0 13 -4.5t4.5 -10.5t-2.5 -12t-9 -8q-11 -5 -27.5 -4t-22.5 2q-8 1 -25 1.5t-24 3.5q-6 2 -8.5 7.5t-2 11.5t3.5 11t8 6q13 3 30 1q-3 45 -3 87v88q0 17 -1 35.5t-1 37.5l2 -6l-9 32q-13 44 -22 89t-17.5 90.5t-18.5 91
t-25 91.5q-6 0 -12.5 1t-11.5 3q-6 2 -9.5 8.5t-3.5 13.5t4.5 12t13.5 4q12 -1 21.5 0t18.5 2t19 1t23 -2q6 -1 8.5 -6.5t3 -11.5t-2 -12t-7.5 -8q-3 -2 -6 -1.5t-11 -0.5q11 -58 18.5 -99t14.5 -76t14.5 -69t18.5 -77q9 32 16 72t13.5 83t14 86.5t17.5 82.5h-9
q-9 -1 -13.5 3.5t-5 11t3 12.5t9.5 8q12 5 28 4t22 -2q4 0 10.5 -0.5t14 -1.5t13.5 -2t9 -2q10 -5 5.5 -19t-15.5 -16q-8 -2 -15.5 -2h-14.5q-9 -41 -19 -94.5t-20.5 -108.5t-22 -105.5t-22.5 -85.5v-65z" />
    <glyph glyph-name="z" unicode="z" horiz-adv-x="295" 
d="M5 52q11 46 25 96.5t30 102.5t32 103t30 98q13 42 22 78.5t21 76.5q5 17 7 36.5t9 38.5q-3 0 -17 0.5t-32.5 1t-38 0.5h-34.5q-1 -8 -2 -15t1 -15q1 -6 -3.5 -8.5t-10.5 -2.5t-12.5 2t-9.5 5q-5 8 -5.5 18t0.5 14v16t2 15q2 3 5 5q2 2 3.5 2.5t3.5 1.5q13 2 39.5 1.5
t55.5 -2.5t55 -3.5t38 -0.5q10 1 13 -4.5t2 -13.5t-4 -16.5t-4 -13.5q-5 -19 -9.5 -33t-8.5 -27t-8.5 -27.5t-10.5 -33.5q-4 -12 -8 -29.5t-8.5 -36.5t-9 -36t-8.5 -29q-16 -49 -32.5 -102t-30.5 -103q-14 -45 -24 -85t-21 -89q1 0 15 -0.5t33.5 -0.5h40.5h38l2 16t-1 16
q-2 6 2.5 8.5t11 2.5t13 -2t9.5 -6q5 -7 5.5 -17t-0.5 -14v-15q3 -7 -1 -15q-1 -1 -1 -2h-1q-2 -6 -9 -8q-2 -1 -27.5 -1h-58t-62 0.5t-38.5 0.5q-10 0 -13.5 6t-4 14t1 16.5t3.5 14.5z" />
    <glyph glyph-name="braceleft" unicode="{" horiz-adv-x="250" 
d="M107 694q-17 -48 -18 -96t-0.5 -92.5t-4.5 -85t-31 -73.5q14 -18 24 -38t12 -42q4 -45 3.5 -88.5t5.5 -94.5q3 -30 9 -62.5t28 -55.5q5 -5 10 -10.5t13 -5.5q13 -1 19.5 -7.5t6 -14t-7 -13.5t-17.5 -5q-35 3 -61 31t-32 71q-5 34 -7.5 65t-4 61l-3 60t-4.5 62
q-1 13 -4 24.5t-10 19.5q-11 12 -21 21t-11 20q-1 13 8.5 22t20.5 20q6 5 9 26t5 50.5t3 64.5t3.5 69t6.5 64t11 50q16 46 52 70q7 5 14 8.5t15 5.5q20 4 29.5 -1t11 -13t-3.5 -16.5t-14 -11.5q-13 -5 -22 -7t-16 -7t-13.5 -15t-13.5 -30z" />
    <glyph glyph-name="bar" unicode="|" horiz-adv-x="101" 
d="M6 -46q-1 25 -1.5 60.5t-0.5 72.5v72v60q0 20 -1 41t-1 42q0 23 2 47t1 50q-1 35 -1.5 70t-1.5 64v26q0 22 -0.5 53.5t-0.5 63t0.5 58.5t2.5 41q1 11 7 16.5t13 4.5t12 -8t4 -21t-1 -41.5v-58.5v-59v-44q-1 -14 0 -37.5t0 -37.5q0 -21 -1 -47t-2 -47q0 -44 -1 -88t0 -86
q0 -25 0.5 -60.5t1 -73t1 -73t0.5 -60.5q0 -11 -4.5 -18t-10.5 -8t-11 5t-6 21z" />
    <glyph glyph-name="braceright" unicode="}" horiz-adv-x="251" 
d="M83 13q18 48 19 95.5t0.5 92.5t4.5 85.5t31 73.5q-14 18 -24 38t-12 42q-4 45 -3.5 88.5t-5.5 94.5q-4 30 -10 62t-27 55q-5 6 -10 11.5t-13 5.5q-14 0 -20 7t-5.5 14.5t6.5 13.5t18 5q34 -3 60 -31t33 -71q10 -68 11.5 -126t6.5 -122q2 -14 5 -25t10 -19
q10 -12 20 -21.5t12 -20.5q1 -12 -8.5 -21t-20.5 -20q-9 -9 -12 -49.5t-5 -92t-6 -102.5t-15 -81q-8 -21 -21 -39t-32 -30q-15 -11 -29 -14q-20 -4 -29 1t-10.5 13t3.5 16.5t14 11.5q13 4 22 6.5t16 7.5t13 15t13 30z" />
    <glyph glyph-name="cent" unicode="&#xa2;" horiz-adv-x="302" 
d="M68 561q-9 -21 -15.5 -57.5t-9.5 -80.5t-2 -91.5t7 -90.5t17.5 -76.5t29.5 -50.5q3 -3 6.5 -5.5t7.5 -4.5q0 22 0.5 44t0.5 45q-1 23 -1.5 46.5t-0.5 47.5q0 26 2 53t1 56q-1 41 -2 80t-1 71v30v26l-4 -2q-25 -14 -36 -40zM148 582v-19v-23t0.5 -23t0.5 -19
q-1 -24 -2.5 -53t-1.5 -53q-1 -50 -1.5 -100t-0.5 -97q1 -24 1 -48t1 -47q15 7 24 17q14 17 20 32.5t9 35.5q2 8 8.5 12.5t15.5 3.5q9 -2 14.5 -8t4.5 -14q-4 -26 -10 -47t-28 -38q-14 -11 -28.5 -17.5t-28.5 -8.5q0 -23 0.5 -45.5t0.5 -45.5q0 -12 -5 -20t-11.5 -9t-12 6
t-6.5 24q-1 23 -1.5 45.5t-0.5 45.5q-35 6 -60 33q-16 18 -26.5 54.5t-16 82t-6.5 96t2 97t9.5 84.5t15.5 59q16 38 53 58q6 4 12.5 6.5t13.5 4.5q-1 52 3 91q1 12 8 18t14 5t12.5 -8.5t4.5 -23.5q-2 -18 -1.5 -38t0.5 -41q6 0 9 -1q35 -7 57 -36q13 -17 18 -36.5t6 -39.5
q1 -8 -5.5 -13.5t-14.5 -5.5q-9 0 -15.5 5t-6.5 13q-1 10 -3.5 22.5t-7.5 23.5t-14 19t-22 11h-1v-27z" />
    <glyph glyph-name="sterling" unicode="&#xa3;" horiz-adv-x="306" 
d="M54 44q-2 45 -2 87t-1 88q0 20 -1 40.5t-1 41.5q0 5 0.5 9.5t0.5 9.5h-33q-7 0 -11 6t-5 13t3 13t13 7t18 1t18 1v36q-1 35 -2 69.5t-1 63.5q0 22 1.5 55.5t11 65t31 53t60.5 20.5q20 -1 33.5 -13t21.5 -28q12 -24 15 -54t2 -56q0 -11 -6 -16t-13.5 -4.5t-13.5 6t-6 15.5
q1 21 -1 48t-12 47q-3 6 -8.5 13t-13.5 7q-11 1 -21 -7t-15 -16q-6 -9 -9.5 -28t-6 -44.5t-3.5 -54.5t-1.5 -56.5t-0.5 -51v-37.5q-1 -8 -1 -16.5v-16.5q10 0 20 -0.5t21 -0.5q12 0 25 0.5t26 0.5q12 0 17.5 -6.5t5 -14t-6.5 -14t-18 -6.5q-13 0 -24.5 1t-23.5 1h-21.5
t-21.5 -1q0 -26 -0.5 -51t-0.5 -49q1 -48 2.5 -92t2.5 -91h33t69 1v21.5t5 21.5q2 3 7.5 4.5t12.5 1t12.5 -3t7.5 -6.5q2 -5 0.5 -16.5t-1.5 -17.5v-7t-1 -11q0 -6 -3 -12.5t-9 -9.5q-6 -2 -30 -3t-51 -1t-50 0.5t-26 0.5q-12 2 -17.5 7t-6 11t1 12.5t3.5 12.5z" />
    <glyph glyph-name="yen" unicode="&#xa5;" horiz-adv-x="361" 
d="M170 269h15q15 -1 31.5 -0.5t33.5 0.5q14 0 21 -5.5t6 -12.5t-8.5 -12.5t-22.5 -5.5t-30 0.5t-29 0.5h-17v-13q1 -48 2.5 -92t2.5 -90q9 -2 19 0q9 0 13 -4.5t4.5 -10.5t-2.5 -12t-9 -8q-11 -5 -27.5 -4t-22.5 2q-8 1 -25 1.5t-24 3.5q-5 2 -7.5 7.5t-2.5 11.5t3 11t8 6
q13 3 30 1q-3 45 -3 87v88v14q-23 0 -45.5 -0.5t-45.5 -0.5q-9 0 -14.5 5.5t-6 12t4 12t16.5 6.5q23 1 45 1.5t45 -0.5q-1 6 -1 12v11l2 -6l-2 8q-23 -1 -44.5 -1.5t-44.5 -0.5q-9 0 -14.5 5.5t-6 12t4 12t16.5 6.5q20 1 39.5 1.5t39.5 0.5q-12 42 -20.5 85.5t-16.5 87.5
t-18 88.5t-25 88.5q-6 0 -12.5 1t-11.5 3q-6 2 -9.5 8.5t-3.5 13.5t4.5 12t13.5 4q12 -1 21.5 0t18.5 2t19 1t23 -2q6 -1 8.5 -6.5t3 -11.5t-2 -12t-7.5 -8q-3 -2 -6 -1.5t-11 -0.5q11 -58 18.5 -99t14.5 -76t14.5 -69t18.5 -77q9 32 16 72t13.5 83t14 86.5t17.5 82.5h-9
q-9 -1 -13.5 3.5t-5 11t3 12.5t9.5 8q12 5 28 4t22 -2q4 0 10.5 -0.5t14 -1.5t13.5 -2t9 -2q5 -2 6.5 -7.5t-0.5 -11.5t-6 -10.5t-10 -5.5q-8 -2 -15.5 -2h-14.5q-8 -35 -16.5 -80t-17.5 -92.5t-18.5 -94t-19.5 -84.5h3q15 0 31.5 0.5t33.5 0.5q14 0 21 -6t6 -12.5
t-8.5 -12.5t-22.5 -6t-30 0.5t-29 0.5h-14q-1 -2 -3 -8v-17z" />
    <glyph glyph-name="Agrave" unicode="&#xc0;" 
d="M104 39q9 1 13 -3.5t4.5 -11t-2.5 -12.5t-9 -8q-11 -5 -27.5 -4t-22.5 2q-8 1 -25 2t-24 3q-11 5 -10.5 19.5t11.5 16.5q15 3 26 2q6 28 10.5 60t9.5 63q2 14 5 37.5t5 37.5q4 21 10 46t9 46q8 44 15.5 88t13.5 85q7 48 12 92t12 91q-5 17 3.5 25t19.5 8q8 0 12 -4
q7 -4 10 -14q9 -26 13.5 -60.5t10.5 -77.5q1 -7 2 -13.5t2 -12.5q4 -29 8 -64t9 -70q3 -26 9 -49.5t9 -46.5q4 -21 6 -42t5 -41q8 -48 14.5 -92t11.5 -92h9t9 -2q11 -2 11.5 -16.5t-10.5 -19.5q-7 -2 -24 -3t-25 -2q-6 -1 -22.5 -2t-27.5 4q-6 2 -9 8t-2.5 12.5t4.5 11
t13 3.5q8 -1 15.5 0t15.5 2q-7 47 -12 91.5t-12 92.5q-1 4 -1 8t-1 9q-18 -1 -43 -1.5t-56 -0.5q-2 -13 -3 -25.5t-3 -23.5q-2 -6 -2.5 -12.5t-1.5 -13.5q-5 -38 -9 -69t-11 -57h17zM103 817q1 17 15 24.5t24 1.5q7 -5 13 -16.5t10.5 -24t7 -24.5t2.5 -16q1 -19 -7.5 -16
t-18.5 13q-4 4 -11.5 12t-15 16.5t-13.5 16.5t-6 13zM121 273q26 0 49.5 -0.5t40.5 -1.5q-5 32 -10.5 63.5t-11.5 63.5q-10 59 -14.5 109t-11.5 108q-1 -5 -1.5 -21t-1.5 -34.5t-1.5 -34.5t-1.5 -21q-3 -20 -5 -41t-6 -42q-4 -23 -9.5 -46.5t-8.5 -49.5q-2 -13 -3.5 -26
t-3.5 -26z" />
    <glyph glyph-name="Aacute" unicode="&#xc1;" 
d="M104 39h-17q7 26 11 57t9 69q1 7 1.5 13.5t2.5 12.5q2 11 3 23.5t3 25.5q31 0 56 0.5t43 1.5q1 -5 1 -9t1 -8q7 -48 12 -92.5t12 -91.5q-8 -1 -15.5 -2t-15.5 0q-9 1 -13 -3.5t-4.5 -11t2.5 -12.5t9 -8q11 -5 27.5 -4t22.5 2q8 1 25 2t24 3q11 5 10.5 19.5t-11.5 16.5
q-5 2 -9 2h-9q-5 48 -11.5 92t-14.5 92q-3 20 -5 41t-6 42q-3 23 -9 46.5t-9 49.5q-5 35 -9 70t-8 64q-1 6 -2 12.5t-2 13.5q-6 43 -10.5 77.5t-13.5 60.5q-3 10 -10 14q-4 4 -12 4q-11 0 -19.5 -8t-3.5 -25q-7 -47 -12 -91t-12 -92q-6 -41 -13.5 -85t-15.5 -88
q-3 -21 -9 -46t-10 -46q-2 -14 -5 -37.5t-5 -37.5q-5 -31 -9.5 -63t-10.5 -60q-11 1 -26 -2q-11 -2 -11.5 -16.5t10.5 -19.5q7 -2 24 -3t25 -2q6 -1 22.5 -2t27.5 4q6 2 9 8t2.5 12.5t-4.5 11t-13 3.5zM213 817q0 -5 -5.5 -13t-13 -16.5t-15.5 -16.5l-12 -12q-5 -5 -10 -8.5
t-8.5 -4t-6 3t-1.5 12.5q0 4 2.5 16t7 24.5t10 24t13.5 16.5q10 6 24 -1.5t15 -24.5zM121 273q2 13 3.5 26t3.5 26q3 26 8.5 49.5t9.5 46.5q4 21 6 42t5 41q1 5 1.5 21t1.5 34.5t1.5 34.5t1.5 21q7 -58 11.5 -108t14.5 -109q6 -32 11.5 -63.5t10.5 -63.5q-17 1 -40.5 1.5
t-49.5 0.5z" />
    <glyph glyph-name="Acircumflex" unicode="&#xc2;" 
d="M104 39q9 1 13 -3.5t4.5 -11t-2.5 -12.5t-9 -8q-11 -5 -27.5 -4t-22.5 2q-8 1 -25 1.5t-24 3.5q-5 3 -7.5 8.5t-2.5 11.5t3 11t8 6q7 1 13.5 1.5t12.5 -0.5q6 28 10.5 60t9.5 63q1 7 2.5 17t2.5 20.5t2.5 20.5t2.5 17q4 21 10 46t9 46q8 44 15.5 88t13.5 85q7 48 12 92
t12 91q-5 17 3.5 25t19.5 8q8 0 12 -4q7 -4 10 -14q9 -26 13.5 -60.5t10.5 -77.5q1 -7 2 -13.5t2 -12.5q4 -29 8 -64t9 -70q3 -26 9 -49.5t9 -46.5q4 -21 6 -42t5 -41q8 -48 14.5 -92t11.5 -92h9t9 -1t8 -6t3 -11t-2.5 -11.5t-7.5 -8.5q-7 -3 -24 -3.5t-25 -1.5
q-6 -1 -22.5 -2t-27.5 4q-6 2 -9 8t-2.5 12.5t4.5 11t13 3.5h15.5t15.5 2q-7 47 -12 91.5t-12 92.5q-1 4 -1 8t-1 9q-18 -1 -43 -1.5t-56 -0.5q-2 -13 -3 -25.5t-3 -23.5q-2 -7 -2.5 -13t-1.5 -13q-5 -38 -9 -69t-11 -57h17zM165 799q-6 -7 -13 -17t-13.5 -19t-11.5 -16
t-7 -8q-6 -5 -11.5 -1t-4.5 11q1 8 6 19.5t12 23.5t15 21.5t16 14.5q5 4 12 4t12 -4q7 -5 15.5 -14.5t15.5 -21.5t12 -23.5t6 -19.5q2 -7 -4 -11t-12 1q-2 1 -7 8t-11.5 16t-13.5 19t-13 17zM121 274q26 -1 49.5 -1.5t40.5 -1.5q-5 32 -10.5 63.5t-11.5 63.5
q-10 59 -14.5 109t-11.5 108q-1 -5 -1.5 -21t-1.5 -34.5t-1.5 -34.5t-1.5 -21q-3 -20 -5 -41t-6 -42q-4 -23 -9.5 -46.5t-8.5 -49.5q-2 -13 -3.5 -26t-3.5 -25z" />
    <glyph glyph-name="Atilde" unicode="&#xc3;" 
d="M104 39h-17q7 26 11 57t9 69q1 7 1.5 13.5t2.5 13.5q2 11 3 23t3 25q31 0 56 0.5t43 1.5q1 -5 1 -9t1 -8q7 -48 12 -92.5t12 -91.5q-8 -1 -15.5 -2t-15.5 0q-9 1 -13 -3.5t-4.5 -11t2.5 -12.5t9 -8q11 -5 27.5 -4t22.5 2q8 1 25 2t24 3q11 5 10.5 19.5t-11.5 16.5
q-5 2 -9 2h-9q-5 48 -11.5 92t-14.5 92q-3 20 -5 41t-6 43q-3 22 -9 45.5t-9 49.5q-5 35 -9 70t-8 64q-1 6 -2 12.5t-2 13.5q-6 44 -10.5 78t-13.5 60q-3 10 -10 14q-4 4 -12 4q-11 0 -19.5 -8t-3.5 -25q-7 -47 -12 -91t-12 -92q-6 -41 -13.5 -85t-15.5 -88q-3 -21 -9 -46
t-10 -46q-2 -14 -5 -37.5t-5 -37.5q-5 -31 -9.5 -63t-10.5 -60q-11 1 -26 -2q-11 -2 -11.5 -16.5t10.5 -19.5q7 -2 24 -3t25 -2q6 -1 22.5 -2t27.5 4q6 2 9 8t2.5 12.5t-4.5 11t-13 3.5zM216 783q6 4 10.5 3t5.5 -5t-1 -10t-8 -11q-20 -18 -35.5 -16.5t-28.5 8t-25.5 11
t-27.5 -7.5q-4 -3 -9 -3t-8 2.5t-3 7t5 10.5q14 17 25.5 22t22 3t19.5 -7.5t18 -10t18.5 -5t21.5 8.5zM121 273q2 13 3.5 26t3.5 26q3 26 8.5 49.5t9.5 46.5q4 21 6 42t5 41q1 5 1.5 21t1.5 34.5t1.5 34.5t1.5 21q8 -57 12 -107t14 -110q6 -32 11.5 -63.5t10.5 -63.5
q-17 1 -40.5 1.5t-49.5 0.5z" />
    <glyph glyph-name="Adieresis" unicode="&#xc4;" 
d="M104 39h-17q7 26 11 57t9 69q1 7 1.5 13t2.5 13q2 11 3 23.5t3 25.5q31 0 56 0.5t43 1.5q1 -5 1 -9t1 -8q7 -48 12 -92.5t12 -91.5q-8 -2 -15.5 -2h-15.5q-9 1 -13 -3.5t-4.5 -11t2.5 -12.5t9 -8q11 -5 27.5 -4t22.5 2q8 1 25 1.5t24 3.5q5 3 7.5 8.5t2.5 11.5t-3 11
t-8 6t-9 1h-9q-5 48 -11.5 92t-14.5 92q-3 20 -5 41t-6 42q-3 23 -9 46.5t-9 49.5q-5 35 -9 70t-8 64q-1 6 -2 12.5t-2 13.5q-6 43 -10.5 77.5t-13.5 60.5q-3 10 -10 14q-4 4 -12 4q-11 0 -19.5 -8t-3.5 -25q-7 -47 -12 -91t-12 -92q-6 -41 -13.5 -85t-15.5 -88
q-3 -21 -9 -46t-10 -46q-1 -7 -2.5 -17t-2.5 -20.5t-2.5 -20.5t-2.5 -17q-5 -31 -9.5 -63t-10.5 -60q-6 1 -12.5 0.5t-13.5 -1.5q-5 -1 -8 -6t-3 -11t2.5 -11.5t7.5 -8.5q7 -3 24 -3.5t25 -1.5q6 -1 22.5 -2t27.5 4q6 2 9 8t2.5 12.5t-4.5 11t-13 3.5zM129 800
q12 0 19.5 -8.5t6.5 -19.5t-10 -19t-20 -8t-19 8t-7 19q2 11 10.5 19.5t19.5 8.5zM207 800q12 0 19.5 -8.5t6.5 -19.5t-9.5 -19t-20.5 -8q-11 0 -19 8t-6 19q1 11 9.5 19.5t19.5 8.5zM121 274q2 12 3.5 25t3.5 26q3 26 8.5 49.5t9.5 46.5q4 21 6 42t5 41q1 5 1.5 21
t1.5 34.5t1.5 34.5t1.5 21q7 -58 11.5 -108t14.5 -109q6 -32 11.5 -63.5t10.5 -63.5q-17 1 -40.5 1.5t-49.5 1.5z" />
    <glyph glyph-name="Aring" unicode="&#xc5;" 
d="M303 44q5 -1 8 -6t3 -11t-2.5 -11.5t-7.5 -8.5q-7 -3 -24 -3.5t-25 -1.5q-6 -1 -22.5 -2t-27.5 4q-6 2 -9 8t-2.5 12.5t4.5 11t13 3.5h15.5t15.5 2q-7 47 -12 91.5t-12 92.5q-1 4 -1 8t-1 9q-18 -1 -43 -1.5t-56 -0.5q-2 -13 -3 -25.5t-3 -23.5q-2 -7 -2.5 -13t-1.5 -13
q-5 -38 -9 -69t-11 -57h17q9 1 13 -3.5t4.5 -11t-2.5 -12.5t-9 -8q-11 -5 -27.5 -4t-22.5 2q-8 1 -25 1.5t-24 3.5q-5 3 -7.5 8.5t-2.5 11.5t3 11t8 6q7 1 13.5 1.5t12.5 -0.5q6 28 10.5 60t9.5 63q1 7 2.5 17t2.5 20.5t2.5 20.5t2.5 17q4 21 10 46t9 46q8 44 15.5 88
t13.5 85q7 48 12 92t12 91q-5 17 3.5 25t19.5 8q8 0 12 -4q7 -4 10 -14q9 -26 13.5 -60.5t10.5 -77.5q1 -7 2 -13.5t2 -12.5q4 -29 8 -64t9 -70q3 -26 9 -49.5t9 -46.5q4 -21 6 -42t5 -41q8 -48 14.5 -92t11.5 -92h9t9 -1zM121 274q26 -1 49.5 -1.5t40.5 -1.5
q-5 32 -10.5 63.5t-11.5 63.5q-10 59 -14.5 109t-11.5 108q-1 -5 -1.5 -21t-1.5 -34.5t-1.5 -34.5t-1.5 -21q-3 -20 -5 -41t-6 -42q-4 -23 -9.5 -46.5t-8.5 -49.5q-2 -13 -3.5 -26t-3.5 -25zM161 736q-22 0 -36.5 15t-12.5 37t18.5 37t38.5 15q21 0 35.5 -15t12.5 -37
t-18 -37t-38 -15zM167 817q-13 0 -19 -9t-6 -19.5t5 -19.5t16 -9q10 0 16.5 9t8 19.5t-3 19.5t-17.5 9z" />
    <glyph glyph-name="Ccedilla" unicode="&#xc7;" horiz-adv-x="302" 
d="M46 291q-1 -33 -0.5 -53t1 -32t1.5 -18.5t2.5 -13.5t3.5 -16.5t5 -26.5q3 -25 9 -51.5t27 -46.5q8 -6 16.5 -10.5t19.5 -4.5q12 -1 21.5 4.5t17.5 13.5q14 17 20 32.5t9 35.5q1 8 8 12.5t15 3.5q9 -2 14.5 -8t4.5 -14q-4 -26 -9.5 -47t-28.5 -38q-26 -21 -56 -26v-1
q-9 -11 -7.5 -19.5t7 -16.5t12.5 -15.5t10 -16t-1.5 -19.5t-21.5 -25q-6 -5 -11.5 -5.5t-8.5 2.5t-3.5 7t2.5 8q12 13 6.5 24t-14 22t-12 24t11.5 31q-33 5 -58.5 27t-31.5 57q-5 25 -7.5 40t-4.5 28t-3.5 27t-3.5 38q-3 34 -4.5 72t-2 77t-0.5 77t2 71q2 35 6.5 76.5
t19.5 74.5q8 18 21 33t32 25q17 9 36 13t39 0q36 -8 57 -36q13 -17 18 -36.5t7 -39.5q0 -8 -6 -13.5t-15 -5.5q-8 0 -15 5t-7 13q0 10 -2.5 22.5t-8 23.5t-14.5 19t-22 11q-11 2 -22.5 -0.5t-21.5 -7.5q-13 -7 -22 -17.5t-15 -22.5q-12 -27 -16.5 -41.5t-5.5 -27t-0.5 -28
t-0.5 -43.5q-2 -51 0 -103t1 -104z" />
    <glyph glyph-name="Egrave" unicode="&#xc8;" horiz-adv-x="328" 
d="M89 44q1 0 12 -1t27.5 -2t36 -1.5t37.5 -0.5v21t5 22q2 3 7.5 4.5t12.5 1t12.5 -3t7.5 -6.5q2 -5 0.5 -16.5t-1.5 -17.5v-7t-1 -11q0 -7 -3 -13.5t-9 -8.5t-32.5 -3t-56.5 -1t-55.5 0.5t-28.5 0.5q-8 1 -25 2t-24 3q-5 3 -7.5 8.5t-2.5 11.5t3 10.5t8 5.5q13 3 30 1
q-2 41 -2.5 78t-0.5 77h1q0 29 1 62t2 67q1 26 -1 49.5t-3 46.5q0 21 1 41.5t1 40.5q1 46 1 88t2 87h-15t-15 2q-11 2 -11 16t11 19q3 1 9.5 2t14 2t14.5 1.5t11 0.5q2 0 15.5 0.5t33.5 0.5h43t43 -0.5t35 -1.5t19 -2q6 -2 9.5 -8.5t2.5 -13.5q1 -6 1 -11v-7q1 -6 2 -17.5
t-1 -16.5q-2 -4 -7.5 -6.5t-12 -3t-12.5 1t-7 4.5q-6 11 -6 21.5v21.5q-20 0 -42.5 0.5t-42.5 0.5h-33.5h-15.5q-1 -47 -2.5 -91t-2.5 -92q0 -37 0.5 -65.5t1.5 -68.5q17 2 36.5 0t30.5 -2q15 0 26.5 -1.5t13.5 -1.5q4 0 5.5 -3.5t2 -9t-1 -10.5t-3.5 -7t-13.5 -3t-28.5 -1
q-20 -1 -39.5 -0.5t-21.5 1.5q-4 0 -6 1q1 -9 1.5 -22t1 -26.5t1 -25.5t0.5 -20q0 -7 -0.5 -17t-0.5 -20.5v-20.5v-16q1 -30 0 -61t1 -59zM75 817q0 16 14 24t25 2q7 -5 13 -16.5t10.5 -24t7 -24.5t2.5 -16q1 -10 -1.5 -13.5t-6.5 -3t-9 4t-9 8.5l-12 12t-15.5 16.5t-13 17
t-5.5 13.5z" />
    <glyph glyph-name="Eacute" unicode="&#xc9;" horiz-adv-x="328" 
d="M89 44q-2 28 -1 59t0 61v16v20.5t0.5 20.5t0.5 17q0 8 -0.5 20t-1 25.5t-1 26.5t-1.5 22q2 -1 6 -1q2 -1 21.5 -1.5t39.5 0.5q17 0 28.5 1t13.5 3t3.5 7t1 10.5t-2 9t-5.5 3.5q-2 0 -13.5 1.5t-26.5 1.5q-11 0 -30.5 2t-36.5 0q-1 40 -1.5 68.5t-0.5 65.5q1 48 2.5 92
t2.5 91h15.5h33.5t42.5 -0.5t42.5 -0.5v-21.5t6 -21.5q1 -3 7 -4.5t12.5 -1t12 3t7.5 6.5q2 5 1 16.5t-2 17.5v7t-1 11q1 7 -2.5 13.5t-9.5 8.5q-4 1 -19 2t-35 1.5t-43 0.5h-43t-33.5 -0.5t-15.5 -0.5q-4 0 -11 -0.5t-14.5 -1.5t-14 -2t-9.5 -2q-11 -5 -11 -19t11 -16
q8 -2 15 -2h15q-2 -45 -2 -87t-1 -88q0 -20 -1 -40.5t-1 -41.5q1 -23 3 -46.5t1 -49.5q-1 -34 -2 -67t-1 -62h-1q0 -40 0.5 -77t2.5 -78q-17 2 -30 -1q-5 -1 -8 -5.5t-3 -10.5t2.5 -11.5t7.5 -8.5q7 -2 24 -3t25 -2q3 0 28.5 -0.5t55.5 -0.5t56.5 1t32.5 3t9 8.5t3 13.5
q1 6 1 11v7q0 6 1.5 17.5t-0.5 16.5q-2 4 -7.5 6.5t-12.5 3t-12.5 -1t-7.5 -4.5q-5 -12 -5 -22v-21q-18 0 -37.5 0.5t-36 1.5t-27.5 2t-12 1zM200 817q0 -5 -5.5 -13.5t-13 -17t-15.5 -16.5l-12 -12q-5 -5 -9.5 -8.5t-8.5 -4t-6.5 3t-1.5 13.5q0 4 2.5 16t7 24.5t10 24
t13.5 16.5q11 6 25 -2t14 -24z" />
    <glyph glyph-name="Ecircumflex" unicode="&#xca;" horiz-adv-x="328" 
d="M89 44q1 0 12 -1t27.5 -2t36 -1.5t37.5 -0.5v21t5 22q2 3 7.5 4.5t12.5 1t12.5 -3t7.5 -6.5q2 -5 0.5 -16.5t-1.5 -17.5v-7t-1 -11q0 -6 -3 -13t-9 -9t-32.5 -3t-56.5 -1t-55.5 0.5t-28.5 0.5q-8 1 -25 2t-24 3q-5 3 -7.5 8.5t-2.5 11.5t3 10.5t8 5.5q13 3 30 1
q-2 41 -2.5 78t-0.5 77h1q0 29 1 62t2 67q1 26 -1 49.5t-3 46.5q0 21 1 41.5t1 40.5q1 46 1 88t2 87h-15t-15 2q-11 2 -11 16t11 19q3 1 9.5 2t14 2t14.5 1.5t11 0.5q2 0 15.5 0.5t33.5 0.5h43t43 -0.5t35 -1.5t19 -2q6 -2 9.5 -9t2.5 -13q1 -6 1 -11v-7q1 -6 2 -17.5
t-1 -16.5q-2 -4 -7.5 -6.5t-12 -3t-12.5 1t-7 4.5q-6 11 -6 21.5v21.5q-20 0 -42.5 0.5t-42.5 0.5h-33.5h-15.5q-1 -47 -2.5 -91t-2.5 -92q0 -37 0.5 -65.5t1.5 -68.5q17 2 36.5 0t30.5 -2q15 0 26.5 -1.5t13.5 -1.5q4 0 5.5 -4t2 -9t-1 -10t-3.5 -7t-13.5 -3t-28.5 -1
q-20 -1 -39.5 -0.5t-21.5 1.5q-1 0 -2.5 0.5t-3.5 0.5q1 -9 1.5 -22t1 -26.5t1 -25.5t0.5 -20q0 -7 -0.5 -17t-0.5 -20.5v-20.5v-16q1 -30 0 -61t1 -59zM138 807q-6 -7 -13 -16.5t-13.5 -18.5t-11.5 -16t-7 -8q-6 -5 -12 -1.5t-4 11.5q1 8 6 19.5t12 23.5t15 21.5t16 14.5
q5 4 12 4t12 -4q7 -5 15.5 -15t15 -21.5t11.5 -23t7 -19.5q1 -8 -5 -11.5t-11 1.5q-2 1 -7.5 8t-12 16t-13 18.5t-12.5 16.5z" />
    <glyph glyph-name="Edieresis" unicode="&#xcb;" horiz-adv-x="328" 
d="M89 44q-2 28 -1 59t0 61q-1 13 0 36.5t1 37.5q0 8 -0.5 20t-1 25.5t-1 26.5t-1.5 22q2 -1 6 -1q2 0 21.5 -1t39.5 0q17 0 28.5 1t13.5 3t3.5 7.5t1 10.5t-2 9t-5.5 3q-2 0 -13.5 1.5t-26.5 1.5q-11 1 -30.5 2.5t-36.5 -0.5q-1 40 -1.5 68.5t-0.5 65.5q1 48 2.5 92t2.5 91
h15.5h33.5t42.5 -0.5t42.5 -0.5v-21t6 -22q1 -3 7 -4.5t12.5 -1t12 3t7.5 6.5q2 5 1 16.5t-2 17.5v7t-1 11q1 7 -2.5 13.5t-9.5 8.5q-4 1 -19 2t-35 1.5t-43 0.5h-43t-33.5 -0.5t-15.5 -0.5q-4 0 -11 -0.5t-14.5 -1t-14 -1.5t-9.5 -2q-6 -3 -8.5 -8.5t-2.5 -11.5t3 -10.5
t8 -5.5q14 -3 30 -1q-2 -45 -2 -87.5t-1 -88.5q0 -19 -1 -40t-1 -42q1 -23 3 -46.5t1 -49.5q-1 -34 -2 -67t-1 -62h-1q0 -40 0.5 -77t2.5 -77h-15t-15 -2q-11 -2 -11.5 -16t10.5 -19q7 -3 24 -4t25 -2q3 0 28.5 -0.5t55.5 -0.5t56.5 1t32.5 3t9 9t3 13q1 6 1 11v7
q0 6 1.5 17.5t-0.5 16.5q-2 4 -7.5 6.5t-12.5 3t-12.5 -1t-7.5 -4.5q-5 -11 -5 -21.5v-21.5q-18 0 -37.5 0.5t-36 1.5t-27.5 2t-12 1zM109 799q12 0 19.5 -8t6.5 -19t-9.5 -19.5t-20.5 -8.5q-11 0 -18.5 8.5t-6.5 19.5t9.5 19t19.5 8zM188 799q11 0 18.5 -8t6.5 -19
t-9.5 -19.5t-20.5 -8.5q-11 0 -18.5 8.5t-6.5 19.5t9.5 19t20.5 8z" />
    </font>
</defs>
</svg>
